<svg xmlns="http://www.w3.org/2000/svg" width="1024" height="1024">
  <path fill="#655560" d="M344.65 132.44c4.04-11.51 9.42-25.63 17.53-34.8 7.36-8.34 17.6-15.05 27.18-20.62 6.03-3.5 12.46-6.9 17.78-11.45 7.92-6.8 15.92-15.1 22.9-22.87 2.9-3.23 5.25-6.92 8.02-10.27 4.95-6 15.7-17.23 22.76-20.58 6.52-3.1 17.11-3.5 23.74-.83a24.01 24.01 0 0 1 12.92 13.23c3.19 8.15.5 15.8-.65 23.95 4.97.38 10.02-4 13.63-7.07 3.8-3.23 7.1-7 10.86-10.27 7.77-6.74 18.4-12.13 28.93-11.22 6.19.53 16.7 4.62 20.57 9.57 4.4 5.63 5.35 13.82 4.3 20.74-2.8 18.42-22.98 33.87-24.73 43.97 5.21 2.94 25.26-1.96 31.95-1.28 3.52.36 6.59 1.89 9.76 3.32 3 4.97 5.56 10.05 4.89 16-.21 1.88-.76 3.94-.35 5.79 2.68.53 13.5-2.87 16.35-3.78 4.79-1.52 9.34-3.65 14.04-5.4 13.03-4.87 30.47-11.07 43.94-13.3 33.98-5.64 61.63-.8 87.54 23.2 1.54 1.44 3.12 2.88 4.43 4.52 2.5 3.13 5.45 9.2 8.63 11.38 1.89 1.29 18.94-.04 22.4.1 3.66.16 7.57 1.25 11.16 2 17.11 3.56 31.17 10.77 41.17 25.63 11.84 17.6 12.72 41.2 14.25 61.62.51 6.76 1.36 13.5 1.69 20.27.4 8.53.22 17.12.35 25.67 0 1.06-.14 2.31.14 3.33.55 4.2-.2 9.27.85 13.22 3.08 11.5 12.89 22.49 19.54 32.25a372.71 372.71 0 0 1 16.16 25.47c7.68 13.54 15.04 28.77 19.6 43.65 2.12 6.88 3.4 13.92 4.9 20.94.93 4.33 2.29 8.66 2.9 13.04.94 6.65.89 13.81.96 20.54.1 9.23.21 18.9-1.06 28.05-4.03 28.99-17.59 59.8-35.36 82.98-26.26 34.25-50.48 46.79-88.05 64.9-11.48 5.52-22.8 11.45-34.36 16.83-10.7 4.98-26.97 10.25-35.94 17.29 9.18 7.8 19.82 14.36 28.33 22.88 18.34 18.38 30 52.9 32.03 78.32 1.9 23.75-11.64 59.98-27.2 77.95-2.17 2.5-5.57 5.03-7.26 7.79-1.02 1.66-.68 3.33-2.35 4.61l-.81-.99c-3.28 1.75-6.36 5.77-9.31 8.2a204.26 204.26 0 0 1-21.4 15.45c-5.9 3.65-12.38 6.5-18.55 9.66-7.75 3.96-14.58 7.96-22.87 10.84-3.05 1.06-6.1 1.73-8.36 4.12a5.51 5.51 0 0 1-2.08 1.48c.23-1.2.08-.63.43-1.69-3.07-.02-7.95 2.49-10.92 3.58-24.49 8.98-63.57 29.04-82.1 47.44l-.3.31c5.49 14.75 12.2 24.88 4.93 40.67-4.1 8.94-7.73 16.25-17.57 19.83-12.15 4.42-24.74 4.73-37.37 6.32-2.47.32-5.77.15-8.05.78-5.34.35-12.6-.73-17.6.77-10.35.66-20.9 1.34-31.2 2.42-11.18 1.17-23.24 4.68-34.53 2.59-1.06-.91-1.45-1.49-1.66-2.91-1.39-9.49 31.85-50.6 39.23-60.71 2.56-3.5 4.51-7.43 6.96-11a332.29 332.29 0 0 1 14.94-19.89c12.93-16.17 28.15-29.32 49.44-31.6l.43.28c9 5.55 6.1 18.73 14.97 27.16 14.38-9.75 27.76-21.72 43.42-29.4l.38-.26c5.26-3.5 12-6.06 17.7-8.87 9.75-4.81 19.52-9.88 29.45-14.3 9.74-4.34 19.78-8.08 29.53-12.4 13.85-6.15 30.41-15.64 41.1-26.43 3.4-3.42 6.28-7.56 9.25-11.35 5.45-6.93 10.34-14.38 13.5-22.64 7.08-18.5 9.36-40.98 1.01-59.5q-.73-1.63-1.54-3.23-.8-1.6-1.67-3.16-.88-1.56-1.82-3.08-.94-1.52-1.95-3-1-1.47-2.07-2.9-1.08-1.44-2.2-2.82-1.14-1.39-2.33-2.72-1.2-1.33-2.44-2.61-1.25-1.28-2.55-2.5-1.3-1.23-2.66-2.4-1.36-1.16-2.77-2.27-1.4-1.1-2.86-2.14-1.45-1.05-2.94-2.02-1.5-.98-3.04-1.9-1.54-.9-3.12-1.75-1.57-.84-3.19-1.61c-4.36-2.14-8.8-3.62-13.3-5.42-3.9-1.57-7.4-4.1-11.39-5.51-2.63-.93-6.8-1.94-9.51-.99-3.93 1.39-7.98 3.98-11.76 5.83-9.6 4.7-19.2 9.52-28.97 13.88-7.3 3.25-14.76 6.11-22.07 9.31-12.51 5.47-24.94 11.46-37.34 17.21-8.92 4.14-17.5 8.96-26.47 13.03-13.96 6.34-28.36 11.85-42.21 18.38-14.03 4.56-33.36 12.04-47.63 13.2l-.7-.04-1.25.39c-1.8.16-3.63.25-5.4.6-1.42.14-2.9.18-4.27.58-6.3 1.17-24.2.98-30.68-.08-1.04-.55-2.84-.49-4.06-.61q-3.27-.28-6.52-.67l-7.73-.82-1.98-.58-1.5-.29c-1.73-.62-3.88-.71-5.7-1-2.04-1.19-16.3-4.5-19.94-5.57q-8.73-2.53-17.03-6.22c-7.75-3.42-15.35-8.2-22.34-12.96-3.27-2.23-6.53-5.41-10.17-6.95l-.31-.37-.51-.48c-2.52-3.04-6.89-5.82-9.9-8.55-2.62-4-7.6-7.4-10.88-11-9.66-10.63-19.3-24.02-25.45-37.04-8.86-18.75-13.56-34.23-16.43-54.67-1-7.15-.7-15.07-2.65-22.01-1.53-5.44-5.19-10.5-7.96-15.38-7.73-13.63-15.95-26.97-23.69-40.58-6.86-12.08-17.42-36-25.73-45.65-.94.12-1.05.08-2.01-.26-2.83-3.44-2.3-7-4.36-10.45-1.7-2.86-4.09-5.34-5.64-8.27-2-3.78-3.4-8.1-5.13-12.04-3.56-8.1-7.84-16.54-10.27-25.07-2.4-8.41-4.57-16.97-6.9-25.41-.64-2.3-.91-4.9-1.78-7.1l-.26-.64.43-.97c.34-4.08-1.93-10.75-2.67-15.05-.59-1.37-1.93-2.92-1.94-4.36.23-.04 1.77-.24 2-.47.8-.82.26-7.9.22-9.33-.24-10.88 1.75-21.03 4.77-31.43 6.02-20.78 20.17-37 35.87-51.25 3.12-2.83 7.22-4.3 10.07-7.45l.32-.38c2.13-.83 3.86-1.59 5.62-3.11l2.87-2.37c1.27-.43 2.33-1 3.48-1.68 5.66-4.85 13.58-8.68 20.1-12.26 2.25-1.24 4.73-2.24 6.75-3.82l.82-.45c8.74-5.83 44.71-22.25 47.63-28.95-1.75-2.55-7.13-4.43-9.85-5.95-3.84-2.16-6.04-8.25-7.19-12.33l-.13-.49-.7-1.7c-5.3-20.42-4.58-43.1 6.42-61.7 5.52-9.33 16.5-18.7 27.19-21.35 5.04-1.24 10.6-2.57 15.82-2.59 5.79-.02 11.45.83 17.27.6Z"/>
  <path fill="#655560" d="M800.17 143.4c1.57-.1 2.99-.2 4.54.1 1.01 1.22.9 1.99 1.1 3.54-1.47.04-2.88.05-4.34-.1-1.18-1.18-1.05-1.92-1.3-3.54Z"/>
  <path fill="#C9C6C1" d="M286.76 546.15c1.07.92 2.12 1.94 3.32 2.69-.3 4.13-1.43 8.5-2.6 12.47-.92-4.85-.6-10.22-.72-15.16Z"/>
  <path fill="#655560" d="M437.66 742.71c3.03-1.4 5.77-1.26 9.03-1.3-.24.68-.24 1.34-.94 1.67-3.34 1.59-25.4 1.32-29.85.47 7.34-.38 14.78.26 22.1-.34l-.34-.5ZM157.24 395.26c2.66 1.25 6.53 2.6 7.8 5.48.53 1.19.33 2.57-.22 3.72-.98 2.08-3.34 4.16-4.9 5.85.33-4.08-1.94-10.75-2.68-15.05Z"/>
  <path fill="#655560" d="M388.43 737.81c10.71 2.87 22.73 4.21 33.83 4.55 4.92.15 10.58-.46 15.4.35l.35.5c-7.33.6-14.77-.04-22.1.34-2.27.01-4.53 0-6.79-.21-5.25-.5-17.22-1.36-20.7-5.53Z"/>
  <path fill="#F6F5EA" d="M532.82 918.35c1.37.25 2.75 1 3.76 1.95 2.26 2.16 21.1 44.94 23.11 50.65.82 2.3 1.62 4.82 1.42 7.29-4.45 3.77-33.37 4.4-40.75 4.8-4.83.24-22.96 2.12-26.43.54-1.04-.48-1.46-1.18-1.66-2.31-.35-2.1.79-4.85 1.53-6.8 4.25-11.22 10.3-18.22 17.01-27.83 3.93-5.62 7.65-11.52 11.9-16.9 3.14-3.96 6.7-7.66 10.1-11.39ZM685.75 118.22c6.22-.08 12.47-.26 18.66.55 15.56 2.06 29.1 10.25 38.66 22.69-2.18.32-5.31 1.19-7.46.92-2.61-.33-5.75-2.55-8.34-3.41-5.42-1.81-11.61-2.52-17.3-3.17q-2.71-.3-5.44-.4-2.73-.1-5.45 0-2.73.1-5.45.4-2.71.3-5.4.78c-8.2 1.42-15.98 4.25-23.9 6.73-13.43 4.2-26.77 8.46-39.96 13.45-14.01 4.42-23.8 12.9-39.47 10.77l.35-1.03-.23-.45c-1.76.03-3.52.08-5.27.04-2.48-.05-5.37-.05-7.15-1.92.1-1-.03-1.02.67-1.86 2.3-2.73 5.86-4.5 8.59-6.79 4.2-3.53 7.48-8.05 12.36-10.74 6.25-3.44 13.57-4.53 20.25-6.88 23.23-8.15 46.42-18.04 71.28-19.68ZM317.52 259.05c.85 0 1.58.08 2.42.2a5.66 5.66 0 0 1 1.47 3.47c.32 3.48-2.05 15.74-4.16 18.58-3.75 5.03-11.63 8.9-16.87 12.14-18.44 11.36-65.82 35.98-78.08 50.99-11.06 13.53-13.32 27.17-12.59 44.22 1.74 40.45 22.76 75.6 38.82 111.7 2.67 5.98 4.03 12.44 6.23 18.6 1.72 4.76 4.22 9.33 5.67 14.18 2.54 8.54 2.39 19.85 3.3 28.84-3.32-3.01-5.44-6.23-7.7-10.04-3.1-6.36-7.1-12.18-10.32-18.45-6.25-12.2-11.6-24.88-18.15-36.97-7.67-14.19-16.28-28.05-22.4-43.02-4.62-11.28-7.91-24.17-10.97-36-6.61-25.54-12-55.94 2.24-79.81 3.87-6.47 9.25-13.12 15.12-17.88 22.16-18.01 48.65-30.66 73.53-44.38 9.58-5.27 21.97-13.77 32.44-16.37ZM469.74 35.31c.71.25 1.25.68 1.87 1.1 4.95 8.7-27.13 51.12-26.57 56.25 1.01 1.12 2.19 1.52 3.61 1.9 4.71 1.3 9.88 1.3 14.73 1.94 3.41.46 6.79 1.27 10.2 1.66 3.82.44 6.82-.43 10.1-2.4 10.36-6.24 22.4-19.05 31.6-27.33 4.22-3.8 8.95-7.01 13.37-10.57 5.05-4.07 9.85-8.38 14.98-12.36 1.38 1.09 2.68 2.3 4 3.46-4.62 15.56-26.8 43.12-38.7 54.48-5.8 5.52-13.38 10.18-17.86 16.88-.27 2.49-1.06 7 .94 9 2.16 2.16 7.3 2.1 10.12 1.94 7.13-.4 14.5-2.22 21.5-3.66 13.61-2.8 27.13-5.82 41.03-6.77-.08 3.81-.31 8.1-2.09 11.54-4.34 8.4-38.38 17.83-48.6 21.17-5.7 1.87-14.26 3.97-17.01 9.94a6.3 6.3 0 0 0-.08 5.26 6.8 6.8 0 0 0 3.46 3.7c4.99 2.4 12.2 2.85 17.65 3.93 10.28 2.04 20.88 4.38 30.59 8.4 3.64 1.51 9.72 4.62 11 8.66.06.2.07.42.1.64l-.17 2.44c-.66 1.06-2.4 3.78-3.63 4.14-3.1.91-13.48-1.06-16.99-1.38-12.96-1.21-30.57-4.3-42.99-1-8.98 2.4-17.64 7.15-26.96 8-6.04.55-14.43 1.06-20.38-.18-3.18-.66-6.06-2.37-9.37-2.46-10.78-.3-25.21 2.63-35.75 5.31-3.78.97-7.48 2.3-11.29 3.15-6.24 1.4-12.47 2.1-18.46 4.54-9.43 3.83-10.2 16.56-18.8 19.95-.95.38-2.45.89-3.5.7-4.67-.8-14.5-15.91-19.18-19.56-6.41-5-18.07-2.85-25.1-5.63-3.7-5.72-3.7-21.33-3.16-28.12 2.8-34.85 41.57-17.04 59.18-28.75 9.93-6.6 10.13-20.15 14.54-30.08a54 54 0 0 1 10.13-14.69c12.43-12.67 31.14-12.53 40.72-20.78l.4-.36c1.37-4.5 2.7-8.66 5.12-12.72 2.88-4.83 6.73-8.68 10.25-12.99 7.85-9.6 15.93-20.28 25.45-28.29Z"/>
  <path fill="#655560" d="m336.34 173.47.98.04c3.17.23 6.28 2.19 8.25 4.6 2.71 3.34 4 8.3 3.48 12.54-.25 2.02-1.12 4.17-2.94 5.27-2.06 1.24-4.8.35-6.99-.08-2.66-.72-5.47-1.16-8.06-2.1-2.07-.76-3.93-2.18-4.78-4.26-.9-2.22-.36-4.75.5-6.9 1.94-4.79 4.92-7.2 9.56-9.11ZM421.07 132.62c4.62-.2 9.33.4 13.61 2.22 5.38 2.3 9.69 6.4 11.69 11.96 1.7 4.74 1.2 9.52-1 14.01-3.62 7.38-9.76 12.13-17.46 14.74l-.38.11a20.22 20.22 0 0 1-15.22-2.68c-5.28-3.3-9.3-8.72-10.5-14.87q-.1-.52-.18-1.05-.08-.52-.13-1.05t-.07-1.06q-.03-.53-.03-1.06t.03-1.07q.03-.53.09-1.06.05-.52.13-1.05.09-.53.2-1.05.1-.52.24-1.03.13-.51.29-1.02l.34-1 .4-1q.2-.48.44-.96.23-.48.5-.94.25-.47.53-.92.28-.45.58-.89c3.86-5.54 9.5-8.02 15.9-9.28Z"/>
  <path fill="#C9C6C1" d="M859.64 340.4c4.83 4.17 8 8.74 11.51 14.03 14.31 21.52 23.33 49.97 25.2 75.76.69 9.58 1 27.6-.2 36.93-3.43 26.35-16.8 54.85-34.2 74.73-9.7 11.07-20.76 20.96-33.33 28.64-10.75 6.58-21.92 13.37-33.2 19-16.04 8.01-32.73 15.04-49.14 22.25-5.1 2.24-10.04 4.87-15.13 7.15-6.4 2.87-12.97 5.43-19.28 8.5l-135.79 65.44-39.32 18.15c-10.03 4.71-19.8 9.78-30.12 13.88-17.1 6.8-41.18 15.3-59.3 16.5l-.65.04c-3.26.05-6-.1-9.03 1.31-4.82-.81-10.48-.2-15.4-.35-11.1-.34-23.12-1.68-33.83-4.55-25.62-8.6-45.34-15.16-64.75-35.26-2.13-2.2-4.18-4.56-5.6-7.3-1.9-3.63-2.82-7.98-3.91-11.91-6.32-22.92-7.93-46.25-7.59-69.95l.24 1.02c.77 2.98 1.62 5.78 3.17 8.46 2.82 4.88 7.13 9.08 10.92 13.22 4.44 4.84 8.53 10.11 13.24 14.68 3.84 3.73 8.45 6.71 12.63 10.05 9.12 7.28 17.73 14.84 27.88 20.73 16.76 9.72 37.62 15.08 56.75 17.17 4 .44 8.08.23 12.09.5 2.38.15 4.6 1.28 6.95 1.24 4.44-.08 8.87-1 13.3-1.28 16.03-.96 28.17-1.64 43.89-5.9 11.48-3.1 23.08-6.7 34.03-11.35 13.02-5.53 25.7-12.56 38.4-18.88 6.84-3.4 13.92-6.15 20.8-9.44a614.19 614.19 0 0 0 30.33-15.8c9.2-5.04 17.75-11.47 26.8-16.81 7.02-4.15 14.68-7.4 21.88-11.27 6.73-3.62 13.1-7.9 19.8-11.55 5.05-2.76 10.6-4.65 15.89-6.9q11.53-4.96 22.82-10.47c14.14-7 26.79-17.5 39.88-26.27 5.3-3.55 11.39-6.29 16.37-10.17 14.29-11.12 32.44-32.88 41.36-48.57 2.7-4.76 4.88-9.76 7.37-14.63 3.05-5.98 6.98-12.24 9-18.66 2.3-7.27 3.07-15.41 4.3-22.94 1.72-10.44 3.86-21.02 4.97-31.54.96-9 .7-18.22.92-27.28.2-8.06.96-16.33.24-24.37-.48-5.46-1.7-10.71-3.16-15.98Z"/>
  <path fill="#F6F5EA" d="M286.76 546.15c-.95-8.04-1.01-16.06-1.4-24.14-.4-7.93-1.1-15.82-1.23-23.76-.2-13.27.5-26.42 1.11-39.66.26-5.66.1-11.32.39-16.97.49-9.42 1.83-19.21 3.58-28.48 5.25-27.78 19.12-43.24 41.93-58.64 12.57-8.49 26.83-14.88 40.27-21.86 12.4-6.44 24.97-12.48 37.47-18.7 9-4.48 17.9-9.2 26.97-13.5 15.3-7.23 30.9-13.95 46.3-21 23.94-10.95 47.62-22.48 71.7-33.16q58.56-25.3 117.84-48.86c32.27-12.8 67.8-27.77 101.67-35.18a61.7 61.7 0 0 1 25.76-.43 37.57 37.57 0 0 1 27.31 22.26c3.58 8.32 4.26 17.89 5.05 26.82.77 8.65 1.76 17.43 1.93 26.11.32 16.5-.8 46.96 3.1 62.1 1.86 7.25 18.48 34.4 23.13 41.3 1.45 5.27 2.68 10.52 3.16 15.98.72 8.04-.04 16.31-.24 24.37-.22 9.06.04 18.28-.92 27.28-1.1 10.52-3.25 21.1-4.97 31.54-1.23 7.53-2 15.67-4.3 22.94-2.02 6.42-5.95 12.68-9 18.67-2.49 4.86-4.66 9.86-7.37 14.62-8.92 15.7-27.07 37.45-41.36 48.57-4.98 3.88-11.08 6.62-16.37 10.17-13.1 8.78-25.74 19.27-39.88 26.27q-11.29 5.51-22.82 10.48c-5.3 2.24-10.84 4.13-15.89 6.89-6.7 3.65-13.07 7.93-19.8 11.55-7.2 3.86-14.86 7.12-21.89 11.27-9.04 5.34-17.6 11.77-26.79 16.82a614.19 614.19 0 0 1-30.33 15.8c-6.88 3.28-13.96 6.03-20.8 9.43-12.7 6.32-25.38 13.35-38.4 18.88-10.95 4.66-22.55 8.25-34.03 11.36-15.72 4.25-27.86 4.93-43.9 5.9-4.42.26-8.85 1.2-13.29 1.27-2.35.04-4.57-1.1-6.95-1.25-4.01-.26-8.1-.05-12.09-.49-19.13-2.09-40-7.45-56.75-17.17-10.15-5.9-18.76-13.45-27.88-20.73-4.18-3.34-8.8-6.32-12.63-10.05-4.71-4.57-8.8-9.84-13.24-14.68-3.79-4.14-8.1-8.34-10.92-13.22-1.55-2.68-2.4-5.48-3.17-8.46q-.13-.5-.24-1.02c-.84-9.24 1.87-16.7 3.42-25.64 1.07-6.16 1.48-12.5 2.1-18.72 3.88-38.54 6.53-77.12 11.24-115.59.99-8.07.52-18.12 2.29-25.77 1.68-7.24 8.32-12.6 11.98-18.93 2.22-3.85 4.03-8.97 2.7-13.42-1.24-4.12-4.9-6.64-8.43-8.69-2.65.86-5.37 1.8-7.63 3.48-8.1 5.99-13.4 19.65-15.57 29.18-2.02 8.8-2.06 18.17-2.7 27.15-1.1 15.2-2.13 30.74-4.38 45.8-1.32 8.84-3.97 17.08-5.97 25.73-2.35 10.16-3.98 20.56-5.55 30.87-1.2-.75-2.25-1.77-3.32-2.69Z"/>
  <path fill="#655560" d="M792.2 184.14c3.54-.33 8.2.4 11.16 2.48q.47.32.9.69.42.37.81.78.39.41.73.86.34.45.64.93.3.49.53 1 .25.5.44 1.04.18.53.32 1.08.13.55.2 1.1c.49 3.4-.94 6.68-3.02 9.28-3.46 4.3-8.32 6.54-13.72 7.16-4.12-.11-8.09-.64-11.8-2.62-2.7-1.43-5-3.64-5.79-6.67-.82-3.16.06-6.66 1.83-9.34 3.71-5.6 10.66-6.73 16.77-7.77ZM571.47 269.17c2.61-.15 4.41-.05 6.6 1.53 2.06 1.5 2.98 3.52 3.34 6 .66 4.53-.48 8.52-3.2 12.16-4.84 6.47-11 10.06-18.95 11.3-3.1-.31-6.18-1.21-8.32-3.64-3.28-3.74-2.61-8.85-2.35-13.41.43-.72.85-1.43 1.36-2.1 5.36-7.1 12.87-10.62 21.52-11.84ZM740.12 201.2c2.3-.1 4.51.12 6.8.32 4.33 3.13 6.85 5.64 8.56 10.88-.63 2.3-1.35 4.64-2.68 6.64-4.27 6.44-11.08 9.17-18.37 10.48-4.15-.08-9.03-.62-12.5-3.05a8.8 8.8 0 0 1-3.76-6.17c-.5-3.88 1.13-7.85 3.6-10.8 4.73-5.66 11.3-7.62 18.35-8.3ZM685.66 221.14c2.8-.41 5.9.69 8.1 2.46 2.11 1.68 3.22 4.72 3.5 7.33.44 4.04-1.26 7.68-3.83 10.7-4.87 5.76-12.79 9.57-20.28 10.08a18.98 18.98 0 0 1-7.28-2.84c-2.49-1.6-4.72-3.68-5.27-6.72-.57-3.15.53-6.52 2.3-9.11 5.42-7.95 13.9-10.24 22.76-11.9ZM626.27 243.57c2.38-.2 4.8-.09 7.2-.05 3.2 1.84 6.41 4.4 7.54 8.08.9 2.92.04 5.97-1.46 8.54-4.14 7.12-12.08 11.23-19.75 13.34-4.12.19-7.48-.08-11.2-2.06-2.33-1.25-4.12-3.13-4.76-5.75-.8-3.34.08-7.06 1.9-9.92 4.43-6.95 12.85-10.41 20.53-12.18ZM436.53 334.17c1.12-.03 2.27-.07 3.38.1 3.94.6 6.28 3.14 8.48 6.25.44 3 .72 5.56-.81 8.32-4.77 8.6-17.34 14.29-26.47 16.69-2.44-.09-6.72-1.94-8.73-3.36a8.9 8.9 0 0 1-3.55-5.8c-.54-3.56.92-6.86 3.07-9.61 5.69-7.28 15.7-11.38 24.63-12.6ZM377.99 360.6c1.98-.13 4-.04 6-.04 3.47 2.05 6.56 4.58 7.66 8.64.9 3.3.02 6.56-1.74 9.4-4.01 6.46-13.26 12.9-20.61 14.48a27.94 27.94 0 0 1-7.57-2.4c-3.17-1.61-6.08-3.9-7.07-7.46-.84-3.04-.08-6.17 1.48-8.84 4.34-7.38 13.93-11.68 21.85-13.78ZM511.04 296.07c3.78-.26 8.04.54 10.95 3.16a8.77 8.77 0 0 1 2.79 6.23c.14 4.1-2.19 7.83-4.85 10.76-5.78 6.36-15.68 12.23-24.3 12.76-3.94.06-8.01 0-11.6-1.85-1.68-.86-3.06-2.19-3.55-4.06-.67-2.62.04-5.37 1.43-7.63 5.13-8.36 19.75-16.97 29.13-19.37ZM757.66 426.52a55.4 55.4 0 0 0-5.9-.04q-1.76.11-3.52.43-1.75.31-3.45.82-1.7.51-3.33 1.22-1.64.7-3.18 1.58c-18.16 10.33-12.4 33.44-18.75 39.1-.98.87-1.8.92-3.04.66-1.57-.33-3.33-1.96-4.52-2.98-10.23-8.77-14.95-20.53-22.58-31.25A318.82 318.82 0 0 0 670 411.48c-9.51-10.9-24.75-22.32-36.74-30.67-6.55-4.56-15.62-5.3-20.36-12.2-1.97-2.86-4.13-7.54-3.26-11.11.3-1.22 1.61-1.93 2.64-2.5 6.76-3.75 15.67-6.01 23.1-8.2 11.73-3.43 23.53-5.41 35.62-7.14 33.27-4.76 58.54-3.98 91.44 2.57 7.46 1.48 15.2 2.78 22.47 5 3.33 1.02 8.46 2.97 9.92 6.42 3.26 7.7-16.04 13.35-20.08 26.28-2.64 8.46-2.25 19.5 3.12 26.8 2.05 2.78 4.87 5.06 7.35 7.45 5.09 4.9 9.68 10.2 13.01 16.47 6.7 12.59 7.6 29.91 3.4 43.41-8.07 25.9-29.98 59.96-54.14 72.55-21.55 11.22-45.15 10.42-67.76 3.08-23.57-7.65-36.82-32.77-47.5-53.34-7.87-15.16-19.24-29.78-36.23-35.02-12.58-3.88-26.13-1.76-37.63 4.37-12.18 6.5-21.07 19.13-24.93 32.25-5.67 19.3-3.34 41.8 6.48 59.35 7.64 13.65 20 22.4 34.91 26.6 21.52 6.07 41.32-2.6 55.74-18.68 6.25-6.96 12.4-15.93 20.75-20.5l.51-.26c2.15.61 4.3 1.35 6.4 2.13 2.68 1 5.25 2.96 6.37 5.68 2.05 4.98-.85 11.78-2.75 16.46-10.66 26.2-36.84 49.12-62.72 59.78-23.6 9.74-49.26 5.5-71.23-6.55-6.37-3.5-11.66-8.21-18.48-11.02-1.3 2.83-2.54 5.8-4.69 8.1-2.56 2.75-7.08 3.45-10.64 3.51-5.83.1-14.15-1-18.39-5.3a8.24 8.24 0 0 1-2.47-6.16c.24-7.43 10.61-15.01 15.57-19.75q-.94-4.61-2.5-9.05c-1.04-2.97-3.7-11.6-6.6-13-.7.72-1.23 1.31-2.1 1.82-1.35.78-22.32-4.74-24.9-5.57-1.82-.6-4.45-1.33-5.34-3.1.4-2.22 1.85-4.14 3.2-5.9 6.6-8.65 12.92-9.8 19.96-16.2l.47-.45c.24-.87.44-1.72.6-2.6 2.56-14.45-2.42-23.88-13.61-32.66-2.65-2.07-6.24-4.32-8.1-7.15a5.6 5.6 0 0 1-.9-4.5c3-13.27 24.7-5.1 31.81-10.45 2.77-2.08 4.49-6.81 5.84-9.92 1.7-3.9 3.53-7.96 2.93-12.34-1.37-9.81-19.15-22.71-16.9-32.16a5 5 0 0 1 2.71-3.35c5.5-2.84 25.41-.9 31.56.83 3.34 1 5.48 2.62 7.84 5.14l1.19.24c4.05-5.32 18.5-14.2 19.24-15.7 1.54-3.06-1.35-11.17-1.56-14.88-.27-4.8-.43-22.35 1.75-25.87.59-.96 1.6-1.94 2.77-2.04 2.3-.2 5.48 1.2 7.7 1.91 10.25 3.26 19.59 7.18 26.6 15.8 2 2.47 2.87 7.07 5.26 8.95 2.27 1.77 14.14.94 17.54 1.33 5.41.64 11.2 1.57 16.42 3.16 12.27 3.74 26.07 12.82 35.34 21.5 11.06 10.35 19.18 25.76 25.72 39.34 6.81 14.15 11.87 30.8 25.33 40.25 8.26 5.81 19.61 7.16 29.4 5.45 13.98-2.44 24.97-11.54 32.94-22.99 6.88-9.89 14.99-28.58 12.71-40.74-1.86-9.97-7.59-14.48-15.46-19.91Z"/>
  <path fill="#655560" d="M506.94 425.58c3.33 1 5.47 2.62 7.83 5.14l1.19.24c.44 1.2.36.9-.01 1.97-.71.63-1.12.83-2.07 1.04-1.93.43-4.38-.31-6-1.38a4.42 4.42 0 0 1-2-3.1 5.38 5.38 0 0 1 1.06-3.91Z"/>
  <path fill="#F6F5EA" d="M675.48 389.63c13.57 1.21 41.18 13.75 53.2 21.1 3.8 2.33 7.12 5.01 10.4 8-3.39 2.47-8.27 3.7-12.18 5.19-5.26 3.07-8.94 7.13-12.3 12.17-4.01-5.66-7.85-11.67-12.24-17.04-3.27-3.98-7.1-7.6-10.55-11.41-3.28-3.62-6.15-7.37-9.97-10.44-2.3-1.84-6.03-4.5-6.36-7.57ZM700.84 360.23c.1-.02.19-.06.28-.07 4.7-.74 38.76.55 44.09 1.34 2.52.37 5.28.99 7.4 2.44.43 1.68-.01 3.49-.18 5.2-1 9.9-.84 19.8-.88 29.74-10.07-4.57-19.28-10.53-29.38-15q-9.7-4.43-19.83-7.77-10.12-3.35-20.55-5.58c-9.5-2.07-19.54-1.3-28.34-5.9 15.55-4.65 31.48-3.37 47.4-4.4Z"/>
</svg>