<svg xmlns="http://www.w3.org/2000/svg" width="2024" height="2024">
  <path fill="#FEFEFE" d="M1256.56 1211.97c15.86-1.87 30.41-6.51 45.34-12 56.54-20.79 95.36-57.58 131.02-104.73 10.67-14.12 18.2-31.28 30.62-43.93a65.84 65.84 0 0 1 29.94-17.5c52.31-14.41 128.99 18.01 175.04 43.97 38.89 21.91 74.4 47.58 102.84 82.26 7.53 9.18 15.93 19.91 18.94 31.6 2.13 8.27.85 12.57-3.41 19.74-.3-.08-.6-.14-.89-.23-4.58-1.26-6.06-3.12-8.32-7.19-6.46-11.59-10.6-22.71-19.27-33.03-6.82-8.11-16.6-15.12-24.87-21.78q-4.13-3.36-8.34-6.63-4.21-3.26-8.5-6.41-4.29-3.15-8.65-6.2-4.37-3.05-8.82-5.98-4.44-2.94-8.95-5.76-4.52-2.82-9.1-5.53-4.58-2.71-9.23-5.31-4.65-2.59-9.37-5.07-4.71-2.48-9.49-4.84-4.77-2.35-9.6-4.59-4.83-2.24-9.72-4.36-4.88-2.11-9.82-4.11-4.94-1.99-9.92-3.86-4.99-1.87-10.02-3.62-5.03-1.74-10.11-3.36-5.07-1.62-10.18-3.11c-28.53-8.54-65.54-17.61-93.58-2.68-18.69 9.96-27.25 29.45-39.82 45.37-41.77 52.89-104.78 105.68-173.17 115.81-7.14-5.4-14.12-10.72-20.59-16.94ZM233.56 1204.95c2.35-11.58 5.78-23.75 11.67-34.09 4.73-8.28 11.76-14.23 18.02-21.26 6.13-6.88 11.44-14.47 17.63-21.3 12.19-13.47 27.33-24.84 42.43-34.83 48.56-32.15 131.39-72.02 190.29-60.21 8.66 1.74 19.82 4.81 27.48 9.22 10.89 6.27 24.48 24.62 31.46 35.28 7.67 11.73 14.9 23.91 23.23 35.18 28.5 38.63 65.82 65.53 109.87 84 18.51 7.76 37.73 13.06 55.52 22.5-4.76 5.66-10.75 9.85-16.75 14.1-14.98-5.86-30.96-9.46-46.1-15.1-52.73-19.66-97.11-52.63-128.87-99.43-10.25-15.12-21.9-38.27-37.49-47.99-21.83-13.6-58.95-11.89-82.9-5.77-35.86 9.18-73.87 22.8-105.26 42.59-12.87 8.12-24.92 17.92-37.05 27.11-14.02 10.62-29 21.63-39.95 35.55-10.37 13.17-16.3 29.35-24.77 43.74a61.86 61.86 0 0 1-8.47-9.29Z"/>
  <path fill="#DBDBDB" d="M1277.15 1228.91c68.39-10.13 131.4-62.92 173.17-115.81 12.57-15.92 21.13-35.41 39.82-45.37 28.04-14.93 65.05-5.86 93.58 2.68q5.11 1.49 10.18 3.11 5.08 1.62 10.11 3.36 5.03 1.75 10.02 3.62 4.98 1.87 9.92 3.86 4.94 2 9.82 4.11 4.89 2.12 9.72 4.36 4.83 2.24 9.6 4.59 4.78 2.36 9.49 4.84 4.72 2.48 9.37 5.07 4.65 2.6 9.23 5.31 4.58 2.71 9.1 5.53 4.51 2.82 8.95 5.76 4.45 2.93 8.81 5.98 4.37 3.05 8.66 6.2 4.29 3.15 8.5 6.41 4.21 3.27 8.34 6.63c8.27 6.66 18.05 13.67 24.87 21.78 8.67 10.32 12.81 21.44 19.27 33.03 2.26 4.07 3.74 5.93 8.32 7.19.29.09.59.15.89.23-1.61 2.32-2.46 4.45-5.45 5.15-.84.2-2.35.18-3.25.19-60.92-56.8-129.85-99.79-211.44-119.3-17.71-4.23-36.71-8.68-54.98-8.11-5.61.17-14.29.69-18.41 4.98-1.8 1.88-2.94 3.96-2.85 6.63.28 8.49 22.87 30.74 28.84 39.9 13.24 20.33 21.7 44.21 30.54 66.72 3.44 8.79 6.87 17.62 9.17 26.78 3.19 12.77 10.76 69.66 18.71 75.79.66.51 1.25.73 1.98 1.04-.23 9.31-4 16.47-10.94 22.75-3.92 3.55-9.7 7.08-15.23 6.44-1.18-.14-2.03-.43-3.15-.76-10.17-20.89-9.57-41.91-14.28-64.08-3.95-18.58-10.42-37.22-16.65-55.12q-8.42-23.85-18.77-46.93c-7.74-16.83-22.35-37.09-24.67-54.99-14.99 14.71-25.01 33.11-38.86 48.71-26.55 29.89-63.67 55.79-101.92 68.03-12.93 4.14-27.06 5.41-39.58 10.51l-1.03.43a351.42 351.42 0 0 1-17.52-17.23ZM242.02 1214.24c8.47-14.39 14.4-30.57 24.77-43.74 10.94-13.92 25.93-24.93 39.95-35.55 12.13-9.19 24.18-18.99 37.05-27.11 31.39-19.79 69.4-33.41 105.27-42.59 23.94-6.12 61.06-7.83 82.89 5.77 15.6 9.72 27.24 32.87 37.5 47.99 31.75 46.8 76.13 79.77 128.85 99.43 15.15 5.64 31.13 9.24 46.1 15.1-5.61 5.14-11.22 10.98-17.65 15.07-51.4-7.18-109.15-35.88-142.65-75.82-13.18-15.71-24.44-36.02-41.1-48.3-11.04 21.32-23.27 42.65-32.38 64.87-10.5 25.57-15.57 52.77-21.62 79.62-2.52 11.19-6.05 22.53-7.32 33.92-1.17 10.45-.66 20.97-.38 31.45-4.13.68-7.38 2.58-11.03 4.51a96.8 96.8 0 0 0-12.02-4.36c-6.05-6.75-10.88-11.69-13.54-20.56 3.69-10.84 8.33-22.21 10.93-33.35 2.08-8.88 1.56-18.41 3.13-27.43 3.07-17.56 8.53-35.49 14.12-52.41 7.98-24.16 26.25-73.13 43.7-90.49 3.31-3.29 8.08-5.32 12.2-7.4-5.45-6.08-9.52-10.95-17.92-12.59-13.85-2.69-28.9 1.53-42.42 4.44q-6 1.24-11.97 2.66-5.97 1.41-11.89 3-5.92 1.6-11.8 3.36-5.86 1.77-11.68 3.7-5.82 1.94-11.57 4.05-5.76 2.1-11.46 4.38-5.69 2.27-11.31 4.71-5.63 2.45-11.17 5.05-5.56 2.61-11.03 5.38-5.47 2.76-10.85 5.69-5.39 2.93-10.69 6.02-5.3 3.08-10.5 6.32t-10.31 6.63q-5.11 3.39-10.12 6.93-5 3.54-9.9 7.23-4.9 3.68-9.7 7.51c-6.45 5.17-13.04 10.68-18.56 16.86-7.21 8.06-13.6 18.71-22.77 24.57l-.8.5c-3.03-1.26-5.65-3.21-8.35-5.02Z"/>
  <path fill="#858484" d="m250.36 1219.26.8-.5c9.17-5.86 15.57-16.51 22.78-24.57 5.52-6.18 12.11-11.69 18.57-16.86q4.79-3.83 9.69-7.51 4.9-3.69 9.9-7.23 5-3.54 10.12-6.93 5.1-3.39 10.3-6.63 5.22-3.24 10.51-6.32 5.3-3.09 10.69-6.02 5.38-2.93 10.85-5.69 5.48-2.77 11.03-5.38 5.54-2.6 11.17-5.05 5.62-2.44 11.31-4.71 5.7-2.28 11.46-4.38 5.75-2.11 11.57-4.05 5.82-1.93 11.69-3.7 5.87-1.76 11.8-3.36 5.91-1.59 11.88-3 5.96-1.42 11.97-2.66c13.52-2.91 28.57-7.13 42.42-4.44 8.4 1.64 12.47 6.51 17.92 12.59-4.12 2.08-8.89 4.11-12.2 7.4-17.45 17.36-35.72 66.33-43.7 90.49-5.59 16.92-11.05 34.85-14.12 52.41-1.57 9.02-1.05 18.55-3.13 27.43-2.6 11.14-7.24 22.51-10.93 33.35-5.85-14.01-13.43-29.18-22-41.72-24.5-35.86-70.93-57.65-114.27-55.45-18.45.94-38.58 6.3-56.87 2.74l-1.2-.25ZM543 1124.49c16.66 12.28 27.92 32.59 41.1 48.3 33.5 39.94 91.25 68.64 142.65 75.82q-16.5 14.53-31.65 30.48c-9.31 9.73-23.25 29.83-33.77 35.71-22-15.77-79.84-15.09-105.98-10.19-17.79 3.34-38.62 14.49-55.26 22.07-5.67 2.58-12.66 6.79-18.79 7.67-.28-10.48-.8-21 .38-31.45 1.27-11.39 4.8-22.73 7.32-33.92 6.05-26.85 11.12-54.05 21.62-79.62 9.1-22.22 21.34-43.55 32.38-64.87ZM1579.75 1311.15c-.73-.31-1.32-.53-1.98-1.04-7.95-6.13-15.52-63.02-18.71-75.79-2.3-9.16-5.73-17.99-9.17-26.78-8.84-22.51-17.3-46.39-30.54-66.72-5.97-9.16-28.56-31.41-28.84-39.9-.09-2.67 1.05-4.75 2.85-6.63 4.12-4.29 12.8-4.81 18.41-4.98 18.27-.57 37.27 3.88 54.98 8.11 81.59 19.51 150.52 62.5 211.44 119.3-44-.18-75.77-7.37-119.17 8.43-16.07 5.85-31.5 14.7-43.71 26.76-9.09 8.99-27.61 27.25-31.48 39.13-1.89 5.8-2.63 16.31-4.08 20.11ZM1476.06 1118.46c2.32 17.9 16.93 38.16 24.67 54.99q10.35 23.08 18.77 46.93c6.23 17.9 12.7 36.54 16.65 55.12 4.71 22.17 4.11 43.19 14.28 64.08q-18.75-9.04-37.9-17.2c-52.41-21.92-108.61-29.92-162.23-7.82-16.58-24.29-36.37-46.25-55.63-68.42l1.03-.43c12.52-5.1 26.65-6.37 39.58-10.51 38.25-12.24 75.37-38.14 101.92-68.03 13.85-15.6 23.87-34 38.86-48.71ZM730.49 1678.19c2.18 5.19 6.56 9.12 10.32 13.21 15.4 16.76 31.88 29.52 53.13 38.09 33.88 13.67 91.61 18.24 125.97 3.65 11.01-4.67 19.73-11.22 26.88-20.9 39.42 12.27 78.5 11.91 118.16 1.12 26.05 24.69 50.38 30.27 85.95 29.37 42.65-1.08 80.8-10.65 113.28-39.46 42.99 7.52 85.87 4.1 128.44-4.39 14.26-2.85 45.44-14.9 56.98-13.03 33.65 6.16 84.92 1.61 114.98 16.44 4.22 2.08 7.97 4.35 9.51 8.99-.04 2.45-.44 3.99-1.84 5.97-2.88 4.09-7.14 6.54-11.75 8.2-11.55 4.15-24.91 5.64-37 7.91q-49.71 8.9-99.64 16.44c-37.8 5.71-75.88 7.22-113.9 10.59-53.11 4.7-106.1 10.8-159.46 12.24-23.61.64-47.39.13-71.02.14l-159.63-1.31c-12.88-.21-25.72 1.66-38.65 1.16-9.11-.35-18.13-2.22-27.22-3.02l-93.27-8.56c-45.63-4.02-231.1-11.62-260.97-35.5a13.97 13.97 0 0 1-5.21-10c-.26-2.85.02-6.17 2.12-8.31 5.06-5.18 20.12-6.96 27.3-8.47 67.57-14.26 137.59-19.49 206.54-20.57Z"/>
  <path fill="#161516" d="M640.43 485.74c20.38-19.09 40.94-38.5 64.2-54.09 65.55-43.92 187.93-84 266-92.77 21.46-2.4 44.94-.96 66.57-.66 13.41.19 27.2 2.54 40.51 4.21 67.19 8.46 125.46 27.5 186.15 57.12 10.64 5.2 21.89 9.86 31.98 16.08 18.36 11.32 34.75 28.24 51.23 42.17 10.78 9.1 22.67 17.28 32.49 27.4 27.59-13.65 55.46-28.66 83.79-40.6 20.32-8.57 42.3-12.66 63.29-3.76q1.32.56 2.62 1.19 1.29.62 2.55 1.3 1.27.7 2.49 1.45 1.23.75 2.41 1.56 1.19.81 2.33 1.68 1.14.87 2.24 1.8 1.1.93 2.15 1.9 1.05.99 2.05 2.02 1 1.03 1.95 2.11.94 1.08 1.84 2.21.89 1.13 1.72 2.3t1.61 2.38q.77 1.21 1.48 2.46t1.36 2.53q.65 1.28 1.23 2.6.58 1.31 1.1 2.65c13.01 33.04 6.97 90.45-5.94 122.78-6.83 17.09-16.77 32.34-27.56 47.14-5.96 8.16-19.5 16.37-22.82 25.37-3.02 8.21 1.78 17.64 4.8 25.13 34.11-5.87 90.7-3.98 120.09 16.09 11.85 8.09 21.89 20.32 24.19 34.8 2.98 18.65-4.88 50.25-13.38 66.84-4.96 9.65-11.79 18.8-18.25 27.51-22.42 30.24-73.74 63.08-110.94 68.51-5.11 11.05-7.44 22.98-10.94 34.59q-3.16 10.36-7.1 20.45-3.94 10.09-8.64 19.85c-9.1 18.94-21.08 35.85-32.81 53.2-7.56 11.2-14.86 23.17-23.44 33.61-29.34 35.68-82.86 75.67-122.46 99.86-19.72 12.04-40.3 22.66-59.77 35.13 5.01 2.07 9.28 5.12 13.76 8.13 6.47 6.22 13.45 11.54 20.59 16.94a351.42 351.42 0 0 0 17.52 17.23c19.26 22.17 39.05 44.13 55.63 68.42 34.52 27.32 49.18 96.42 54.18 139.19q1.43 12.95 2.49 25.93c24.79 14.09 87.06 17.8 116.06 15.36 9.94-.84 19.95-3.27 29.55-5.89 30.29-8.25 58.5-19.78 90.47-19.78 8.87 28.15 1.04 53.31-12.28 78.7-30.49 58.14-81.77 95.5-140.95 120.59-11.38 4.83-31.17 9.58-40.22 17.19-11.54-1.87-42.72 10.18-56.98 13.03-42.57 8.49-85.45 11.91-128.44 4.39-32.48 28.81-70.63 38.38-113.28 39.46-35.57.9-59.9-4.68-85.95-29.37-39.66 10.79-78.74 11.15-118.16-1.12-7.15 9.68-15.87 16.23-26.88 20.9-34.36 14.59-92.08 10.02-125.97-3.65-21.26-8.57-37.73-21.33-53.13-38.09-3.76-4.09-8.14-8.02-10.32-13.21-2.66-9.56-11.81-15.24-15.74-24.35-3.28-7.62-11.84-38.6-15.6-42.53-5.54-5.8-20.75-10.12-28.42-14.88-14.53-9.02-30.57-22.6-42.27-35.07-8.26-8.79-7.75-16.05-10.89-26.84-7.8-26.85-11.65-41.04-11.09-69.71.94-48.35 18.83-115.57 54.85-150.01 10.52-5.88 24.46-25.98 33.77-35.71q15.14-15.95 31.65-30.48c6.43-4.09 12.04-9.93 17.66-15.07 6-4.25 11.99-8.44 16.75-14.1 7.68-4.81 14.98-10.42 22.34-15.69-17.9-5.1-35.26-15.85-51.63-24.64-46.03-24.7-101.7-61.28-135.18-101.82-11.11-13.46-20.24-29.15-30.2-43.51-7.93-11.43-18.3-21.89-24.95-34.07-4.65-8.54-7.93-18.21-11.55-27.24-9.12-22.76-17.33-45.35-30.1-66.38-10.5-5.13-21.96-8.5-32.92-12.53-21.49-7.9-40.36-21.62-56.23-38.02-7.49-7.74-12.88-16.87-18.44-26-13.63-22.37-27.27-46.37-26.55-73.48.4-15.26 6.14-29.38 17.4-39.9 22.29-20.83 63.7-26.95 92.9-25.45 11.28.58 22.3 3.66 33.65 3.96l1.34.03c3.22-5.98 5.42-12.77 7.88-19.12-27.3-26.71-53.89-58.43-63.88-95.99-3.7-13.95-4.49-27.85-5.25-42.17-1.43-26.62-3.25-53.66 10.83-77.62 7.49-12.76 18.53-22.01 33.1-25.63 36.63-9.1 75.2 13.21 106.46 29.64 13.48 7.09 27.33 13.86 40.25 21.93Z"/>
  <path fill="#FEFEFE" d="M1401.68 1500.29c36.15 14.28 97.36 16.97 135.53 9.48 26.86-5.28 52.75-14.91 79.4-21.17-8.14 17.05-28.31 26.64-45.31 32.71-48.84 17.43-100.25 18.82-150.54 7.71-6.22-1.38-14.85-1.47-20.47-4.12-.52-.24-1-.54-1.5-.81 1.1-7.91 1.93-15.88 2.89-23.8ZM623.6 1474.5c-.35-10.91.62-21.75 2.1-32.55 12.87-94.37 78-158.63 150.2-213.34-5.41 13.45-14.45 26.45-21.98 38.8-18.06 11.97-39.57 32.14-51.7 50.44-4.87 7.34-8.28 15.58-13.07 22.98-11.66 18.03-23.26 34.84-30.64 55.23-9 24.88-13.57 51.24-22.72 75.87-4.13 1.42-7.75 2.77-12.2 2.57ZM1228.27 1213.06c10.88 6.52 21.33 13.38 31.03 21.59 33.41 28.27 81.33 84.02 101.21 122.94 8.08 15.8 13.21 33.33 17.52 50.5 4.92 19.59 9.15 39.3 10.04 59.53l-.73.7c-1.89 1.87-3.37 3.75-6.06 4.42-8.06 1.98-11.2-22.85-12.28-27.94-12.67-59.76-59.49-137.55-108.51-175.13 2.48 5.04 5.37 9.6 3.96 15.31-11.27-24.46-24.11-47.87-36.18-71.92Z"/>
  <path fill="#DBDBDB" d="M1264.45 1284.98c1.41-5.71-1.48-10.27-3.96-15.31 49.02 37.58 95.84 115.37 108.51 175.13 1.08 5.09 4.22 29.92 12.28 27.94 2.69-.67 4.17-2.55 6.06-4.42l.73-.7c.5 10.68-1.68 21.12-4.76 31.29-11.44 37.68-25.61 57.94-60.54 76.64 17.54-77.37-9.18-167.26-36.61-239.33-6.6-17.33-15.34-33.83-21.71-51.24ZM635.79 1471.93c9.15-24.63 13.71-50.99 22.72-75.87 7.38-20.39 18.98-37.2 30.64-55.23 4.79-7.4 8.2-15.64 13.07-22.98 12.13-18.3 33.64-38.47 51.7-50.44-44.25 95.01-83.55 204.57-62.36 310.73-33.19-19.14-54.13-48.09-64.05-85.08a203.67 203.67 0 0 1-3.92-18.56c4.45.2 8.07-1.15 12.2-2.57ZM458.12 706.91l1.3-.08c7.9-.49 40.63-.55 45.87 5.17 1.93 2.1-2.86 26.18-3.47 30.05-4.4 27.84-8.64 55.49-8.05 83.78.36 17.1 3.49 34.17 2.7 51.27-14.42-6.73-28.17-12-41.23-21.36-25.37-17.13-43.6-30.5-59.19-57.66-5.2-9.05-9.88-18.7-12.08-28.96-2.57-11.94-1.38-24.74 5.6-35.03 14.06-20.74 46.04-23.36 68.55-27.18ZM1519.23 706.85c23.11-1.99 48.55.44 71.2 5.58 20.81 4.73 32.72 13.88 44.05 31.82.13 4.27.09 8.64-.5 12.87-1.37 9.66-4.62 19-8.06 28.08-9.93 26.24-21.34 40.97-43.5 58.02-21.65 14.37-45.67 24.46-69.26 35.11.02-21.2 3.76-42.2 4.6-63.36 1.39-35.05-4.93-71.17-12.2-105.33l13.67-2.79ZM1496.99 452c1.26-.13 2.44-.25 3.71-.2 11.76.38 24.11 4.1 32.33 12.86 12.3 13.13 14.47 34.59 13.93 51.77-1.57 49.3-27.08 96.68-62.62 129.75a624 624 0 0 0-14.43-30.6c-12.02-22.96-25.66-46.11-41.46-66.71-13.14-17.14-28.21-32.9-41.28-50.09 9.92-5.08 20.28-9.13 30.31-13.99 24.52-11.87 52.28-29.68 79.51-32.78ZM509.51 448.07c30.6-2.62 94.02 34.42 120.87 50.92-8.1 7.75-17.62 13.84-25.63 21.81-23.6 23.48-42.12 54.36-58.2 83.3-7.22 15-14.2 30.07-22.5 44.52-30.29-38.56-50.02-73.94-56.49-123.48-2.71-20.81-2.52-44.93 11.36-62.13 8.08-10.03 18.19-13.83 30.6-14.94ZM1616.61 1488.6l1.97.35c2.95 4.29 1.51 10.67.63 15.63-8.41 47.32-51.43 85.79-89.51 111.74-49.09 33.45-111.99 54.27-170.81 60.94-11.17 1.26-22.55 1.36-33.78 1.73-13.48.45-26.73 1.24-40.17-.48 16.71-28.61 26.3-36.77 32-71.67 31.46-10.48 58.86-30.78 73.86-60.73 3.57-7.15 5.96-14.31 7.99-22.02.5.27.98.57 1.5.81 5.62 2.65 14.25 2.74 20.47 4.12 50.29 11.11 101.7 9.72 150.54-7.71 17-6.07 37.17-15.66 45.31-32.71Z"/>
  <path fill="#858484" d="M810.53 1215.5c23.27 10.3 47.36 16.56 72.12 22.03 90.9 20.08 203.22 22.12 291.24-11.78q11.2-4.34 22.1-9.41c16.38 27.95 33.3 55.21 45.25 85.44-6.48 6.27-10.03 14.68-15.67 21.65-16.49 20.39-41.19 37.43-64.67 48.68-76.49 36.65-199.36 39.64-278.32 11.62-33.28-11.81-72.47-30.08-93.5-59.57-7-9.79-11.78-21.01-16.92-31.83 5.81-13.6 11.46-27.35 18.38-40.43 6.45-12.21 14.13-23.91 20-36.4Z"/>
  <path fill="#DBDBDB" d="M772.16 1292.33c5.14 10.82 9.93 22.04 16.91 31.83 21.04 29.49 60.23 47.76 93.51 59.57 78.96 28.02 201.83 25.03 278.32-11.62 23.48-11.25 48.18-28.29 64.67-48.68 5.64-6.97 9.19-15.38 15.67-21.65 7.62 21.45 17.28 42.31 25.08 63.76 28.48 78.33 44.98 160.47 20.58 242.23-10.56 35.38-27.45 72.54-61.53 90.63-29.68 15.76-86.92 20.86-118.55 10.43-5.19-1.72-13.7-5.76-15.58-11.47-2.62-7.97 8.85-34.03 11.87-42.71-12.6.81-23.87 3.59-35.65 8.1-4.64 9.37-5.15 17.1-5.07 27.32-23.62 1.28-47.36 2.86-71.02 1.82-13.49-.59-27.03-2.53-40.43-4.08q-.54-5.93-1.7-11.78-1.14-5.85-2.9-11.54c-8.04-5.58-19.72-12.59-29.75-11.67-1.35.8-2.42.99-2.98 2.56-1.41 3.94.94 8.05 2.4 11.67 3.2 8 10.02 23.6 5.94 31.96-2.46 5.03-8.57 7.7-13.53 9.47-31.23 11.13-81.84 5.91-111.27-8.8-34.1-17.02-54.43-50.93-66.07-86.05-4.5-13.56-7.21-27.36-9.77-41.38-3.27-17.95-6.31-35.92-6.8-54.2-2.03-74.81 24.22-159.44 57.65-225.72ZM996.3 355.2l1.06-.14c23.24-2.33 47.77.81 70.84 3.96 94.63 12.91 183.88 48.9 258.65 108.8 14.9 11.93 30.05 24.42 43.38 38.1 17.25 17.68 32.56 38.82 46.32 59.3 7.82 11.63 16.26 23.45 23.21 35.6 26.41 46.19 41.27 96.75 46.99 149.44 11.32 104.1-9.46 208.87-76.29 291.58-73.85 91.39-189.81 151.39-304.21 172.23a509.87 509.87 0 0 1-53.64 7.07c-11.9.87-23.91.73-35.76 2.06l-1.14.13-1.02.08c-28.1 2.25-55.83-1.84-83.5-6.39-78.7-12.97-146.26-37.16-214.41-78.75-23.28-14.21-46.16-29.65-66.92-47.38-53.77-45.93-90.6-108.79-111.98-175.68-6.9-21.62-12.45-43.05-14.18-65.77-9.71-127.61 23.32-232.71 107.8-330.2 21.93-25.3 63.16-61.05 91.38-78.9 58.39-36.91 148.04-67.75 215.98-79.26 19.02-3.23 38.2-4.49 57.43-5.87Z"/>
  <path fill="#161516" d="M892.82 1020.93c3.9-.12 7.66.01 11.39 1.34 6.92 2.48 13.09 8 15.87 14.85 1.64 4.05 1.98 8.93.2 12.99-2.52 5.8-7.54 8.77-13.13 11.12l-15.74-.18c-4.03-2.96-7.99-6.32-10.67-10.59-2.77-4.39-4.12-9.52-2.67-14.62 2.18-7.68 8.29-11.24 14.75-14.91ZM1110.08 1019.97c3.4-.11 6.78.01 10.11.84 5.01 1.24 9.94 4.05 12.57 8.62 2.52 4.38 2.77 9.58 1.14 14.32-3.14 9.12-10.35 13.16-18.58 16.85-3.94.73-7.82.63-11.73-.38-4.47-1.15-8.23-3.59-10.35-7.79-2.38-4.74-2.53-10.63-.8-15.6 3.2-9.2 9.32-12.98 17.64-16.86Z"/>
  <path fill="#FEFEFE" d="M990.64 946.22c37.18-1.93 94.67 1.8 125.95 21.78 5.88 3.76 10.93 9.02 12.1 16.24.4 2.47.03 3.66-1.34 5.66-4.1 1.65-8.82 1.11-13.14.67-10.78-1.12-21.42-4.08-32.07-6.02q-26.37-4.87-53.09-7.06c-27.51-.63-56.18-1.42-83.44 2.84-10.5 1.63-47.85 13.21-55.53 9.3-2.58-1.3-2.62-2.04-3.42-4.62.78-5.93 4.07-10.92 8.05-15.28 16.9-18.5 71.34-22.19 95.93-23.5Z"/>
  <path fill="#161516" d="M1236.53 712.84c10.62-.17 21.05 1.2 30.7 5.85 19.36 9.31 32.48 28.32 39.25 48.2 16.67 49 15.27 130.97-7.82 177.1-9.79 19.56-23.43 29.39-43.84 36.09-12.13 3.17-25.76 1.03-36.53-5.26-20.17-11.8-31.22-36.4-36.67-58.13-11.23-44.8-12.3-135.43 11.63-174.76 9.45-15.54 26.06-24.76 43.28-29.09Z"/>
  <path fill="#FEFEFE" d="M1232.99 738.34c5.29-.2 10.59.03 15.88.16 8.84 5.99 12.56 11.72 16.63 21.37-4.41 8.58-9.09 13.47-17.21 18.51-4.23.74-8.16 1.42-12.43.57-6.34-1.27-12.13-4.53-15.57-10.15q-.26-.42-.5-.86-.25-.43-.46-.88l-.42-.9-.36-.94q-.17-.47-.31-.94-.15-.48-.27-.96l-.21-.98-.16-.98q-.07-.5-.11-1-.04-.49-.05-.99-.02-.5-.01-1 .01-.49.05-.99t.1-.99q.07-.5.16-.98.09-.5.2-.98l.26-.96c2.38-8 8-11.26 14.79-15.13Z"/>
  <path fill="#161516" d="M766.52 712.86c13.9-.01 27.03 3.02 38.42 11.32 18.23 13.27 26.04 37.24 29.2 58.6 5.2 35.1 5.16 99.9-2.42 134.02-3.18 14.3-8.39 28.7-17.29 40.5-12.16 16.1-27.6 22.21-46.96 24.89-9.82-.7-18.3-2.2-26.84-7.42-20.6-12.6-32.13-37.91-37.9-60.43-12.16-47.41-11.34-126.56 14.32-169.15 11.38-18.9 28.7-27.29 49.47-32.33Z"/>
  <path fill="#FEFEFE" d="M767.42 739.36c5.45-.04 10.28.16 15.22 2.7 5.84 3 10.63 8.28 12.36 14.68 1.23 4.55.79 9.4-1.66 13.48-3.55 5.9-9 8.01-15.37 9.6-5.06.05-10.06-.3-15.1-.62-5.12-3.64-10.17-7.22-13.07-12.99-2.09-4.14-2.68-8.72-.9-13.1 3.22-7.93 11.18-10.86 18.52-13.75Z"/>
</svg>