<svg xmlns="http://www.w3.org/2000/svg" width="1024" height="1024">
  <path fill="#4F4B56" d="M143.17 737.71c2.62.83 3.48 2.17 4.73 4.54 1.2 2.24 2.12 4.69 3.1 7.02-.47 1.18-.84 2.35-1.73 3.29-1.86-5.04-4.5-9.7-6.1-14.85ZM465.1 15.12c6.07-.43 11.94-1.22 17.94-2.31a7.57 7.57 0 0 1-5.09 4.14c-3 .87-6.32.54-9.41.4l-.16-.64c-1.1-.86-1.66-.76-3.01-.89l-.28-.7Z"/>
  <path fill="#E5E4E5" fill-opacity=".01" d="M905.05 507.2c.7 1.03.45 1.68.8 2.75.08.25.26.45.4.67l.09-.83c2.12 4.3 1.17 17.73.7 22.65l-1.17-.53c-2.39-5.32-1.87-18.9-.82-24.72Z"/>
  <defs>
    <linearGradient id="a" x1="436.33" x2="427.1" y1="35.4" y2="22" gradientUnits="userSpaceOnUse">
      <stop offset="0" stop-color="#3C3C40" stop-opacity=".98"/>
      <stop offset="1" stop-color="#5A5872"/>
    </linearGradient>
  </defs>
  <path fill="url(#a)" d="M390.71 45.33c5.86-2.97 11.26-6.8 17.06-9.9q5.76-3.06 11.7-5.73 5.95-2.67 12.06-4.94 6.11-2.27 12.36-4.13 6.25-1.86 12.6-3.3c2.97-.68 5.5-2.1 8.6-2.21l.28.7c1.35.13 1.92.03 3 .89l.17.65-.63-.06c-.75-.1-1.43-.25-2.15-.43a15.3 15.3 0 0 0-3.46 1.6c-3.57 2.16-8.31 2.18-12.32 3.17-10.85 2.69-30.76 10.75-40.58 16.22-4.16 2.32-8.05 5.74-12.31 7.77-1.15.04-1.97.2-3.04-.31l1.28-.98c-1.7-.3-2.6 1.67-4.62.99Z"/>
  <path fill="#C2C1C2" d="m902 503.54 3.05 3.65c-1.05 5.81-1.57 19.4.82 24.72l1.17.53c2.18 9.21.59 30.6.56 41.34-.03 13.36.7 27.11-.13 40.43a8.42 8.42 0 0 1-.89 3.57c-.52 1.06-1.04 2.12-1.58 3.16-.46-2.9.27-6.4.39-9.36.22-5.49.2-11 .23-16.5q.06-18.07-.11-36.16c-.04-6.17.22-12.54-.2-18.68-.24-3.55-1.86-6.94-2.13-10.48-.54-6.86.49-13.62-.62-20.53-.29-1.91-.6-3.75-.56-5.69Z"/>
  <path fill="#4F4B56" d="M390.71 45.33c2.03.68 2.91-1.3 4.62-1l-1.28.99c1.07.5 1.9.35 3.04.31-4.43 2.4-9.17 4.24-13.51 6.76-10.7 6.22-20.74 14.26-30.62 21.65-2.04 1.53-4.6 2.26-6.62 3.86-7.96 6.3-16.2 16.86-24.36 23.86-9.43 10.62-20.66 19.7-29.82 30.52-1.86 2.2-2.95 4.93-4.72 7.2-2.38 3.04-5.31 5.7-7.82 8.64-2.56 3-4.5 6.5-7 9.53-2.7 3.28-5.8 6.19-8.38 9.55-4.09 5.31-12.42 18.82-16.62 22.16-1.12.9-3.18 2.21-3.9 3.39-.8 1.32-.63 2.87-1.37 4.22-1.97 3.6-4.84 6.93-7.02 10.46a422.16 422.16 0 0 0-13.46 23.92c-1.3 2.45-3.52 4.31-4.95 6.67-2.33 3.83-3.93 8.3-6.1 12.26-2.26 4.11-4.99 7.94-7.4 11.96-2.8 4.72-5.25 9.72-7.75 14.62a285.66 285.66 0 0 0-9.57 20.08c-1.69 4.04-2.93 8.26-4.68 12.26-2.86 6.58-6.42 12.82-9.05 19.5-2.22 5.67-3.74 11.58-5.93 17.25-3.32 8.55-7.39 16.85-10.55 25.46-6.37 17.37-10.39 33.01-15.14 50.76-2.44 9.09-5.14 17.57-6.65 26.9-1.07-.24-1.74-.76-2.64-1.35 1.26-3.53.86-7.7 1.88-11.4 5.37-19.49 10.17-39.13 16.72-58.27 3.94-11.48 8.7-22.57 13.2-33.84 2.64-6.63 4.74-13.48 7.49-20.07 2.38-5.71 5.34-11.19 7.86-16.84 1.96-4.4 3.6-8.93 5.61-13.3q15.54-32.94 34.34-64.13c5.83-9.86 11.45-19.74 17.82-29.28a573.94 573.94 0 0 1 25.94-35.81c2.32-2.95 4.9-5.7 7.22-8.65 13.56-17.33 26.9-34.05 42.92-49.22 19.32-22.06 51.88-48.93 78.25-61.58Z"/>
  <path fill="#2F2D30" d="M483.04 12.8c13.72-1.19 28.21-.25 42.02-.24 6.54 0 17.29-.98 23.35.3 6.6.6 14.57 1.6 20.72 4.08 12.4 3.68 35.47 11.08 46.03 17.27 3.72 1.66 7.58 3.53 10.89 5.92 11.05 6.05 22.17 12.18 32.37 19.63 5.85 4.26 11.19 9.19 17 13.5 2.51 2.15 6.22 4.66 8.18 7.3 7.12 6.45 13.74 13.5 20.95 19.8 3.52 2.63 8.63 6.49 10.6 10.47 5.55 6 11.32 11.88 16.63 18.09 10.63 10.84 25.7 28.7 33.9 41.6q3.84 5.21 7.8 10.34c3.82 4.66 6.9 10.2 10.24 15.23 11.26 16.97 21.56 33.89 30.94 51.98l8.15 14.98c2.58 3.82 30.52 62.05 31.02 64.81a205.45 205.45 0 0 1 6.51 15.7c6.62 18.2 13.35 36.17 19.05 54.7 3.56 11.55 6.26 23.4 9.12 35.14 4.46 18.25 8.94 36.98 11.78 55.57.45 3.84 2.04 11.04 1.71 14.57-.04 1.94.27 3.78.56 5.69 1.11 6.91.08 13.67.62 20.53.27 3.54 1.9 6.93 2.13 10.48.42 6.14.16 12.5.2 18.68q.17 18.09.11 36.17c-.03 5.5-.01 11-.23 16.5-.12 2.95-.85 6.46-.4 9.35-.01 2.62-.84 5.15-1 7.77-1.02 15.84-3.45 30.99-6.88 46.48-15.5 70.08-42.5 124.9-86.13 181.66-11.46 14.9-23.23 29.9-36.62 43.1-7.1 7-14.47 13-22.06 19.42q-8.17 7-16.7 13.56-8.53 6.56-17.38 12.67-8.86 6.1-18.03 11.74-9.17 5.63-18.61 10.77c-5.68 3.03-11.71 5.29-17.55 7.97-11.74 5.37-23.28 10.78-35.4 15.27-6.3 2.32-12.76 3.98-19.2 5.82-15.04 4.3-30.31 8.29-45.8 10.66-4.6.71-9.3.87-13.94 1.35-4.85.49-9.68 1.4-14.55 1.73-12.2.82-24.65.56-36.9.45-35.61-.29-88-13.52-121.43-27.04-18.02-7.29-36.14-16.69-52.78-26.76-10.32-6.24-19.8-13.75-29.5-20.87-9.25-6.8-20.66-13.54-28.42-21.95-.08-.09-.13-.19-.2-.28-7.24-5.16-21.94-20.74-27.96-27.85-6.36-5.85-11.35-13.33-16.8-20-11.38-13.9-24-27.1-33.27-42.58q-3.37-5.73-6.85-11.4c-3.54-3.01-14.73-24.27-17.11-29.63-5.2-9.88-10.82-19.94-14.65-30.44.89-.94 1.26-2.11 1.73-3.28-.98-2.34-1.9-4.8-3.1-7.03-1.25-2.37-2.12-3.71-4.73-4.54-3.57-11.7-8.1-23.08-11.51-34.86-1.4-4.8-2.02-9.8-3.16-14.67-3.64-15.5-7.18-30.64-9.25-46.44-.55-4.26-2.33-8.42-2.3-12.7-1.03-6.94-.52-14.53-.4-21.53q-.2-20.83-.14-41.65c0-16.06-.6-30.06 2.57-45.92.59-5.14-.08-11.8 1.82-16.55 1.42-5.22 1.46-10.45 2.27-15.76.62-4.07 1.74-8.07 2.4-12.14.5-3.13.58-6.39 1.7-9.36 1.92-6.1.8-12.9 4.29-18.4.9.58 1.57 1.1 2.64 1.34 1.51-9.33 4.2-17.81 6.65-26.9 4.75-17.75 8.77-33.39 15.14-50.76 3.16-8.6 7.23-16.92 10.55-25.47 2.2-5.66 3.71-11.57 5.93-17.23 2.63-6.7 6.19-12.93 9.05-19.5 1.75-4.01 3-8.23 4.68-12.26a285.66 285.66 0 0 1 9.56-20.1c2.51-4.9 4.95-9.89 7.77-14.6 2.4-4.03 5.13-7.86 7.39-11.97 2.17-3.96 3.77-8.43 6.1-12.26 1.43-2.36 3.65-4.22 4.95-6.67 4.34-8.15 8.6-16.05 13.46-23.92 2.18-3.53 5.05-6.86 7.02-10.46.74-1.35.57-2.9 1.37-4.22.72-1.18 2.78-2.5 3.9-3.39 4.2-3.34 12.53-16.85 16.62-22.16 2.59-3.36 5.69-6.27 8.38-9.54 2.5-3.05 4.44-6.54 7-9.54 2.51-2.95 5.44-5.6 7.82-8.65 1.77-2.26 2.86-4.99 4.72-7.19 9.16-10.81 20.39-19.9 29.82-30.52 8.16-7 16.4-17.56 24.36-23.86 2.02-1.6 4.58-2.33 6.62-3.86 9.88-7.4 19.93-15.43 30.62-21.65 4.34-2.52 9.08-4.36 13.51-6.76 4.26-2.03 8.15-5.45 12.31-7.77 9.82-5.47 29.73-13.53 40.58-16.22 4-.99 8.75-1.01 12.31-3.17a15.3 15.3 0 0 1 3.47-1.6c.73.18 1.4.34 2.15.43l.63.06c3.1.13 6.4.46 9.41-.41a7.57 7.57 0 0 0 5.09-4.14Z"/>
  <path fill="#22222A" d="m871.33 538.62 1.67-1.04c1.27 1.32 1.34 2.93 1.27 4.68-.06 1.7.02 5.25-1.36 6.42-.15.14-.34.22-.5.32-.59-3.37-.73-6.96-1.08-10.38Z"/>
  <path fill="#4F4B56" d="M765.67 170.52q3.85 5.21 7.8 10.34c-.7-.04-1.27-.06-1.96-.32-2.17-.82-4.5-3.51-5.48-5.55a5.24 5.24 0 0 1-.36-4.47ZM181.03 812.63c1.58.03 2.36-.03 3.55 1.1 2.06 1.97 4.1 6.05 3.83 8.94-.05.63-.22.79-.53 1.36q-3.37-5.73-6.85-11.4ZM853.83 327.86a205.45 205.45 0 0 1 6.51 15.7 9.75 9.75 0 0 1-3.33-3.24c-2.8-4-4.05-7.64-3.18-12.46ZM822.8 263.05c-.26-.05-.53-.09-.8-.16-2.51-.69-4.47-4.39-5.57-6.59-1.25-2.52-2.73-5.48-1.77-8.23l8.15 14.98Z"/>
  <path fill="#5F5D63" d="m116.55 607.5.41.17.7-.33.9-2.68c.02 5.19.99 19.6-.68 23.63l-.94.74c-1.02-6.93-.5-14.52-.4-21.52Z"/>
  <path fill="#4F4B56" d="M898.33 503.15c.04-4.86-.3-9.71 1.96-14.18.45 3.84 2.04 11.04 1.71 14.57-.04 1.94.27 3.78.56 5.69-1.56-1.85-2.86-4.08-4.23-6.08ZM120.8 503.39l.69.16a18.02 18.02 0 0 1 3.24-1.8c-3.08 7.64-2.14 10.82-2.6 18.45l-3.15-.26c.59-5.14-.08-11.8 1.82-16.55ZM731.78 128.92c-.53.2-.54.28-1.07.2-3.1-.45-13.08-11.3-14.92-14.43-.92-1.55-1.02-2.12-.64-3.86 5.55 6 11.32 11.88 16.63 18.09ZM683.6 80.56c7.12 6.45 13.74 13.5 20.95 19.8-.76.83-.65.65-1.66.8a18.93 18.93 0 0 1-4.16-2.82c-4.14-3.58-14.72-12.54-15.13-17.78ZM151 749.27c.77 3.21 1.64 6.24 3.04 9.24 2.3 4.94 7.72 11.53 8.02 16.97-1.1-2.27-3.18-5.11-3.72-7.5l-1.52-1.4c1.57 3.73 7.8 12.87 7.1 16.42-5.2-9.88-10.82-19.94-14.65-30.44.89-.94 1.26-2.11 1.73-3.28Z"/>
  <path fill="#22222A" d="M149.59 607.63a5.14 5.14 0 0 1-1.92-.38c-1.68-9.79-.53-25.57-.1-35.67l.76-.33-.74.26.02-.33.75.14-.78.3.83-.1c.44 1.5.52 3.07.67 4.62q-.06 15.75.5 31.49Z"/>
  <path fill="#74737A" d="M131.46 447.72c.9.6 1.57 1.1 2.64 1.35 3.86-.27 7.92.48 11.7 1.2-3.88.11-9.74-.65-12.84 1.96-2.18 3.99-.3 10.06-2.3 14.46-1.3-.04-2.24-.15-3.5-.56 1.93-6.1.81-12.9 4.3-18.4Z"/>
  <path fill="#22222A" d="M861.88 466.67c.62.64.82.93 1.18 1.7l.02-.5c2.64 6.15 2.33 12.77 3.39 19.25.79 4.88 4.45 14.28 2.35 19.1-.22.5-.48.78-.81 1.19-1.3-4.63-1.31-9.52-2.71-14.14a334.4 334.4 0 0 1-3.42-26.6Z"/>
  <path fill="#4F4B56" d="M237.95 886.61c.87-.3.99-.56 1.86-.15 3.31 1.56 25.5 23.38 26.1 26.53.1.54.04.94 0 1.47-7.24-5.16-21.94-20.74-27.96-27.85Z"/>
  <path fill="#22222A" d="M653.62 96.51c2.17.12 3.19 1.85 5.13 1.76-.7-1.1-1.63-1.63-2.71-2.32l.34-.1-.66-.33c9.53 3.8 21.69 17.68 29.25 25.26l-.67.18.72.42c-1.93-.86-3.99-4.2-5.89-4.47 2.16 2.18 5.86 5 7.28 7.6l-.71.14c-4.09-2.67-8.06-7.24-11.7-10.58a367.68 367.68 0 0 0-20.38-17.56Z"/>
  <path fill="#5F5D63" d="M120.8 503.39c1.42-5.22 1.46-10.45 2.27-15.76.62-4.07 1.74-8.07 2.4-12.14.5-3.13.58-6.39 1.7-9.36 1.25.4 2.19.52 3.48.56-2.4 5.24-1.35 10.22-2.98 15.44-.62 2.02-1.86 4.01-2.85 5.88.97 4.57.97 9.17-.1 13.73-1.2.5-2.15 1.1-3.23 1.81l-.7-.16Z"/>
  <path fill="#4F4B56" d="M675.42 73.26c-.75.1-1.28.08-2.03-.08-6.33-1.35-8.2-6.03-12.89-9.57-3.1-2.35-6.86-4.22-10.21-6.23-3.78-2.27-7.32-4.95-11.13-7.15-3.3-1.93-7-3.1-10.18-5.26-1.1-.75-2.29-1.65-2.94-2.84-.48-.88-.21-1.08 0-2 11.06 6.05 22.18 12.18 32.38 19.63 5.85 4.26 11.19 9.19 17 13.5ZM548.41 12.86c6.6.6 14.57 1.6 20.72 4.08 12.4 3.68 35.47 11.08 46.03 17.27-2.82.54-5.7-.27-8.41-1.04-4.47-1.28-8.69-3.46-13.03-5.1-7.7-2.9-15.72-5.5-23.54-8.04-1.84-.5-3.57-1.35-5.44-1.78-3.2-.73-6.53-.95-9.75-1.65-2.47-.54-5.18-1.54-6.58-3.74Z"/>
  <path fill="#74737A" d="m118.98 519.94 3.14.26c-.46 6.1-3.2 11.13-3.48 17.25-1.04 22.31 1.23 44.93-.07 67.21l-.92 2.68-.69.33-.41-.16q-.2-20.83-.14-41.65c0-16.06-.6-30.06 2.57-45.92Z"/>
  <path fill="#C2C1C2" d="m161.34 469.62.1.46c.89 4.42.63 9.33 2.07 13.59 1.29.59 2.6.76 3.98.98l.17.52a18.6 18.6 0 0 1-3.9 1.03l-.19.53a20.2 20.2 0 0 0 3.82 1.8 9.1 9.1 0 0 1-2.9.5l-.4.67c.92 1.33 3.19.63 3.55 2l-1.04 1.07.35.66.69.08c.64.07 1.24.17 1.86.32.77 1.6 1.7 8.64 1.13 10.3-.09.24-.24.46-.35.7-.72 1.48-1.83 3.34-2 4.96.9-.31.43-.02 1.13-1.04.99-1.43 2.3-2.58 3.55-3.77-.88 2.74-2.89 5.95-3.17 8.66.56.52 1.9 1.52 2.06 2.2-.65.73-.9.95-1.8 1.4.44 1.76 1.26.94 1.9 2.05.8 1.38-3.1 5.48-1.77 8.36.8-.02 2.38-.27 3.08.05-.13.25-.26.48-.37.73-.63 1.33-1.02 2.03-.68 3.46a49.8 49.8 0 0 1 2.3-.4l.51 1.01-.31.85-1.88.56a8.01 8.01 0 0 0-.04 3.12l.69.44 2-.79.36.52c-1.22.5-2.45.97-3.58 1.65 1.4 1.35 4.15.85 4.4 2.97l-1.11.18 1.36.21-.73.35c-1.21-1.06-1.52-1.45-3.13-1.78l-.34.6c1.14 1.85 3.4 2.23 4.27 4.15-.58.66-1.15 1.19-1.84 1.73.97.55 1.3.55 2.38.62.8 1.4.02 1.45.04 2.88.03 1.35 3.65 3.97 4.1 5.6.66 2.4-.04 5.76.23 8.33.38 3.59 3.48 7.85 2.47 11.38-.16.58-.38 1.14-.57 1.71a3.3 3.3 0 0 0-.04 2.22l.7.86.3-.71c.49-1.06.28-.66.97-1.68.88.7.74.66 1.05 1.65a6.53 6.53 0 0 1-1.7 2.17l1 1.37c.33 0 .67-.04 1 .02 1.16.22 1.71 2.28 2.15 3.31.74 1.77 2.56 5.52 2.43 7.39-.2 2.76-4.13 6.9-.37 9.01 1.62 0 2.25-.19 3.63.72 4.13 7.68 7.15 15.93 10.84 23.83 2.95 6.34 8.93 16.9 12.63 23.07q3.84 6.46 7.95 12.75 4.1 6.3 8.46 12.41 4.36 6.12 8.97 12.06 4.61 5.93 9.46 11.66 4.86 5.74 9.94 11.27 5.09 5.53 10.4 10.85 5.3 5.31 10.83 10.4 5.53 5.1 11.26 9.95c7.6 6.55 15.1 12.91 23.38 18.62 6.53 4.5 13.7 8.16 20.47 12.28 7.25 4.4 14.42 9.17 21.9 13.16 9.45 5.02 19.39 8.67 29.34 12.5 9 3.48 18.13 7.16 27.38 9.9 13.1 3.86 26.66 7.51 40.2 9.41l.57 1.38c7.12.45 14.31-.16 21.4.42 4.27.35 8.46 1.4 12.73 1.75 4.06.34 8.14.18 12.2.58 4.05.4 8.19 1.32 12.26 1.35 4.88.04 9.71-1.01 14.55-1.49a1155.1 1155.1 0 0 0 37.06-4.16c4.75-.62 9.7-.43 14.39-1.4 10.44-2.13 22.82-4.65 31.9-10.43l2.61-1.63c9.39-7.7 15-8.92 26.98-8.54l1.1-.01c5.96-.23 35.12-17.43 41.7-21.6 3.53-2.25 6.69-5.08 10.13-7.46 10.15-7.04 20.9-13.43 30.23-21.62 2.8-2.46 4.99-5.59 7.7-8.15 3.38-3.18 7.45-5.53 10.82-8.72 6.93-6.57 13.09-14.3 19.57-21.35 1.2.21.65.2 1.64.1a4.31 4.31 0 0 1-.32-1.91c3.2-3.89 6.07-7.97 9.18-11.91 2.03-2.59 4.38-5 6.27-7.69 1.93-2.74 3.34-6 5.36-8.64 1.3-1.7 4.04-2.74 5.1-4.26 2.98-4.33 2.92-9.62 7.75-12.97 1.1-.75 2.14-4.57 2.7-5.95l.42-.1c.08 2 .15 3.98.35 5.96 2.65-1.45 1.2-7.2 2.4-9.9l.52.3c-.37 2.8.1 6.1.24 8.94.7-1.22 1.74-2.72 2-4.11.28-1.6-.46-3.1-1.31-4.37-.57-.85-.92-1.25-.94-2.31 1.53-3.16 3.73-3.56 6.76-4.78 1.38-.55 2.32-1.25 2.88-2.7 1.13-2.99.88-5.07-.37-7.92-.25-.58-.3-.44-.22-1 .26-1.97 8.94-19.55 10.44-22.05.51-.86 1.08-1.3 1.85-1.93-.16-.29-.39-.55-.5-.87-.63-1.66 2.72-6.56 3.28-8.43.07-.21.11-.42.17-.63l1.62-.72a19.1 19.1 0 0 1 .48-5.13c.43-1.78 1.3-2.19 2.78-3.08.98-.58 1.36-.69 2-1.65-.94-.43-1.76-.78-2.52-1.48 1.3-.97 1.89.28 3.47-.28a4.38 4.38 0 0 0 1.3-2.77c.18-1.08.34-1.8.89-2.76l.58.67-.29 1.56c.74-1.32 3.27-6.14 3.16-7.53-.19-2.51-1.94-4.1-1.23-6.92.61-2.44 2.8-4.42 3.36-6.79.4-1.67-.63-3.6-.37-5.14.37-2.2 3.91-5.48 4.41-8.45.7-4.1-1.16-8.03-1.19-12.07-.02-3.57 1.52-8.14 2.5-11.62.89-.36.97-.4 1.6-1.2-.91-.63-1-.49-1.37-1.6.66-1.2 1.25-1.11 2.48-1.54l.16-.54c-1.1-.35-2.13-.72-3.18-1.2l.27-.5c.97-.2 1.86-.4 2.77-.8l-1.83-1.42c-.29-1.32-.27-1.35.3-2.57a3.84 3.84 0 0 1 2.54-.57c.96.04 1.8.03 2.76-.11.08-.13.18-.24.24-.38 1.13-2.35-1.5-5.22-1.98-7.56a7.67 7.67 0 0 1 .98-5.6c1.73-.15 3.13-.36 4.76-.96 1.27-1.13 1.52-2.47 1.98-4.04 1.4 4.62 1.42 9.51 2.7 14.14 1.06 4.37.93 8.29 1.36 12.7l1.97 18.5c.35 3.43.5 7.02 1.07 10.4l1.14.28c-.06.14-.14.28-.19.43-.43 1.33-.04 2.91-.35 4.37-1.04 4.96.08 11.69.09 16.85q-.07 16.16-.74 32.3c-.22 5.18-1.15 10.37-1.78 15.52q-1.95 16.9-4.52 33.74c-4.26 27.8-13.11 56.02-23.58 82.03-3.92 9.74-7.36 19.5-11.84 29.01-21.92 46.65-54.28 86.15-91.93 120.97-6.4 5.92-13.1 11.46-19.69 17.16-6.12 5.31-11.97 10.92-18.74 15.42-68.19 45.38-158.93 70.62-240.2 53.93-23.45-4.81-46.66-10.79-69.05-19.38-55.59-21.33-104.49-58.38-142.68-103.76-10.27-12.2-19.59-23.4-28.4-36.8-10.65-16.19-21.21-32.62-29.87-49.99-5.59-11.2-10.27-23.02-14.92-34.64-2.95-7.36-6.38-14.8-8.68-22.38-6.1-20.1-10.16-41.07-13.33-61.8a394.7 394.7 0 0 1-2.9-25.14c-.28-3.15-.21-6.37-.65-9.5q-.57-15.74-.51-31.49c1.27-8.6.43-17.51 1.1-26.18.9-11.71 3-24.18 3.62-35.64.36-6.67-.37-13.6.6-20.2 1.2-8.16 5-16.35 6.94-24.5Z"/>
  <path fill="#E5E4E5" d="M828.92 607.95c-.16-.29-.39-.55-.5-.87-.63-1.66 2.72-6.56 3.28-8.43.07-.21.11-.42.17-.63l1.62-.72c-.76 3.6-1.28 7.53-2.88 10.86l-.7.29-.99-.5Z"/>
  <path fill="#2F2D30" d="M720.17 780.58c5.6-.14 10.85-.2 15.9 2.69a15.2 15.2 0 0 1 7.45 9.87c1.56 6.49.83 14.52-2.76 20.18-3.64 5.73-9.5 10.33-16.17 11.7-3.27.37-6.61.51-9.84-.28-6.24-1.54-10.85-6.43-14.08-11.76-.48-6.24-1.22-11.98 1.73-17.78 3.63-7.13 10.35-12.04 17.77-14.62ZM618 804.6c9.38-7.7 14.98-8.92 26.97-8.54 6.66 1.38 13.26 3.9 17.2 9.83 3.4 5.14 4.13 13.27 2.68 19.2-1.8 7.4-6.95 13.51-13.49 17.25-7.23 4.13-15.74 6.01-23.87 3.67-6.03-1.74-11.96-5.36-14.95-11.04-2.63-5-3.14-13.58-1.3-19.03 1.46-4.28 4.92-7.28 6.75-11.34Z"/>
  <path fill="#FDFDFA" d="M161.34 469.62c1.72-5.94 2.26-12.54 3.52-18.64a487.13 487.13 0 0 1 8.91-35.8q7.86-27.66 17.7-54.69 9.83-27.03 21.6-53.27c2.26-4.93 5.28-9.47 7.58-14.37 2.01-4.26 3.67-8.7 5.78-12.92 2.16-4.33 4.79-8.42 6.98-12.74 2.13-4.18 3.77-8.6 6.08-12.7 5.37-9.5 11.63-18.47 17.7-27.52 5.78-8.61 11.3-17.41 17.04-26.06 2.3-3.46 5.07-6.55 7.54-9.88 2.8-3.79 5.21-7.85 8.04-11.62 4.6-6.13 9.9-11.89 14.83-17.77 3.46-4.15 6.67-8.51 10.2-12.6 15.89-18.43 34.2-36.78 53.43-51.7 5.54-4.3 11.62-7.88 17.34-11.95 21.7-15.42 37.01-24.94 62.42-33.56 8.38-2.85 16.67-5.45 25.36-7.19 56.32-11.24 105.2 2.3 153.23 32.37 9.34 5.85 17.78 13.35 27 19.5A367.68 367.68 0 0 1 674 114.07c3.63 3.34 7.6 7.91 11.69 10.59 8.63 10.02 18.2 19.1 26.6 29.38q5.82 6.98 11.45 14.11 5.64 7.13 11.1 14.4 5.44 7.28 10.7 14.7 5.27 7.4 10.34 14.95 5.07 7.55 9.94 15.22 4.88 7.67 9.55 15.47 4.68 7.8 9.15 15.7 4.47 7.92 8.74 15.95 4.27 8.02 8.33 16.15 4.06 8.14 7.91 16.37 3.85 8.24 7.49 16.57 3.63 8.33 7.06 16.75 3.42 8.42 6.62 16.93 3.2 8.5 6.19 17.1 2.98 8.58 5.75 17.24 2.76 8.66 5.3 17.39a561.7 561.7 0 0 1 10.02 39.19c1.36 6.08 2.23 12.47 3.94 18.44a334.4 334.4 0 0 0 3.42 26.6c-.46 1.57-.7 2.91-1.98 4.04-1.63.6-3.03.81-4.76.96a7.67 7.67 0 0 0-.98 5.6c.49 2.34 3.1 5.21 1.98 7.56-.06.14-.16.25-.24.38-.96.14-1.8.15-2.76.11a3.84 3.84 0 0 0-2.53.57c-.58 1.22-.6 1.25-.31 2.57l1.83 1.43c-.91.4-1.8.59-2.77.8l-.26.5c1.04.47 2.08.84 3.17 1.2l-.16.53c-1.23.43-1.82.34-2.48 1.53.36 1.12.46.98 1.37 1.6-.63.81-.71.85-1.6 1.21-.98 3.48-2.52 8.05-2.5 11.62.03 4.04 1.88 7.96 1.2 12.07-.5 2.97-4.05 6.25-4.42 8.45-.26 1.54.76 3.47.37 5.14-.56 2.37-2.75 4.35-3.36 6.8-.71 2.81 1.04 4.4 1.23 6.91.11 1.4-2.42 6.2-3.16 7.53l.3-1.56-.6-.67c-.54.96-.7 1.68-.87 2.75a4.38 4.38 0 0 1-1.3 2.78c-1.6.56-2.18-.69-3.49.28.77.7 1.59 1.05 2.52 1.48-.63.96-1.01 1.07-1.99 1.65-1.48.9-2.35 1.3-2.78 3.08a19.1 19.1 0 0 0-.48 5.13l-1.62.72c-.06.2-.1.42-.17.63-.56 1.87-3.9 6.77-3.28 8.43.11.32.34.58.5.87-.77.63-1.34 1.07-1.85 1.93-1.5 2.5-10.18 20.08-10.44 22.05-.08.56-.03.42.22 1 1.25 2.85 1.5 4.94.37 7.91-.56 1.46-1.5 2.15-2.88 2.71-3.03 1.22-5.23 1.62-6.76 4.78.01 1.06.37 1.46.94 2.31.85 1.27 1.6 2.77 1.3 4.37-.25 1.4-1.29 2.89-2 4.1-.13-2.83-.6-6.14-.23-8.93l-.52-.3c-1.2 2.7.25 8.45-2.4 9.9-.2-1.98-.26-3.97-.35-5.95l-.43.09c-.55 1.38-1.6 5.2-2.69 5.95-4.83 3.35-4.77 8.64-7.75 12.97-1.06 1.52-3.8 2.56-5.1 4.26-2.02 2.64-3.43 5.9-5.36 8.64-1.9 2.68-4.24 5.1-6.27 7.69-3.1 3.94-5.99 8.02-9.18 11.9 0 .88.04 1.14.32 1.92-1 .1-.45.11-1.64-.1-6.48 7.05-12.64 14.78-19.57 21.35-3.37 3.2-7.44 5.54-10.81 8.72-2.73 2.56-4.91 5.69-7.71 8.15-9.32 8.2-20.08 14.58-30.23 21.62-3.44 2.38-6.6 5.2-10.13 7.46-6.58 4.17-35.74 21.37-41.7 21.6h-1.1c-11.99-.37-17.6.86-26.98 8.55l-2.62 1.63c-9.07 5.78-21.45 8.3-31.9 10.44-4.69.96-9.63.77-14.38 1.39a1155.1 1155.1 0 0 1-37.06 4.16c-4.84.48-9.67 1.53-14.55 1.5-4.07-.04-8.2-.97-12.26-1.37-4.06-.4-8.14-.23-12.2-.57-4.27-.35-8.46-1.4-12.72-1.75-7.1-.58-14.3.03-21.4-.42l-.58-1.38c-13.54-1.9-27.1-5.55-40.2-9.42-9.25-2.73-18.38-6.4-27.38-9.88-9.95-3.84-19.9-7.49-29.34-12.51-7.48-3.99-14.65-8.76-21.9-13.16-6.78-4.12-13.94-7.77-20.47-12.28-8.27-5.71-15.78-12.07-23.38-18.62q-5.73-4.86-11.26-9.95-5.52-5.09-10.83-10.4-5.31-5.32-10.4-10.85-5.08-5.53-9.94-11.27-4.85-5.73-9.46-11.66-4.6-5.94-8.97-12.06-4.36-6.12-8.46-12.4-4.1-6.3-7.95-12.76c-3.7-6.16-9.68-16.73-12.63-23.07-3.69-7.9-6.71-16.15-10.84-23.83-1.38-.9-2.01-.72-3.63-.72-3.76-2.1.17-6.25.37-9.01.13-1.87-1.69-5.62-2.43-7.39-.44-1.03-1-3.09-2.15-3.3-.33-.07-.67-.03-1-.03l-1-1.37a6.53 6.53 0 0 0 1.7-2.17c-.31-.99-.17-.96-1.05-1.65-.69 1.02-.48.62-.96 1.68l-.32.71-.7-.86a3.3 3.3 0 0 1 .05-2.22c.19-.57.4-1.13.57-1.71 1-3.53-2.1-7.8-2.47-11.38-.27-2.57.43-5.92-.23-8.32-.45-1.64-4.07-4.26-4.1-5.6-.02-1.44.75-1.48-.05-2.9-1.07-.06-1.4-.06-2.37-.61.69-.54 1.26-1.07 1.84-1.73-.88-1.92-3.13-2.3-4.27-4.15l.34-.6c1.61.33 1.92.72 3.13 1.78l.73-.35-1.36-.2 1.1-.2c-.24-2.11-3-1.6-4.39-2.96 1.13-.68 2.36-1.15 3.58-1.65l-.36-.52-2 .79-.69-.44a8.01 8.01 0 0 1 .04-3.12l1.88-.56.31-.85-.51-1c-.77.1-1.54.24-2.3.38-.34-1.42.05-2.12.68-3.45.11-.25.24-.48.37-.73-.7-.32-2.28-.07-3.08-.05-1.33-2.88 2.58-6.98 1.78-8.36-.65-1.11-1.47-.29-1.91-2.05.9-.45 1.15-.67 1.8-1.4-.16-.68-1.5-1.68-2.06-2.2.28-2.7 2.3-5.92 3.17-8.66-1.26 1.19-2.56 2.34-3.55 3.77-.7 1.02-.23.73-1.13 1.04.17-1.62 1.28-3.48 2-4.97.11-.23.26-.45.35-.7.58-1.65-.36-8.7-1.13-10.3-.62-.14-1.22-.24-1.86-.31l-.69-.08-.35-.66 1.04-1.06c-.36-1.38-2.63-.68-3.55-2l.4-.69a9.1 9.1 0 0 0 2.9-.48 20.2 20.2 0 0 1-3.82-1.8l.19-.54a18.6 18.6 0 0 0 3.9-1.03l-.17-.52c-1.39-.22-2.69-.4-3.98-.98-1.44-4.26-1.18-9.17-2.07-13.59l-.1-.46Z"/>
  <path fill="#22222A" d="M785.17 400.61c3.19-.25 6.52-.66 9.68.04 4.39.96 6.76 3.7 9.07 7.3.45 5.43.87 12.36-2.28 17.06-2.18 3.26-4.83 4.18-8.51 4.96-4.25.13-8.33-.3-12.54-.83-2.41-2.15-4.46-4.1-5.66-7.2-1.63-4.19-1.68-9.19.3-13.27 2.09-4.27 5.57-6.55 9.94-8.06ZM280.95 273.13c4.3-.16 8.34-.49 12.08 2.12 2.98 2.08 4.56 5.37 5.17 8.88.94 5.42-.1 11.65-3.34 16.17-3.2 4.47-7.1 5.76-12.25 6.68-4.22.2-8.67.58-12.5-1.6a10.6 10.6 0 0 1-5.07-7.13 22.25 22.25 0 0 1 3-16.5 19.93 19.93 0 0 1 12.91-8.62ZM313.18 199.6c4.43-.4 9.1-.53 13.37.9 2.97 1 5.5 2.76 6.8 5.69 2.07 4.68.88 11.1-.92 15.75-2.73 7.09-9.03 15.02-15.96 18.25-2.95.48-5.9.6-8.9.46-3.28-.15-6.96-.94-9.16-3.6-2.24-2.7-2.33-6.7-1.84-10 1.08-7.18 10.9-23.12 16.61-27.45Z"/>
  <path fill="#2F2D30" d="M750.8 345.7c5.94-.18 11.81.86 16.65 4.55 4.46 3.4 7.13 8.73 7.77 14.25.73 6.26-1.55 12.64-5.54 17.44-3.96 4.77-8.37 6.73-14.37 7.3-6.1.04-11.34-1.07-16.16-5.07q-.46-.38-.9-.78-.45-.4-.87-.83-.42-.42-.83-.86-.4-.45-.77-.91-.38-.46-.74-.94l-.68-.98q-.34-.5-.64-1.02l-.59-1.04q-.28-.53-.53-1.07t-.48-1.1q-.23-.55-.42-1.11-.2-.57-.37-1.14-.17-.57-.32-1.15-.14-.59-.25-1.17-.12-.59-.2-1.18l-.14-1.19c-.48-5.44.82-10.85 4.41-15.07 4.4-5.16 9.55-6.4 15.96-6.92ZM700.84 554.68c7.23-.68 14.45-.22 20.93 3.4a25.7 25.7 0 0 1 12.59 15.87 31.5 31.5 0 0 1-3.23 24.25c-4.38 7.64-10.29 12.34-18.85 14.64q-1.23.25-2.48.44c-6.98 1.08-14.01-1.03-19.64-5.2a35.6 35.6 0 0 1-13.49-22.59c-1.02-7.17.37-15.47 4.93-21.21 4.93-6.2 11.64-8.69 19.24-9.6ZM370.97 106.17c5.7-.5 23.7.72 29.19 2 3.17.74 5.59 2.17 7.27 5.04 2.85 4.86 2.54 12.76.88 17.95-3.9 12.13-17.24 23.27-28.12 29.01a42.43 42.43 0 0 1-9.55 3.04c-5.86 1.02-12.5.62-17.44-3-4.46-3.26-6.86-8.55-7.76-13.87-1.46-8.7.34-21.14 5.61-28.3a29.05 29.05 0 0 1 19.92-11.88ZM683.96 649.21q1.43-.04 2.86-.04c11.05-.05 22.3 2.65 30.3 10.74 8.11 8.2 10.6 19.34 10.5 30.55-.12 14.1-5.59 26.2-15.67 35.97-10.36 10.03-23.25 15.27-37.65 15.03-11.67-1.6-21.38-4.76-30.37-12.62-8.85-7.73-13.35-18.42-14.05-30.06-.67-11.27 1.94-22.39 9.57-30.93 12.08-13.52 26.94-17.74 44.51-18.64ZM497.39 617.55c7.06-1.48 16.54-1.59 23.55 0q2.06.2 4.1.55 2.05.35 4.06.83 2.01.49 4 1.1 1.97.62 3.9 1.36 1.94.74 3.82 1.61 1.88.88 3.7 1.87 1.81 1 3.56 2.1 1.74 1.12 3.41 2.34c14.46 10.65 22.94 24.18 25.54 42 2.83 19.4-.3 37.14-12.2 52.97q-1 1.36-2.06 2.66t-2.19 2.55q-1.13 1.24-2.32 2.43-1.18 1.19-2.43 2.31-1.25 1.13-2.55 2.2-1.3 1.06-2.66 2.05-1.36 1-2.76 1.92-1.4.93-2.85 1.78-1.45.85-2.94 1.63-1.49.78-3.02 1.49-1.52.7-3.08 1.33-1.56.62-3.15 1.17-1.6.55-3.2 1.01-1.62.47-3.26.85-1.63.38-3.29.69-1.65.3-3.32.51c-17.01 2.3-35.56-1.12-49.32-11.78-12.77-9.9-23.44-28.78-25.38-44.82-2.24-18.56 1.07-39.87 12.92-54.82 9.05-11.41 24.97-20.19 39.42-21.89Z"/>
  <path fill="#22222A" d="M497.39 617.55c7.06-1.48 16.54-1.59 23.55 0l-.5 1.12c-.47.25-.67.4-1.26.49-1.91.26-19.93-.2-20.66-.55-.47-.22-.76-.7-1.13-1.06Z"/>
  <path fill="#2F2D30" d="M503.36 213.95c10.28-1.07 21.27.1 31.54 1.17 10.94.1 34.9 5.4 44.2 10.2 7.88 2.4 15.45 5.93 22.68 9.84 5 1.82 10.25 5.17 14.66 8.16 35.3 23.94 58.92 54 67.12 96.52 8.23 42.67-.92 71.73-28.07 105.14-8.31 10.22-17.99 20.7-28.45 28.77-11.9 9.18-23.82 18.2-35.45 27.74-6.18 5.06-13.16 10.05-17.96 16.47-10.06 13.47-1.02 36.34-8.79 47.16a13.98 13.98 0 0 1-9.64 5.72c-5.57.84-11.52.36-17.13.3q-13.2-.22-26.4-.22-13.42.02-26.83.23c-5.5.08-11.3.5-16.75-.2a19.73 19.73 0 0 1-9.82-3.94c-5-3.88-7.52-9.51-8.16-15.7-1-9.5.1-19.93.67-29.47 3.19-53.12 26.84-71.6 68.5-98.61 12.67-8.21 26.75-16.2 36.34-28.09q.68-.86 1.32-1.75.64-.88 1.23-1.8.6-.92 1.15-1.87.55-.95 1.05-1.92.5-.98.96-1.98.45-1 .85-2.01.4-1.02.76-2.06.35-1.03.66-2.09.3-1.05.55-2.12.25-1.06.45-2.14t.34-2.16q.14-1.09.23-2.18.09-1.1.13-2.19.03-1.1.02-2.19-.02-1.1-.1-2.19-.06-1.09-.19-2.18c-1.3-11.72-9.3-21.8-18.26-28.92-10.9-8.67-27.82-12.44-41.51-10.75-33.63 4.16-46.93 19.23-55.05 51.18-1.78 7-3 15.28-7.67 21-3.73 4.56-9.21 6.63-14.96 7.1-6.8.54-14.27-1.2-20.8-2.97-10.9-2.95-63.63-22.64-70.13-28.43-3.12-2.78-4.25-5.85-4.31-10-.1-6.33 2.52-12.96 4.32-18.97 8.57-28.56 21.55-54.66 42.41-76.27 30.74-31.84 80.52-50.62 124.29-51.33Z"/>
  <path fill="#22222A" d="M579.1 225.32c7.88 2.4 15.45 5.93 22.68 9.84-.6.4-.4.33-1.23.51-3.2.73-13.19-4.8-15.9-6.57.82-.04 1-.02 1.7-.48a34.03 34.03 0 0 1-7.24-2.54v-.76ZM503.36 213.95c10.28-1.07 21.27.1 31.54 1.17l-.17.48c-2.51.63-27.55.7-29.9.04-1.04-.3-.98-.78-1.47-1.69Z"/>
</svg>