<svg xmlns="http://www.w3.org/2000/svg" width="1024" height="1024">
  <path fill="#001F27" d="M125.4 431.26c.79-13.25-.92-26.36-1.57-39.57-.67-13.97-.63-28.02-.78-42l-1.78-114.41c-.07-5.1-.29-10.26-.07-15.35.3-6.9 1.25-13.73.9-20.66-.18-3.4-1.07-6.14-3.3-8.76-4.64-5.48-12.14-8.67-17.45-13.77-11.55-11.1-17.94-24.93-23.4-39.73-1.13-3.07-2.87-6.53-3.43-9.69-1.11-6.16-.37-17.03-.02-23.47.25-4.58 1.67-9.17 2.71-13.62 4.46-18.94 12.02-34.51 26.91-47.53 9.05-7.91 39.97-25.31 52.06-24.37 4.72.36 9.17 2.05 13.86 2.5 7.38.7 14.76.31 22.06 1.8 15.28 3.1 32.59 17.78 42.31 29.45 9.57 11.49 14.39 24.27 19.12 38.25 17.34-1.35 34.43-7.47 51.4-11.11 21.73-4.67 43.97-5.43 66.07-6.73 6.63-.39 13.36-1.6 20-1.38 14.57.46 29.33 2.51 43.85 3.9 13.43 1.27 27.44 1.8 40.67 4.4 10.7 2.1 20.8 5.7 31.3 8.37 4.29 1.1 8.78 1.2 13.06 2.41 6.76 1.92 13.3 4.67 20 6.8 15.04 4.74 30.23 8.96 45.13 14.15 32.5 11.32 64.35 24.4 97.61 33.49 8.16 2.23 16.36 3.63 24.6 5.47 5.24 1.16 10.1 3.64 15.35 4.8 7.36 1.61 15.18 1.85 22.68 2.57 8.2.78 16.48 1.9 24.73 2.08 7.72.17 15.55-1.16 23.27-1.65 34.83-2.22 68.24-6.27 102.18-14.72 15.6-3.88 30.9-10.71 46.8-12.96 11.85-1.67 23.91-.03 33.2 8q.97.84 1.87 1.74.9.9 1.75 1.87.84.96 1.62 1.97.78 1.01 1.49 2.08.71 1.06 1.35 2.16.64 1.1 1.2 2.25.58 1.15 1.07 2.33.5 1.18.9 2.39c.8 2.4 1.15 4.9 2.72 6.94 2.4 3.1 1.3 18.1 1.25 22.73l-.26.33c-2.27 3.14-3.23 7.34-4.88 10.86-3.13 6.69-7.65 12.63-12.43 18.22-10.43 12.2-22.48 22.94-33.26 34.84-25.74 28.4-50.81 57.43-77.08 85.35-11 11.71-26.48 21.23-34.36 35.18 8.02 9.17 14.64 19.52 21.67 29.45 4.06 5.73 8.59 11.08 12.75 16.73 3.39 4.59 6.4 9.45 9.78 14.06 5.38 7.34 11.5 14.18 17.33 21.17l18.32 22.43c9.91 11.92 24.1 19.32 32.8 32.56 4.83 7.38 7.02 17.07 6.49 25.82-.55 8.84-4.04 16.2-10.75 22.06-13.16 11.5-31.67 17.2-47.77 23.36-56.9 21.73-102.63 33.63-163.91 35.85-16.34.6-32.72.83-49.04-.4-40.84-3.08-80.6-12.8-119.76-24.43-9.2-2.73-18.26-5.88-27.45-8.62-19.27-5.76-39.09-10.18-58.76-14.36-15.8-3.35-34.67-7.72-50.53-9.62-8.82-1.05-17.7-1.03-26.57-1.32-8.7-.28-17.43-.7-26.12-.53-29.81.61-59.4 5.18-88.57 11.06-16.33 3.29-51.79 9.14-64.02 19.14-2.26 14.23-.81 29.77-.03 44.1q1.11 18.06 1.4 36.15l3.97 202.71c.29 21.16 1.65 42.42 1.43 63.56-.08 7.75-1.01 15.47-1.16 23.2-.18 9.68.4 19.7 1.04 29.36.26 3.97 1.37 8.75.86 12.65-.42 3.22-2.46 5.75-4.96 7.68-1.16.9-2.45 1.69-3.7 2.48q-6.17.27-12.32-.22c-6.86.89-14.83.05-21.8.05-10.38-.01-21.02.64-31.36.07-1.02-.06-2.1-.09-2.96-.72-.9-.66-1.74-1.15-2.71-1.68-2.66-1.32-4.54-3.28-6.4-5.55-.61-17.3-1.91-34.64-2.1-51.96-.06-4.73 1.02-9.41.9-14.13l-3.11-106.78-1.41-58.56c-.57-16.88-1.6-33.82-1.57-50.71 0-6.4 1.37-12.72 1.35-19.12-.12-44.09-1.52-88.25-2.36-132.33-.11-6.27-.3-12.5-.11-18.77.32-11.2 1.13-21.54-.46-32.74-11.73-4.44-19.18-7.2-24.62-19.45-5.15-11.6-6.08-26.22-1.48-38.14 2.97-7.7 7.85-15 15.27-18.95 3.13-1.67 6.54-2.92 9.53-4.8Zm16.57 572c.97.53 1.81 1.02 2.71 1.68.85.63 1.94.66 2.96.72 10.34.57 20.98-.08 31.36-.07 6.97 0 14.94.84 21.8-.05l-.4-.54c-2.7-.4-5.45-.23-8.16-.2 1.88-.83 4.17.14 6.18-.54-8.03-2.46-34-.65-43.67-.51-4.31.07-8.49-.32-12.78-.49Z"/>
  <path fill="#001F27" fill-opacity=".94" d="M141.97 1003.26c4.3.17 8.47.56 12.78.49 9.66-.14 35.63-1.95 43.67.51-2 .68-4.3-.29-6.18.54 2.71-.03 5.47-.2 8.16.2l.4.54c-6.86.89-14.83.05-21.8.05-10.38-.01-21.02.64-31.36.07-1.02-.06-2.1-.09-2.96-.72-.9-.66-1.74-1.15-2.71-1.68Z"/>
  <path fill="#EFEFE1" d="M161.3 450.23c9.18-.27 18.4-.2 27.58-.26 7.2-.06 14.69-.54 21.82.44 3.62.5 6.87 1.42 10.18 2.97 3.62 4.52 6.01 9.99 6.14 15.84.13 5.57-1.7 12.03-5.7 16.04-7.48 7.48-29.59 5.4-40.1 5.35-19.39.5-38.77.68-58.15 1.44-4.25-5.17-6.83-10.58-7.08-17.38-.21-5.8.8-12.04 4.98-16.37 8.56-8.87 28.9-7.65 40.34-8.07ZM182.81 198.1c1.18-.13 1.34-.22 2.36.34 2.99 6.78 1.82 34.32 2.03 43.31.72 30.93 1.82 61.75 1.91 92.69q.05 28.44.66 56.87c.21 12.73.06 25.59 1.3 38.27-13.29-.2-26.72-.05-39.95 1.24-.46.06-.93.13-1.39.17-.75.07-1.79.1-2.33-.5-1.22-1.35-1.48-3.69-1.6-5.43-.33-4.67.33-9.63.33-14.34q-.05-17.7-.32-35.38l-2.52-106q-.22-20.71-.22-41.43c.02-8.83.32-17.67-.16-26.5 13.9.73 26.33-.34 39.9-3.3ZM160.74 39.7c15.55-1.88 32.39 3.58 44.57 13.2 15.03 11.87 24.61 30.4 26.68 49.34 1.9 17.39-2.87 36.84-13.91 50.57-12.4 15.41-30.02 23.54-49.46 25.6l-1.5.2c-16.17 1.76-34.28-4.77-46.75-14.94-15.08-12.29-22.81-28.96-24.56-48.17-1.67-18.42 4.78-38.98 16.67-53.14 12.43-14.8 29.37-21.02 48.26-22.66ZM183.57 512.3c2.33-.27 4.7-.34 7.04-.47 1.26 8.8 1.23 17.86 1.4 26.74q.35 18.76.42 37.53.39 45.41 1.34 90.82 4.24 160.53 6.37 321.1c-11.9-.13-23.9-.95-35.76-1.63-2.55-.18-5.1-.3-7.64-.44l-.87-68.56-4.96-177.88q-.76-52.6-.74-105.2-.26-36.07-1.07-72.13c-.35-16.42-1.72-33.22.35-49.55 8.5 3.06 24.88.7 34.12-.33Z"/>
  <path fill="#EFEFE1" d="M386.85 92.28c14.38-.86 28.54.9 42.82 2.26 15.43 1.47 30.94 3.18 46.14 6.27 51.18 10.38 99.4 30.67 148.75 47.1 12.6 4.2 25.47 7.28 38.19 11.07 11.97 3.57 23.8 7.67 35.92 10.78 20.74 5.32 42.27 8.02 63.6 9.54 38.7 2.75 92.63-3.86 130.24-14.13q14.53-4.13 28.95-8.64c7.86-2.4 16.1-5.43 24.33-6.03 5.08-.37 9.23.62 13.07 4.1 5.23 4.72 8.66 12.76 8.9 19.78.27 7.61-3.54 14.96-7.69 21.13-5.11 7.6-11.7 14.34-17.9 21.06q-14.58 15.76-29.43 31.26c-9.5 10.07-18.3 20.74-27.44 31.12q-13.98 15.86-28.73 31-13.09 13.64-26.7 26.75c-8.9 8.5-18.13 16.68-26.46 25.76.9 5.49 2.82 9.92 5.63 14.67 6.6 11.18 15.54 21.38 23.47 31.67q27.8 36.72 58.49 71.05c9.86 10.87 31.04 28.79 35.66 41.85a13.02 13.02 0 0 1-.6 10.7c-7.68 14.87-52.74 28.86-68.32 34.08-14.26 4.3-28.19 9.62-42.66 13.23-20 4.99-40.52 7.44-61 9.67-20.56 2.25-41.16 3.8-61.86 3.12-52.79-1.72-102.58-17.7-152.95-31.97-43.75-12.4-88.07-23.36-133.6-26.36-40.4-2.66-90.04.36-129.6 8.7-20.58 4.33-40.62 10.95-61.36 14.67-3.78-14.27-2.26-29.94-1.63-44.56 7.2-2.03 15.24-3.75 21.1-8.66 7.63-6.37 11.15-16.74 12.12-26.35 1.33-13.12-1.3-27.76-9.93-38.12-6.87-8.26-15.67-8.57-25.5-9.46 2.25-23.45.72-47.62.08-71.14A5944.5 5944.5 0 0 1 208.91 245c-.14-18.38-1.2-37.1.17-55.43 4.57-4.04 9.65-7.49 14.2-11.57 21.7-19.5 27.37-35.6 31.27-63.4 16.12-10.96 78.86-19.18 99.9-21.03 10.77-.95 21.6-1.07 32.4-1.29Z"/>
  <path fill="#001F27" d="M474.92 262.05c5.89-.16 11.9-.07 17.35 2.5a18.3 18.3 0 0 1 9.54 10.37 15.75 15.75 0 0 1-.8 12.57c-2.77 5.22-7.79 7.9-13.24 9.5-5.46.65-11.95-.01-16.94-2.3-4.71-2.15-8.62-6.06-10.28-11.02-1.33-4-1.05-8.57 1-12.28 2.85-5.18 7.91-7.76 13.37-9.34Z"/>
  <path fill="#001F27" d="M522.25 166.2c1.73.1 3.47.47 5.13.97 5.53 1.64 9.95 4.3 12.63 9.6 7.37 14.56-1.76 36.75-6.38 51.17q1.86-1.58 3.77-3.1c13.22-10.46 39.61-26.2 56.83-23.9 7.28.99 14.2 4.65 18.5 10.7 13.63 19.11-12.63 47.46-25.8 59.96-4.03 3.82-8.73 7.03-12.6 10.98-1.22 1.25-3.1 3.18-3.23 5-.26 3.43 25.3 14.32 28.86 16.47a66.44 66.44 0 0 1 14.45 12c6.85 7.45 12.2 16.26 11.55 26.75-1.13 18.22-20.26 33.29-35 41.2-5.3 2.86-11.82 4.57-16.31 8.69l-.37.35c5.06 5.3 11.06 9.32 16.67 13.97 10.2 8.45 21.6 20.24 23.53 34 1.04 7.4-1.23 13.88-5.7 19.72-10.57 13.82-27.94 22.23-44.9 24.57-1.98 3.19-3.8 6.48-5.7 9.72-4.25-.83-8.8-.96-13.13-1.37-1.7-1.14-3.16-2.53-4.68-3.9-1.11-19.38 2.96-38.31 5.01-57.48 2.3-21.33 4.65-42.76 6.02-64.17.41-6.48.37-12.97.7-19.45.67-13.32 2.44-26.65.1-39.92a73.35 73.35 0 0 0-5.67-18.25c-1.28-2.74-3.07-5.41-3.89-8.34-.53-1.9-.35-3.4 1.03-4.9 4.09-4.42 10.29-7.69 15.25-11.05 14.13-9.58 27.87-21.47 36.37-36.42-1.72-2.09-3.54-4.09-5.34-6.1-25.56 6.64-44.11 19.39-64.55 35.39-30.16-19.73-51.9-23.23-87.29-16.58-4.97.65-10.06 2.06-14.97 3.09-14.28 2.99-28.82 5.56-42.1 11.85-14.2 6.72-25.56 17.38-30.89 32.4-6.4 18.03-4.53 38.9 3.75 56.02 9.24 19.1 27.86 31.87 47.47 38.66 31.84 11.03 67.93 8.56 93.5-15.2 4.06-3.76 10.7-14.02 14.43-15.69 3.06-1.38 9.66.42 12.68 1.67 2.15.9 4.19 2.34 5.03 4.6.97 2.62.03 5.46-1.22 7.8-1.9 3.58-4.53 6.87-7.04 10.03-15.68 19.74-37.69 28.18-61.1 35.03-.5 10.08-3.75 62.88-7.54 68.93-1.7 2.7-6.54 3.02-9.42 3.57-2.9-1.23-6.47-2.53-8.56-4.96a4.63 4.63 0 0 1-1.25-2.4c-.86-5.18.37-12.2.7-17.49q1.43-23.12 3.35-46.2c-7.76-1.26-15.66-1.5-23.42-2.78-22.77-3.78-45.6-13.66-61.71-30.54-16.62-17.4-27.42-40.32-26.84-64.67.59-24.86 8.87-47.6 27.15-64.84q2.65-2.45 5.48-4.69 2.83-2.24 5.83-4.25t6.14-3.79q3.15-1.77 6.42-3.29c21.38-9.97 62.68-18.52 86.1-17.86 3.7-6.72 8.59-13.08 13.38-19.07 13.4-16.77 26.67-29.75 48.79-32.22Z"/>
  <path fill="#EFEFE1" d="M517.2 187.94c.76.12 1.4.46 2.1.76a5.89 5.89 0 0 1 1.68 3.58c1.05 9.16-6.24 25.87-11.84 32.95-4.86-.85-9-2.93-13.43-5-2.93-.8-5.9-1.04-8.82-2-.47-1.07-.47-1.64-.08-2.74 3.01-8.45 22.63-23.19 30.4-27.55ZM568.27 416.44c.6.2 1.16.44 1.72.73 12.03 6.17 20.8 18.28 25 30.84-4.44 3.33-9.38 6-14.23 8.67-5.6 3.08-11.16 6.17-16.94 8.9.84-16.3 2.58-32.94 4.45-49.14ZM575.11 315.91c1.7.35 3.37.73 5 1.33 12.55 4.6 20.93 15.17 26.32 27-3.58 4.68-7.89 8.17-12.44 11.84-4.07 2.98-8.43 5.94-13.03 8.05-2.13.98-4.68 2.14-7 1.26-2.42-3.5 1.54-26.3 1.74-31.9.21-5.87-.2-11.71-.59-17.58Z"/>
</svg>