<svg xmlns="http://www.w3.org/2000/svg" width="1024" height="1024">
  <path fill="#655560" fill-opacity=".99" d="M653.8 161.45c8.92-.03 17.02-.03 25.8 1.68-1.32 1.5-1.69 1.54-3.67 1.8l-.47-.1-.78-.14c-5.56-1.03-11.33.69-16.95-.34-2.13-.39-2.78-1.2-3.92-2.9Z"/>
  <path fill="#655560" d="M679.6 163.13c18.73 1.88 52 20.4 65.88 32.72-.23-.01-.45.02-.67-.02-.96-.19-1.38-.48-2.44-.48-5.8 0-20.48-11.5-25.95-14.92-11.89-7.45-27.11-11.52-40.5-15.5 2-.26 2.36-.3 3.68-1.8Z"/>
  <path fill="#041923" d="M511.61 124.14c5.96-.07 13.41-.83 18.8 2.19 8.64 4.85 9.17 14.88 11.7 23.2.98 3.21 2.73 4.9 5.68 6.5.14.08.86.45 1 .55l.8.63c7.3.38 14.7 1.03 22 1.2 6.75.14 13.66-.37 20.4.25l.63.05c1.16.1.68.05 1.83.31 4.36 1.01 10.2.34 14.75.36 6.16.04 12.25.76 18.4.93 8.38.23 18.05-.92 26.2 1.14 1.15 1.7 1.8 2.51 3.93 2.9 5.62 1.03 11.4-.69 16.95.34l.78.14.47.1c13.38 3.98 28.6 8.05 40.49 15.5 5.47 3.43 20.15 14.93 25.95 14.92 1.06 0 1.48.3 2.44.48.22.04.44.01.67.02 3.09 1.92 6.07 5.07 8.76 7.57a226.73 226.73 0 0 1 34.92 40.73c3.46 5.2 5.9 11.8 10.23 16.25 6.81 2.8 21.6-4.45 27.88-7.82 5.2-2.8 5.03-5.12 11.86-5.32 25.59-.74 51.39.12 77 .1 9.34 0 38.86-1.19 46.02.56 7.79 1.9 18.29 8.64 24.16 14.2 2.24 2.11 4.65 4.42 6.33 7.02 4.6 7.1 7.02 19.3 7.24 27.64.66 25.86 0 51.91 0 77.79l.04 22.66c.04 4.52.54 9.54-.19 13.99a13.3 13.3 0 0 1-3.9 7.35c-4.59 4.61-11.38 8.19-16.67 12.08-11.3 8.32-22.3 17.17-33.77 25.23-1.65 1.15-3.47 2.5-5.39 3.13-5.86 1.88-33.35.82-40.91.82l-88.16.09v208.42l-.16 52.25c-.01 14.37 1.1 29.83-2.01 43.93-3.23 14.66-10.3 35.62-17.56 48.92-1.76 3.22-14.47 20.15-14.58 22.06-.08 1.3 1.2 1.82.6 3.65-1.08 3.34-19.99 23.18-23.71 25.24-1.94 1.07-3.58.86-5.58.19l-.47-.17c-7.7 4.02-14.24 10.34-21.9 14.54-3.09 1.69-10.77 3.85-12.38 6.73l.82 2c-.11.12-.2.27-.33.37-1.15 1.01-3.2 1.32-4.65 1.1-.12-.2-.44-.81-.6-.97-1.06-1-2.82-.28-4.07.09-4.43 1.3-8.65 3.25-13.03 4.7-7.88 2.6-16 2.44-24.2 2.52l-118.17.08H236.53l-38.16.04c-7.45 0-15.03.25-22.47-.23-7.41-.48-14.8-2.45-22.06-4.02-9.17-1.98-19.26-3.64-27.93-7.28-8.91-3.73-40.16-26.66-47.35-33.37-8.04-7.5-15.47-16.42-22.74-24.7-7.29-8.31-18.88-28.25-23.07-38.62-2.09-5.17-3.38-10.82-4.92-16.18-3.35-11.63-6.88-23.17-8.59-35.18-2.32-16.4-.32-34.95-.06-51.54.1-6.31-.23-12.63-.17-18.95q.66-33.55.47-67.12l.97-183.41v-60.1c0-10.43-.54-21.2.24-31.58.75-10.03 6.46-34.52 9.74-44.09 3.43-10.02 13.55-31.77 19.23-40.5 2.9-4.44 6.72-8.46 10.06-12.58 3.11-3.85 6.13-7.94 9.53-11.54 2.8-2.97 6.09-5.52 9.11-8.26 4.3-3.9 8.35-8.08 13.03-11.51 4.51-3.32 9.5-6.14 14.28-9.06 3.86-2.35 7.8-5.08 11.9-6.96 5.82-2.65 12.94-3.43 19.14-5.06 11.34-2.98 26.37-7.4 37.68-9.21 7.82-1.25 15.57-.77 23.4-1.3q30.46-2.34 60.99-3.72c5.49-.22 28.57-.24 31.9-1.93 5.22-2.64 8.56-16.92 12.25-22.1 2.61-3.69 7.4-6.1 10.83-9.08 4.12-.1 8.25.04 12.37.08 8.8 7.52 17.08 16.03 25.35 24.14 5.89 5.77 11.9 12.73 19.13 16.78 10.45.06 20.69-3.16 30.98-4.72 10.27-1.55 31.76.44 42.36 2 7 1.03 17.4 4.53 23.5-.29 2.93-2.3 5.62-5.25 8.35-7.81 8.58-8.06 16.78-16.44 25.59-24.27 3.05-2.71 6.18-5.93 9.74-7.95l.48-.25Z"/>
  <path fill="#655560" d="m781.6 524.86 2.93.02c.02 4.64-.67 9.8-1.63 14.33-.87-4.71-1-9.57-1.3-14.35Z"/>
  <path fill="#010307" d="M489.58 178.99c5.6 1.13 10.53 3.87 15.07 7.26l-.43.22c-1.07.44-1.8.14-2.84-.25-3.8-1.43-10.06-3.4-11.8-7.23Z"/>
  <path fill="#655560" d="M549.58 157.22c7.3.38 14.7 1.02 22 1.18 6.76.15 13.67-.36 20.4.26-2.01 2.82-14.8-.77-18.7.92-1.01.44-.63.43-1.61.44-1.1 0-.07-.17-1.5.21l.19.5c-4.82.16-9.76.03-14.57-.27-2.33-.14-4.85-.24-6.47-2.05l.26-1.2Z"/>
  <path fill="#655560" d="M489.58 178.99c-.51-2.33-.47-3.6.88-5.6 3.7-5.48 10.09-9.01 14.73-13.63 2.49-2.48 4.04-5.9 6.85-8.01 1.17-.07 1.69-.2 2.56.78 4.76 5.3 1.8 31.07-.15 38.23-.15.57-.3.78-.55 1.24-3.48-.08-6.4-4.2-9.25-5.75-4.54-3.39-9.46-6.13-15.07-7.26ZM608.36 264.76c.7.07 1.6.07 2.22.44 6.76 4.01 13.83 33.19 14.67 40.84-4.99-2.46-9.53-5.55-14.61-7.89-7.58-1.91-15.98-.68-23.55-2.74-.35-1.21-.18-1.18.22-2.3 8.58-5.8 18.18-18.41 21.05-28.35ZM317.8 146.91c6.16 3.56 9.64 12.15 14.87 17.12 3.9 3.7 11.03 6.98 13.97 10.38-1.47 1.89-10.4 7.14-13.73 10.3-3.37 3.15-6.31 7.26-10.05 9.96-1.25.91-1.68.99-3.18.68a6.09 6.09 0 0 1-1.47-1.78c-3.88-7.63-4.03-27.97-2.85-36.78.45-3.37 1.48-6.63 2.45-9.88ZM215.88 259.82c1 .06 2.02.15 2.96.53 2.76 1.08 5.01 5.8 6.47 8.3 4.77 8.19 13.23 15.04 17.13 22.52-.78.72-17.48 4.67-20.55 5.79-6.4 2.21-10.67 6.06-16.19 9.8l-.9-.47c-.74-2.13.03-5.49.47-7.7 1.26-6.23 3.58-12.29 5.28-18.41 1.88-6.77 3.3-13.63 5.33-20.36ZM191.08 249.46c.77 0 1.35-.04 2.08.27.68.29.83.82 1.01 1.52 1.04 4.05-6.08 19.85-7.38 25.04-1.65 6.64-1.57 14.44-4.58 20.62-1.98 1.41-5.3-.57-7.39-1.32-8.36-3.01-19.29-3.67-28.17-3.63l-.88.01c-2.52.3-6.24 1.15-8.53.05-.31-.99-.35-1.22.06-2.23 1.5-3.65 5.63-7.29 8.44-10.02 14.64-14.25 26.58-22.04 45.34-30.3ZM631.85 249.38c5.67-.2 10.88 1.37 15.94 3.8 11.04 5.33 39.47 24.6 42.82 36.04.34 1.18.24 1.67-.37 2.7-2.64.3-5.55-.47-8.16-.9-6.7-.1-12.86.5-19.08 3.12-3.5 1.48-10.5 7.63-13.9 6.93-2.37-1.86-3-10.27-3.56-13.26-1.25-6.8-2.6-13.66-5.44-20-2.79-6.2-6.67-11.72-8.25-18.43ZM561.37 358.22c6.74-.24 13.62 2.1 19.1 5.97 5.65 4 10.9 10.2 12 17.2 1.07 6.85-1.73 13.61-5.7 19.07-5.02 6.9-13.12 13.48-21.73 14.87-9.78.32-18.33-7.46-23.66-15.04-2.88-4.08-5.28-8.92-9.22-12.07.5-7.34 2.9-15.01 7.69-20.71 5.6-6.67 13.23-8.68 21.51-9.3ZM264.86 357.2c1-.1 2.04-.07 3.05-.05 8.57.2 16.78 4.64 22.59 10.78 5.71 6.04 9.2 12.11 8.98 20.59-8.5 9.95-14.27 21.17-27.02 26.4-.72.17-.58.15-1.45.28-5.27.77-12.27-3.29-16.42-6.4-7.47-5.6-15.43-14.18-16.65-23.81-.8-6.38 1.68-13.53 5.7-18.46 5.46-6.71 13.07-8.47 21.22-9.33Z"/>
  <path fill="#EDEFEC" d="M899.05 263.78c9.52-.7 19.3-.17 28.84.14 6.76.22 19.38.27 24.35 5.58.34 1 .57 1.05.18 2.09-10.2 6.36-20.02 14.32-30.59 19.9a28.13 28.13 0 0 1-9.9 3.2c-5.61.59-11.93-.77-17.56-1.25-10.1-.84-20.03-1.45-30.16-1.15q-12.13-.18-24.2-1.52c-3.9-.42-7.8-1.21-11.72-1.49-5.34-.37-11.17.51-16.39-.58-1.9-.4-2.71-1.06-3.72-2.71.01-.7-.17-1.12.37-1.64 2.6-2.53 9.01-5.01 12.4-7.01 5.4-3.18 11.22-7.54 17.04-9.73 3.64-1.37 7.99-1.62 11.83-2.07 5.4-.63 10.85-1.35 16.3-1.5 10.96-.32 21.99.38 32.93-.26Z"/>
  <path fill="#010307" d="M873.77 269.2c4.29-.45 8.06-.56 12.07 1.28 2.48 1.14 5.86 3.51 6.6 6.33a4.27 4.27 0 0 1-.55 3.6c-1.51 2.6-5.51 3.44-8.19 4.23-5.51.68-12.4.91-17-2.68-1.75-1.35-3.37-3.54-3.56-5.8a4.86 4.86 0 0 1 1.17-3.57c2.5-2.93 5.92-3.09 9.46-3.4Z"/>
  <path fill="#EDEFEC" d="M972.36 290.88c.27.1.54.2.81.32 3.26 1.4 6.58 5.87 7.77 9.15 1.39 3.84 1.1 80.89.58 91.02-.13 2.7-.23 6.05-1.43 8.49-5.89 11.95-23.55 24.34-35.98 28.27-.47.13-1.14.34-1.62.33a3.84 3.84 0 0 1-3.07-1.53c-2.65-3.44-3.2-20.15-3.36-25.15-.3-10.03 1.4-20.05 1.55-30.1q.17-9.1-.19-18.18c-.47-10.27-2.2-21.8.16-31.9 3.03-12.89 23.9-24.05 34.78-30.73Z"/>
  <path fill="#010307" d="M955.82 376.5c1.45-.06 3-.06 4.43.16 3.44.52 6.68 2.35 8.7 5.22 2.56 3.67 2.87 8.47 2.06 12.76-1.05 5.55-3.7 9.8-8.35 12.97-1.43.4-2.98.78-4.46.85-2.66.14-5.37-.46-7.31-2.37-2.3-2.25-2.87-5.43-2.8-8.52.18-7.05 2.43-16.17 7.73-21.06Z"/>
  <path fill="#041923" d="M959.06 315.54c2.15-.1 4.1.06 6.03 1.14 2.8 1.57 4.5 4.61 5.37 7.6 2.01 7.02 1.23 16.46-2.57 22.74-2.12 3.5-4.17 4.96-8.12 5.89l-.42-.1c-3.91-1.1-8.01-4.12-10.04-7.63-2.45-4.25-2.16-9.06-1-13.66 1.67-6.57 4.77-12.44 10.75-15.98Z"/>
  <path fill="#EDEFEC" d="M807.08 314.74c14.44-.14 26.63 1.4 40.7 2.07 10.09.49 20.15 1.32 30.23 1.82 5.04.26 10.3.01 15.3.72 3.21.45 7.1 1.2 9.7 3.2 4.7 3.57 6.91 9.09 7.5 14.77 1.44 14.01-.26 28.57-.45 42.64-.2 14.91.86 30.25-.4 45.09-.27 3.27-.64 8.96-2.87 11.47-4.16 4.7-10.82 4.99-16.62 5.41-14.9.15-29.94-.82-44.87-.98-11.05-.11-22.86 1.02-33.76-.43-4.24-.56-8.08-1.4-11.42-4.25-14.08-12-12.69-26.39-13-43.11-.13-7.4-.71-14.77-1.17-22.16-.73-11.67-2.93-41.85 5.18-50.58 4.42-4.76 9.84-5.43 15.95-5.68Z"/>
  <path fill="#041923" d="M874.07 335.6c2.03-.13 4.03-.25 6.01.3 5.01 1.4 9.67 4.83 12.22 9.39 1.76 3.14 2.1 6.38.96 9.8-2.06 6.16-6.86 10.46-12.53 13.23a6.31 6.31 0 0 1-3.48.16c-5.75-1.38-11.11-5.71-13.94-10.86-1.69-3.09-2.43-6.5-1.36-9.91 1.68-5.38 7.26-9.66 12.12-12.1Z"/>
  <path fill="#010307" d="M873.07 392.6c2.83-.17 5.3.02 8 .99q.41.15.83.33.42.17.82.37l.8.4.78.46q.39.24.76.5.37.25.73.53.36.27.7.56l.67.6q.33.32.64.65l.6.66q.3.35.57.7l.53.73q.26.37.5.76l.45.78q.22.39.41.8.2.4.38.82a15.3 15.3 0 0 1 0 12.47c-2.17 4.84-6.14 7.6-10.92 9.48-2.05.44-3.66.3-5.66-.35a20.22 20.22 0 0 1-12.24-10.52 14.44 14.44 0 0 1-.42-11.73c2.07-5.2 6.08-7.97 11.07-9.99Z"/>
  <path fill="#041923" d="M818.27 392.58c2.6-.2 5.68-.63 8.21.05a15.32 15.32 0 0 1 9.68 7.6c1.9 3.46 2.66 7.35 1.49 11.17-1.87 6.14-7.54 11.54-13.18 14.39-2.6.48-4.35-.09-6.74-1.15-5.33-2.38-9.96-7.08-11.92-12.63a13.27 13.27 0 0 1 .39-10.34c2.41-5.03 7.02-7.43 12.07-9.09ZM817.96 333.65c3.77-.16 7-.25 10.5 1.36q.84.4 1.62.86.8.47 1.53 1.01.73.55 1.41 1.17.68.61 1.3 1.3.6.67 1.15 1.4.54.75 1 1.54.47.78.86 1.61.38.84.68 1.7c1.45 4.1 1.52 8.71-.44 12.66-2.38 4.78-6.92 7.68-11.85 9.3-3.36 0-6.42-.75-9.41-2.27-5.86-3-9.9-8.18-12.02-14.3a28.6 28.6 0 0 1 3.08-8.47c2.39-4.06 5.93-7.65 10.6-8.87Z"/>
  <path fill="#EDEFEC" d="m717.6 324.9.68-.31c4.34-2.07 7.67-5.1 9.33-9.74 2.44-6.88-.2-14.58-3.32-20.79-16.9-33.65-43.77-56.07-79.55-67.72-10.79-3.5-27.84-9.54-38.53-4.33a14.09 14.09 0 0 0-5.46 4.55c-2.93 3.99-4.45 8.85-6.63 13.25-3.15 6.39-18.83 35.14-23.52 38.01-1.1.68-1.42.43-2.58.1-2.6-2.4-5.7-16.66-7.4-21.17a123.48 123.48 0 0 0-14.96-27.9c-2.74-3.8-6.1-7.44-8.54-11.4a9.14 9.14 0 0 1-1.32-3.93c1.33-5.13 5.24-9.5 6.64-14.87.7-2.68.94-15.37 3.17-16.48 1.94-.97 4.74-1 6.87-1.03 11.38-.1 22.88 1.34 34.32 1.4l35.83-.02c9.57-.01 19.12-.3 28.63 1.05 14.06 2 27.4 6.23 40.52 11.56 23.01 9.34 45.07 25.04 61.18 44.07 5.12 6.04 9.54 12.62 13.99 19.16 4 5.89 8.74 12.18 11.6 18.7.33.74.54 1.48.76 2.26-2.12 4.73-5.45 8.62-8.46 12.78a60.95 60.95 0 0 0-9.3 18.95c-3.08 11.3-1.58 37.68-1.4 50.59.27 20.23-.2 40.46 2.06 60.6q.3 2.53.9 5 .6 2.49 1.5 4.88c2.82 7.58 7.53 13.7 13.2 19.38 2.8 2.8 5.7 5.43 7.88 8.76.1.17.22.33.33.5 2.55 4.15-.12 15.34-.2 20.2-.24 13.37 2.2 31.23-1.29 43.92l-2.93-.02c-.11-5.77-1.87-11.85-3.26-17.44-7.3-29.23-23.1-54.03-44.74-74.8-31.11-29.88-69.64-43.18-112.33-44.13-4.58-19.43-12.92-38.76-30.5-49.77a35.16 35.16 0 0 0-7.88-3.76c-3.67-1.17-9.04-.72-11.75-3.6-.2-1.37-.18-1.93.64-3.1 3.6-5.1 12.31-8.38 18.23-9.04 11.55-1.3 21.48 1.43 30.59 8.75 6.41 5.17 14.42 18.41 23.56 17.63 2.3-.2 4.02-1.6 5.37-3.4 2.38-3.13 3.72-7.54 5.3-11.14 4.7-10.65 13.23-17.56 24.82-19.36 17.89-2.77 23.66 5.01 37.95 13.2ZM275.05 181.8c2.51-.24 5.12-.56 7.65-.44 1.3.06 2.6.26 3.31 1.44 1.15 1.88 1.66 4.98 2.22 7.13 2.64 10.18 4.06 16.31 11.27 24.39-10.62 12.24-18.6 26.7-25.34 41.39-1.67 3.65-7.21 20.06-9.35 21.14-7.1-2.72-21.03-26.4-24.8-33.68-2.52-4.83-4.45-9.95-6.99-14.76-1.35-2.57-3.95-7.2-6.83-7.97-.2-.06-.42-.1-.63-.15-16.32-3.88-36.66 4.1-51.9 9.81-30.65 11.48-54.48 34.16-67.86 64.02-2.6 5.8-4.96 13.5-2.42 19.66 1.99 4.86 6.1 7.1 10.71 8.93 7.67-2.6 13.36-9.65 21.22-11.42 17.21-3.88 31.72 1.38 40.67 16.73 3 5.13 6.13 13.54 11.45 16.55a5.98 5.98 0 0 0 6.23-.1c3.36-1.97 5.99-5.76 8.56-8.65 7.32-8.22 16.6-14.41 27.19-17.54 8.06-2.37 16.7-3.13 24.28 1.2 2.91 1.66 7.65 4.76 8.54 8.12-.3 1.42-.52 2.14-1.9 2.91-2.63 1.49-6.6 1.8-9.57 2.6-7.55 2-15.46 7.93-21.15 13.11-12.88 11.72-16.93 25.1-17.7 42.13-9.54.1-18.47 1.47-27.92 2.48-22.64 3.31-51 16.01-69.33 29.72-21.77 16.27-46.67 47.31-57.12 72.52a122.5 122.5 0 0 0-5.07 14.75c-1.2 4.4-3.13 20.67-6.12 22.96l-1.01-.44c-1.79-2.15-2.02-5.6-2.24-8.34-.85-10.75-.2-21.9-.13-32.69l.06-50.68.2-57.69c-.1-24.13-1.11-50.55 3.35-74.24 4.32-22.89 14.77-49.53 30.13-67.39 7.28-8.46 17.49-18.94 26.43-25.7 22.8-17.23 56.16-28.6 84.49-30.43 9.53-.62 19.29-.18 28.85-.16 19.5.06 39.12.15 58.57-1.23ZM408.62 185.2c3.36-.48 7.1-.25 10.5-.27 21-.14 41.36 4.87 59.5 15.54 29.22 17.16 47.48 42.35 58.64 73.85 2.11 5.95 4.59 12.11 5.55 18.37.87 5.7 1.61 11.56 1.89 17.33.4 8.44-.05 16.74 2.09 25-3.56 2.56-8.02 4.02-11.88 6.14-12.37 6.81-20.55 17.8-24.58 31.24-1.48 4.94-1.21 11.72-3.95 16.03-8.12.43-16.59-.96-24.75-1.25q-26.18-1-52.38-.7-49.95.25-99.9-.03-.34-2.28-.83-4.54c-4.86-22.25-21.7-37.66-40.06-49.45-.78-38.87-.76-55.4 21.52-89.07 2.47-3.72 3.75-8.3 6.57-11.78 2.49-3.07 13.25-13.8 16.54-16.26 2.91-2.19 6.3-3.81 9.37-5.8 4.56-2.93 8.86-6.33 13.6-8.98 15.7-8.73 34.82-13.63 52.56-15.37Z"/>
  <path fill="#010307" d="M387.52 329.54c4.04.27 8.12 1.71 10.94 4.75a15.07 15.07 0 0 1 3.85 11.47c-.45 6.5-4.3 11.37-9.08 15.41-1.38.17-2.36-.17-3.65-.65-4.39-1.63-7.26-4.57-9.1-8.87a20.79 20.79 0 0 1 .03-15.58c1.48-3.55 3.5-5.14 7-6.53ZM439.23 329.93a27 27 0 0 1 2.77.5q.82.2 1.61.47.79.27 1.55.63.76.35 1.48.78.72.43 1.4.92.67.5 1.29 1.06t1.18 1.18q.56.62 1.06 1.3.5.67.93 1.39a13.09 13.09 0 0 1 1.55 10.29c-1.42 5.2-5.28 8.85-9.86 11.39-1.97.68-3.37 1.06-5.42.43a12 12 0 0 1-7.67-6.4 18.15 18.15 0 0 1-1.28-14c1.66-4.98 4.9-7.66 9.4-9.94Z"/>
  <path fill="#041923" d="M351.19 262.65c5.14-.14 9.6.84 14.2 3.14 7.66 3.83 13.51 10.18 16.13 18.39 2.32 7.24 2 14.72-1.71 21.49-4.38 7.97-12.2 12.49-20.68 14.93-7.58.25-15.19-1.16-21.45-5.7a29.45 29.45 0 0 1-11.44-18.89c-1.18-8.02 1.36-16.43 6.15-22.88 4.85-6.52 10.9-9.38 18.8-10.48ZM475.13 262.6c5.53-.22 10.7-.47 15.98 1.55 7.94 3.05 13.92 9.87 17.26 17.55 2.62 6.04 3.24 12.5.65 18.67-3.9 9.28-12.36 15.74-21.45 19.34l-1.2.26q-.7.14-1.42.24-.71.1-1.43.16-.72.07-1.44.1t-1.45.03q-.72 0-1.44-.05-.72-.04-1.44-.11t-1.43-.18q-.71-.11-1.42-.26-.7-.14-1.4-.32-.7-.17-1.4-.38-.69-.22-1.37-.46-.68-.25-1.34-.52-.67-.28-1.32-.59-.65-.3-1.29-.65-.64-.34-1.25-.71-.63-.37-1.22-.77-.6-.4-1.17-.81-.57-.42-1.12-.87-.55-.45-1.08-.92-.53-.48-1.03-.98t-.99-1.02q-.47-.52-.92-1.07-.46-.55-.88-1.12-.42-.57-.82-1.16-.4-.59-.76-1.2-.36-.6-.7-1.23-.33-.63-.63-1.27t-.58-1.3q-.27-.65-.5-1.32-.24-.67-.45-1.35-.2-.68-.37-1.37-.17-.69-.3-1.39c-1.58-8.04.42-16.07 5.03-22.74 4.48-6.5 10.34-10.3 18.1-11.78Z"/>
  <path fill="#655560" d="M42.65 586.52c2.68.13 4.29-.18 5.58 2.48 3.03 6.22 4.06 13.06 6.56 19.43 2.68 6.81 5.24 14.4 8.46 20.96 6.76 13.74 20.8 29.6 31.65 40.44 18.37 18.35 52.36 38.16 77.65 44.54 16.18 4.08 40.03 5.34 56.58 3.1 8.78-1.19 18.38-3.8 26.66-6.88 7.22-2.68 14.9-5.47 21.83-8.85 4.24-2.07 8.12-5.03 12.5-6.81 1.75-.7 3.4-1.07 5.3-1.1l240.57-.3c12.16 7.12 31.91 15.72 45.74 19.05 8.81 2.12 18.17 3.35 27.16 4.54 11.75 1.56 27.2 2.01 38.94.35 19.3-2.74 42.28-11.67 59.1-21.56 7.01-4.13 13.93-9.43 20.35-14.44 21.95-17.1 39.5-48.18 47.85-74.33 1.63-5.1 3.35-10.16 4.02-15.49l6.02.1c1.63 7.56-.15 28.1-.2 37.48-.05 11.87-.06 23.82.24 35.68.17 6.92.68 13.85.7 20.76.02 10.4-.73 20.8-.95 31.2q-.05 3.25-.14 6.49c-.13 4.04-.7 8-1.03 12.03-3.42 42.11-15.55 70.32-46.77 99.4-20.8 19.37-47.54 31.15-75.44 35.82-11.3 1.89-21.92 1.36-33.32 1.29l-43.72-.64c-21.25-.51-42.67-.35-63.93-.23l-201.47 1.06q-39.87.37-79.74.06c-14-.04-28.14.33-42.11-.31-12.86-.6-26.19-1.8-38.75-4.66-27.99-6.4-57.3-22.2-76.58-43.53-7.95-8.8-14.2-18.25-19.92-28.62-23.8-43.1-19.92-84.25-19.86-131.48.03-25.7-.8-51.35.47-77.03Z"/>
  <path fill="#EDEFEC" d="M520.07 413.23c1.52-.23 2.84.08 3.73 1.43 1.13 1.7 1.9 4.21 2.73 6.1 3.12 7.05 6.78 13.52 13.32 17.91 8.75 5.87 22.04 8.9 32.42 6.69 10.37-2.2 23.05-12.26 29.06-20.84 2.26-3.22 3.38-7 5.56-10.26l.28-.41c6.73-.03 13.58-.28 20.29.3 17.07 1.45 38.54 6.76 53.7 14.66 32.98 17.19 59.2 47.02 70.34 82.65 8.68 27.73 10.82 52.01 2.8 80.35-2.05 7.28-4.5 14.93-8.02 21.63-14.18 26.99-26.63 40.2-52.22 56.33-10.22 6.44-20.27 11.91-31.92 15.44-8.67 2.62-18.81 5.2-27.8 6-20.38 1.8-46.75-3-65.06-11.98-9.23-4.52-17.34-10.88-26.43-15.63l-.85-.44c-3.8.36-7.56 1.2-11.37 1.56-5.02.49-10.1.4-15.13.71-6.11.38-12.2 1.2-18.32 1.5-19 .89-38.1.3-57.11.24l-94.82-1.14c-10.78-.04-21.58.28-32.36.32-3.5.05-7.02.1-10.52-.22-4.17-.38-9.78-2-13.81-1.26-8.19 1.5-16.18 8.71-23.32 12.73-12.98 7.3-31.95 12.68-46.97 13.53-21.5 1.23-44.29-1.46-63.74-11.21-6.5-3.26-12.47-7.35-18.48-11.4-6.77-4.57-13.76-9.25-19.83-14.75-8.1-7.34-14.38-16.3-20.2-25.48C83.8 609 74 588.77 73 565.51c-.57-13.3.56-34.32 3.95-47 1.27-4.73 3.37-9.18 5.03-13.77 1.68-4.64 3.1-9.5 5.18-13.97 3.69-7.92 13.12-21.17 18.76-27.89 3.1-3.7 7.86-6.63 11.46-10.5 6.82-7.36 14.58-12.61 23.26-17.53 25.84-14.64 53.38-19.68 82.83-20.55 2.08-.06 3.76-.06 5.55 1.13 3.9 2.6 9.76 14.5 15.01 19.4 10.33 9.6 25.17 11.47 38.63 10.94 3-1.93 12.78-9.8 15.43-10.27.94-.17 1.12-.07 1.9-.8.16-.14.28-.32.41-.49l1.7-.06c1.73-3.26 3.53-6.56 4.97-9.96 1.2-2.85 2.08-6.95 3.7-9.48 1.22-1.9 5.5.68 7.55.41 16.47-2.12 33.5-1.24 50.08-1.24l100.35-.05c16.94-.03 34.52 1.18 51.33-.6Z"/>
  <path fill="#041923" d="M363.12 549.15c8.77-.55 21.3-1.8 28.76 3.6a13.17 13.17 0 0 1 5.56 9.3c.5 4.56-1.3 9.34-4.25 12.79-3.26 3.82-6.65 5.5-11.57 5.97-7.55.91-17.02.8-23.71-3.15-4.89-2.88-9.07-8-10.3-13.6-.65-2.91-.4-5.88 1.34-8.38 3.13-4.5 9.1-5.7 14.17-6.53ZM444.88 548.21c5.26-.37 11.58-.32 16.74.68 6.31 1.22 9.83 4.7 13.3 9.8.4 5.58.02 10.43-3.63 15.01-4.43 5.58-10.18 6.53-16.82 7.25-7.01.17-17.68 1.74-23.5-2.7a19.23 19.23 0 0 1-7.14-12.38c-.52-4.12.97-8.19 3.65-11.31 4.76-5.55 10.62-5.95 17.4-6.35ZM621.75 583.15c7.73-.59 14.32-.1 21.3 3.54 8.07 4.2 15.34 11.11 18 20.03a26.73 26.73 0 0 1-2.17 20.1c-4.46 7.96-13.57 14.57-22.31 16.92-1.48.36-2.98.75-4.48.99-8.33 1.3-17.18-1.68-23.9-6.55-6.68-4.82-10.31-11.55-11.6-19.57q-.12-.8-.21-1.59-.1-.8-.14-1.6-.05-.8-.06-1.6l.02-1.6q.03-.81.1-1.61.08-.8.2-1.6.1-.8.25-1.58.16-.79.35-1.57.19-.78.42-1.55.23-.76.5-1.52t.57-1.5q.31-.74.65-1.47.35-.72.73-1.43.38-.7.8-1.4.4-.68.86-1.35.45-.66.93-1.3c4.98-6.7 11.06-9.93 19.2-11.2ZM690.43 521.16q.88-.11 1.77-.17c8.08-.53 16.61 2.8 22.62 8.17 6.53 5.84 10.96 14.87 11.27 23.66.3 8.5-4.77 16.48-10.51 22.39-5.49 5.64-11.6 9.3-19.64 9.42-7.56.02-13.26-.28-19.77-4.62-7.62-5.08-13.26-11.97-14.95-21.16a29.9 29.9 0 0 1 4.98-23.2c6-8.46 14.18-12.76 24.23-14.5ZM555.98 520.68c8.57-.48 15.6.68 22.8 5.56q.7.46 1.36.97.67.5 1.31 1.03t1.26 1.1q.62.56 1.2 1.15.59.6 1.15 1.22.55.62 1.08 1.27t1.02 1.32q.5.68.95 1.38.46.7.89 1.41.42.72.81 1.46.39.74.74 1.5t.67 1.53q.31.77.59 1.56.28.79.51 1.6.24.8.43 1.6.2.82.36 1.64a28.4 28.4 0 0 1-4.64 21.88c-5.67 8.08-13.01 13.35-22.8 15.02-8.47.78-16.14-.3-23.23-5.29-7.03-4.95-12.02-12.27-13.44-20.8q-.14-.8-.24-1.62-.1-.82-.16-1.64-.06-.81-.07-1.64-.02-.82 0-1.64t.09-1.64q.06-.82.17-1.63.1-.81.25-1.62t.33-1.61q.19-.8.41-1.59.23-.79.5-1.56.26-.78.56-1.55.3-.76.65-1.5.34-.75.72-1.48.38-.73.8-1.44.4-.7.86-1.4.45-.68.93-1.34c5.31-7.23 12.28-11.83 21.18-13.2ZM625.29 459.7a36.09 36.09 0 0 1 22.15 6.09 30.5 30.5 0 0 1 13.24 19.56c1.84 8.88-.53 18.12-5.55 25.57-5.73 8.52-13.82 12.6-23.69 14.55-9.35.19-17.33-1.31-24.82-7.27-6.75-5.38-12.02-13.2-12.98-21.89-.9-8.28 1.44-17.58 6.8-24.02 6.25-7.49 15.22-11.75 24.85-12.6ZM198.14 474.71c6-.53 14.55-.08 20.06 2.57 15.46 7.43 5.86 36.37 11.35 51.23 8.71.61 17.61.1 26.34.01 4.29-.04 8.82-.36 13.05.46q1.09.21 2.14.54 1.05.33 2.07.77 1 .44 1.97.99.96.54 1.85 1.19c4.94 3.56 7.9 8.74 8.81 14.72 1.25 8.1-.13 18.34-5.33 24.9-7.52 9.51-26.45 8.35-37.47 7.74-3.7-.2-8.08-.95-11.73-.4-1.24.2-2.85.67-3.44 1.92-.7 1.48-.41 5.03-.42 6.65-.03 12.24 3.2 29.96-4.96 40.24-4.3 5.41-11.75 6-18.15 6.85-8.08.21-18.1-.18-24.7-5.46-11.53-9.24-5.92-31.65-7.9-44.57-.25-1.68-.87-3.58-2.3-4.64-6.98-5.21-31.05 4.62-44.7-6.04-5.42-4.23-7.8-10.77-8.49-17.41-.73-7.14-.2-15.8 4.66-21.46 9.72-11.3 33.03-5.53 46.61-6.9 1.14-.13 3.05-.44 3.69-1.56 3.81-6.79-4.54-34.22 3.54-43.97 5.7-6.88 15.2-7.76 23.45-8.37Z"/>
</svg>