<svg xmlns="http://www.w3.org/2000/svg" width="1024" height="1024">
  <path fill="#B8B8B7" d="M228.84 23.16q32.35-.39 64.68.27c9.13.11 18.11-.8 27.23.25-9.63 2.03-17.1.44-26.52.5l-56.59.86c-4.6.07-8.6 1.32-13.05 1.9-2.79.36-5.73 0-8.53-.2l-.33-.55c5.04-.04 8.94.2 13.12-3.03ZM593.83 994.44c8.54-1.62 29.06-.88 38.5-.9 15.07-.01 30.1-.55 45.17-.38 11.38.13 22.76.7 34.14.94 12.29.26 24.7-.86 36.97-.01-1.19.97-2.26 1.16-3.76 1.23-10.84.52-21.81-.37-32.65-.3l-57.03.54-36.53-.03c-6.58-.02-13.57.4-20.1-.3q-2.38-.28-4.71-.8ZM307.49 993.86c1.53-.88 2.99-.73 4.7-.75 15.88-.23 31.71.8 47.58.73 15.5-.07 31-.64 46.51-.77q45.99-.36 91.97.37l51.78.37c10.87.03 22.17-.53 32.98.64l-188 1.09-55.3-.02c-9.44.01-19.7.78-29.07-.18-1.63-.17-1.92-.46-3.15-1.48ZM415.71 23.63c20.22-1.5 41.11-.5 61.39-.5l110.04.01h130.72c22.87 0 46.12-.97 68.93.29.68.65.53.3.66.96-2.18 1.26-78.57.7-87.56.7l-192.41-.32-57 .39c-11 0-24.02.94-34.77-1.53ZM22.53 241.32c1.44 8.25.49 18.03.48 26.44L23 322.54l-.01 221.2v167.08l.05 47.24c-.02 6.87.68 14.87-.48 21.6-1.86-4.54-1.37-25.55-1.42-31.7l.14-372.26-.2-87.89c0-9.3-1.02-38.81 1.45-46.49ZM987.35 221.95c1.4 1.88 1.38 3.76 1.5 6.04.4 7.02 0 14.17 0 21.2l.04 43v130.27l-.03 262.97.02 69.24c0 8.39.98 23.23-.4 30.89-.17.94-.4 1.36-.98 2.08-1.4-5.08-.52-21.4-.54-27.64l-.11-73.36V366.86c.02-36.04-.38-72.11.09-108.15.14-10.68-1-26.52.41-36.76Z"/>
  <path fill="#655560" d="M327.93 23.63c16.96-1.02 34.13-.5 51.12-.5 11.89 0 24.51-.85 36.32.5h.34c10.75 2.47 23.78 1.53 34.78 1.53l56.99-.39 192.4.31c9 0 85.39.57 87.57-.7l.92.35c3.7 1.31 8.33 1.05 12.22 1.84 10.18 2.04 22.28 5.72 32.16 9.01 57.87 19.26 103.9 58.04 131.48 112.6 11.96 23.64 18.76 47.73 23.12 73.77-1.4 10.24-.27 26.08-.41 36.76-.47 36.04-.07 72.11-.1 108.15v319.78l.12 73.36c.02 6.24-.86 22.56.54 27.64-2.15 28.34-10.3 61.25-22.74 86.87-12.02 24.74-30.62 48.69-51.48 66.56q-1.67 1.43-3.36 2.82-1.7 1.39-3.42 2.74-1.73 1.36-3.48 2.68t-3.52 2.6q-1.78 1.3-3.58 2.55-1.8 1.25-3.63 2.46-1.82 1.22-3.67 2.4-1.85 1.18-3.72 2.32t-3.76 2.25q-1.9 1.1-3.81 2.17-1.92 1.07-3.85 2.1-1.94 1.03-3.9 2.02-1.95 1-3.92 1.95-1.98.95-3.97 1.87-2 .91-4 1.79-2.02.87-4.05 1.7-2.02.84-4.07 1.64-2.04.8-4.1 1.55-2.06.75-4.13 1.46-2.08.72-4.16 1.4-2.09.66-4.19 1.3-2.1.63-4.21 1.22t-4.24 1.14q-2.12.54-4.25 1.05-2.14.5-4.28.97-2.14.46-4.3.88-2.15.43-4.3.8-2.17.39-4.33.72-2.17.34-4.34.63-2.18.3-4.36.55-2.17.25-4.36.46-2.18.2-4.37.37c-11.59.98-26.15-1.03-37.04.46-12.28-.85-24.68.27-36.97.01-11.38-.24-22.76-.8-34.14-.94-15.07-.17-30.1.37-45.16.39-9.45 0-29.97-.73-38.51.89-3.49.41-7.32.32-10.82 0-10.81-1.16-22.11-.6-32.98-.63l-51.78-.37q-45.98-.73-91.97-.37c-15.5.13-31.01.7-46.51.77-15.87.07-31.7-.96-47.59-.73-1.7.02-3.16-.13-4.7.75-4.91-.55-10.17-.17-15.14-.14l-27.13.13c-12.06.05-24.32.49-36.37-.17-38.92-2.13-74.32-11.53-107.1-33.15-11.92-7.86-22.01-16.97-32-27.11-5.01-5.1-10.22-10.12-14.82-15.6-21.86-26-38.65-60.03-46.24-93.15-1.54-6.74-3.29-14.15-3.94-21.03-.67-7.14-.44-16.74-2.02-23.4-.04-.2-.1-.4-.16-.58 1.16-6.73.46-14.73.48-21.6L23 710.82V322.54l.02-54.78c.01-8.41.96-18.19-.48-26.44 1.21-2.44 1.52-18.35 2.18-22.41 5.73-35.27 17.73-69.62 38.7-98.84C71.74 108.44 80.71 96.94 91.05 87c33.54-32.22 78.95-53.27 124.67-60.82l.33.55c2.8.2 5.74.56 8.53.2 4.45-.58 8.44-1.83 13.06-1.9l56.58-.86c9.43-.06 16.89 1.53 26.52-.5l7.18-.05Z"/>
  <path fill="#C9CBCC" d="M696.53 137.4c1.07 6.09 1.83 12.1 1.05 18.28-1.66-.78-1.81-2.35-2.43-4.01-1.35-1.14-1.54-.97-3.23-.97l.63-2.19c.57-.33 1.17-.66 1.66-1.1 2.66-2.37 2.23-6.8 2.32-10.01Z"/>
  <path fill="#B8B8B7" d="M327.93 23.63c16.96-1.02 34.13-.5 51.12-.5 11.89 0 24.51-.85 36.32.5-14.13 2.86-42.9 1.44-58.37 1.22-9.82-.15-19.34.65-29.07-1.22ZM314.3 151.8c2.75 3.8 5.53 7.25 7.76 11.42 4.71 8.86 8.1 19.3 14.01 27.37-4.17 4.23-9.3 8.93-14.03 12.51l-.67-.1c-4.53-6.16-7.31-42.13-7.07-51.2ZM691.92 150.7c1.7 0 1.88-.17 3.23.97.62 1.66.77 3.23 2.43 4.01-.6 10.5-2.04 20.75-3.17 31.18-.46 4.25-.37 9.73-1.63 13.78-.34 1.11-1.16 2.11-1.88 3.02l-.6-.02-.4-.76c-2.72-4.8-8.95-9.38-13-13.15 6-5.34 12.48-30.45 15.02-39.03ZM795.68 226.08c.54 5.09 1.06 10.07-.1 15.1-2.36 10.4-15.5 30.43-22.34 38.95-4.52 5.63-10.2 10.64-14.3 16.53-3.04-6.91-5.75-14.68-9.67-21.1.68-.31.88-.37 1.49-.72 3.58-2.06 6.95-5.52 10.06-8.22 10.38-9.02 31.37-27.22 34.86-40.54ZM214.47 220.48v4.9c0 1.38.04 2.64.58 3.94 3.9 9.3 22.03 28.3 29.88 36.1 4.78 4.74 11.64 8.41 15.21 14.15a63.33 63.33 0 0 1-9.52 20.84c-5.99-9.02-13.45-17.18-19.68-26.08-10.84-15.5-19.9-34.46-16.47-53.85ZM839.28 365c-2.29 11.3-6.56 19.83-16.35 26.4-16.36 11-27.7 17.48-47.36 19.69.08-7.8.44-15.76-.03-23.55 2.93-2.34 11.06-2 14.93-2.8 11.51-2.37 35.93-8.2 44.82-14.82 1.7-1.27 2.84-3.17 4-4.91ZM172.5 367.67c3.1 2.56 6.06 5.01 9.62 6.94 9.37 5.1 27.86 10.15 38.57 12.57 4.86 1.1 9.92 1.8 14.69 3.19.03-5.41-.42-11.32.53-16.64.16 11.03.46 22.4-.28 33.41.07 1.65.46 3.76-.52 5.16-1.02.51-1.66.48-2.78.43-4.23-2.68-10.2-3.89-14.96-5.47-12.89-4.28-34.04-11.87-41.46-23.74-1.98-3.16-3.78-7.98-2.95-11.74 1.14.04.72.24 1.36-.29a9.62 9.62 0 0 1-1.82-3.82Z"/>
  <path fill="#C9CBCC" d="M235.24 391.53q.04 7.8.39 15.61c.07 1.65.46 3.76-.52 5.16-1.02.51-1.66.48-2.78.43 1.88-4.57.93-9.91 1.5-14.76.27-2.16.88-4.33 1.4-6.44Z"/>
  <path fill="#B8B8B7" d="M159.5 571.72c-.67-4.4-1.75-9.04-1.23-13.49 1.82 3.63 3.4 7.26 4.15 11.27 9.14 36.14 29.24 64.02 57.68 87.65 3.78 3.14 9.8 8.83 13.6 11.17.33.21.71.38 1.07.55.89-.53.58-.15.88-1.2q.89 3.73 1.72 7.49c-3.78 7.84-8.97 14.54-13.65 21.82-8.3-8.06-17.46-15.17-24.89-24.1-20.06-24.14-37.12-69.77-39.33-101.16Z"/>
  <path fill="#FAFAF7" d="M502.2 91.68c3.58-.99 8.25-.17 11.61 1.22 14.47 5.99 25.02 30.7 30.5 44.69-10.8.06-21.4-.25-32.18-1-14.35-.1-28.98.05-43.26 1.42 1.03-8.19 8.39-23.65 12.77-30.82 4.75-7.78 11.67-13.36 20.56-15.5ZM775.54 387.54c-1.66-15.8-1.71-31.54-3.33-47.57-.39-3.83-4.03-10.18-3.64-13.25.05-.4.1-.48.43-.7 4.71-2.98 29.02 2.33 35.26 3.77 11.74 2.7 25.5 7.6 32.05 18.5 2.66 4.41 4.28 11.6 2.97 16.72-1.15 1.75-2.29 3.64-4 4.91-8.88 6.63-33.3 12.45-44.8 14.82-3.88.8-12.01.46-14.94 2.8ZM172.5 367.67c-2.61-2.84-2.46-7.29-2.26-10.96.35-6.5 3.55-12.24 8.4-16.52a32.66 32.66 0 0 1 6.61-4.71c10.6-5.33 40.76-10.8 52.94-10.16 1.4.07 2.5.16 3.56 1.16-.78 7.75-2.84 15.28-3.93 22.99-1.14 8.09-1.19 16.15-1.9 24.26-.96 5.32-.51 11.23-.54 16.63-4.77-1.38-9.83-2.08-14.69-3.18-10.7-2.42-29.2-7.48-38.57-12.57-3.56-1.93-6.52-4.38-9.62-6.94ZM615.48 153.31c2.83-2.69 6.11-4.95 9.04-7.55 11.81-10.53 28.71-27.4 44.98-29.24 6.72-.76 13.85.82 19.08 5.29 4.16 3.55 7.6 10.04 7.95 15.59-.1 3.2.34 7.64-2.32 10-.5.45-1.1.78-1.66 1.11l-.63 2.19c-2.54 8.58-9.01 33.69-15.02 39.03-8.3-5.2-15.74-11.53-24.22-16.55-12.1-7.15-25.05-12.78-37.2-19.87ZM314.3 151.8c.28-11.3-.32-20.43 8.45-28.96a23.6 23.6 0 0 1 17.24-6.88c19.96.28 40.46 29.46 57.46 40.07-6.07 1.35-11.24 4.4-16.71 7.24-15.76 8.17-30.1 17.23-44.67 27.32-5.92-8.07-9.3-18.5-14.01-27.37-2.23-4.17-5.01-7.62-7.76-11.43ZM710.24 220.84c13.27-9.79 42.49-23.45 58.86-23.84 7.16-.16 14.26 1.84 19.41 7.04 6.1 6.16 7.13 13.81 7.17 22.04-3.5 13.32-24.48 31.52-34.86 40.54-3.1 2.7-6.48 6.16-10.06 8.22-.61.35-.8.41-1.5.72-3.69-5.31-6.52-11.22-9.76-16.82-7.9-13.61-17.37-27.53-29.26-37.9ZM214.47 220.48c.55-6.07 3.12-12.78 7.8-16.83 6.2-5.37 14.84-7.42 22.9-6.6 11.67 1.2 47.76 17.35 55.46 26.35l.18.81-2.28 1.37c-9.05 5.27-32 42.96-38.39 53.99-3.57-5.74-10.43-9.4-15.2-14.15-7.86-7.8-25.98-26.8-29.89-36.1a9.64 9.64 0 0 1-.57-3.94l-.01-4.9ZM706.27 665.49c14.11 3.22 29.4 11.04 40.45 20.37 14.71 12.4 28.76 32.54 30.38 52.1-1 .6-2.07 1.27-3.2 1.58-3.1.86-7.24.61-10.47.77-7.63.38-15.49.59-23.03 1.78-12.09 1.92-27.2 9.65-38.26 8.94-1.25-.8-1.28-1.12-1.88-2.5a24.5 24.5 0 0 0-1.37 3.19l-.8.15c-.18-.6-.38-1.2-.49-1.82 1.9-4.42 3.02-9.07 4.23-13.7 6.03-23.22 7.17-47.04 4.44-70.86Z"/>
  <path fill="#B8B8B7" d="M232.5 748.31c8.22-.46 16.16.41 24.34.68 7.58.25 15.37-.06 22.9.7 6.69.68 13.28 2.13 19.97 2.7 5.7.48 11.25-.41 16.92.1h.23c2.72 3.49 4.4 9.9 6.34 14 6.3 13.27 15.42 27.22 26.12 37.3q-4.18.47-8.37.86c-16.44 1.4-53.42.92-68.16-3.55-7.94-2.4-16.1-7.06-22.42-12.4-12.68-10.76-16.57-24.4-17.87-40.39ZM697.6 750.05c.1.62.31 1.22.49 1.82l.8-.15c.4-1.11.8-2.14 1.37-3.2.6 1.4.63 1.7 1.88 2.5 11.07.72 26.17-7.01 38.25-8.93 7.55-1.2 15.41-1.4 23.04-1.78 3.23-.16 7.37.09 10.47-.76 1.13-.32 2.2-.98 3.2-1.58.94 17.54-1.06 32.86-13.27 46.3-10.79 11.87-26.33 18.03-42.14 18.67-19.56.8-39.6.29-59.13-.9 14.27-14.03 20.7-22.65 29.7-40.29 1.93-3.78 3.3-8.02 5.35-11.7Z"/>
  <path fill="#FAFAF7" d="M232.5 748.31c-.5-19.17 6.78-39.24 20.12-53.22 12.66-13.27 27.99-22.6 45.76-27.22 2.3-.6 5.8-1.92 8.12-1.7.53.06.75.2 1.2.42.6 2.98-1.14 9.68-1.17 13.5-.06 9.28-.54 18.99.3 28.23.85 9.36 3.03 18.55 5.13 27.7 1.24 5.4 2.42 11.48 4.9 16.46h-.23c-5.68-.5-11.23.39-16.92-.1-6.69-.56-13.28-2.01-19.96-2.68-7.54-.77-15.33-.46-22.9-.7-8.19-.28-16.13-1.15-24.35-.69ZM418.4 407.38c12.6-.41 37.26 22.42 54.59 19.45 8.7-1.5 20.9-6.9 26-14.3 4.33 1.73 8.34 4.41 12.54 6.47 4.34 2.13 8.92 3.88 13.43 5.63 18.7 7.24 26.67 2.43 43.87-5.38 7.14-3.24 15.67-8.16 23.38-9.63l.54-.09c-.8 8.65-3.28 15.82-6.62 23.75-2.67 8.23-5.66 16.75-9.7 24.42-1 1.87-2.45 4.58-4.43 5.55-3.06 1.5-28.4-3.62-34.25-3.62-4.11 0-9.46.13-13.36 1.4-1.23.4-2.2 1.25-3.45 1.58-3.77 1-30.38-.39-34.72-1.23-1.72-.33-3.63-1.5-5.17-2.34-2.01-1.09-3.17-1.46-5.5-1.36-.34.01-.67.04-1 .06-5.7.3-11.2 2.07-16.8 3-5.77.95-11.56 1.1-17.34 2.24-5.32-8.06-22.63-47.17-22-55.6ZM158.27 558.23l.03-.4c.38-6.64-1.05-14.11-1.67-20.75-1.42-15.3-2.13-24.75-1.04-40.3.15-2.23-.07-6.43 1.3-8.2.73.7 4.25 11.47 5.96 14.49 2.85 5.01 6.45 9.56 9.53 14.43 8.17 12.94 15.76 26.56 26.2 37.89 7.62 8.28 17.02 17.29 27.1 22.48 3.1 1.6 8.06 1.68 10.51 3.89 1.34 1.2 1.2 3.8 1.25 5.46.13 6-.76 12.04-.82 18.06l-.06 46.98c-.05 5.1-1.17 10.38-.91 15.4-.3 1.06.01.68-.88 1.2-.36-.16-.74-.33-1.08-.54-3.79-2.34-9.81-8.03-13.6-11.17-28.43-23.63-48.53-51.5-57.67-87.65-.74-4.01-2.33-7.64-4.15-11.27ZM353.75 441.64l.56-.1c13.67-1.74 30.68 3.11 41.55 11.48 9.46 7.28 14.91 17.92 16.42 29.68 1.62 12.66-2.9 23.97-10.58 33.9q-.83 1.1-1.72 2.16t-1.82 2.07q-.94 1.01-1.93 1.97-.98.97-2.01 1.88-1.03.92-2.1 1.79-1.08.86-2.2 1.67-1.11.81-2.27 1.57-1.15.75-2.34 1.45t-2.41 1.34q-1.22.64-2.47 1.22-1.25.58-2.53 1.1-1.28.51-2.58.97-1.3.46-2.63.85-1.32.39-2.66.72-1.34.32-2.7.58-1.35.26-2.71.46c-13.4 1.69-26.85-1.53-40.03-3.74-6.06-7.55-15.6-24.34-17.72-33.57-2.92-12.82 1.74-23.3 8.57-33.97 8.46-13.24 23.08-22.16 38.3-25.48Z"/>
  <path fill="#B8B8B7" d="M676.53 652.26c7.23 31.54 7.44 53.75-2.58 84.8-3.3 10.25-6.85 19.64-12.63 28.8-18.01 28.55-45 46.44-76.45 57.2-5.9 2.02-11.9 4.24-18 5.56-6.89 1.5-14.2 1.83-21.22 2.34-25.32 1.84-50.6 1.27-75.9-.45-8.56-.58-17.45-.88-25.88-2.58-19.23-3.88-40.22-11.33-56.7-22.22-23.6-15.59-42.66-42.34-48.07-70.32q-.92-5.01-1.5-10.08c2.38 3.4 3.56 7.52 5.84 11 7 10.7 15.8 20.77 24.73 29.87a148.7 148.7 0 0 0 46.45 31.83c7.77 3.31 16.1 5.2 24.28 7.17 20.1 4.82 40.45 8.75 61.23 8.8 7.32.03 14.83-.85 22.14-1.41 40-3.08 80.22-12.73 109.65-41.68 6.4-6.28 12.85-12.77 17.9-20.2 18-26.41 26.42-66.69 26.71-98.43Z"/>
  <path fill="#FAFAF7" d="M638.97 442.2a44.5 44.5 0 0 1 6.29-.23q1.58.02 3.16.13 1.58.1 3.15.28 1.58.19 3.14.45t3.1.6q1.56.33 3.08.74 1.53.42 3.04.9 1.5.5 2.99 1.05 1.48.56 2.93 1.2 1.45.63 2.87 1.34 1.41.7 2.8 1.48 1.38.77 2.72 1.61 1.34.84 2.64 1.75 1.3.9 2.55 1.88 1.25.97 2.45 2 1.2 1.03 2.35 2.12 1.15 1.09 2.25 2.23c8.27 8.67 16.74 19.47 16.31 32.08-.12 3.67-.85 7.29-1.54 10.88-2.6 13.45-8.61 21-18.45 30.16-6.3.87-12.58 2-18.86 3-16.31 1.65-33.5.63-47.07-9.59-11.39-8.56-20.34-22.71-22.17-36.95-1.5-11.66 2.6-23.35 9.8-32.5 7.45-9.48 18.63-15.16 30.47-16.61ZM214.72 788.67c1.44-.39 3.3-.26 4.82-.3 6.22 13.33 20.57 26.02 33.9 31.91a84.25 84.25 0 0 0 20.7 6.17c13.83 2.1 28.23 1.56 42.16 1.55 14.12 0 28.89.48 42.88-1.51a44.24 44.24 0 0 0 10.26-2.89c16.9 9.4 32.54 16.8 50.74 23.38 5.83 2.11 11.83 4.44 17.88 5.8 7.66 1.72 15.96 1.85 23.8 2.41 17.58 1.27 34.9 2.06 52.54 1.78 6.03-.1 12.03-.8 18.05-.94 13.5-.32 27.27.45 40.53-2.73 8.85-2.12 17.36-5.97 25.67-9.58 13.78-5.98 27.15-12.17 39.9-20.12 16.31 4.24 32.03 3.02 48.65 3.4 16.44.4 32.22 1.94 48.61-.96 16.91-2.98 26.37-8.77 38.62-20.22 5.45-5.1 10.49-10.34 14.8-16.46 6.65-.08 14.28 2.42 20.7 4.23 14.55 4.1 42.88 11.46 50.6 25.25l.14 6.71c-7.11 7.37-14.8 11.34-24.05 15.45-13.85 5.57-28.59 8.86-43.13 12.01-11.23 2.43-22.37 5.2-33.7 7.1-11.05 1.85-22.2 2.84-33.3 4.24-8.13 1.02-16.19 2.6-24.32 3.6-18.63 2.3-37.5 3.84-56.24 5.17-6.96.5-13.92.36-20.88.72-16.66.86-33.39 2.27-50.05 2.69-24.76.62-49.73.16-74.5.1-22.4-.07-44.9.49-67.27-.1q-69.64-2.46-138.8-11.04c-31.13-3.8-62.92-7.12-93.23-15.43-15.17-4.15-43.73-11.97-51.73-25.96-.09-2.46-.03-4.94-.03-7.4 13.29-16.85 45.07-22.7 65.28-28.03Z"/>
  <path fill="#FAFAF7" d="M495.78 506.38c4.9-.05 16.54-2.29 20.57-.5 3.29 1.45 7.8 17.39 9.7 21.74 1.55 3.58 3.74 6.79 7.56 8.13 6.7 2.36 15.29-.48 21.44-3.28-1.23-8.86-3.59-17.19-6.14-25.73 8.73.97 17.21.36 25.95.04 1.91 4.76 3.7 9.69 6.2 14.18 6.93 12.51 23.93 28.5 36.86 34.91 5.38 2.67 11.32 4.19 17.08 5.82 3.01 5.77 5.92 11.67 9.33 17.2 5.33 8.66 11.3 16.69 16.12 25.69 3.95 7.37 6.95 15.04 9.85 22.87 2.95 7.98 5.51 16.3 6.23 24.8-.3 31.75-8.7 72.03-26.7 98.44-5.06 7.43-11.52 13.92-17.9 20.2-29.44 28.95-69.65 38.6-109.66 41.68-7.3.56-14.82 1.44-22.14 1.42-20.78-.06-41.12-3.99-61.23-8.81-8.19-1.97-16.5-3.86-24.27-7.17a148.7 148.7 0 0 1-46.46-31.83c-8.92-9.1-17.74-19.17-24.73-29.87-2.28-3.48-3.46-7.6-5.84-11-2.04-10.94-4.78-21.18-5.8-32.36-3.28-35.75 8.2-71.03 26.33-101.37 2.22-3.7 4.56-7.47 7.13-10.93 4.93-6.64 9.4-10.88 11.79-19.19 27.33-8.72 38.06-20.72 55.47-42.1 2.65-3.24 3.99-7.75 6.89-10.7a4.13 4.13 0 0 1 2.27-1.25c2.35-.6 17.94-.67 21.32-.65 2.65 4.65-6.74 16.44-7.87 22.45-.28 1.49-.17 3.12.9 4.3 3.93 4.32 18.53 2.9 24 2.89 2.1-3.04 3.45-6.86 5.24-10.13 3.7-6.77 7.76-12.56 10.5-19.89Z"/>
  <path fill="#655560" d="M495.87 539.72c32.83-1.52 58.13 7.6 84.38 26.8 23.3 17.03 38.93 46.4 43.2 74.51 4.94 32.39-3.55 64.59-22.92 90.85-19.27 26.14-49.21 41.76-80.97 46.47q-2.94.36-5.88.65c-29.68 2.83-60.23-10.4-82.66-28.95q-1.1-.91-2.16-1.86-1.08-.94-2.12-1.91-1.05-.97-2.07-1.96-1.03-1-2.03-2.02-1-1.02-1.97-2.06t-1.92-2.11q-.95-1.07-1.87-2.16-.92-1.09-1.81-2.2-.9-1.11-1.76-2.25-.87-1.13-1.7-2.28-.84-1.16-1.65-2.34-.81-1.17-1.6-2.36l-1.53-2.41q-.75-1.22-1.47-2.45-.72-1.23-1.4-2.48-.7-1.25-1.36-2.51-.66-1.27-1.29-2.55-.63-1.28-1.22-2.57-.6-1.3-1.16-2.61-.57-1.31-1.1-2.63-.53-1.33-1.03-2.67-.5-1.33-.97-2.68t-.9-2.7q-.44-1.37-.84-2.74-.4-1.37-.76-2.75-.37-1.37-.7-2.76-.33-1.39-.63-2.78-.3-1.4-.57-2.8-.26-1.4-.49-2.81-.23-1.41-.42-2.82-.2-1.42-.36-2.84-.16-1.41-.29-2.84c-2.85-32.69 5.57-62.96 26.98-88.16 16.83-19.82 35.76-32.05 60.68-39.3 6.18-1.79 11.9-3.45 18.34-3.96Z"/>
  <path fill="#FAFAF7" d="M497.61 565.66c.26-.04.5-.1.77-.13 21.9-2.33 42.92 5.16 60.33 18.2 21.54 16.12 34.46 33.3 38.24 60.57 3.5 25.32-1.49 51.8-17.17 72.35q-.73.93-1.47 1.84-.75.91-1.51 1.8-.77.9-1.56 1.77-.79.88-1.6 1.73-.8.86-1.63 1.7l-1.68 1.64q-.85.82-1.72 1.61-.87.8-1.76 1.57t-1.8 1.52q-.9.75-1.82 1.48-.93.73-1.87 1.44l-1.9 1.39q-.96.68-1.93 1.34-.98.66-1.97 1.3l-2 1.25q-1 .61-2.02 1.2t-2.05 1.15q-1.04.56-2.09 1.1-1.04.54-2.1 1.05t-2.13 1q-1.07.49-2.16.95-1.08.46-2.18.9-1.09.43-2.2.84l-2.21.79q-1.12.38-2.24.73-1.12.36-2.25.68-1.13.33-2.27.63-1.14.3-2.29.57-1.14.27-2.3.52l-2.3.46-2.32.4q-1.16.19-2.33.35c-20.29 2.18-42.63-3.34-59.36-15.02-18.99-13.26-35.67-35.83-39.67-58.83-4.08-23.47-.75-53.95 13.4-73.86 10.37-14.55 27.9-28.15 44.53-34.47 7.24-2.74 14.98-4.25 22.6-5.5Z"/>
  <path fill="#655560" d="M503.67 576.97q.99.01 1.97.1c4.36.34 8.94 2 11.71 5.53 4 5.08 3.08 11.26 2.46 17.2 5.83-1.2 11.59-1.72 17.43-.2 6.4 1.65 13.03 6.19 16.32 12.07 2.08 3.71 2.24 7.72.9 11.72-1 2.98-2.66 5.57-5.6 6.92-7.75 3.57-18.2-1.72-25.47-4.28-7.92-2.78-16.7-1.75-24.88-.96-1.54.15-4.47.11-5.77 1.03-2.47 1.75-3.58 7.3-3.55 10.12.01 1.16.19 2.45.94 3.4 4.9 6.12 35.1 5.61 43.92 7.9q.98.25 1.95.57.96.32 1.9.7.94.38 1.86.81.91.44 1.8.94.88.5 1.73 1.04.85.55 1.67 1.15.81.6 1.59 1.26.77.65 1.5 1.36c6.55 6.3 8.38 13.9 8.46 22.6.11 11.5.16 22.57-8.52 31.26-7.9 7.9-16.64 8.28-27.06 8.23.08 5.37.19 10.63-.77 15.94-3.22 3.87-6.07 6.62-10.92 8.34-.99.13-2 .25-2.99.22-3.68-.1-7.6-1.1-10.2-3.85-4.82-5.13-3.52-13.6-3.3-20.06-6.75.82-14.43.9-20.95-1.2-5.57-1.78-10.94-5.46-13.58-10.8-1.77-3.58-2.67-8.7-1.25-12.55 1.38-3.75 5.37-6.66 8.88-8.26 9.96-4.54 16.48 1.38 25.34 4.45 6.43 2.23 25.33 1.87 31.31-.97l.69-.33c.45-2.26 1.02-4.65.87-6.97-1.1-17.43-39.92-1.46-56.66-17.34-8.3-7.88-9.77-17.99-9.87-28.88-.1-10.83.28-20.48 8.51-28.57 7.78-7.65 16.44-7.6 26.57-7.67V587.2c2.67-4.88 6-7.94 11.06-10.22Z"/>
  <path fill="#FAFAF7" d="M481.16 160.66c6.45-1.21 14.65-.3 21.28-.27 17.8.09 35.4-.67 53.06 1.9 37.96 5.5 73 22.47 103.78 44.86 7.43 5.4 14.89 10.92 21.58 17.23 10.17 9.59 18.92 20.24 27.24 31.44 16.35 22.01 30.36 51.59 35.9 78.42 5.88 28.44 5.11 57.52 5.18 86.37l.86 76.77c.03 8.29-.85 16.56-.73 24.82l.76 92.04c.06 14.63 1.75 29.58-.37 44.05-15.48-11.89-28.96-15.5-47.72-18.35-7.22-28.64-20.13-52.29-36.48-76.63 1.76-.18 3.48-.44 5.2-.87 16.62-4.16 26.4-13.66 34.93-27.97 3.35-5.63 5.95-11.44 8.57-17.43 1.97-4.5 4.33-9.15 5.7-13.88 2.81-9.6 2.12-20.97-.37-30.55-5.11-19.73-15-34.29-32.95-44.6-13.86-7.97-34.88-11.88-50.73-9.65-6.76.95-12.91 3.11-19.45 4.92 2.9-6.86 4.94-12.22 2.33-19.69-2.23-6.38-6.65-12.74-12.92-15.63-3.64-1.67-7.64-1.67-11.57-1.56-20.34.62-36.58 10.6-55.01 17.63-6.83-3.25-12.8-8.74-19.57-12.4-5.93-2.78-12.36-5.98-18.88-7-12.11-1.93-21.87 11.38-30.83 17.84l-.46.33c-4.4-2.09-8.54-5.09-12.85-7.44-8.83-4.83-25.56-12.09-35.6-12.12-7.89-.03-14.13 4.68-19.33 10.1-9.07 9.46-8.3 18.63-7.97 30.8-5.68-1.8-11.03-4.4-16.88-5.68-4.2-.91-8.6-.93-12.87-.96-15.91-.1-30.74 3.2-44.19 12.1-14.82 9.78-25.11 29.93-28.6 46.93-3.72 18.2.19 28.44 8.52 44.12 2.46 4.63 4.44 9.49 7.37 13.87 5.65 8.44 16.8 20.65 26.43 24.24 5.11 1.92 10.91 2.48 16.26 3.55-11.68 11.69-26.37 39.62-32.26 55.35-2.69 7.16-4.42 14.48-6.34 21.86-14.46-.25-38.46 10.96-50.3 18.99 1.19-7.33.56-15.46.56-22.87 0-18.72-.56-37.37-.98-56.07-.32-14.33.34-28.6.37-42.92l-.45-63.19.3-57.44c.15-28.97-.09-59.19 6.95-87.5 4.35-17.47 15.24-41.85 24.45-57.25 3.8-6.36 8.24-12.41 12.6-18.4 8.42-11.56 18.2-21.15 28.98-30.47q3.01-2.63 6.1-5.17 3.1-2.53 6.27-4.98 3.18-2.44 6.42-4.78 3.24-2.34 6.56-4.58 3.31-2.24 6.7-4.38 3.38-2.14 6.82-4.18 3.45-2.03 6.96-3.96 3.5-1.93 7.07-3.75 3.56-1.81 7.18-3.52 3.62-1.71 7.29-3.31 3.66-1.6 7.38-3.08 3.72-1.49 7.48-2.86 3.76-1.37 7.56-2.62t7.63-2.39q3.84-1.14 7.7-2.16 3.88-1.01 7.78-1.91 10.24-2.32 20.7-3.04c4.43-.29 8.87-.21 13.25-.95l.65-.12Z"/>
  <path fill="#655560" d="M462.19 318.61c11.42-.42 12.31 10.3 19.8 15.9 8 5.98 28.43 5.38 38.21 3.68 12.78-2.22 11.52-6.52 17.97-15.13 2.05-2.74 5.14-4.2 8.5-4.53 3.07-.3 6.24.59 8.53 2.68 2.65 2.43 3.93 5.8 4.03 9.36.17 6.02-2.66 9.7-6.52 13.86-1.66 1.51-3.3 3.06-5.04 4.48-12.56 10.26-31.77 14.88-47.7 13.17-15.33-1.64-31.94-5.68-41.94-18.38-4.4-5.58-5.93-12.04-5.06-18.97 2.7-3.5 4.82-5.28 9.22-6.12ZM392.98 263.62l2.78-.12c4.65-.22 8.85.24 13.24 1.9 7.7 2.93 14.02 9.58 17.25 17.1 4.77 11.1 5.71 36.5 1.01 47.67-4.27 10.15-12.71 16.6-22.68 20.5l-.9.26a25.3 25.3 0 0 1-18.3-2.63c-7.7-4.61-13.52-13.1-15.61-21.75-3.75-15.48-3.92-36.8 4.81-50.65 4.46-7.05 10.5-10.44 18.4-12.28ZM610.1 263.18c6.01-.74 12.73 1.33 17.77 4.59 8.08 5.23 13.58 13.84 15.68 23.14 3.02 13.45 3.3 33.54-4.38 45.6-4.99 7.83-11.88 12.81-20.92 14.86-7.7.37-14.72.44-21.16-4.62-7.88-6.2-12.5-16.45-13.69-26.2-1.88-15.5-2.11-34.52 8.12-47.4 4.7-5.93 11.14-9.16 18.58-9.97Z"/>
</svg>