<svg xmlns="http://www.w3.org/2000/svg" width="1024" height="1024">
  <path fill="#162425" d="M258.93 52.24c8.69-.47 17.52-.18 26.22-.18l48.92.04c42.67 0 85.44-.68 128.1.03 9.6.16 18.95 2.03 28.47 2.34 21.5.7 43.2.06 64.73.08 5.63 0 11.43.24 17.05-.2 5.82-.47 11.58-1.58 17.42-1.98 6.48-.43 13-.34 19.49-.35q42.93-.3 85.86.51c7.75.18 15.24 2.02 23.06 2.04h47.36c8.36.02 17.47-.58 25.74.56 2.81.4 5.36 1.82 8.15 2.29 3.4.56 6.9.18 10.28.82 4.65.88 9.36 2.65 13.88 4.03 17.29 5.26 33.24 11.4 48.95 20.48 19.04 11 39.08 28.36 53.01 45.52 17.12 21.06 32.97 52.13 39.96 78.2 2.8 10.46 5.8 21.27 7.32 32.01 1.07 7.57.73 15.4 1.1 23.03.38 7.67 1.4 15.28 1.7 22.96.6 15.1.14 30.2-.1 45.28-.2 11.72-.06 23.43-.43 35.15-.26 8.17-1.11 16.31-1.21 24.48-.27 21.5-.03 43.05 0 64.56.03 16.35-.2 32.74.02 49.08.13 9.55 1.45 19.03 1.48 28.6.02 9.12-.97 17.98-1.43 27.06-.4 7.65-.3 15.35-.3 23.01l.03 151.07.04 40.32c-.02 7.67.36 15.85-.72 23.44-4.03 28.31-10.8 55.54-24.72 80.73-2.08 3.77-13.92 21.05-14.51 22.84-.34 1.02.13 1.6.49 2.52a10.5 10.5 0 0 1-2.9 4.68c-1.87 1.84-4.63 2.18-6.62 3.81-2.75 2.25-5.05 5.46-7.59 8-4.43 4.44-9.83 8.57-13.71 13.45a15.4 15.4 0 0 1-.86 3.41c-3.73 3.71-3.94.1-7.64 2.79q-8.46 6.2-17.55 11.42-9.1 5.22-18.71 9.4c-5.3 2.33-10.96 4.06-16.42 5.94-15.62 5.37-31.6 10.4-48.08 12.3-7.01.8-14.15.71-21.2.75H386.5c-11.27-.01-22.68-.37-33.94.08-7.54.3-15.04 1.56-22.59 1.78-17 .52-34.2.34-51.2.1-6.19-.08-12.2-1.58-18.35-1.8-10.84-.39-22.12.63-32.86-1.06-20.95-3.3-48.89-12.38-68.03-21.79-2.98-1.46-5.7-3.64-8.52-5.42-6.77-4.28-13.6-8.1-20.08-12.9-35.14-26.06-58.68-59.6-72.45-101.02-3.3-9.94-6.6-20.5-8.07-30.9-.86-6.04-1.9-12.25-2.32-18.33-.95-13.73-.26-27.93-.26-41.7V685l.07-206.36-.06-148.37-.06-45.66c0-9.08-.31-18.34.26-27.4.28-4.43 1.11-8.82 1.58-13.24.43-4.17.42-8.39 1.06-12.54q.81-5.07 1.87-10.1 1.05-5.03 2.33-10 1.29-4.97 2.8-9.88 1.52-4.9 3.27-9.74 1.74-4.82 3.7-9.57 1.98-4.74 4.17-9.39 2.18-4.64 4.59-9.18 2.4-4.54 5.01-8.96c3.94-6.52 8.6-12.5 13.17-18.56 5.44-7.2 11.41-13.49 17.74-19.91 4.88-4.97 9.9-10.2 15.27-14.63 20.6-17 48.33-30.86 73.9-38.51 10.84-3.25 22.43-5.55 33.57-7.57 4.78-.88 9.72-.7 14.56-1.2 4.14-.42 8.18-1.43 12.3-2Z"/>
  <path fill="#CDCDCD" d="m288.51 501.7.77 1.92c.82.27 1.29.21 2.11.15 3.2-.24 6.08 1.52 8.4 3.57.12.1.23.23.35.34-3.65-.32-7.45.16-10.74-1.63-1.08-1.57-.85-2.47-.89-4.35Z"/>
  <path fill="#78A5AA" d="M335.34 579.93c2.87.25 5.93.07 8.29 1.88 1.23 1.67.98 3.53.98 5.52-3.37-2.05-6.34-4.78-9.27-7.4Z"/>
  <path fill="#ACAEAF" d="M692.94 414.36c.28 3.19 1.83 13.28-.15 15.65-1.87-.38-1.46-1.83-3.23-1.83-1.14.84-2.17 1.7-3.56 2.09 3.24-4.67 6.18-10.24 6.94-15.91Z"/>
  <defs>
    <linearGradient id="a" x1="69.4" x2="75.81" y1="773.65" y2="779.1" gradientUnits="userSpaceOnUse">
      <stop offset="0" stop-color="#606661"/>
      <stop offset="1" stop-color="#7D7D80"/>
    </linearGradient>
  </defs>
  <path fill="url(#a)" d="M72.54 763.45c1.18 5.35 2.35 11.01 4.16 16.18-2.79 3.27-4.27 5.93-5.1 10.16-.22-8.81.42-17.55.94-26.34Z"/>
  <path fill="#ACAEAF" d="M560.72 606.93c3.74-.85 12.09-1.46 14.47-4.73 1.93-2.65 3.23-4.59 5.65-6.9l2.86 1.22c-1.98 3.96-3.45 8.1-8 9.66-4.38 1.51-10.37.8-14.98.75Z"/>
  <path fill="#CDCDCD" d="M180.02 338.14c6.85.28 14.46 11.6 30.61 10.87-2.99.59-5.66 1.63-8.48 2.76-8.33-2.53-16.9-6.35-22.13-13.63Z"/>
  <path fill="#FDFCFC" d="M599.48 471.97c.1 0 .2 0 .3.02 1.38.35 1.8.92 2.53 2.1 2.1 3.37 6.74 11.28 5.72 15.38l-.67.34-1.67-.96c-4.51-4.2-8.89-9.15-11.67-14.7 1.78-.82 3.62-1.49 5.46-2.18Z"/>
  <path fill="#CDCDCD" d="M463.27 361.5c5.99.33 11.2 2.05 16.26 5.24.24 3.3.18 6.63.18 9.94-4.23-2.67-14.25-6.15-16.5-10.56-.84-1.67-.28-2.9.06-4.62Z"/>
  <path fill="#515858" d="M335.5 395.57c1.02-.77 1.98-1.6 2.96-2.43 1.1-.93 2.5-2.26 4-2.13l.3 1.62c-.54 3.97.26 7.82.53 11.78-7.37-2.7-15.24-2.3-22.95-2.25.3-1.14.16-.68.57-1.82 1.15-3.2 7.5-2.45 10.3-3.07 1.48-.32 2.93-1.06 4.3-1.7Z"/>
  <path fill="#FDFCFC" d="M338.33 119.1c2.43 1.39 4.05 8.2 4.95 10.78-6.07-.2-12.07-.34-18.15-.04l-8.49.26a64.55 64.55 0 0 1 21.69-11ZM816.25 619.27c4.33 3.56 8.19 8.34 12.16 12.34a38.51 38.51 0 0 1-4.47 6.33 23.1 23.1 0 0 1-3.35 2.47c-1.23.1-1.88.3-2.85-.69-3.54-3.56-2.03-15.8-1.5-20.45ZM560.7 434.7a51.4 51.4 0 0 1 17.64.82c2.53 5.88 2.78 13.29 1.65 19.52-3.4-2.6-18.2-17.08-19.3-20.35ZM865.4 620.46c.78.94.28 2.22.12 3.4-1.2 8.88-1.06 17.62-.99 26.56a112.3 112.3 0 0 1-7.71-5.63 23.6 23.6 0 0 1-2.95-2.67c-1.54-1.63-2.7-3.55-2.57-5.87.36-5.94 9.87-12.2 14.1-15.79ZM722.48 388.57c6.75-.14 9.15 2.26 14.03 6.57a303 303 0 0 0-14.66 12.27 128.1 128.1 0 0 1-7.85 7.17c.02-6.33-.78-14.71 2.05-20.5 1.42-2.9 3.45-4.42 6.43-5.51ZM822.3 606.38c5.13-.12 10.4.48 15.54.66 6.37.23 12.79.05 19.17-.03-2.34 3.08-5.1 5.7-7.88 8.38-3.3 3.08-6.5 6.17-10.29 8.65q-8.17-8.92-16.54-17.66ZM657.69 458.6q1.28-.08 2.56-.1c5.33-.1 8.66 1.28 12.44 4.96-4.2 5.87-8.82 9.9-14.75 14q-4.9 3.19-9.96 6.12c.06-6.1.8-14.8 3.46-20.27 1.48-3.05 3.15-3.7 6.25-4.7ZM443.48 301.93c7.15 5.78 14.19 13.72 18.55 21.78-2 3.19-4.33 5.68-7.15 8.15q-5.27 3.48-10.42 7.15c-1.54-12.2-1.09-24.81-.98-37.08ZM864.73 485.2c4.46-.16 8.92.08 13.3.98.22 9.09.12 18.31-.14 27.4l-.6.14-1.6-1.23c-5.56-4.3-13.28-8.12-15.53-15.2-.84-2.66-1.97-8.8-.73-11.31 1.43-.94 3.62-.73 5.3-.77Z"/>
  <path fill="#CDCDCD" d="M438.62 131.4c3.78 17.4 1.4 35.48-8.39 50.62-.77 1.2-1.66 2.3-2.55 3.41-3.46-4.04-5.64-9.93-9.5-13.41a43.76 43.76 0 0 0 3.04-3.12c8.07-9.08 18.1-24.82 17.4-37.5Z"/>
  <path fill="#FDFCFC" d="M393.03 147.23q12.06-6 23.97-12.31c5.04-2.7 10.13-5.94 15.47-7.96 1.48-.56 2.46-.98 4-.65 1.37 1.43 1.66 3.23 2.15 5.1.7 12.67-9.32 28.41-17.4 37.49a43.76 43.76 0 0 1-3.04 3.12c-7.22-9.3-15.93-17.5-25.15-24.79Z"/>
  <path fill="#CDCDCD" d="M455.52 561.8c2.69-.36 5.45-.33 8.17-.42.55 7.25 3.35 14.37 5.56 21.25-6.7 6.32-9.43 12.45-12.83 20.85-1.02.65-2.13.26-3.3.14q-6.95-.7-13.9-1.23c-.85-13.32-.92-26.6-.91-39.93 5.78.05 11.45-.02 17.2-.67Z"/>
  <path fill="#FDFCFC" d="M288.44 560.22c4.7 2.87 7.62 10 11.94 13.82 3.06 2.7 7.13 4.74 10.55 6.99 7.98 5.23 15.6 10.57 24.04 15.1 3.15 1.68 5.93 3.04 8.45 5.68-.72 2.43-.82 5.37-2.08 7.57-6.91.25-13.87 1.17-20.78 1.65q-15.57 1.1-31.19 1.12c-1.68-15.9-.93-35.69-.93-51.93ZM554.24 320.04c4.26-.32 7.47.65 11.29 2.53 15.56 7.67 31.89 24.43 37.57 40.96-6.85-1.26-13.23-2.1-20.2-2.07-1.33.04-2.62.13-3.93.28-14.33 1.64-19.38 8.43-27.65 18.9.2-10.37 2.19-20.63 2.63-30.99.42-9.85-.59-19.79.28-29.61ZM295.03 526.08c6.09-.73 12.55-.23 18.69-.12q15.45.25 30.9.79c-.26 13.66.73 27.58-.12 41.18-5.5 1.12-13.96.38-19.17-1.7-15.06-6.05-24.36-26.08-30.3-40.15ZM288.49 466.7c7.52-.16 15.05.35 22.59.29 11.1-.1 22.42-.75 33.5-.31.41 13.84.69 27.78.45 41.63-12.65.3-32.9 1.55-44.89-.63l-.35-.34c-2.32-2.05-5.2-3.8-8.4-3.57-.82.06-1.3.12-2.1-.15l-.78-1.92q-.22-17.5-.02-35Z"/>
  <path fill="#FDFCFC" d="m584.95 285.73 2.37-.05c-3.3 1.76-8.15 2.2-11.79 3.25-9.85 2.8-19.95 8.24-28.07 14.43-4.03 3.06-8.96 7.04-11.01 11.78-2.72 6.27-1 26.25-1 33.87 0 11.26.3 23.37-1.25 34.5-6.27 6.43-14.56 9.4-19.94 17.07a99.86 99.86 0 0 0-9.06-5.1 32.29 32.29 0 0 1-8.35-5.57c4.33-9.66 12.04-17.29 15.7-27.49 6.66-18.52 1.3-40.95 15.38-56.43 4.12-4.54 8.87-7.45 14.2-10.38 15.9-8.7 24.96-9.14 42.82-9.88Z"/>
  <path fill="#FDFCFC" d="M597.68 300.71c1.01-.1 2.02-.11 3.04-.12 25.54-.3 52.83 11.53 71 29.26-14.47.76-27.27 3.61-38.39 13.25-4.9 4.28-8.26 8.92-11.4 14.58-7.75-16.24-18.41-31.13-32.84-42.14-4.54-3.46-10.7-5.97-14.46-10.21l.57-.79c6.4-2.87 15.5-3.26 22.48-3.83ZM288.6 401.94q15.86.36 31.74.22c7.72-.04 15.58-.44 22.95 2.25 2.2 14.36.92 30.2.83 44.73-18.72 2.24-37.7.1-56.36-1.54-.52-15.1.54-30.54.83-45.66Z"/>
  <path fill="#CDCDCD" d="M727.72 501.45c-3.16 29-22.04 59.6-44.59 77.8-11.9 9.62-36.4 23.66-51.57 26.14-9.31 1.52-18.87 1.24-28.18 2.71 5.27-12.35 9-23.7 10.67-37.1 4.17 2.02 11.06 1.05 15.51.57 5.87-.64 11.79-1.46 17.45-3.17 18.51-5.57 49.92-22.89 61.83-37.92 3.95-4.98 8.48-10.2 11.8-15.6 2.39-3.86 3.42-9.28 6.4-12.68.22-.26.45-.5.68-.75Z"/>
  <path fill="#FDFCFC" d="M168.83 496.05c6.36-.48 12.54 1.12 17.49 5.3 17.05 14.41 4.71 33.8 10.7 47.51 4.54 10.44 14.02 8.14 15.38 25.87.77 9.88-1.11 19.45-7.75 27.08-7.19 8.24-17.52 9.62-27.83 10.27-8.53.15-17.5-.61-25.3-4.3q-.73-.35-1.43-.72-.7-.38-1.39-.8-.68-.4-1.34-.85-.67-.44-1.31-.92-.64-.48-1.26-.99-.62-.5-1.2-1.04-.6-.54-1.16-1.1-.57-.57-1.1-1.16-.54-.6-1.05-1.21-.5-.62-.98-1.26t-.92-1.3q-.44-.67-.86-1.35-.4-.69-.78-1.4-.38-.7-.73-1.42-.34-.72-.64-1.46-.31-.74-.58-1.49c-3.35-9.5-1.32-20.91 4.97-28.82 4.19-5.25 9.69-8.67 10.75-15.8 1.77-11.91-4.27-24.41 1.57-35.79 3.44-6.71 9.81-10.59 16.75-12.85ZM840.64 510.52c4.92 3.75 8.92 9.61 13.33 14.05 7.4 7.43 15.76 13.8 22.82 21.6 10.79 11.94 20.05 25.08 31.14 36.82-8.17 13.37-3.15 62.36-4.9 80.88-6-3.62-11.73-6.5-18.6-7.98-.88-19.8.8-40.22-.92-59.89-3.3-4.02-5.8-6.58-11.22-7.16H828.5c-7.56-.01-16.12-.8-23.55.48a11.92 11.92 0 0 0-6.4 3.26 7.74 7.74 0 0 0-2.36 4.02c-.96 5.18.41 12 .53 17.32.14 6.06-.12 12.17-.27 18.23q-2.56-.07-5.11-.33-2.56-.26-5.08-.7-2.53-.45-5.01-1.08-2.49-.63-4.92-1.44c-1.63-15.82 3-29.4-2.34-45.66 7.46-11.21 16.67-21.14 25.72-31.07 5.48-6.02 10.9-12.2 16.76-17.85 8.14-7.84 16.88-14.78 24.16-23.5Z"/>
  <path fill="#162425" d="M833.2 541.18a53.1 53.1 0 0 1 14.09.29c5.57.91 9.34 3.08 12.62 7.65.18 6.73 1.95 19.16-3.06 24.15-2.36 2.36-5.18 1.9-8.25 1.9-6-.06-20.14.8-25.05-2.3-1.37-.88-1.87-2.94-2.2-4.44-.98-4.6-1.92-19.15.9-22.98 2.53-3.41 7.08-3.78 10.95-4.27Z"/>
  <path fill="#FDFCFC" d="M610.44 515.5c4-1.55 9.52-1.15 13.82-1.55 11.74-1.07 24.84-3.6 35.39-8.99 23.56-12.03 34.52-35.28 50.01-55.34a156.46 156.46 0 0 1 21.66-22.6c5.49-4.75 10.85-9.1 17.38-12.35 2.68-1.34 5.88-2.96 8.9-1.94.11 1.18 0 1.6-.49 2.65-1.62 3.57-4.06 7-5.98 10.44a180.02 180.02 0 0 0-9.58 19.95c-7.22 17.7-9.17 37.23-13.83 55.69l-.69.74c-2.97 3.4-4 8.82-6.39 12.69-3.32 5.38-7.85 10.61-11.8 15.59-11.91 15.03-43.32 32.35-61.83 37.92-5.66 1.7-11.58 2.53-17.45 3.17-4.45.48-11.34 1.45-15.51-.57l-.14-3.7c-.06-.2-.14-.39-.18-.6-.18-.88-.12-1.64-.57-2.46-.28-.5-.72-.6-1.26-.71-1.8-.42-12.5-.63-14.25-.08-.6.18-1.03.7-1.54 1.06 2.14-14.47.53-29.67-3.57-43.64 5.55-.72 10.96-4.5 15.08-4.73a6.28 6.28 0 0 0 2.82-.64Z"/>
  <path fill="#515858" d="M592.54 520.87c5.55-.72 10.96-4.5 15.08-4.73a6.28 6.28 0 0 0 2.82-.64c.78 8.42 2.21 16.76 2.75 25.2.56 8.86.26 17.75.72 26.6-.06-.2-.14-.39-.18-.6-.18-.88-.12-1.64-.57-2.46-.28-.5-.72-.6-1.26-.71-1.8-.42-12.5-.63-14.25-.08-.6.18-1.03.7-1.54 1.06 2.14-14.47.53-29.67-3.57-43.64Z"/>
  <path fill="#CDCDCD" d="M190.26 895.93c15.3 5.46 39.3 11.89 55.53 13.29 9.69.84 19.81.3 29.55.31l55.23.03q79.56.73 159.12.47l66.31.48c24.33.02 48.69-.34 73.01.01q39.87.86 79.75.52c13.33 0 26.87.5 40.17-.1 5.56-.26 11.05-1.31 16.59-1.74 7.5-.57 15.02-.7 22.51-1.47 19.23-1.96 47.03-9.24 64.29-17.35 21.96-10.32 40.8-27.82 57.83-44.74 7.04-6.99 14.42-14.1 19.56-22.66 9.2-15.32 14.33-32.58 20.3-49.25 1.04 7 .58 14.66.1 21.72-2.15 31.52-13.25 59.38-31.94 84.72q-1.34 1.8-2.73 3.55-1.38 1.76-2.81 3.49-1.43 1.73-2.9 3.42t-2.99 3.34q-1.5 1.66-3.06 3.27-1.55 1.62-3.14 3.2t-3.22 3.12q-1.62 1.54-3.29 3.04-1.66 1.5-3.36 2.96t-3.44 2.88q-1.74 1.41-3.5 2.79-1.77 1.38-3.58 2.7-1.8 1.34-3.63 2.63-1.84 1.28-3.7 2.53-1.87 1.24-3.76 2.44-1.9 1.2-3.82 2.35-1.92 1.15-3.87 2.25-1.95 1.1-3.92 2.16-1.98 1.06-3.98 2.07-2 1-4.03 1.96-2.02.96-4.07 1.87-2.05.91-4.12 1.77-2.07.86-4.16 1.67-2.09.81-4.2 1.57-2.1.76-4.23 1.47-2.13.7-4.27 1.36-2.14.65-4.3 1.26-2.16.6-4.33 1.15-2.17.55-4.36 1.05-2.18.5-4.38.94-2.2.45-4.4.84-2.2.39-4.42.73c-19.55 2.93-47.4 1.17-67.8 1.16l-142.44-.48-239.53.5-61.55.16c-17.9.21-36.34 1.38-54.11-1.04-9.53-1.3-18.95-3.86-28.16-6.57-22.52-6.63-40.34-14.21-59.37-28.3q-1.52-1.12-3.02-2.27t-2.97-2.33q-1.47-1.18-2.92-2.4-1.45-1.2-2.87-2.44-1.43-1.24-2.82-2.51-1.4-1.27-2.77-2.57-1.38-1.3-2.72-2.62-1.35-1.32-2.67-2.68-1.31-1.35-2.6-2.73-1.3-1.38-2.56-2.78t-2.5-2.83q-1.22-1.43-2.43-2.89-1.2-1.45-2.38-2.93-1.17-1.48-2.31-2.99-1.14-1.5-2.26-3.02l-2.19-3.08q-1.08-1.55-2.13-3.12-1.05-1.57-2.06-3.16-1.02-1.59-2-3.2-.99-1.61-1.94-3.24-.95-1.63-1.87-3.28-.92-1.65-1.8-3.32t-1.73-3.36q-.85-1.68-1.67-3.39-.81-1.7-1.59-3.42t-1.52-3.46q-.75-1.73-1.46-3.48-.7-1.75-1.38-3.51-.67-1.77-1.3-3.55-.64-1.77-1.24-3.57-.6-1.78-1.17-3.59-.56-1.8-1.09-3.61c-1.73-6.01-3.52-12-4.43-18.2-.11-.76-.26-1.55-.28-2.31-.99-2.97-.93-6.7-1-9.8.84-4.23 2.32-6.9 5.1-10.15l3.93 14.28.4.85c2.1 4.48 3.76 9 6.18 13.37 9.97 18.04 27.8 38.76 43.7 51.93 7.2 5.96 14.94 11.1 22.64 16.36 4.44 3.04 8.87 6.04 13.52 8.74 2.8 1.63 6.53 3.15 9.03 5.1 4.7 1.96 9.36 4.02 14.17 5.66Z"/>
  <path fill="#ACAEAF" d="M176.1 890.27c4.68 1.96 9.35 4.02 14.16 5.66-.15.25-.32.5-.45.76-.07.13-.1.27-.15.4-.72.03-1.4.05-2.1-.07-3.64-.58-9.51-2.75-11.65-5.8l.19-.95ZM76.7 779.63l3.92 14.29-.57.11c-.58-1.95-.92-4.86-2.45-6.18a8.77 8.77 0 0 0-4.67 2.74c-.5.6-.57 1.2-.53 1.98.13 2.54 1.34 4.43.19 7.01-.99-2.96-.93-6.68-1-9.8.84-4.22 2.32-6.88 5.1-10.14Z"/>
  <path fill="#FDFCFC" d="M180.02 338.14c-15.3-15.6-24.2-34.66-24.08-56.7.08-13.77 5.01-26.29 14.92-35.97 12.7-12.4 29.11-17.55 46.43-18.66 2.98-.19 8.78.1 11.46-1.2 2.68-1.32 7.26-15.74 8.65-18.72q2.56-5.5 5.78-10.63c4.44-6.98 10.26-12.57 16.39-18.05 21.44-19.2 43.68-28.6 72.54-28.12 26.93.44 47.56 9.26 66.47 28.74 5.36 5.52 18.24 19.74 18.17 27.79-.06 6.47-10.8 9.93-5.42 15.65 4.84 5.14 13.12 4.67 19.66 4.72 10.6.1 21.71-.47 31.95 2.76.16 10.64-2.15 19.09-9.86 26.9l-.63.62c-5.57.4-36.59 1.25-38.91 3.14-.99 2.23-.97 3.75-.1 6.06 1.81 4.76 6.14 8.89 9.53 12.56-.61 11.04-.55 22.16-.84 33.21-.24 8.86-1.2 18.48.27 27.25 2.06 12.3 16.15 32.1 24.44 41.4 14.8 16.6 35.14 26.48 54.32 36.94 29.93 16.31 59.25 38.44 76.62 68.35 3.1 5.35 5.47 11.2 7.92 16.88 2.5 5.81 5.06 11.73 6.84 17.81 4.1 13.97 5.71 29.17 3.57 43.64a144.6 144.6 0 0 1-12.4 32.01l-2.87-1.23c-2.42 2.32-3.72 4.26-5.65 6.91-2.38 3.27-10.73 3.88-14.47 4.73-27.42.92-54.96-.68-82.39-1.05 5.4-8.34 10.46-13.84 19.05-18.9 4.37-3.91 10.12-5.51 15.57-7.33a16.38 16.38 0 0 0 2.49-3.38c.87-1.71 1.33-3.45.75-5.32-4.67-3.87-20.74 4.35-28.12.27-3.75-2.08-5.62-6.48-6.8-10.4q-.3-.97-.55-1.96-.25-.99-.46-1.99-.2-1-.35-2-.15-1.02-.25-2.03-.1-1.02-.14-2.04-.05-1.02-.05-2.04t.06-2.04q.06-1.02.17-2.03.1-1.02.26-2.03.16-1 .37-2t.47-1.99q.26-.99.57-1.96.31-.97.67-1.93.36-.95.77-1.89.4-.93.86-1.85.45-.91.95-1.8c5.88-10.69 15.91-20.1 27.81-23.43q3.67-1 7.44-1.4 3.78-.42 7.58-.23c15.67.68 23.85 10.4 36.66 17.67.9-.02 1.45-.07 2.22-.6 2.23-1.55 3.22-5 3.68-7.52.68-3.7.61-7.9-1.7-11.02-7.75-10.48-21.79-16.98-34.39-18.93-15.76-2.44-31.36 1.77-44.08 11.27-17.44 13.02-24.94 27.96-28 49.07-8.3-.16-16.6-.1-24.9-.14-.77-1.74-1.52-3.73-2.79-5.17-1.35-1.55-3.11-2.11-5.12-2.17-2.92-.1-6.3.43-8.44 2.6a8.77 8.77 0 0 0-2.24 5.18c-.95 8.08-.08 17.24.04 25.42q.12 18.8-.04 37.59c-17.87 2.08-36.8 1.55-54.79 1.26-.6-28.93.23-58.03.33-86.97l-.42-99.33q-.08-13.3.1-26.59c.2-8.1.76-16.28.49-24.4-.1-2.55-.26-5.2-1.3-7.57-.75-1.7-2.12-3.54-4-4.03-1.66-.43-2.06.21-3.27 1.17-9.43 4.68-18.15 10.86-28.4 13.76-20 5.67-74.5 1.21-93.56-5.35-.4-.14-.8-.31-1.2-.48-3.65-.55-7.33-2.16-10.77-3.46 8.59-4.05 18.5-4.55 27.44-7.7q1.16-.4 2.3-.84 1.15-.43 2.29-.89 1.14-.46 2.26-.95l2.24-1q1.1-.52 2.2-1.07l2.2-1.12q1.07-.57 2.14-1.17 1.08-.6 2.13-1.22 1.06-.63 2.1-1.28 1.03-.65 2.06-1.33 1.02-.67 2.02-1.38 1-.7 2-1.43.98-.72 1.95-1.47t1.92-1.53q.95-.78 1.88-1.57.93-.8 1.84-1.63.91-.82 1.8-1.66.9-.84 1.76-1.71.87-.87 1.72-1.75l1.67-1.8q.82-.9 1.62-1.84.8-.93 1.58-1.87.78-.95 1.53-1.92.75-.96 1.49-1.95l1.43-1.99q.7-1 1.38-2.02.68-1.02 1.34-2.06.65-1.04 1.28-2.1.63-1.05 1.23-2.11.6-1.07 1.18-2.15.57-1.09 1.12-2.19.55-1.1 1.07-2.2c2.63-5.58 10.06-19.43 7.87-25.06-1.4-3.56-4.84-6.08-8.25-7.52-3.88-1.63-8.45-2-12.34-.2a7.5 7.5 0 0 0-4.35 4.75c-.9 3.03.62 5.08 2 7.66-1.7 10.37-6.53 19.9-12.95 28.18-11.4 14.69-26.51 22.1-43.6 28.34-7.69 2.8-15.3 5.32-23.48 6.32-16.15.73-23.76-10.59-30.61-10.87Z"/>
  <path fill="#78A5AA" d="M497.38 586.98c4.37-3.91 10.12-5.51 15.57-7.33a47.2 47.2 0 0 1-4.7 5.65c-3.59.86-7.2 1.26-10.87 1.68Z"/>
  <path fill="#162425" d="M192.1 262.07c1.74-.16 3.32-.24 5 .35a10.69 10.69 0 0 1 6.36 5.97q.28.65.49 1.32.2.67.34 1.36.14.7.21 1.4.07.7.06 1.4 0 .7-.07 1.4-.08.7-.22 1.4-.15.68-.36 1.35-.22.67-.5 1.32c-1.63 3.7-4.38 5.91-8.11 7.27-1.09-.03-2.21-.05-3.29-.24a12.12 12.12 0 0 1-8.07-5.53 11.63 11.63 0 0 1-.9-8.93c1.43-4.9 4.7-7.59 9.06-9.84ZM224.99 261.97c2.24-.21 4.36-.18 6.47.74a13.49 13.49 0 0 1 6.95 7.53c1.32 3.4 1.44 7.36-.2 10.67-1.43 2.86-3.75 4.5-6.7 5.55-1.47.26-3.02.44-4.51.33a10.65 10.65 0 0 1-7.66-4.13 13.1 13.1 0 0 1-2.17-9.88c.85-4.88 3.86-8.1 7.82-10.8ZM472.05 421.62c3.58-.34 6.88-.55 10.28.85 3.17 1.3 5.93 3.64 7.24 6.85a10.28 10.28 0 0 1-.1 8.3c-1.65 3.31-4.6 5.03-7.94 6.2-2.82.25-5.82.42-8.57-.38-3.42-.99-6.47-3.13-8.13-6.32a10.17 10.17 0 0 1-.77-7.9c1.29-3.82 4.54-5.94 8-7.6ZM471.88 456.61c3.98-.22 8.05-.14 11.72 1.6 2.86 1.35 5.45 3.67 6.47 6.74.9 2.7.66 5.73-.8 8.2-1.8 3.08-5.31 5.05-8.67 5.82-4.92.36-9.77.8-14.2-1.83-2.64-1.57-4.84-4.08-5.6-7.1a9.14 9.14 0 0 1 1.29-7.32c2.22-3.42 5.94-5.26 9.79-6.1Z"/>
  <path fill="#CDCDCD" d="M287.3 367.4c-4.6.23-9.1.31-13.7.05-2.18-.13-4.63-.68-6.72-.6-.24 0-.48.03-.72.04 6.14-.65 13.04.15 19.27.24 12.62.18 25.1.07 37.68-1.16a222 222 0 0 0 21.62-3.03c2.7-.54 5.6-1.8 8.27-2.11.9-.1 1.6 0 2.49.14-9.43 4.68-18.15 10.86-28.4 13.76-20 5.67-74.5 1.21-93.56-5.35-.4-.14-.8-.31-1.2-.48 1.06-.15.55-.12 1.68-.1 8.2.2 9.25 1.32 16.6 2.99 7.31 1.65 21.58 4.08 28.84 3.82l.6-.68-.52.71c.09-.26.38-1.13.42-1.37.05-.3.05-.62.07-.94 2.39-2.03 4.77-4.06 7.29-5.93Z"/>
  <path fill="#162425" d="M421.08 418.57c4.76-.39 9.4-.27 13.7 2.04 3.34 1.8 6.03 4.8 6.98 8.52q.17.62.26 1.25.1.63.13 1.27t0 1.27q-.04.64-.14 1.27t-.27 1.25q-.17.62-.4 1.21-.23.6-.52 1.17-.3.57-.65 1.1c-2.21 3.32-5.7 5.21-9.52 5.95-4.61.25-9.14.05-13.27-2.26a15.8 15.8 0 0 1-7.64-9.95 10.3 10.3 0 0 1 1.4-8.3c2.34-3.43 6.06-4.93 9.94-5.8ZM315.8 196.62c3.06-.33 6.32-.31 9.39.01 10.99 1.18 20.17 6.66 26.99 15.3 5.91 7.5 9.75 18.42 8.4 28.02-.6 4.23-2.71 8.03-6.22 10.53-1.56 1.1-4.07 1.83-5.96 1.2-6.27-2.12-6.9-13.39-8.97-18.66-2.64-6.76-7.06-10.35-13.49-13.24-4.96-.98-8.88-1.53-13.65.8-5.78 2.81-10.46 9.05-12.06 15.23-.86 3.34-1.13 6.93-2.35 10.16-.8 2.13-2.23 4.3-4.46 5.12-2.45.89-5.96.9-8.27-.38-2.36-1.32-3.6-3.81-4.2-6.35-1.9-7.85.23-21.1 4.65-27.83 7.22-11 17.42-17.55 30.2-19.91Z"/>
  <path fill="#FDFCFC" d="m70.45 707.72.71-.34c10.06-4.86 19.29-11.48 29.23-16.6 16.34-8.42 39.98-17.33 57.65-22.84 20.1-6.26 40.9-10.64 61.4-15.34 9.47-2.17 18.85-4.7 28.33-6.77a718.2 718.2 0 0 1 71.29-12c17.6-2 35.4-2.25 53.08-3.13q30.92-1.72 61.87-2.69c23.55-.5 47.18-.11 70.73.18 36.17.44 72.6-1 108.72.78q33.03 1.53 65.79 6.08c11.11 1.57 22.16 3.67 33.26 5.36 15.7 2.4 31.54 4.08 47.16 7.04 9.76 1.84 19.4 4.4 29.13 6.4 25.45 5.22 51.62 10.07 76.25 18.53 19.37 6.65 39.11 13.46 57.76 21.95 9.94 4.53 18.9 11.46 29.24 15-1.58 21.45-.09 43-2.05 64.4-5.96 16.67-11.09 33.93-20.29 49.25-5.14 8.56-12.52 15.67-19.56 22.66-17.03 16.92-35.87 34.42-57.83 44.74-17.26 8.1-45.06 15.39-64.29 17.35-7.49.76-15.01.9-22.51 1.48-5.54.42-11.03 1.47-16.59 1.72-13.3.6-26.84.12-40.17.11q-39.88.34-79.75-.52c-24.32-.35-48.68.01-73.01-.01l-66.3-.48q-79.57.26-159.13-.47l-55.23-.03c-9.74-.02-19.86.53-29.55-.31-16.23-1.4-40.23-7.83-55.53-13.3-4.81-1.63-9.48-3.69-14.16-5.65-2.51-1.95-6.25-3.47-9.04-5.1-4.65-2.7-9.08-5.7-13.52-8.74-7.7-5.26-15.45-10.4-22.64-16.36-15.9-13.17-33.73-33.89-43.7-51.93-2.42-4.36-4.09-8.89-6.18-13.37l-.4-.85-3.92-14.28c-1.8-5.18-2.98-10.84-4.16-16.19-2.09-18.35-.92-37.25-2.1-55.73Z"/>
  <path fill="#162425" d="M627.51 716.08c-.04-2.37-.14-4.81.08-7.18.84-9.14 9.4-17.5 16.1-23.08 8.47-7.05 18.73-11.1 29.86-10.06 11.56 1.08 18.96 8.05 26.02 16.6 6.54 7.92 8.77 13.74 7.8 24.08 12.98-.52 26-.37 39-.4 10.8-.04 21.72-.43 32.48.58.17-9.4 1.63-14.9 8.35-21.8 8.48-8.72 18.33-18.05 31.28-18.07 12.04-.01 20.5 4.54 28.91 12.86 4.07 4.02 9.39 9.18 10.84 14.9 2.7 10.58.8 39.76.84 51.71.07 23.6.82 47.22.94 70.82-8.74 1.4-72.12 2.82-76.06.3-3.43-2.18-4.96-6.6-5.92-10.33q-15.04.63-30.1.57c-9.6-.03-19.38-.4-28.95.52l-.42.25c-2.83 1.73-5.26 6.14-8.57 6.27l-1.5-.76c-.6 1.05-1.27 2.4-2.25 3.14-1.1.85-1.97 1.02-3.34 1.17-9.33 1.02-19.36.25-28.77.34-13.44.12-27.97 1.75-41.25-.38-3.83-3.9-5.1-8.02-6.08-13.24-7.78.23-15.56 2.04-23.36 2.46-10.36.55-21.2-.9-31.41.7-4.8.75-9.2 4-13.84 4.51-.36 1.12-.83 2.1-1.51 3.06a5.64 5.64 0 0 1-3.94 2.44c-7.69 1.14-71.03 1.34-74.13-1.1-3.3-2.58-3.72-8.17-4-12.06-3.43 1.74-8.1.41-11.89.73-5.11.42-10.07 2.28-15.19 2.66-13.06.98-26.39-.2-39.49.05-1.4 1-2.82 2.14-4.4 2.85-.22.94-.44 1.82-.84 2.7-.75 1.64-1.9 3.34-3.73 3.9-5.72 1.73-36.87.78-44.5.81-7.18.03-14.49.57-21.65.27-1.92-.07-5.44-.1-7-1.13-3.55-2.37-4.68-9.33-5.07-13.3-1.1-.45-.53-.45-1.5-.07-2.7 1.03-6.28 1.08-9.17 1.49-8.95 1.28-17.49 2-26.53 1.99-6.4 0-12.9-.65-19.27.08-5.37.62-7.67 4.65-11.95 6.81-.62.31-1.69.05-2.3-.1a9.5 9.5 0 0 1-4.37 2.4c-13.87 3.43-58.92.98-75.45.2.25-4.06-.05-8.16 0-12.23.14-10.05.2-19.98.1-30.03-.11-12.3.29-24.6.33-36.9.04-12.69-.3-25.3.24-38 .44-10.17 7.06-16.3 14.21-22.8 8.2-7.44 16.06-10.74 27.3-10.13 12.5.67 22.36 8.52 30.31 17.62 5.63 6.44 7.47 12.3 6.87 20.79 11.35-.37 22.6.4 33.93.52 12.66.13 25.31-.51 37.96.52l.04-2.37c.29-14.4 3.02-16.2 13.37-25.98 8-7.58 17.61-12.24 28.77-11.88 12.82.4 22.15 6.66 30.7 15.81 7.14 7.64 8.6 13.83 8.23 24.07 8.95-.24 17.93.19 26.89.21l45.83.07.04-4.06c.18-11.9 4.1-15.04 12.3-22.92 8.98-8.63 18.03-13.23 30.65-12.91 12.2.3 20.65 5.39 28.83 14.2 8.03 8.64 10.08 13.8 9.7 25.7 13.13-.43 26.22-.19 39.34-.24 10.42-.05 20.83-.37 31.26-.22Z"/>
  <path fill="#CDCDCD" d="M708.51 767.38c23.13 1.52 46.36 1.22 69.53 1.12l-.02 6.2c-23.35.7-46.75-.1-70.1.2.12-2.5.38-5.02.6-7.52ZM626.68 736.93c1.13 10.86.27 26.17.27 37.57-22.84.42-45.7.4-68.51 1.47q.04-7.17.2-14.35c.92 1.64.52 4.52.52 6.4 22.24.93 45.07 1.1 67.3-.11-.1-10.03-1.08-21.08.22-30.98ZM250.01 764c.23.69.5 2.27 1.12 2.59 4.54 2.3 63.16 2.72 69.52.66l.56-1.75.17 9.41q-35.68-.8-71.36-.15V764ZM402.96 775.5c.16-10.73-1.1-28.45.34-38.21q.28 13.46.32 26.92c16.48 4.1 32.02 5.4 49 5.43 7.53.02 15.09-.4 22.6-.16l.35 5.98c-12.96-.21-25.9.4-38.85.5-11.26.1-22.5-.35-33.76-.47ZM558.11 795.06c22.74-1.13 45.68.06 68.45-.1-.24 6.61-.03 13.32.24 19.93-7.78.23-15.56 2.04-23.36 2.46-10.36.55-21.2-.9-31.41.7-4.8.75-9.2 4-13.84 4.51-1.03-8.84-.31-18.6-.08-27.5ZM250.58 794.67c23.35.9 46.92.19 70.28-.12-.43 6.6-.03 13.27-.01 19.88-1.1-.44-.53-.44-1.5-.06-2.7 1.03-6.28 1.08-9.17 1.49-8.95 1.28-17.49 2-26.53 1.99-6.4 0-12.9-.65-19.27.08-5.37.62-7.67 4.65-11.95 6.81-.62.31-1.69.05-2.3-.1.03-.15.08-.3.12-.44l.19-.75c1.98-7.82.21-20.36.14-28.78ZM403.7 794.91c23.74.18 47.48.85 71.2.2q.17 9.9-.29 19.79c-3.43 1.74-8.1.41-11.89.73-5.11.42-10.07 2.28-15.19 2.66-13.06.98-26.39-.2-39.49.05-1.4 1-2.82 2.14-4.4 2.85-.87-8.48-.2-17.74.07-26.28ZM708.17 795.09c6.68.26 13.4-.08 20.08-.05q24.52.34 49.04-.18c.06 7.38.41 14.78.75 22.15q-15.05.63-30.1.57c-9.62-.03-19.4-.4-28.96.52l-.42.25c-2.83 1.73-5.26 6.14-8.57 6.27l-1.5-.76c-.1-9.6-.44-19.15-.32-28.77Z"/>
  <path fill="#FDFCFC" d="M557.78 737.5c22.9-.64 45.97-.35 68.9-.57-1.3 9.9-.32 20.95-.22 30.98-22.23 1.21-45.06 1.04-67.3.1 0-1.87.4-4.75-.52-6.39-.44-8.04-.87-16.06-.86-24.12ZM708.27 736.98c23.23.64 46.57.3 69.8 0q-.1 15.76-.03 31.52c-23.17.1-46.4.4-69.53-1.12q-.03-15.2-.24-30.4ZM249.43 736.97c23.89.1 47.73.29 71.6-.5q-.17 14.51.18 29.03l-.56 1.75c-6.36 2.06-64.98 1.64-69.52-.66-.63-.32-.9-1.9-1.12-2.59-.5-8.83-1.55-18.22-.58-27.03ZM403.3 737.29c16.83.6 33.99.3 50.83.03 6.89-.1 13.87-.65 20.75-.45.06 10.8-.29 21.83.34 32.6-7.51-.23-15.07.19-22.6.17-16.98-.02-32.52-1.33-49-5.43q-.04-13.47-.32-26.92ZM818.9 696.35c5.54.22 16.76 12.68 20.6 16.47q.09 24.08-.15 48.15c-.3 16.12-1.07 32.16-.66 48.3-6.84.38-13.65.73-20.5.78q-9.84.3-19.69.13c.01-19.96.77-39.96.83-59.93.03-12.57-.74-25.07-.2-37.65 4.01-6.05 13.47-12.57 19.77-16.25Z"/>
  <path fill="#162425" d="M817.14 743.04c1.64-.1 3.26-.14 4.86.32q.57.16 1.12.38.54.21 1.07.48.52.26 1.02.58.5.31.96.68.46.36.89.77.42.4.8.85.39.44.73.93.34.48.63.99a10.25 10.25 0 0 1 .95 7.87c-1.14 3.8-4.33 6.5-7.68 8.37-1.6.18-3.23.3-4.83-.08a11.62 11.62 0 0 1-7.68-5.72 11 11 0 0 1-.85-8.55c1.35-4.1 4.37-6 8-7.87Z"/>
  <path fill="#FDFCFC" d="M207.19 696.98a9.61 9.61 0 0 1 3.53.11c6.76 1.68 16.45 10.97 19.78 16.9.18 16.09-.52 32.12-.46 48.18.06 15.97.89 32.36-.09 48.3l-16.57.21q-11.3-.06-22.61-.38c-1.28-16.27-.63-32.77-.73-49.08-.1-16.27-1.16-33.23.74-49.4 4.26-5.47 10.77-10.81 16.41-14.85Z"/>
  <path fill="#162425" d="M209.3 742.6a9.79 9.79 0 0 1 6.8 2.06q.5.4.97.83.47.43.89.92.42.48.78 1 .37.52.69 1.08.3.56.56 1.15.25.58.45 1.2.19.6.32 1.23.13.62.2 1.26c.26 2.9-.57 5.86-2.56 8.03-2.06 2.25-4.22 3.09-7.21 3.33a23.48 23.48 0 0 1-6.11-2.54c-2.72-1.75-4.97-4.47-5.62-7.68a8.86 8.86 0 0 1 1.28-6.74c1.96-2.86 5.29-4.41 8.57-5.13Z"/>
  <path fill="#FDFCFC" d="M666.25 696.06c.93-.13 1.86-.23 2.8-.14 7.21.72 14.65 10.75 18.78 15.94.62 16.48-.28 32.9-.37 49.35-.1 16.38.62 32.78-.4 49.14q-9.1-.02-18.2.19-10.29.13-20.57-.38c.38-9-.73-18.26-.81-27.3l.04-71.1c4.68-6.14 11.93-12.08 18.74-15.7Z"/>
  <path fill="#162425" d="M665.63 743.55c2.25-.08 4.45-.17 6.58.68 2.87 1.14 5.2 3.3 6.28 6.22q.2.54.34 1.09t.22 1.1q.08.57.1 1.14.03.57 0 1.13-.04.57-.13 1.13-.1.56-.24 1.1-.15.56-.36 1.09-.2.52-.46 1.03c-1.77 3.47-4.53 5.08-8.08 6.34-.95 0-1.83-.08-2.75-.32-3.59-.93-7.3-3.48-9.06-6.78a9.09 9.09 0 0 1-.64-7.5c1.42-3.91 4.62-5.79 8.2-7.45Z"/>
  <path fill="#FDFCFC" d="M360.6 696.05c1.32-.1 2.69-.2 3.98.16 6.37 1.73 14.29 10.82 17.53 16.2.86 11.98.44 24.31.44 36.34 0 20.47-.02 41.2-1.12 61.65l-17.66.06-21.8-.07-.17-66.74c-.06-10.4-.44-20.77-.26-31.17 5.51-5.9 11.65-13.01 19.06-16.43Z"/>
  <path fill="#162425" d="M360.12 743.61c2.47-.13 5.13-.11 7.43.93q.52.24 1.02.52.5.29.96.63.46.33.9.71.42.38.8.8.4.42.74.88.34.46.63.95.3.5.54 1.01.24.52.43 1.07c.95 2.8.76 5.97-.63 8.59-1.68 3.14-4.3 4.8-7.62 5.78-2.38.08-4.28.1-6.44-1.02a13.74 13.74 0 0 1-6.76-8.02 9.75 9.75 0 0 1 .67-7.69c1.6-2.88 4.3-4.24 7.33-5.14Z"/>
  <path fill="#FDFCFC" d="M515.69 695.47c.3.03.6.07.9.13 7.58 1.38 15.77 11.46 19.92 17.49 1.13 13.96.44 28.65.33 42.65-.15 18.12.03 36.29-.5 54.4-6.34.33-12.74.25-19.09.31-6.8.02-13.57.05-20.36.62-1.47-17.37-.94-35.23-1.06-52.65-.11-15.74-.96-31.4.32-47.12 5.56-5.58 12.32-12.65 19.54-15.83Z"/>
  <path fill="#162425" d="M513.57 743.56c1.6-.08 3.26-.19 4.85.1 2.68.51 5.3 2.23 6.84 4.47q.3.47.57.96.27.5.48 1.01.2.52.37 1.06.16.54.26 1.09t.15 1.1q.04.56.03 1.12 0 .56-.08 1.12-.06.56-.19 1.1c-1 4.38-4.02 7.23-7.7 9.52l-.3-.02c-1.39-.09-2.8-.14-4.13-.53-3.55-1.01-6.9-3.38-8.58-6.72a10.59 10.59 0 0 1-.45-8.48c1.43-3.67 4.39-5.48 7.88-6.9Z"/>
  <path fill="#FDFCFC" d="M157.5 630.55c.54 4.08 2.22 11.03-.6 14.38-1.75 2.1-16.94 6.32-20.7 7.74-16.8 6.38-33.74 12.65-50.18 19.9-2.79 1.22-13.81 8.01-15.22 8.2-.86-1.78.02-76.91.03-84.14l.63-237.3q.04-27.93-.25-55.87c-.24-14.63-.97-29.34-.02-43.95 3.62-55.47 21.37-99.44 63.78-136.51 25.52-22.3 59.15-38.45 92.56-44.51 11.27-2.04 22.55-2.24 33.97-2.45 19.04-.35 37.95.25 56.97.46l127.03.41 205.4-.8q38.56-.61 77.12-.38c17.85.03 35.74-.09 53.56 1.15 30.06 2.09 64.45 15.72 88.77 33.27 12.25 8.83 23.36 19.47 33.25 30.86 23.44 26.97 37.97 60.53 44.52 95.51 5.05 26.96 3.23 55.7 3.17 83.01l.14 100.98-.01 189.78c-.22 24.43 1.12 49.3-.61 73.66-6.39-3.65-19.49-8.51-24.04-13.17-1.51-1.54-1.83-3.86-2.1-5.92-1.58-11.77-.86-24.35-1.04-36.23-.19-12.15-1.03-24.3-.68-36.46 3.62.6 7.2 1.48 10.4-.88 3.02-2.22 5.53-5.92 6.08-9.66a8.27 8.27 0 0 0-1.3-6.12c-4.6-6.5-11.88-11.6-17.63-17.07-9.3-8.84-18.78-18.86-26.43-29.17l-.38-.51c1.25-5.39 2.38-10.81 2.68-16.34.4-7.25-.1-14.53.66-21.77.57-5.44 2.6-10.8 3.56-16.23-1.34-2.36-2.66-4.8-5.07-6.23-4.17-2.49-44.15-1.29-50.09.2-1.9.5-5.65 1.46-6.6 3.4-2 4.13 1.94 12.95 3.18 17.19l-1.85.72c-6.19 2.42-11.36 6.2-16.42 10.47-11.85 10-23.8 20.7-34.8 31.6-5.94 5.87-11.42 12.22-17.42 18.02-8.25 7.98-18.07 14.82-25.56 23.53-1.7 1.96-2.7 3.32-2.85 6.03-.17 3.14 1.23 6.1 3.3 8.4 3.26 3.62 6.24 4.81 10.96 5.04.07 10.95.92 21.9.75 32.84-13.65-3.22-29.98-5.96-43.95-8.23-6.06-.98-37.03-4.26-39-6.18 1.05-3.11 11.72-7.98 14.76-10.28a156.55 156.55 0 0 0 26.55-25.62c26.86-33.03 32.34-64.36 39.53-104.68 2.02-11.28 4.83-27.28 8.93-37.88 1.9-4.94 4.56-9.9 7.37-14.38 4.2-6.69 13.4-16.34 12.22-24.98-.22-1.63-.96-3-2.3-3.97-5.36-3.9-16.47-1.61-22.63-.51-4.7-2.47-8.04-6.35-11.92-9.85-6.31-5.7-16.2-8.97-24.59-9.57-6.54-.46-12.32 1-17.28 5.48-10.63 9.59-11.97 26.06-12.87 39.38-.76 5.67-3.7 11.24-6.94 15.91-1.48 1.5-3.18 2.8-4.8 4.16-9.84.44-19.31-1.39-28.66 2.77-12.44 5.53-19.68 18.21-21.92 31.26-.7 4.15-.42 9-1.96 12.9-.9.83-.84.94-2.04.93-3.55-2.04-3.35-9.98-5.34-13.7-2.58-4.8-6.02-9.97-10.33-13.4-2.73-2.17-7.68-2.59-9.34-5.92-1.12-2.25-.95-5.02-1.05-7.47-.3-7.67-1.38-16.02-6.68-21.98-9.76-10.97-28.63-11.5-41.72-7.44-4 1.25-7.52 5.19-11.91 4.77a9.15 9.15 0 0 1-6.12-3.33c-.34-1.57-.3-2.46.63-3.83 4.15-6.13 13.35-10.74 19.48-14.86 22.67-15.25 32.57-17.97 58.5-6.98 3.76 1.6 8.15 3.38 12.32 2.56 8.15-1.6 10.75-17.46 14.92-23.91 10.36-16.07 26.7-19.39 44.59-15.7 4.74.97 11.1 3.42 15.92 2.25 2.1-.51 4.23-1.58 5.29-3.56 1.24-2.31.77-5.19-.06-7.55-1.35-3.84-3.68-7.43-5.79-10.9a108.82 108.82 0 0 0-17-21.6c-13.62-13.28-39.92-29.63-57-37.84-24.36-11.72-45.28-12-71.09-5.52-5 1.25-10.24 2.34-15.09 4.08-6.49 2.33-11.91 6.57-17.4 10.65-17.36 12.92-23.25 30.87-25.74 51.63-1.08 8.97-1.8 17.18-5.65 25.5l-2.95-4.76c-5.17-3-12.22-3.83-17.99-5.17 3.84-7.06 9.43-12.72 11.83-20.62 2-6.58.49-13.29-2.74-19.19-8.04-14.67-15.98-21-31.86-25.58 7.3-3.48 13.26-5.68 19.34-11.3 10.6-9.77 17.24-23.1 17.77-37.66.7-19.27-14.88-24.98-30.24-30.27-2.99-1.03-6.85-1.89-9.03-4.27-.22-.71-.53-1.09-.24-1.81.84-2.04 2.47-4 3.7-5.86 3.06-4.67 5.95-9.33 7.84-14.6 6.41-17.89 10.8-39.94 2.1-57.9-3.04-6.26-8.06-12.5-14.87-14.74-16.07-5.3-32.86 8.02-45.1 16.65-4.95 3.5-10.05 6.78-15.01 10.26-2.56 1.79-5.01 4.66-7.87 5.88a4.1 4.1 0 0 1-3.54.02c-4.78-2.45-5.78-12.54-7.13-17.36-1.86-6.67-5.16-14.46-11.59-17.86-7.27-3.85-17.9-3.05-25.54-.72-11.93 3.65-21.27 13.08-29.26 22.24-3.05 3.5-5.91 7.27-9.46 10.28-8.6 7.3-20.03 12.64-29.77 18.26-22.13 12.78-35.52 34.84-46.98 56.77-17.42-.03-31.98 3.11-46.33 13.39-16.52 11.83-27.06 29.62-30.38 49.58-4.13 24.88 1.73 47.37 16.47 67.7 19.81 27.33 53.77 47.62 86.93 53.61 9.25 1.68 18.62.81 27.73 2.35l.62.1c1.09 13.45.11 26.94.2 40.4l.88 77.93.37 75.63c-.03 10.27 1.26 21.16-.52 31.28-7 .3-13.92.76-20.83 1.94-10.7 1.83-47.18 11.13-55.66 15.97l-.86-9.17c10.85-2.18 19.66-5.37 27.82-13.23q.81-.78 1.57-1.59.77-.81 1.5-1.66.72-.85 1.4-1.74.68-.88 1.32-1.8.64-.91 1.23-1.86.59-.95 1.13-1.92.54-.98 1.04-1.98.49-1 .93-2.02.45-1.03.84-2.07.4-1.05.73-2.11.34-1.06.63-2.14t.52-2.17q.24-1.1.42-2.2t.3-2.2q.12-1.12.2-2.23.06-1.12.08-2.23c.15-10.27-.77-25.53-7.44-33.83-2.58-3.22-6.22-5.6-9.09-8.6l-.45-.49c-.48-6.37-.1-12.85-.03-19.23.12-13-4.5-24.76-13.71-34.02-7.71-7.75-18.8-11.78-29.68-11.73q-1.08.02-2.17.09-1.09.07-2.17.19-1.08.12-2.16.3-1.07.17-2.13.4-1.07.22-2.12.5-1.05.27-2.1.6-1.03.33-2.05.7-1.02.39-2.02.81-1 .43-1.98.91-.98.48-1.93 1-.96.52-1.88 1.1-.93.56-1.83 1.18-.9.61-1.77 1.27-.87.65-1.7 1.35-.84.7-1.64 1.44-.8.74-1.56 1.51c-14.95 15.22-10.33 29.94-10.14 49.21-8.92 10.99-16.12 11.27-17.88 27.72-1.63 15.25 1.84 34.14 11.67 46.25 8.92 11 18.96 16 32.82 17.43Z"/>
  <path fill="#162425" d="M828.82 239.68c.36-.05.72-.1 1.08-.13 8.87-.56 18.04 3.96 24.58 9.67 8.99 7.85 10.43 13.7 11.24 25.24 5.38.6 12.4.33 16.35 4.64a7.91 7.91 0 0 1 2.15 5.98c-.22 3.27-2.25 6.44-4.65 8.57a12.97 12.97 0 0 1-5.87 3.09c-7.3 1.58-38.82-.59-48-1.02-7.64-.05-15.31-.18-22.94.1-7.33.28-15.58 1.64-22.8.56a13.16 13.16 0 0 1-6.7-3.37c-2.41-2.16-4.7-5.33-4.8-8.7-.08-2.32 1.08-4.5 2.67-6.13 5.5-5.64 17.36-3.99 24.54-3.94 1.1-7.49 2.1-15.71 6.95-21.84 6.34-8 16.43-11.47 26.2-12.72Z"/>
  <path fill="#FDFCFC" d="M829.37 258.63c3.36.17 6.24.83 9.15 2.6a26.6 26.6 0 0 1 12 15.98c-5.19.28-10.48-.04-15.67-.13q-11.4-.08-22.8.15c1.02-3.17 2-6.2 3.78-9.05a19.93 19.93 0 0 1 13.54-9.55Z"/>
  <path fill="#162425" d="m709.35 112.67.9-.14c13-1.52 28.75 2.64 39.08 10.71 9.76 7.63 16.14 18.46 17.55 30.7q3.46-.5 6.94-.73c13.1-.8 25 1 35.05 9.98 5.29 4.73 12.11 12.9 12.35 20.31.13 3.92-1.74 7.56-4.48 10.27q-.52.51-1.08.98-.55.48-1.14.91-.59.43-1.2.83-.62.39-1.27.73-.64.35-1.3.65-.67.3-1.35.55-.69.26-1.39.46t-1.41.36c-8.22 1.87-18.13 1.27-26.56 1.3-17.15.05-34.3-.4-51.46-.48-11.19.05-22.37-.3-33.56-.24-20.05.1-40.2.55-60.24-.02-6.2-.18-11.43-.89-15.82-5.76-2.91-3.23-4.9-7.34-4.48-11.76.7-7.6 5.61-14.94 11.46-19.64 11.34-9.13 23.42-9.66 37.23-8.27 2.34-7.2 4.81-13.66 9.4-19.79 9.36-12.52 21.3-19.74 36.78-21.9Z"/>
  <path fill="#FDFCFC" d="M711.29 130.63c5-.5 9.92-.01 14.68 1.64 11.14 3.87 20.16 12.87 22.85 24.52.96 4.14 1.02 8.93 2.86 12.77 8.38 5.77 25.4 1.86 35.74 4.41 5.65 1.4 8.14 4.24 10.95 9.01-7.64.05-15.4-.63-23.06-.87q-25.96-.89-51.93-1.1c-14.92-.02-29.78-1.2-44.7-.1-6.05.44-36.36 2.8-40 1.66-1.1-.34-1.17-.52-1.66-1.47.2-.66.22-.8.6-1.47 4.6-8 26.15-4.04 33.86-5.55 9-1.76 9.42-11.62 11.85-18.7q.97-2.84 2.33-5.53 1.37-2.68 3.1-5.14c5.6-7.9 13.01-12.43 22.53-14.08Z"/>
</svg>