<svg xmlns="http://www.w3.org/2000/svg" width="1024" height="1024">
  <path fill="#655560" d="M165.1 994.48c2.92-1.33 30.76-1.44 34.1-.4.62.2.8.38 1.37.75-4.15 1.23-30.6 1.19-35.6.56l.13-.91Z"/>
  <path fill="#655560" d="M482.78 21.67a17.5 17.5 0 0 1 4.67-1.87c5.92-1.2 21.29-1.1 27.18.33-1.25.83-2.5 1.16-3.75 1.88-3.44-.65-7.16-.47-10.66-.52-4.9-.62-9.65.34-14.53.7l-.13.34-1.23.24-1.55-1.1Z"/>
  <path fill="#655560" d="m514.63 20.13 1.08-.32c.23.21.42.48.7.65 2.3 1.42 6.65 2.08 9.31 2.96 10.17 3.35 16.63 9.03 23.44 17.08l-2.25.4c-2.7-2.4-5.05-5.1-7.96-7.29-6.79-5.12-19.65-10.35-28.07-11.6 1.24-.72 2.5-1.05 3.75-1.88Z"/>
  <path fill="#655560" d="m28.85 469.8.72 1.43c-3.21 6.7-12.07 9.6-13.72 18.2.77 1.07 1.05 1.2 1.29 2.55-1.22 2.85-2.56 5.57-2.7 8.7-.71 2.55-1.22 6.92-2.73 8.92l-.54-.2-.33-1.63c.08-1.48.26-2.72-.4-4.11l-.81-.11q-.34 2.54-.8 5.06c-.36-1.11-.34-2-.33-3.16.08-15.3 10.21-25.56 20.35-35.65Z"/>
  <path fill="#655560" d="m10.84 507.77.33 1.63.54.2c1.51-2 2.02-6.37 2.73-8.91-.14 4.19-.47 8.84-2 12.8-.66 9.4 3.48 26 9.57 33.41 2.44 2.96 7.04 5.86 8.48 9.37l-.14 1.83c-.68-.52-1.3-1-2.07-1.37-.51-.25-1.05-.47-1.56-.74-5.67-3.07-12.72-17.29-14.47-23.34-1.87-4.68-3.32-13.74-2.8-18.74.2-2.01.93-4.16 1.39-6.14ZM549.16 40.5c13.93 16.46 31.8 29.05 45.38 45.9-2.69.25-4.37-2.26-6.61-3.54l-.4-.23c-6.49-5.1-11.35-12.26-17.26-17.95-4.03-3.87-9.23-6.54-12.95-10.71-3.87-4.34-5.83-9.18-10.41-13.07l2.25-.4Z"/>
  <path fill="#655560" d="M134.68 364.84c7.17-6.13 13.72-12.84 20.39-19.5 3.47-3.46 7.39-6.88 10.4-10.75.77-1 1.5-1.82 2.45-2.67l.92.66.15-.21.69.6-1.37 2.54c1.45.37 1.35.31 2.12 1.6-2.62 4.45-6.46 8.4-10.56 11.52-4.7 4.64-9.37 9.78-14.48 13.96-2.92 1.32-5.72 1.98-8.76 2.93-.27.08-.55.13-.83.2l-1.12-.88Z"/>
  <path fill="#655560" d="M320.77 993.94c10.04-.95 20.7-.27 30.82-.3l64.57.04 83.76.02c16.73 0 33.83-.83 50.5.6-1.41.92-2.46 1.06-4.14 1.15-8.87.48-17.96.1-26.86.1h-53.17l-78.21-.02c-17 .01-34.11.4-51.1-.15-8.1.44-16.32.2-24.45.3-9.92.14-32.84 1.5-41.5-.78a5.3 5.3 0 0 1 2.36-.98c5.11-.68 10.94-.18 16.13-.17q15.65 0 31.3.2Z"/>
  <path fill="#655560" d="m134.68 364.84 1.12.88c.28-.07.56-.12.83-.2 3.04-.95 5.84-1.6 8.76-2.93-4.16 4.45-9.58 7.14-13.94 11.3-9.71 9.29-18.9 19.15-28.38 28.68-3.69 3.72-7.65 7.14-11.36 10.82-3.32 3.31-6.2 7.05-9.55 10.32-3.55 3.48-7.32 6.72-10.83 10.25-6.77 6.79-13.21 13.9-20.01 20.65-11.4 11.3-26.5 23.43-34.18 37.37-.24-1.36-.52-1.48-1.29-2.55 1.65-8.6 10.5-11.5 13.72-18.2l-.72-1.43c3.1-3.75 7.1-7.22 10.56-10.68l21.97-21.93 73.3-72.35Z"/>
  <path fill="#655560" d="M678.44 92.36a52.14 52.14 0 0 1 6.03-5.7c4.02-3.13 10.02-5.03 15.05-5.67 7.59-.97 15.59-.59 23.23-.62l45.75.17 44.25-.34c10.36-.06 20.7-.39 31 .8 4.19.49 10.63 2.59 13.36 6.01 6.97 4.96 12.85 11.2 14.24 19.98.52 3.35.58 6.71 1.3 10.04.17.82.1.47.16 1.55.89 32.46-.22 64.87-.14 97.32.02 9.5.86 18.97 1.05 28.47.27 12.66-.48 25.32-.63 37.99-.1 7.27.5 14.61.23 21.86-.07 1.89-.08 3.7-1.19 5.25-3.9-2.57-7.07-8.22-10.16-11.8a204.1 204.1 0 0 0-9.92-10.46c-13.13-13.19-27.42-25.22-40.35-38.61-19.21-19.9-37.08-41.78-58.31-59.67-4.3-3.3-7.98-7.55-11.94-11.26-5.5-4.07-10.06-9.45-15.38-13.77-2.45-2-6.85-4.33-8.33-7.06-2.87-5.33-18.96-17.99-24.53-22.3-2.54-1.96-5.5-3.66-7.84-5.83a39.44 39.44 0 0 1-4.85-5.85 25.3 25.3 0 0 0-5.54-5.53c-1.07-.71-2.28-1.42-3.25-2.27-1.13-.97-1.72-1.67-1.74-3.22-.07-4.94 5.05-15.88 8.45-19.48Z"/>
  <path fill="#655560" d="M741.45 177.67c3.14-.25 4.88 1.03 7.22 3.12 1.93 1.74 4.79 4.91 4.75 7.63l-.03.51c-4.3-3.3-7.98-7.55-11.94-11.26Zm-63.01-85.31 1.2 1.21a5.2 5.2 0 0 0 1.64-1.05c.67-.58.88-.7 1.72-.83-6.4 6.75-6.08 11.32-10.69 17.8 1 2.08 3.36 5.57 2.67 7.84-1.07-.71-2.28-1.42-3.25-2.27-1.13-.97-1.72-1.67-1.74-3.22-.07-4.94 5.05-15.88 8.45-19.48Z"/>
  <path fill="#655560" d="M840.19 83.26c3.07-1.08 6.75.3 9.59 1.66 1.72.83 7.74 5.32 8.83 5.06a20.39 20.39 0 0 0-1.5-2.97c6.97 4.96 12.85 11.2 14.24 19.98.52 3.35.58 6.71 1.3 10.04.17.82.1.47.16 1.55l-.56.96c-3.53-6.05-3.9-9.94-3.81-16.82-9.09-9.87-14.16-17.12-28.25-19.46Z"/>
  <path fill="#655560" d="m482.78 21.67 1.55 1.1 1.23-.24.13-.35c4.88-.35 9.63-1.3 14.53-.69 3.5.05 7.22-.13 10.66.52 8.42 1.25 21.28 6.48 28.07 11.6 2.9 2.2 5.25 4.89 7.96 7.3 4.59 3.88 6.54 8.72 10.4 13.06 3.73 4.17 8.93 6.84 12.96 10.71 5.91 5.7 10.77 12.85 17.25 17.95l.4.23c2.25 1.28 3.93 3.79 6.62 3.54 2.32 1.98 4.31 4.27 6.36 6.52 5.02 4.22 9.23 9.4 13.8 14.1 3.22 3.87 6.28 7.69 9.98 11.16 3.04 2.86 6.43 5.33 9.46 8.2a105.64 105.64 0 0 1 14.33 15c3.75 2.68 11.06 10.84 14.64 14.58 6.54 4.67 11.38 11.09 17.55 16.08 6.5 4.46 19.25 18.63 25.77 25.16a1286.52 1286.52 0 0 0 35.94 34.41c9.03 9.09 18.49 17.72 27.6 26.72l87.18 87.31q9.9 9.94 20.08 19.58c4.6 4.42 9.7 8.94 13.57 14.02q10.96 10.92 22.4 21.33c2.46 2.24 5.18 4.23 7.58 6.54 6.49 6.23 12.32 13.42 18.71 19.83 12.57 12.6 25.47 24.86 37.96 37.52 5.85 5.94 12.15 11.83 17.3 18.39a55.59 55.59 0 0 1 6.99 11.28l.08.47c1.38 3.44 1.68 7.1 2.58 10.67 2.77 12.19-1.38 26.54-7.88 36.89-7.13 11.37-8.37 13.95-20.35 20-4.05 2.04-8.2 3.87-12.65 4.87-10.27 2.31-29.22.5-38.2-5.3-5.08-3.26-26.04-25.5-26.76-25.63-3.16-6.63-32.9-33.48-40.03-40.32l-36.41-35.14-98.32-96.3-151.66-149.52c-12.86-12.66-25.24-25.88-38.29-38.34-5.8-5.55-20.07-19.45-26.4-22.81-2.93.29-5.23 2.03-7.4 3.92-8.23 7.13-15.77 15.06-23.64 22.58a3476.1 3476.1 0 0 0-54.1 52.94l-90.8 89.15-121.37 120.02c-31.45 30.55-63.7 60.26-93.43 92.53-3.56 4.49-7.85 8.5-11.9 12.57-11.12 11.16-20.62 19.9-37 21.72-12.01 1.34-27.2-2.16-36.55-10.13-.52-.44-.51-.45-.91-.87l.14-1.83c-1.44-3.5-6.04-6.4-8.48-9.37-6.1-7.4-10.23-24-9.57-33.42 1.53-3.95 1.86-8.6 2-12.8.14-3.13 1.48-5.85 2.7-8.7 7.69-13.94 22.78-26.06 34.18-37.37 6.8-6.75 13.24-13.87 20-20.66 3.52-3.52 7.29-6.76 10.84-10.24 3.34-3.27 6.23-7 9.55-10.31 3.7-3.7 7.67-7.11 11.36-10.83 9.48-9.53 18.67-19.39 28.38-28.67 4.36-4.17 9.78-6.86 13.94-11.3 5.11-4.19 9.77-9.33 14.48-13.97 4.1-3.13 7.94-7.07 10.56-11.52-.77-1.29-.67-1.23-2.12-1.6l1.37-2.54-.7-.6-.14.21-.92-.66c3-4.62 8.57-9.5 12.98-12.82 4.58-3.14 8.95-8.59 12.9-12.54l31.8-31.88 70.75-70.7c22.1-21.98 44.6-43.8 65.85-66.58 2.57-3.39 6.14-6.52 9.14-9.57 10.7-10.93 22.25-20.94 33.05-31.78 4.3-4.32 8.09-9.13 12.43-13.38 3.32-3.27 6.95-6.22 10.32-9.45a995.27 995.27 0 0 0 22.56-22.46c5.94-6.06 10.92-13.2 17.17-18.92 4.65-4.27 10.19-7.57 15.91-10.17Z"/>
  <path fill="#655560" d="M1004.4 505.27c-.85-.31-2.13-.67-2.78-1.3-.94-.94-1.55-3.25-1.52-4.56.05-1.95.35-3.47 1.72-4.81 1.38 3.44 1.68 7.1 2.58 10.67Z"/>
  <path fill="#655560" d="m587.52 82.63.4.23c2.25 1.28 3.93 3.79 6.62 3.54 2.32 1.98 4.31 4.27 6.36 6.52-.42.25-.94.38-1.39.55-4.03-1.23-9.08-7.77-11.99-10.84Zm46.62 43.75a105.64 105.64 0 0 1 14.33 15c-.17.06-.34.15-.52.17-2.9.45-13.87-12.7-17.03-14.77l3.22-.4Zm28.96 29.58c6.55 4.67 11.4 11.09 17.56 16.08-.06 2.14.5 3.1 1.44 4.96l.24.5c-6.51-6.8-13.72-12.97-19.63-20.32l.4-1.22Z"/>
  <path fill="#655560" d="M614.7 107.01c3.22 3.88 6.28 7.7 9.98 11.17 3.04 2.86 6.43 5.33 9.46 8.2l-3.22.4c-6.88-4.1-11.16-9.03-16.24-15.08-.26-1.67-.6-3.05.01-4.69ZM180.9 319.1c-.03.22-.03.44-.08.65-.22 1.13-.74 1.7-1.42 2.6l.7.29c.28-.14.55-.3.83-.4.89-.35 2.13-.35 3.05-.36 1.12-.02 1.85-.36 2.88-.76l-.4.38c-3.52 3.27-8.1 5.29-11.48 8.64-1.85 1.83-2.76 5.53-4.55 6.97-.77-1.29-.67-1.23-2.12-1.6l1.37-2.54-.7-.6-.14.21-.92-.66c3-4.62 8.57-9.5 12.98-12.82Zm499.76-147.06c6.5 4.46 19.25 18.63 25.77 25.16a1286.52 1286.52 0 0 0 35.94 34.41l-2.52.59c-5.45-3.44-9.62-8-14.34-12.28-14.94-13.53-28.97-28.13-43.17-42.42l-.24-.5c-.94-1.86-1.5-2.82-1.44-4.96Zm210.14 207.2q10.96 10.92 22.4 21.33c2.46 2.24 5.18 4.23 7.58 6.54 6.49 6.23 12.32 13.42 18.71 19.83 12.57 12.6 25.47 24.86 37.96 37.52 5.85 5.94 12.15 11.83 17.3 18.39a55.59 55.59 0 0 1 6.99 11.28c-.36-.06-.74-.07-1.09-.17-.31-.1-.61-.2-.9-.35-3.36-1.64-6.89-8.82-9.41-11.79-4.93-5.77-10.7-11.38-16.16-16.68-14.95-14.47-29.45-29.42-44.29-44l-20.57-20.28c-6.62-6.52-14.42-13.4-19.26-21.38l.75-.24ZM482.78 21.67l1.55 1.1 1.23-.24.13-.35c4.88-.35 9.63-1.3 14.53-.69-8.88 2.1-20.38 5.96-27.69 11.52-8.55 6.52-13.55 16.37-21.03 24-7.42 7.56-14.92 15.24-22.65 22.48-3.37 3.17-7.12 5.99-10.4 9.22-2.43 2.4-4.15 5.53-6.4 8.11-4.68 5.38-11.4 11.5-16.73 16.48-3.44 3.2-8.14 4.82-11.5 8.1a175.9 175.9 0 0 0-13.93 14.97c-3.17 3.9-6.12 8.69-9.8 12.07a44 44 0 0 0 1.36-4.26l-.3-.15c-.94.87-.42.54-1.53 1.03.18-2.14 1.73-2.38 2.7-3.98.82-1.38.38-2.3-.12-3.68 2.57-3.39 6.14-6.52 9.14-9.57 10.7-10.93 22.25-20.94 33.05-31.78 4.3-4.32 8.09-9.13 12.43-13.38 3.32-3.27 6.95-6.22 10.32-9.45a995.27 995.27 0 0 0 22.56-22.46c5.94-6.06 10.92-13.2 17.17-18.92 4.65-4.27 10.19-7.57 15.91-10.17Z"/>
  <path fill="#655560" d="M180.9 319.1c4.58-3.14 8.95-8.59 12.9-12.54l31.8-31.88 70.75-70.7c22.1-21.98 44.6-43.8 65.85-66.58.5 1.39.94 2.3.11 3.68-.96 1.6-2.51 1.84-2.69 3.98 1.1-.49.6-.16 1.53-1.03l.3.15a41.3 41.3 0 0 1-1.36 4.26c-4.61 3.45-8.61 8.37-12.63 12.5a1123.9 1123.9 0 0 1-19.69 19.73c-21.4 20.95-42.2 42.53-63.45 63.64l-42.1 41.88-25.4 25.31c-2.97 2.95-6.48 7.4-9.96 9.62-1.03.4-1.76.74-2.88.76-.92.01-2.16 0-3.05.35-.28.12-.55.27-.83.4l-.7-.28c.68-.9 1.2-1.47 1.42-2.6.05-.21.06-.43.08-.65Z"/>
  <path fill="#FEFEFE" d="M116.71 534.81c29.73-32.27 61.98-61.98 93.43-92.53L331.5 322.26l90.82-89.15a3476.1 3476.1 0 0 1 54.1-52.94c7.86-7.52 15.4-15.45 23.63-22.58 2.17-1.89 4.47-3.63 7.4-3.92 6.33 3.36 20.6 17.26 26.4 22.8 13.05 12.47 25.43 25.69 38.3 38.35L723.8 364.33l98.32 96.3 36.4 35.15c7.15 6.85 36.88 33.69 40.04 40.33-1.37 4.54.3 11.22.4 16.08.17 8.73.07 17.48.07 26.22 0 6.05.28 12.24-.28 18.26l.84 253.14q.56 35.1.29 70.2c0 9.39 1.05 23.2-.6 31.89-1.76 9.29-10.36 20.07-16.96 26.53-4.3 4.2-8.88 7.69-14.38 10.15-.12.31-.2.64-.35.94-.56 1.15-5.25 1.78-6.56 2.06-13.32 2.89-26.42 2.16-39.94 2.32q-34.34.35-68.67.11l-141.06.11c-20.27 0-40.69.59-60.93.19-16.67-1.44-33.78-.62-50.51-.6l-83.76-.03-64.57-.03c-10.12.02-20.78-.66-30.82.3q-15.64-.2-31.29-.2c-5.19 0-11.02-.5-16.13.17a5.3 5.3 0 0 0-2.36.98c-2.5-1.79-7.8-.77-10.83-.27-.84.13-1.5.42-2.3.63-.09.02-.19 0-.29 0-13.43 1.4-27.68.91-41.14.04l-.93-.3a13.6 13.6 0 0 0-4.37-.75c-2.3-.13-8.98-.85-10.56.58-.57-.37-.75-.56-1.37-.75-3.34-1.04-31.18-.93-34.1.4-1.47-.93-3.49-1.27-5.16-1.76-6-1.76-12.63-3.28-17.52-7.4-6.74-4.97-13.23-11.86-17.15-19.32-4.5-8-6.8-17.85-7.61-27.01-.66-7.4-.24-15.2-.33-22.64-.24-20.45.07-40.88.05-61.32l-.06-166.59-.05-60.29c-.02-13.34.24-26.73-.59-40.05-1.92-10.22.8-19.15 1.2-29.2.32-7.79-.73-15.58-1.13-23.3l-.04-.79Z"/>
  <path fill="#655560" d="M519.9 340.93c2.38-.07 4.81-.2 7.2-.11.82.03 1.63.09 2.44.22 13.38 2.13 20.97 18.9 26.49 29.65.76 1.48 2.1 5 3.44 5.94 1.45 1.04 22.1 2.96 25.53 3.67 6.6 1.35 13.16 3.29 19.17 6.4 14.55 7.5 24.1 20.13 32.82 33.45 2.98 4.54 6.22 10.07 10.62 13.37 4.14 3.1 9.4 3.88 14.33 4.99 11.78 2.63 22.68 7.11 31.01 16.18 9.37 10.2 12.39 25.3 11.73 38.8-.8 16.54-10.87 34.22-23.03 45.17-8.52 7.67-25.3 14.4-36.8 10.82-3.84-1.2-7.02-4.42-11-5.23-8.64-1.75-18.09-1.85-26.88-2.7-5.17-.5-10.51-1.63-15.68-1.75-2.24-.05-3.97.08-5.7 1.67-1.31 2.5-.43 5.76-.05 8.46 4.43 31.5 29.75 61.7 41.95 91.07 7.07 17.05 12.4 36.03 13.17 54.5.7 16.53-2.14 31.13-6.94 46.8-1.1 3.57-2.07 7.64-3.73 10.97-1.87 3.73-5.03 6.67-7.15 10.25-4.25 7.17-7.79 13.68-13.55 19.88-9.8 10.55-20.37 21.1-32.27 29.25-14.35 9.83-42.44 20.67-59.6 24.49a127.55 127.55 0 0 1-23.29 2.79c-57.22 1.84-99.28-2.27-142.83-43.45-16.33-15.43-35.43-37.53-36.04-61.14a71.17 71.17 0 0 1-5.07 1.46c-6.4 1.53-31.1 5.84-35.82 2.98-.63-2.39-.15-5.08.17-7.5 1.3-9.97 3.73-19.81 5.25-29.77 1.74-11.34 2.88-24.68 5.16-35.58a45.8 45.8 0 0 1 3.57-10.52c6.22 3.84 11.86 8.68 17.94 12.75 13.6 9.1 28.73 16.83 40.17 28.8 2.02 2.1 5.88 6.33 5.2 9.49-1.58 7.27-19.77 14.16-25.82 17.33a44.97 44.97 0 0 0-5.7 3.77l7.06-2.8c6.77 1.97 12.17 6.16 17.8 10.23 15.28 9.53 29.1 19.52 47.9 18.92 2.22-5.67 5.42-11.7 10.86-14.86a13.22 13.22 0 0 1 10.78-1.25c8.83 2.65 13.62 10.1 17.7 17.7a66.19 66.19 0 0 0 25.73-10.79c1.74-1.19 4.1-3.12 4.33-5.4.5-4.88-6.54-10.19-9.32-13.92-2.6-3.47-4.18-7.51-3.4-11.88.6-3.46 2.76-7.28 5.73-9.23 4.77-3.11 13.33-2.07 18.41-.01 2.9 1.17 6.28 3.36 9.39 3.74a3.54 3.54 0 0 0 3.3-1.12c2.9-2.92 5.65-11.04 6.28-14.95.46-2.82.26-6 .28-8.88-10.03-8-17.81-17.82-29.19-24.1-14.6-8.06-29.96-4.5-43.33 4.07-4.74 3.03-9.68 7.2-15.18 8.62-3.36.86-6.9.43-9.83-1.46-6.76-4.36-6.5-13.78-7.97-20.84-1.63-7.78-5.27-14.18-12.12-18.47-16.24-10.19-33.02 4.52-48.52 8.32-1.3-.34-2.66-.67-3.89-1.24-3.79-1.77-5.8-4.83-7.3-8.6.54-3.02 1.06-6.09 1.78-9.08 4.43-18.17 26.24-45.26 40.32-57.53 8.35-7.27 17.6-13.27 27.04-19.02 8.28-5.05 22.14-13.91 32.17-11.2 2.63.7 5.91 2.74 7.59 4.87 3.8 4.83 5.57 12.7 8.05 18.37 1.88 4.3 4.19 8.44 6.6 12.47 8.33 13.88 22.83 31.99 35.81 41.66 3.97 2.95 8.37 5.25 12.73 7.55 3.44 1.82 7.2 4.07 11.02 4.93 1.76.4 3.9.6 5.4-.66 1.1-.95 1.54-2.5 1.74-3.9.43-3 .02-6.25.02-9.31 0-6.24.13-12.42-.09-18.66-7.19-1.23-25.38-3.11-30.48-8.08a6.57 6.57 0 0 1-1.77-4.6c-.13-4.52 3.02-10.68 6.16-13.78 6.66-6.56 17.25-5.4 25.82-5.3-.8-9.25-.38-18.69-.86-28-11.26-.93-43.96 3.15-51.54-4a7.74 7.74 0 0 1-2.39-6c.34-14.92 17.05-22.7 26.06-31.95 2.3-2.37 4.72-5.42 4.55-8.93-.1-2.22-1.49-4.05-3.15-5.4-2.68-2.18-6.08-3.6-9.16-5.13-10.04-5-23.26-9.84-31.24-17.9-2.37-2.38-4.05-5.44-3.9-8.88.77-17.03 35.89-14.74 45.65-23.42 4.51-8-26.38-45.14-26.91-60.6a14.28 14.28 0 0 1 4.23-10.2c2.67-2.6 6.78-2.5 10.17-1.66 5 1.25 9.66 4.02 14.14 6.5 9.93 5.48 21.12 12.9 32.13 15.88 1.76.48 3.68.48 5.5.52.11-10.59-4.44-18.68.9-28.98Z"/>
  <path fill="#FEFEFE" d="M583.59 428.53c5.3-.26 10.96 1.43 14.87 5.12 4.98 4.72 7.61 13.37 7.68 20.08.07 6.61-1.83 12.99-6.65 17.73-4.1 4-8.26 4.14-13.62 4.06a10.3 10.3 0 0 1-5.08-1.03c-6.8-3.28-13.22-9.87-15.53-17.1-1.79-5.6-1.84-12.37.98-17.65 3.66-6.85 10.42-9.07 17.35-11.21Zm2.53 208.53c4.3-.16 8.65-.05 12.96-.05 4.43 6.42 10.73 26.06 11.98 34.07 2.68 17.27 3.62 52.5-7.05 67.08-.9.66-1.8 1.35-2.75 1.9a6.55 6.55 0 0 1-5.3.5c-3.33-1.2-5.18-4.7-6.6-7.69 1.35-11.71.96-24.2-.37-35.91-.52-4.58-1.08-9.25-2-13.77-1.86-9-9.48-34.82-5.81-42.6 1.03-2.2 2.82-2.67 4.94-3.53Z"/>
  <path fill="#655560" d="m811.93 504.46 52.44 56.04c11.42 12.06 23.22 23.86 34.38 36.17l.84 253.14q.56 35.1.29 70.2c0 9.39 1.05 23.2-.6 31.89-1.76 9.29-10.36 20.07-16.96 26.53-4.3 4.2-8.88 7.69-14.38 10.15-.12.31-.2.64-.35.94-.56 1.15-5.25 1.78-6.56 2.06-13.32 2.89-26.42 2.16-39.94 2.32q-34.34.35-68.67.11l-141.06.11c-20.27 0-40.69.59-60.93.19-16.67-1.44-33.78-.62-50.51-.6l-83.76-.03-64.57-.03c-10.12.02-20.78-.66-30.82.3q-15.64-.2-31.29-.2c-5.19 0-11.02-.5-16.13.17a5.3 5.3 0 0 0-2.36.98c-2.5-1.79-7.8-.77-10.83-.27-.84.13-1.5.42-2.3.63-.09.02-.19 0-.29 0-13.43 1.4-27.68.91-41.14.04l-.93-.3a13.6 13.6 0 0 0-4.37-.75c-2.3-.13-8.98-.85-10.56.58-.57-.37-.75-.56-1.37-.75-3.34-1.04-31.18-.93-34.1.4-1.47-.93-3.49-1.27-5.16-1.76-6-1.76-12.63-3.28-17.52-7.4-6.74-4.97-13.23-11.86-17.15-19.32-4.5-8-6.8-17.85-7.61-27.01-.66-7.4-.24-15.2-.33-22.64-.24-20.45.07-40.88.05-61.32l-.06-166.59-.05-60.29c-.02-13.34.24-26.73-.59-40.05l.61.14c.32-3.4 1.69-4.5 4.04-6.71l.53-.48c6.11-5.36 13.1-9.81 19.52-14.8 4.3-3.33 8.32-7.15 12.29-10.86a1057.28 1057.28 0 0 0 32.1-31.63c5.84-5.96 11.37-12.24 17.67-17.74.83 17.11.41 34.21.28 51.33-.08 10.47.24 20.95.03 31.42-.15 7.48-.68 14.93-.71 22.42-.05 10.88.5 21.7.68 32.56.27 16.9.2 33.87.18 50.77 0 10.35-.75 20.67-.84 31.02q-.42 56.35.58 112.68c.19 19.37-.68 39.05.47 58.36.16 2.59.08 8.2 1.9 10.19 1.45 1.58 3.83 2.1 5.85 2.4 9.82 1.5 19.99.88 29.9 1.2 25.67.8 51.24.35 76.9.7q148.77 2.13 297.53-.63c10.98-.15 22.04.56 33.06.52l94.56-.63 35.87-.02c7.4.02 15 .47 22.37-.12 2.8-.22 6.18-.53 8.41-2.37a28.2 28.2 0 0 0 1.7-8.4c.36-5.77.06-11.64.08-17.42l-.05-40.99-.77-135.34.51-201.21Z"/>
  <path fill="#FEFEFE" d="m216.43 995.3.3-1c3.58-.89 37.93-1.21 40.25-.04.55.28.4.33.6 1-13.44 1.4-27.69.91-41.15.04Z"/>
  <path fill="#655560" d="M121.33 581.53c-1.96 9.07-.58 24.4-.73 34.27-.6 39.77-.1 79.5-.1 119.27l-.06 148.16c0 9.46-.04 19.16-.38 28.6-.27 7.26-.96 14.45-.62 21.72.2 4.21 4.04 23.34 5.83 26.87 2.02 3.56 3.82 7.95 6.28 11.16 2.73 3.55 11.78 8.67 10.97 13.44-.02.1-.06.2-.1.3-6.74-4.97-13.23-11.86-17.15-19.32-4.5-8-6.8-17.85-7.61-27.01-.66-7.4-.24-15.2-.33-22.64-.24-20.45.07-40.88.05-61.32l-.06-166.59-.05-60.29c-.02-13.34.24-26.73-.59-40.05l.61.14c.32-3.4 1.69-4.5 4.04-6.71Z"/>
</svg>