<svg xmlns="http://www.w3.org/2000/svg" width="1024" height="1024">
  <path fill="#05232A" d="M226.08 325.7c.02-9.08-2.34-18.44-3.65-27.44-1.46-10.06-2.35-20.36-3.4-30.48l-10.47-95.83c-.66-6.18-.23-12.5-1.07-18.64-.37-2.69-.8-5.74-2.77-7.77-1.69-1.74-4.7-2.88-6.87-3.97-14.07-7.06-25.32-24.34-30.01-38.96-1.87-5.84-1.94-11.28-1.97-17.36-.04-12.38.72-23.21 6.59-34.46 6.78-13.02 14.18-19.58 26.43-27.18 5.29-3.28 10.44-6.24 16.42-8.1 1.36-.42 2.86-.9 4.28-.98 3.23-.16 6.57.48 9.83.48 6.28 0 13.65-1.36 19.75-.1 4.88 1.01 9.89 3.29 14.26 5.63 11.2 6 22.06 15.78 28.29 26.99 2.5 4.49 4.17 9.38 6.8 13.81 15-3.44 29.28-10.15 44.18-14.05 14.36-3.76 28.85-5.82 43.5-7.83 4.52-.63 8.86-2.16 13.45-2.45 6.65-.41 13.48-.1 20.15-.1l35.08.02c8.4.04 16.5 1.36 24.73 2.87 4.32.8 8.19 2.11 12.65 2.07 6.88-.07 13.4 2.7 20.12 4.06 12.8 2.61 25.7 5.05 38.37 8.24 15.88 4 31.54 8.8 47.54 12.3 13.97 3.05 27.74 6.58 42.08 7.45 2.51.15 4.78.13 7.12 1.2 6.1 2.79 13.56 1.84 20.19 1.85 8 0 16.34.47 24.31-.14 4.47-.35 8.72-1.91 13.14-2.5q10.72-1.34 21.35-3.3 10.62-1.95 21.11-4.52 10.5-2.56 20.83-5.73 10.32-3.17 20.45-6.93c14.64-5.56 33.15-17.05 49.02-10.06 7.34 3.23 12.66 9.4 15.37 16.87 3.5 9.65 4.67 21.23.18 30.66-6.84 14.4-19 26.29-28.46 38.96-18.7 25.01-36.9 50.42-56.18 75-6.68 8.52-15.98 14.4-20.12 24.77 6.83 6.65 12.66 14.27 18.88 21.5 3 3.5 6.42 6.63 9.52 10.06 2.88 3.18 5.38 6.69 8.22 9.9 4.64 5.24 9.93 10.1 14.9 15.04 5.74 5.74 11.31 11.64 17.04 17.38 2.3 2.31 5.3 4 7.98 5.86 5.97 4.15 12.96 9.07 17.42 14.86a32.35 32.35 0 0 1 6.68 19.6c.09 6.59-2.12 11.99-6.8 16.66-9.33 9.33-22.98 15.03-34.64 20.84-42.08 20.98-73.2 32.15-120.39 38.17-14.87 1.9-29.25 3.26-44.28 3.13-28.35-.23-56.84-4.85-84.59-10.31-6.4-1.27-12.73-2.93-19.13-4.17q-34.15-6.24-68.74-9.06c-5.93-.48-11.91-1.44-17.87-1.45-5.77 0-11.61.58-17.38.95-6.8.43-13.7.67-20.46 1.47-22.6 2.69-45.33 8.3-67.06 14.95-9.07 2.78-37.53 11.22-43.71 17.21-1.26 1.23-1.1 2.61-1.07 4.26.21 15.62 3.84 31.61 5.62 47.16l13.75 116.54c.55 4.64.65 9.34 1.14 14l4.83 43.89c1.24 11.75 3.05 23.46 4.22 35.23.5 5 .25 10.02.47 15.02.23 5.13 1.26 10.26 1.9 15.35 1.01 8.08 1.38 15.43 3.95 23.24 3.37-.93 6.84-1.5 10.18-2.5 7.98-2.4 16.02-5.46 24.18-7.2 13.85-2.95 27.62-4.26 41.65-5.88 10.83-1.25 21.37-2.78 32.27-3.47 6.03-.38 12.08-.02 18.11-.44 5.64-.4 11.25-1.33 16.9-1.65 15.66-.88 31.45-.69 47.13-1.17 10.11-.32 20.02-1.23 30.18-.92 9.56.3 19.02 2.1 28.55 2.8 7.73.58 15.82-.73 23.46.62 9.54 1.68 19.16 5.83 28.4 8.7 4.49 1.4 9.05 2.78 13.62 3.86 2.47.58 5.14.67 7.54 1.46 19.34 6.34 43.37 17.76 61.1 27.84 16.33 9.27 32.53 18.67 47.75 29.72 31.38 22.77 61.6 55.48 82.95 87.7 5.44 8.21 15.36 23.1 17.6 32.16.3 1.25.4 2.2.05 3.45-4.34 3.39-10.12 7.67-15 10.06-9.08 7.9-18.85 15.35-29.28 21.38-6.35 3.67-13.08 6.72-19.55 10.2-4.74 2.54-9.5 5.88-14.46 7.92-3.8 1.56-7.94 2.1-11.82 3.43-7.81 2.64-15.49 5.68-23.32 8.3-5.21 1.75-10.47 3.65-15.81 4.94-7.82 1.87-15.85 2.88-23.8 4.1-11.77 1.79-23.5 3.58-35.3 5.17-22.08 2.97-43.93 8.38-66.22 9.92-6.84.48-13.86.19-20.72.18l-33.9-.01H453.57c-24.37 0-48.89.65-73.22-.73-4.62-.26-9.68.15-14.2-.66-6.78-1.22-13.72-3.74-20.39-5.52-16.06-4.3-32.06-8.55-48.05-13.09-14.17-4.02-28.64-6.49-42.24-12.45-7.12-3.12-18.38-9.04-25.1-12.83-4.07-2.3-7.92-4.99-12.04-7.22-7.84-4.23-16.01-7.95-23.96-12-8.56-4.36-16.96-9.04-25.56-13.32-5.7-2.37-10.7-6.78-14.25-11.8l.35-.44c2.69-3.58 3.88-8.1 5.81-12.1 2.81-5.8 6.13-11.66 9.33-17.26 10.66-18.67 29.89-42.37 44.78-58.1 3.73-3.94 8.2-7.12 12.11-10.88 7.52-7.23 14.43-14.85 22.7-21.31 8.62-6.74 18.81-12.12 26.4-19.97-.49-23.05-5.71-45.68-7.98-68.58-.32-3.16.06-6.36-.23-9.53-.42-4.56-1.67-9.06-2.26-13.61l-4.72-38.85c-1.31-10.45-1.98-21.02-3.29-31.46-.56-4.53-1.56-8.98-2.05-13.52-.44-4.13-.49-8.3-.97-12.42-2.05-17.63-4.74-35.18-6.52-52.85-.43-4.26.3-8.6-.14-12.85l-12-108c-1.13-9.94-.24-20.6-3.24-30.2-9.98-2.78-14.36-3.4-19.83-13.04-4.32-7.62-6.26-18.85-3.93-27.34 1.49-5.4 4.68-12.33 9.38-15.55 2.52-1.72 5.43-2.91 7.81-4.81Z"/>
  <path fill="#EFEEE0" d="M285.05 334.17c4.84-.56 9.37-.31 13.98 1.25a19.67 19.67 0 0 1 5.8 11.09 18.3 18.3 0 0 1-3.68 13.66c-1.5 1.82-3.7 2.46-5.9 3.02-7.89 1.99-16.57 2.26-24.65 3.11-9.57 1.01-19.13 2.36-28.72 3.23l-13.13 1.78c-3.34-3.04-5.52-6.2-6.39-10.73-.87-4.56-.85-10.25 2-14.14a12.95 12.95 0 0 1 5.11-4.08c11.35-5.07 41.54-6.16 55.58-8.2ZM253.77 146.46l.95.17c2.24 6.49 3.45 25.2 4.41 33.15 1.94 15.88 4.15 31.78 5.84 47.68 1.82 17.1 3.16 34.23 5.1 51.32l2.78 24.65c.61 5.4.97 10.96 2.31 16.23-10.32 1.08-20.92 1.77-31.06 4.04-.6.29-.94.21-1.6.18a5.51 5.51 0 0 1-1.3-3.12c-.61-4.5-.67-9.13-1.17-13.65l-5.95-57.69c-1.7-16.26-4.54-32.4-6.14-48.66l-3.37-34.83c-.45-4.58-.23-9.5-1.63-13.91 10.73.13 20.8-1.84 30.83-5.56ZM228.01 29.17q1.09-.13 2.17-.2 1.09-.09 2.18-.12t2.17-.01q1.1.02 2.18.09 1.09.07 2.17.19 1.08.12 2.16.28 1.08.17 2.14.39 1.07.22 2.13.48 1.05.27 2.1.58 1.04.32 2.07.68 1.02.36 2.03.77 1.01.41 2 .87 1 .45 1.96.95.97.5 1.91 1.04.95.55 1.87 1.13.91.59 1.8 1.22c11.47 8 19.76 21.63 22.17 35.33 2.26 12.85-.4 28.05-8.03 38.79-9.5 13.37-22.55 19.5-38.32 22.23-13.32.83-25.13-2.4-35.94-10.42-11.31-8.38-17.4-20.69-19.42-34.4-2-13.66 1.98-29.63 10.24-40.69 8.9-11.93 22-17.11 36.26-19.18ZM278.85 381.6l1.15-.12c1.14 1.03 1.28 3.28 1.5 4.76 2.75 19.2 4.3 38.72 6.38 58.01l10.64 96.57q17.08 139.06 30.97 278.47c.12 1.25.71 3.87.01 4.83-6.15 2.05-22.92.93-30.13.9a4.9 4.9 0 0 1-2.09-.34c-1.17-5.21-1.31-10.67-1.8-15.99l-2.73-31.04c-1.6-16.76-3.8-33.44-5.66-50.16-1.34-12.17-2.35-24.38-3.75-36.54l-16.07-131.8c-3.77-33.15-6.63-66.41-10.03-99.6l-5.76-51.1c-.76-7.28-2.31-15.24-1.72-22.53l.49-.45-.29-.32c1.52-.42 1.73.7 3.05.57 8.22-.88 16.9-2.04 24.94-3.91l.9-.21Z"/>
  <path fill="#EFEEE0" d="M339.74 766.29c23.22-12.73 51.05-18.99 77.18-22.34 8.6-1.1 17.34-1.6 25.99-2.44 11.37-1.11 22.81-2.55 34.22-3.04 13.03-.56 26.1-.25 39.12-.53 11.62-.25 23.2-.55 34.83-.65 4.94-.04 9.98-.33 14.9-.02 9.02.57 18.32 3.41 27.36 4.6 8.76 1.15 17.8 1.21 26.33 3.68 8.42 2.43 16.66 5.46 25.04 8 10.38 3.15 21.08 5.88 31.11 10.06 13.6 5.66 27.14 13.05 40 20.27 46.93 26.33 83.04 55.74 114.4 99.94 5.1 7.18 10.6 14.37 14.82 22.11 4.71 8.64 6.66 17.74 10.65 26.54-9.07 7.9-18.84 15.35-29.27 21.38-6.35 3.67-13.08 6.72-19.55 10.2-4.74 2.54-9.5 5.88-14.46 7.92-3.8 1.56-7.94 2.1-11.82 3.43-7.81 2.64-15.49 5.68-23.32 8.3-5.21 1.75-10.47 3.65-15.81 4.94-7.82 1.87-15.85 2.88-23.8 4.1-11.77 1.79-23.5 3.58-35.3 5.17-22.08 2.97-43.93 8.38-66.22 9.92-6.84.48-13.86.19-20.72.18l-33.9-.01H453.57c-24.37 0-48.89.65-73.22-.73-4.62-.26-9.68.15-14.2-.66-6.78-1.22-13.72-3.74-20.39-5.52-16.06-4.3-32.06-8.55-48.05-13.09-14.17-4.02-28.64-6.49-42.24-12.45-7.12-3.12-18.38-9.04-25.1-12.83-4.07-2.3-7.92-4.99-12.04-7.22-7.84-4.23-16.01-7.95-23.96-12-8.56-4.36-16.96-9.04-25.56-13.32 6.37-15.05 13.43-29.96 22.28-43.74 17.4-27.11 48.25-62.4 74.32-81.1 2.69-1.93 6.23-5.06 9.33-6.1.82-.27.82-.24 1.55-.32.16.26 2.57 21.64 2.58 23.42l-.37.5c-.83-.2-2.45-.84-3.25-.8-2.57.17-13 3.79-15.31 5.21-1.63 1.01-3.48 2.42-3.88 4.43-.34 1.7-.31 3.6.74 5.04 2.82 3.81 9.4 4.85 13.79 5.2 19.3 1.52 41.95 2.42 61.03-.55 5.57-.87 11.16-2.53 16.56-4.12 4.58-1.35 9.7-2.7 13.36-5.92 1.53-1.35 2.75-3.04 2.82-5.15.08-2.38-1.27-4.6-2.92-6.21-4.28-4.2-10.67-5.12-16.4-4.98-.55-13.5-1.82-36.02-5.31-48.7ZM407.05 52.17c6.87-.5 13.89-.2 20.78-.2 13.02-.04 25.97.18 38.93 1.6C506.83 58 545.31 70.33 584.44 79.3c8.2 1.88 16.58 2.87 24.83 4.52 9.93 1.98 19.77 4.47 29.77 6 16.57 2.56 43 3.32 59.6 1.73 23.43-2.25 59.7-10.06 81.93-18.31q11.9-4.5 23.63-9.45c5.2-2.12 10.67-4.7 16.15-5.9 3.85-.85 7.33-.51 10.64 1.75 4.48 3.06 7.73 9.06 8.51 14.37.82 5.57-1.54 11.34-4.15 16.17-2.68 4.98-6.3 9.54-9.66 14.08q-11.32 15.04-23.1 29.72c-6.09 7.74-11.6 16-17.37 23.98q-9.5 12.97-19.6 25.47a709.54 709.54 0 0 1-19.23 23.26c-5.8 6.64-11.6 12.7-16.89 19.8.54 2.47 1.2 4.95 2.58 7.1 5.3 8.2 12.77 15.28 19.37 22.45 17.18 18.65 34.51 36.69 53.25 53.76 6.66 6.07 24.35 19.66 27.74 26.45 1.32 2.65 2.2 5.7 1.07 8.58-1.34 3.42-4.18 6.33-7.02 8.58-13.12 10.4-43.29 22.81-59.61 29.86-19.17 8.49-35.4 11.99-55.63 16.27-27.73 5.87-48.8 8.6-77.15 7.4-22.55-.96-45.22-5.33-67.35-9.46-38.93-7.28-74.57-14.38-114.53-14.49-34.49-.1-71.7 6.14-104.95 15.55-7.38 2.09-41.71 15.27-45.27 15.26-3.49-5.6-4.23-25.55-4.4-32.8.78-.97 9.66-3.3 13.7-6.85 5.82-5.14 8.19-12.14 8.64-19.68.65-10.58-2.25-21.84-9.6-29.76-6.11-6.6-12.04-5.64-20.16-5.82-.35-18.08-3.07-36.3-5.12-54.23l-9.12-81.46q-1.35-12.71-2.52-25.44c-.63-6.36-1.59-12.7-1.47-19.1 1.67-2.02 3.73-3.65 5.64-5.43 10.35-9.67 19.24-23.38 21.83-37.48.98-5.28 1.06-10.98 1.26-16.34 6.6-7.93 62.02-20.92 74.14-23.1 10.7-1.93 21.47-2.71 32.23-4.13Z"/>
  <path fill="#05232A" d="M477.3 174.07c4.66-.24 9.17-.68 13.5 1.42q.59.28 1.15.63.57.34 1.1.74.53.4 1.01.84.5.45.93.95.44.49.83 1.02.4.54.73 1.1.33.58.61 1.18.28.6.5 1.23.2.58.34 1.2.14.6.22 1.22.07.62.09 1.24.01.62-.04 1.24t-.17 1.23q-.11.62-.3 1.21-.17.6-.41 1.17-.24.58-.54 1.13c-2.12 3.97-5.69 6-9.88 7.18-4.27.18-8.73.39-12.74-1.34a13.53 13.53 0 0 1-7.58-8.01 11.7 11.7 0 0 1 .82-9.52c2.17-3.85 5.7-5.9 9.83-7.06Z"/>
  <path fill="#05232A" d="M504.84 99.16a9.93 9.93 0 0 1 2.4.11c4.75.85 8.66 1.9 11.51 6.14 6.72 10 1.33 28.42-1.02 39.38 8.22-8.85 28.1-22.9 40.2-24.5a21.48 21.48 0 0 1 16.06 4.63q.63.53 1.2 1.12.57.58 1.08 1.23.51.64.96 1.33.44.69.81 1.42.37.73.67 1.5.3.76.51 1.55.22.8.36 1.6.14.81.2 1.63c.95 12.66-13.27 31.03-21.38 40.13-2.11 2.36-4.94 4.3-6.87 6.74-.8 1-1.58 2.67-1.28 3.95.72 3.02 17.22 7.46 20.6 8.93q2.56 1.12 4.96 2.53 2.4 1.42 4.63 3.1c6.91 5.2 13.39 11.95 14.45 20.94 1.82 15.37-14.13 29.06-25.65 36.58-2.33 1.51-7.55 3.67-9.09 5.88-.92 1.34 7.25 5.96 8.53 6.76 10.1 6.3 22.07 15.33 24.8 27.7 1.2 5.35-.42 10.3-3.35 14.78-6.85 10.46-19.74 18.66-31.86 21.24-1.14 2.49-2.07 4.99-3.34 7.43H544.8l-3.5-2.39c-2.47-15.95-.43-29.87-.3-45.6.15-15.91.4-31.95 0-47.84-.12-4.9-.78-9.76-.95-14.66-.36-10.32.16-19.13-2.77-29.27a55.69 55.69 0 0 0-5.48-12.9c-1.08-1.84-2.6-3.7-3.4-5.64a3.9 3.9 0 0 1-.11-3.09c1.17-2.56 8.94-7.94 11.35-10.04 8.78-7.67 19.9-18.34 24.25-29.2l.28-.69c-1.36-1.43-2.82-2.78-4.23-4.16-17.21 4.94-33.36 18.63-46.05 30.94-6.94-3.6-14.35-7.22-21.97-9.12-14.55-3.63-32.53-1.05-46.56 3.34-17.3 5.97-36.33 9.04-49.85 22.22-8.61 8.4-12.41 19.34-12.44 31.3-.03 13.84 5.62 29.01 15.58 38.75 13.7 13.4 34.77 19.2 53.62 18.94 18.05-.25 35.25-7.72 47.18-21.3 3.31-3.78 5.35-8.63 8.81-12.21 1.75-.56 3.42-.48 5.22-.19 2.8.45 7.45 1.22 8.94 3.92.9 1.66.24 3.73-.49 5.3-9.65 20.84-27.2 31.44-47.98 38.9.04 6.88 1.03 49.46-.87 52.51-1.25 2-5.13 2.53-7.26 3.07-1.97-.67-4.43-1.36-6.07-2.67a6.48 6.48 0 0 1-1.37-1.5c-.84-1.89-1.3-43.16-1.55-48.56-5.64-.5-11.4 0-17.07-.41-18.14-1.31-36.39-7.2-50.06-19.57-13.58-12.29-22.96-28.7-23.72-47.34-.77-19 3.77-35.7 16.92-49.81 13.09-14.06 28.5-19.21 46.18-24.92 10.99-3.55 21.36-6.68 33-7.16a43.71 43.71 0 0 1 3.75-7.33c7.1-11.84 16.44-26.27 29.25-32.47 3.04-1.47 6.5-2.16 9.76-2.98Z"/>
  <path fill="#EFEEE0" d="M502.83 115.85c1.3.08 1.3.18 2.28 1.07 2.36 5.71-.4 14.01-2.24 19.6-.56 1.71-2.14 6.88-3.87 7.45-2.35.78-8.27-1.88-10.75-2.7-1.91-.27-3.92-.24-5.85-.32l-.67-.78c.01-.55 0-.84.16-1.41 1.82-6.17 15.39-19.64 20.94-22.91ZM556.99 283.65c1.05.15 2.01.48 2.95 1 7.82 4.36 16.44 11.94 19.08 20.67-2.4 2.4-5.43 4.34-8.17 6.33-4.69 2.91-8.97 6.33-13.84 8.98l-.02-36.98ZM554.97 207.93c1.53-.02 2.98 0 4.45.48 9.24 2.96 16.6 9.84 21.03 18.3-2.2 3.8-5.22 6.68-8.36 9.68-2.85 2.45-5.84 5.03-9.11 6.9-1.76 1-3.55 2.01-5.58 1.46-1.5-3.44-.34-17.49-.51-22.09a73.7 73.7 0 0 0-1.76-14.06l-.16-.67Z"/>
</svg>