<svg xmlns="http://www.w3.org/2000/svg" width="1024" height="1024">
  <path fill="none" d="M0 1024h1024V0H0v1024m186-773c.18-.07 0-1 0-1-21.88-1.98-41.79 19.36-64.02 18.98-22.23-.39-41.67-7.08-57.73-23.23-16.07-16.14-26.92-29.27-32.18-50.82-5.25-21.56-9.45-53.11-4.07-74.93 5.38-21.82 9.38-42.12 23.92-59.08 14.53-16.97 26.89-29.23 49.1-33.9 22.22-4.66 51.27-.43 72.06 8.9 20.78 9.34 44.04 10.36 66.59 16.41 22.55 6.05 46.35 8.83 70.34 12.66 23.99 3.84 49.57 5.75 74.66 8.34 25.09 2.59 52.31 3.53 78.33 4.67a968.12 968.12 0 0 0 81 0c26.06-1.12 53.8-1.31 79-4 25.2-2.68 50.72-4.26 75-8s48.39-6.32 71.67-11.33c23.28-5 45.48-8.17 67.55-15.45C859.29 31.94 882.41 24.45 906 25c23.59.55 41.26 9.19 56.75 26.25 15.5 17.06 22.32 32.6 29.03 53.97 6.7 21.38 8.09 52.61 4.22 74.78s-11.11 40.23-26.25 56.75c-15.14 16.52-29.85 26.97-52.82 30.18-22.98 3.21-49.99-5.6-70.93-12.93 2.06 23.8.23 46.99 1.98 71.02 1.74 24.04-1.19 48.91-.98 72.98.21 24.07-1.16 47.05 0 71 1.16 23.95-26.6 23.13-40 34 14.4 8.29 39.76 8.81 40 31 .24 22.19-.84 47.64 1 70 1.84 22.36-25.17 23.14-38 33 23.33 9.27 41.01 23.04 37 51-4.01 27.96 3.51 57.2 2 84 30.22-7.21 68.39-15.14 96.7 1.31 28.3 16.44 37.79 40.98 45.29 70.7 7.5 29.71 5.2 70.24-9.3 97.68-14.49 27.45-30.21 45.72-61.76 54.24-31.55 8.51-70.17-3.33-100.94-11.92-30.76-8.6-63.18-14.88-96.01-19.99-32.83-5.1-66.57-13.39-100.98-16.02-34.41-2.63-75.15-4.61-110-4-34.85.61-74.18 4.22-108.22 7.78-34.05 3.56-71.01 7.06-103.45 13.55-32.44 6.48-65.71 10.28-96.01 19.99-30.3 9.72-71.2 18.65-101.99 10.35-30.8-8.29-47.11-27.3-62.1-53.9-14.99-26.6-17.43-69.2-10.9-99.44 6.53-30.24 20.37-51.22 48.36-67.64 28-16.41 67.64-5.73 99.31-3.69 3.3-14.91-5.79-34.41-2.07-48.07 3.72-13.67 18.84-18.09 30.07-21.93-15.37-6.98-28.89-16.49-28-36 .89-19.51-5.09-41.15-3-61s19.48-22.47 35-29c-20.47-7.29-33.78-18.61-32-42 1.78-23.39-1.71-47.99 0-72 1.71-24.01-1.38-48.77-1.98-72.02-.59-23.26-1.29-50.53.96-73 2.24-22.48-3.91-47.8 10.02-64.98Z"/>
  <path fill="none" stroke="#51565B" stroke-opacity=".98" stroke-width=".3" d="M186 250c2.15-1.93 6.13-6.18 9-3-3.26.55-5.95 2.76-9 4-13.93 17.18-7.78 42.5-10.02 64.98-2.25 22.47-1.55 49.74-.96 73 .6 23.25 3.69 48.01 1.98 72.02-1.71 24.01 1.78 48.61 0 72s11.53 34.71 32 42c-15.52 6.53-32.91 9.15-35 29-2.09 19.85 3.89 41.49 3 61-.89 19.51 12.63 29.02 28 36-11.23 3.84-26.35 8.26-30.07 21.93-3.72 13.66 5.37 33.16 2.07 48.07-31.67-2.04-71.31-12.72-99.31 3.69-27.99 16.42-41.83 37.4-48.36 67.64-6.53 30.24-4.09 72.84 10.9 99.44 14.99 26.6 31.3 45.61 62.1 53.9 30.79 8.3 71.69-.63 101.99-10.35 30.3-9.71 63.57-13.51 96.01-19.99 32.44-6.49 69.4-9.99 103.45-13.55 34.04-3.56 73.37-7.17 108.22-7.78 34.85-.61 75.59 1.37 110 4s68.15 10.92 100.98 16.02c32.83 5.11 65.25 11.39 96.01 19.99 30.77 8.59 69.39 20.43 100.94 11.92 31.55-8.52 47.27-26.79 61.76-54.24 14.5-27.44 16.8-67.97 9.3-97.68-7.5-29.72-16.99-54.26-45.29-70.7-28.31-16.45-66.48-8.52-96.7-1.31 1.51-26.8-6.01-56.04-2-84s-13.67-41.73-37-51c12.83-9.86 39.84-10.64 38-33-1.84-22.36-.76-47.81-1-70-.24-22.19-25.6-22.71-40-31 13.4-10.87 41.16-10.05 40-34-1.16-23.95.21-46.93 0-71s2.72-48.94.98-72.98c-1.75-24.03.08-47.22-1.98-71.02 20.94 7.33 47.95 16.14 70.93 12.93 22.97-3.21 37.68-13.66 52.82-30.18S992.13 202.17 996 180c3.87-22.17 2.48-53.4-4.22-74.78-6.71-21.37-13.53-36.91-29.03-53.97C947.26 34.19 929.59 25.55 906 25c-23.59-.55-46.71 6.94-68.78 14.22s-44.27 10.45-67.55 15.45C746.39 59.68 722.28 62.26 698 66s-49.8 5.32-75 8c-25.2 2.69-52.94 2.88-79 4a968.12 968.12 0 0 1-81 0c-26.02-1.14-53.24-2.08-78.33-4.67-25.09-2.59-50.67-4.5-74.66-8.34-23.99-3.83-47.79-6.61-70.34-12.66-22.55-6.05-45.81-7.07-66.59-16.41-20.79-9.33-49.84-13.56-72.06-8.9-22.21 4.67-34.57 16.93-49.1 33.9C37.38 77.88 33.38 98.18 28 120c-5.38 21.82-1.18 53.37 4.07 74.93 5.26 21.55 16.11 34.68 32.18 50.82 16.06 16.15 35.5 22.84 57.73 23.23 22.23.38 42.14-20.96 64.02-18.98m667-11c-64.41-22.04-131.45-36.26-197-53-38.14-9.74-77.19-10.12-117-14-39.81-3.88-85.49 1.25-124 6-38.51 4.74-72.96 12.68-110 22-21.96 5.52-41.98 10.82-63.68 18.32-21.7 7.5-45.12 10.22-68.32 13.68-24.46 3.65-52.98 27.67-78.07 14.07-25.09-13.59-38.43-30.6-45.86-57.14-7.43-26.55-7.83-65.09 2.71-90.15 10.54-25.07 20.68-44.85 48.29-54.71 27.62-9.85 58.47 4.83 85.15 12.71C211.91 64.65 241.32 69.23 270 75c28.68 5.76 59.84 9.03 90.22 12.78 30.39 3.75 65.1 4.65 96.78 6.22 31.68 1.57 68.25 1.16 100 0 31.75-1.15 66.16-2.8 96.67-6.33 30.51-3.53 61.87-7.27 91-12 29.13-4.73 58.04-11 85.35-17.65C857.34 51.38 887.51 36.46 916 42c28.49 5.54 40.27 27.03 52.31 50.69 12.03 23.67 15.68 62.39 9.69 89.31-5.98 26.93-18.91 45.2-43.08 59.92-24.16 14.73-56.81 5.67-81.92-2.92m-267-35c84.02 7.88 162.62 41.9 244 60-2.02 14.61-1.7 29.23-1 44 .99 12.48 2.69 24.81 2 38-.69 13.19.13 26.73 0 40s-.3 27.8 0 41-.98 27.08 0 40c.98 12.92-15.95 12.06-24.07 15.93-8.12 3.86-21.16 11.28-18.15 21.29 3.01 10.01 12.25 14.93 21.9 18.1 9.65 3.17 22.18 7.51 20.32 20.68-1.86 13.17.62 27.51 0 40-.62 12.49 3.31 27.46-9.68 30.32-12.99 2.87-16.88 6.84-26.07 14.93-9.19 8.09-.88 19.49 7.83 23.67 8.72 4.18 18.16 9.11 25.92 15.08 1.66 14.33.74 29.32 1 44s.03 29.06-1 43c-1.03 13.94-19.35 11.48-31.01 14.99-11.65 3.51-25.15 5.07-37.21 8.79-12.06 3.72-25.09 5.72-37.78 8.22-12.69 2.5-25.25 5.22-38.22 7.78-12.98 2.56-26.4 4.04-39.78 6.22-13.39 2.17-26.93 4.08-41 5-14.07.92-29.67 1.13-44 2-14.33.87-29.26 1.4-44 1-14.74-.4-31.41.53-46 0s-28.8-2.07-43.01-2.99c-14.21-.93-28.34-2.07-42.01-3.99-13.68-1.91-27.71-2.76-40.98-5.02a2285.53 2285.53 0 0 1-39.01-6.99 546.55 546.55 0 0 1-37.66-8.34c-12.46-3.26-23.97-6.66-36.4-9.6-12.44-2.94-24.76-5.26-36.93-9.07 2.38-9.49-2.41-24.81-1.93-33.07.49-8.27 13.48-13.46 20.95-13.91 7.48-.44 19.95-11.85 12.67-20.71-7.27-8.87-11.13-8.99-21.92-13.08-10.79-4.09-11.07-13.77-9.78-24.24 1.3-10.47-2.5-20.98-.99-31.99 1.51-11.01-3.68-21.88 5.23-27.77 8.91-5.89 17.25-4.67 24.52-11.48 7.27-6.81 3.21-19.65-1.53-26.97-4.73-7.33-18.29-4.93-24.3-11.7-6-6.78-3.41-20.8-3.92-31.08-.51-10.28.25-23.88 0-35-.25-11.12.16-24.57 0-36s.17-23.52 0-35-1.9-22.61 0-34-3.1-21.57-1.22-32.22c1.88-10.66.87-22.93 2.22-33.78.24-12.22-3.35-31.01 1-42 4.35-10.99 22.77-7.08 32.68-12.32 9.91-5.25 22.95-7.12 34-11 11.05-3.89 23.93-6.75 35.39-10.61 11.46-3.85 23.69-6.15 35.6-9.4 11.91-3.24 23.73-5.92 36-9 12.27-3.07 23.68-6.18 36.55-8.45 12.87-2.27 28.34-3.3 41.78-4.22 22.53-1.53 45.99-.01 69-1 23.01-.99 47.43-.12 70 2m271 774c-43.98-13.54-83.41-21.66-129.22-30.78A1063.62 1063.62 0 0 0 586 929c-48.49-3-104.66-1.51-153 2s-94.46 12.68-141.07 18.93c-46.61 6.24-85.95 20.1-130.93 30.07-19.8 4.39-46.54 2.59-64.23-5.77-17.69-8.36-28.52-19.25-37.69-36.31-9.18-17.05-16.43-38.7-16.06-58.94.38-20.25 3.69-42.62 13.23-60.73 9.55-18.1 20.64-25.94 39.98-34.02 19.34-8.08 45.79 2.77 65.77 2.77 4.51 0 9.2.32 13 1 27.07 1.84 50.93 14.43 77.68 20.32 26.75 5.89 53.14 12.74 81.33 16.67 28.19 3.94 55.21 11.45 84.99 13.01 29.78 1.56 64.25 4 95 4 3.08-.3 7.25-1 11-1 42.17 0 88.3-5.51 129-11 40.71-5.48 79.64-13.23 119.02-21.98 39.39-8.74 74.35-19.73 114-27 39.66-7.26 73.15 13.5 84.76 52.2 11.6 38.71 9.16 79.56-12.53 114.03-21.7 34.46-64.6 42.34-102.25 30.75Z"/>
  <path fill="none" stroke="#F9FAF8" stroke-width=".3" d="M173 232c8.18-5.39 7.66-20.04 19.68-21.32 12.01-1.29 23.55-3.93 35.54-6.46 11.99-2.52 23.99-3.32 36.78-4.22 12.79-.9 27.64-.36 40 0 37.04-9.32 71.49-17.26 110-22 38.51-4.75 84.19-9.88 124-6 39.81 3.88 78.86 4.26 117 14 8.5-1.23 21.85-1.09 33-1 11.15.09 24.11.45 35 1s21.78 2.35 32 4c10.23 1.65 19.39 5.87 29.07 7.93 9.69 2.05 19.69 4.36 28.61 7.39 8.91 3.04 17.16 5.66 24.07 11.93S850.8 230.52 853 239c25.11 8.59 57.76 17.65 81.92 2.92 24.17-14.72 37.1-32.99 43.08-59.92 5.99-26.92 2.34-65.64-9.69-89.31C956.27 69.03 944.49 47.54 916 42c-28.49-5.54-58.66 9.38-85.98 16.02-27.31 6.65-56.22 12.92-85.35 17.65-29.13 4.73-60.49 8.47-91 12C623.16 91.2 588.75 92.85 557 94c-31.75 1.16-68.32 1.57-100 0-31.68-1.57-66.39-2.47-96.78-6.22C329.84 84.03 298.68 80.76 270 75c-28.68-5.77-58.09-10.35-84.78-18.22-26.68-7.88-57.53-22.56-85.15-12.71-27.61 9.86-37.75 29.64-48.29 54.71-10.54 25.06-10.14 63.6-2.71 90.15 7.43 26.54 20.77 43.55 45.86 57.14 25.09 13.6 53.61-10.42 78.07-14.07M912 53c18.99 3.4 29.7 22.05 39.3 38.7 9.61 16.64 12.76 44.15 13.7 65.3.94 21.15-8.76 41.08-19.75 59.25-11 18.17-36.48 24.36-55.48 15.98-19-8.38-30.62-19.2-40.52-37.48-9.91-18.27-16.36-40.97-15.32-61.82 1.04-20.85 7.4-41.8 21.82-57.18C870.17 60.37 890.16 49.09 912 53M61 128c2.96-18.58 8.58-35.61 21-50 18.95-21.96 52.09-33.64 75.25-12.25C180.4 87.15 191.84 113.97 190 144c-1.84 30.03-15.44 53.68-34.75 76.25-19.31 22.57-55.73 21.64-74.5-3C61.98 192.61 55.94 159.8 61 128Z"/>
  <path fill="none" stroke="#51565B" stroke-width=".3" d="M912 53c-21.84-3.91-41.83 7.37-56.25 22.75-14.42 15.38-20.78 36.33-21.82 57.18-1.04 20.85 5.41 43.55 15.32 61.82 9.9 18.28 21.52 29.1 40.52 37.48 19 8.38 44.48 2.19 55.48-15.98 10.99-18.17 20.69-38.1 19.75-59.25-.94-21.15-4.09-48.66-13.7-65.3-9.6-16.65-20.31-35.3-39.3-38.7m-35 147c23.82 6.19 55.99 4.12 69.75-19.25 13.76-23.37 8.32-52.07-8-72.5C922.42 87.83 890.83 84.91 867 91c4.11-8.08 11.84-12.58 20.23-16.77 8.39-4.19 18.02-9.18 27.79-10.21 9.78-1.03 18.28 5.72 24.73 13.23 6.45 7.51 8.86 14.67 12.57 24.43 3.71 9.76 4.6 19.28 7.66 30.34 3.06 11.07-1.44 22.38-1.98 33.98-.54 11.61-1.96 19.41-5.92 31.08-3.97 11.66-13.28 10.31-22.77 15.23-9.5 4.91-19.44 6.97-29.38 2.76-9.94-4.2-17.58-5.13-22.93-15.07m12-20c-11.11-1.95-24.49.08-29.3-12.7-4.82-12.77-7.5-22.08-4.71-35.31 2.79-13.23 15.44-12.57 25.01-16.99 8.2-3.79 18.95-9.75 28.07-5.07 9.12 4.68 15.2 8.76 20.23 17.77 5.03 9.01 7.81 18.92 5.92 29.52-1.89 10.6-6.88 15.2-15.47 22.53-8.58 7.34-20.51 1.87-29.75.25ZM82 78c-.18.12 3.04-1.35 4-2 7.85-5.3 14.63-13.73 24.22-10.22 9.59 3.5 18.55 5.9 27.01 10.99S153.11 84.65 159 93c-24.31-10.17-51.4-7.73-70.75 11.25s-23.36 45.81-13.93 71.43c9.44 25.61 41.45 31.63 65.68 25.32-7.66 11.46-29.22 19.86-42.22 13.22-13-6.63-21.95-17.73-29.1-30.9-7.16-13.16-6.42-37.54-6.68-53.32-.11-.89-.93-1.6-1-2-5.06 31.8.98 64.61 19.75 89.25s55.19 25.57 74.5 3c19.31-22.57 32.91-46.22 34.75-76.25 1.84-30.03-9.6-56.85-32.75-78.25C134.09 44.36 100.95 56.04 82 78m60 36c10.22 3.5 26.37 3.34 26 16-.37 12.66.11 25.85-3.98 38.02C159.94 180.2 145.31 178.9 135 181c-11.89 2.42-22.4 8.85-32.25-1.75C92.91 168.65 88.94 158.76 91 145c2.06-13.76 5.43-21.24 15.75-30.25 10.31-9.02 23.95-4.61 35.25-.75Z"/>
  <path fill="none" stroke="#958F91" stroke-width=".3" d="M86 76c-14.39 12.54-22.29 36.32-24 54 .26 15.78-.48 40.16 6.68 53.32 7.15 13.17 16.1 24.27 29.1 30.9 13 6.64 34.56-1.76 42.22-13.22-24.23 6.31-56.24.29-65.68-25.32-9.43-25.62-5.42-52.45 13.93-71.43C107.6 85.27 134.69 82.83 159 93c-5.89-8.35-13.31-11.14-21.77-16.23-8.46-5.09-17.42-7.49-27.01-10.99C100.63 62.27 93.85 70.7 86 76Z"/>
  <path fill="none" stroke="#959091" stroke-width=".3" d="M877 200c5.35 9.94 12.99 10.87 22.93 15.07 9.94 4.21 19.88 2.15 29.38-2.76 9.49-4.92 18.8-3.57 22.77-15.23 3.96-11.67 5.38-19.47 5.92-31.08.54-11.6 5.04-22.91 1.98-33.98-3.06-11.06-3.95-20.58-7.66-30.34-3.71-9.76-6.12-16.92-12.57-24.43-6.45-7.51-14.95-14.26-24.73-13.23-9.77 1.03-19.4 6.02-27.79 10.21-8.39 4.19-16.12 8.69-20.23 16.77 23.83-6.09 55.42-3.17 71.75 17.25 16.32 20.43 21.76 49.13 8 72.5-13.76 23.37-45.93 25.44-69.75 19.25Z"/>
  <path fill="none" stroke="#51565B" stroke-width=".3" d="M82 78c-12.42 14.39-18.04 31.42-21 50 .07.4.89 1.11 1 2 1.71-17.68 9.61-41.46 24-54-.96.65-4.18 2.12-4 2Z"/>
  <path fill="none" stroke="#F7F8F6" stroke-width=".3" d="M880 115c-8.45 8.53-5.89 25.71-5.22 36.22.66 10.51 5.32 22.36 14.22 28.78 9.24 1.62 21.17 7.09 29.75-.25 8.59-7.33 13.58-11.93 15.47-22.53 1.89-10.6-.89-20.51-5.92-29.52-5.03-9.01-11.11-13.09-20.23-17.77-9.12-4.68-19.87 1.28-28.07 5.07m28 16c16.3 3.38 12.6 35.72-2 35-14.61-.73-17.91-39.12 2-35Z"/>
  <path fill="none" stroke="#F8F9F7" stroke-width=".3" d="M135 181c5.19-4.31 7.45-12.05 9.98-18.02 2.52-5.98 5.36-19.31 3.02-25.98-2.34-6.67-1.68-17.69-6-23-11.3-3.86-24.94-8.27-35.25.75C96.43 123.76 93.06 131.24 91 145c-2.06 13.76 1.91 23.65 11.75 34.25 9.85 10.6 20.36 4.17 32.25 1.75m-14-50c10.31 2.02 8.41 13.88 5.68 23.68-2.73 9.8-13.97 9.58-15.66-.7-1.67-10.29-2.39-25.41 9.98-22.98Z"/>
  <path fill="none" stroke="#D6D6D4" stroke-width=".3" d="M135 181c10.31-2.1 24.94-.8 29.02-12.98 4.09-12.17 3.61-25.36 3.98-38.02.37-12.66-15.78-12.5-26-16 4.32 5.31 3.66 16.33 6 23 2.34 6.67-.5 20-3.02 25.98-2.53 5.97-4.79 13.71-9.98 18.02Z"/>
  <path fill="none" stroke="#D5D5D3" stroke-width=".3" d="M889 180c-8.9-6.42-13.56-18.27-14.22-28.78-.67-10.51-3.23-27.69 5.22-36.22-9.57 4.42-22.22 3.76-25.01 16.99-2.79 13.23-.11 22.54 4.71 35.31 4.81 12.78 18.19 10.75 29.3 12.7Z"/>
  <path fill="none" stroke="#51565B" stroke-width=".3" d="M121 131c-12.37-2.43-11.65 12.69-9.98 22.98 1.69 10.28 12.93 10.5 15.66.7 2.73-9.8 4.63-21.66-5.68-23.68Zm787 0c-19.91-4.12-16.61 34.27-2 35 14.6.72 18.3-31.62 2-35Z"/>
  <path fill="none" stroke="#C3C1C1" stroke-width=".3" d="M656 186c65.55 16.74 132.59 30.96 197 53-2.2-8.48-8.34-15.48-15.25-21.75s-15.16-8.89-24.07-11.93c-8.92-3.03-18.92-5.34-28.61-7.39-9.68-2.06-18.84-6.28-29.07-7.93-10.22-1.65-21.11-3.45-32-4a874.7 874.7 0 0 0-35-1c-11.15-.09-24.5-.23-33 1Zm-483 46c23.2-3.46 46.62-6.18 68.32-13.68 21.7-7.5 41.72-12.8 63.68-18.32-12.36-.36-27.21-.9-40 0s-24.79 1.7-36.78 4.22c-11.99 2.53-23.53 5.17-35.54 6.46-12.02 1.28-11.5 15.93-19.68 21.32Z"/>
  <path fill="none" stroke="#F9FAF8" stroke-width=".3" d="M447 203c-19.78 8.54-41.83 19-63.23 26.77s-45.08 15.67-66.79 23.21c-21.72 7.53-41.9 17.94-62.67 27.33-20.78 9.38-39.45 20.59-60.31 29.69-1.35 10.85-.34 23.12-2.22 33.78-1.88 10.65 3.12 20.83 1.22 32.22-1.9 11.39-.17 22.52 0 34s-.16 23.57 0 35-.25 24.88 0 36c.25 11.12-.51 24.72 0 35 .51 10.28-2.08 24.3 3.92 31.08 6.01 6.77 19.57 4.37 24.3 11.7 4.74 7.32 8.8 20.16 1.53 26.97-7.27 6.81-15.61 5.59-24.52 11.48-8.91 5.89-3.72 16.76-5.23 27.77-1.51 11.01 2.29 21.52.99 31.99-1.29 10.47-1.01 20.15 9.78 24.24s14.65 4.21 21.92 13.08c7.28 8.86-5.19 20.27-12.67 20.71-7.47.45-20.46 5.64-20.95 13.91-.48 8.26 4.31 23.58 1.93 33.07 12.17 3.81 24.49 6.13 36.93 9.07 12.43 2.94 23.94 6.34 36.4 9.6a546.55 546.55 0 0 0 37.66 8.34c12.92 2.43 25.74 4.73 39.01 6.99s27.3 3.11 40.98 5.02c13.67 1.92 27.8 3.06 42.01 3.99 14.21.92 28.42 2.46 43.01 2.99 14.59.53 31.26-.4 46 0 14.74.4 29.67-.13 44-1 14.33-.87 29.93-1.08 44-2 14.07-.92 27.61-2.83 41-5 13.38-2.18 26.8-3.66 39.78-6.22 12.97-2.56 25.53-5.28 38.22-7.78 12.69-2.5 25.72-4.5 37.78-8.22 12.06-3.72 25.56-5.28 37.21-8.79 11.66-3.51 29.98-1.05 31.01-14.99a472.04 472.04 0 0 0 1-43c-.26-14.68.66-29.67-1-44-7.76-5.97-17.2-10.9-25.92-15.08-8.71-4.18-17.02-15.58-7.83-23.67 9.19-8.09 13.08-12.06 26.07-14.93 12.99-2.86 9.06-17.83 9.68-30.32.62-12.49-1.86-26.83 0-40 1.86-13.17-10.67-17.51-20.32-20.68-9.65-3.17-18.89-8.09-21.9-18.1-3.01-10.01 10.03-17.43 18.15-21.29 8.12-3.87 25.05-3.01 24.07-15.93-.98-12.92.3-26.8 0-40s-.13-27.73 0-41-.69-26.81 0-40c.69-13.19-1.01-25.52-2-38-4.38-7.69-17.71-7.93-24.69-13.3-6.99-5.38-18.68-7.34-26.39-12.62-7.7-5.29-16.77-8.25-25.15-12.85-8.37-4.6-18.88-7.01-27.45-11.55-8.56-4.55-16.43-9.33-26-12-9.57-2.68-18.81-7.78-28.4-10.6-9.58-2.83-18.52-6.74-27.99-10.01-9.47-3.27-19.36-7.1-28.94-10.06-9.58-2.96-18.86-8-27.99-11.01-22.57-2.12-46.99-2.99-70-2-23.01.99-46.47-.53-69 1m166 119c.7 4.3.6 8.78 0 13-.52 13.65-3.53 34.47-19.02 38.98-15.5 4.5-32.19-6.54-47.05-8.91-14.87-2.37-24.18-15.25-34.93-24.07-2.39 38.14 36.36 59.75 45 94 10.28-4.99 23.2-6.51 33.22-11.78 10.02-5.26 18.3-9.99 26.03-18.97 7.73-8.98 12.49-16.91 18.06-27.94 5.56-11.04 7.31-20.49 11.62-33.38 4.3-12.9 19.91-5.07 27.32 2.82 7.41 7.89 16.24 13.13 23.05 21.95 6.82 8.81 14.59 15.87 20.47 25.53 5.88 9.66 11.2 18.1 16.15 28.85 4.95 10.74 8.84 21.71 12.4 33.6 3.56 11.88 4.81 25.39 6.68 38.32 1.87 12.94.33 30.43-.99 43.01-1.33 12.57-6.75 24.65-8.94 36.06-2.19 11.42-12.8 27.72-17 12.86-4.19-14.87-.63-26.86-5.06-39.94-4.44-13.08-6.96-20.16-15.76-30.24-8.8-10.08-22.7-10.48-34.27-6.77-11.58 3.7-17.51 13.57-27.98 18.02-3.45-13.69-5.35-23.24-15.25-34.75-9.91-11.5-22.04-11.2-37.42-11.92-15.38-.72-27.65 7.92-26.26 23.74 1.4 15.83-8.94 23.92-13.82 36.18-4.89 12.26-13.89 19.72-21 30-7.12 10.28-15.37 17.28-23.17 26.83-7.8 9.55-16.93 15.69-24.33 25.67-7.39 9.98-13.09 25.05-8.97 37.47 4.12 12.42 12.38 19.91 23.92 26.09 11.53 6.17 28.66 7.88 40.3.69-7.75-9.71-20.53-18.01-22-31 46.8-6.71 79.95 30.43 123 36-7.77 12.24-16.8 21.89-28.25 31.75s-22.18 17.78-36.98 23.02c-14.8 5.24-37.7 5.8-53.77 4.23-16.07-1.56-35.76-4.58-49.68-11.32-13.92-6.75-25.32-13.04-35.07-24.93-9.75-11.88-23.22-18.27-25.18-34.82-1.95-16.56-28.42-12.36-32.84-27.16-4.42-14.8 20.35-22.56 26.69-33.85 6.33-11.29-25.53-23.87-17.99-35.99 7.53-12.13 30.63-9.42 41.32-18.68 10.69-9.27-18.66-31.36-1.17-37.17 17.48-5.82 36.82-2.81 33.92-27.08 0-3 1.25-9.33 0-12-4.57-6.66-18.31-5.26-26-7-7.69-1.74-19.83 2.39-26.69 6.31a42.07 42.07 0 0 0-16.23 16.77c-3.9 7.17-8.58 16.43-9.08 24.92-14.34-12.91-33.05-29.77-53.08-18.08-20.02 11.7-24.24 33.41-23.92 55.08 0 6.35.38 13.41-1 19-2.74 11.05-11.34 9.64-14.3.31-2.97-9.34-6.36-14.33-8.48-23.53-2.11-9.2-4.88-17.58-6-27A398.94 398.94 0 0 1 271 505c-.38-9.53 1.22-20.84 2-30s4.77-17.77 6.78-26.22c2.01-8.46 5.36-15.51 8.99-23.01 3.63-7.49 6.87-14.02 11-21s8.15-13.53 12.98-20.02a200.09 200.09 0 0 1 14.5-17.5c5.65-6.13 10.14-9.63 16.5-15.5 6.37-5.87 10.67-9.04 18.33-14.67 7.66-5.63 15.47.71 15.91 9.93.44 9.22 4.67 17.73 7.33 25.67 2.66 7.94 7.63 13.97 11.43 20.57 3.81 6.6 9.53 12.36 14.5 17.5 4.96 5.14 14.46 10.91 19.83 13.17 5.36 2.27 19.78 11.53 20.89 5.05 1.12-6.47-2.92-17.87-10.22-21.72a15.94 15.94 0 0 1-6.42-21.92c4.67-8.63 3.87-18.53-3.56-23.1s-12.4-7.02-18.52-13.48c-6.12-6.46 5.63-14.17 8.5-20 2.87-5.82 13.12-10.63 15-17 1.88-6.37-7.23-11.23-10.67-18.83-3.45-7.6-2.06-16.59 8-18.84 10.05-2.26 14.08-7.03 23.6-8.4 9.51-1.38 17.52-6.9 12.4-14.76-5.13-7.85-12.06-12.47-10.08-21.92 1.99-9.45 15.36-7.99 21.7-3.7 6.34 4.3 7.8 13.8 16.55 16.45 8.74 2.66.33-10.88 2.53-18.97 2.2-8.09 13.5-9.34 19.47-3.03 5.97 6.32 6.5 15.37 12.5 20.5 6.01 5.12 17.43 3.09 23.94 8.06 6.52 4.96 13.57 6.49 19.06 12.94 5.49 6.44 11.87 11.08 13.56 19.44 1.69 8.37 3.85 16.56 12.37 19.63 8.52 3.07 10.9 14.03 11.32 21.68Z"/>
  <path fill="none" stroke="#C3C1C1" stroke-width=".3" d="M194 310c20.86-9.1 39.53-20.31 60.31-29.69 20.77-9.39 40.95-19.8 62.67-27.33 21.71-7.54 45.39-15.44 66.79-23.21C405.17 222 427.22 211.54 447 203c-13.44.92-28.91 1.95-41.78 4.22-12.87 2.27-24.28 5.38-36.55 8.45-12.27 3.08-24.09 5.76-36 9-11.91 3.25-24.14 5.55-35.6 9.4-11.46 3.86-24.34 6.72-35.39 10.61-11.05 3.88-24.09 5.75-34 11-9.91 5.24-28.33 1.33-32.68 12.32-4.35 10.99-.76 29.78-1 42Zm635-2c-.7-14.77-1.02-29.39 1-44-81.38-18.1-159.98-52.12-244-60 9.13 3.01 18.41 8.05 27.99 11.01 9.58 2.96 19.47 6.79 28.94 10.06 9.47 3.27 18.41 7.18 27.99 10.01 9.59 2.82 18.83 7.92 28.4 10.6 9.57 2.67 17.44 7.45 26 12 8.57 4.54 19.08 6.95 27.45 11.55 8.38 4.6 17.45 7.56 25.15 12.85 7.71 5.28 19.4 7.24 26.39 12.62 6.98 5.37 20.31 5.61 24.69 13.3Z"/>
  <path fill="none" stroke="#51565B" stroke-width=".3" d="M302 585c.75-6.07.47-13.55 1-19-.32-21.67 3.9-43.38 23.92-55.08 20.03-11.69 38.74 5.17 53.08 18.08.5-8.49 5.18-17.75 9.08-24.92a42.07 42.07 0 0 1 16.23-16.77c6.86-3.92 19-8.05 26.69-6.31 7.69 1.74 21.43.34 26 7 2.36 3.44.32 8.68 0 12 2.9 24.27-16.44 21.26-33.92 27.08-17.49 5.81 11.86 27.9 1.17 37.17-10.69 9.26-33.79 6.55-41.32 18.68-7.54 12.12 24.32 24.7 17.99 35.99-6.34 11.29-31.11 19.05-26.69 33.85 4.42 14.8 30.89 10.6 32.84 27.16 1.96 16.55 15.43 22.94 25.18 34.82 9.75 11.89 21.15 18.18 35.07 24.93 13.92 6.74 33.61 9.76 49.68 11.32 16.07 1.57 38.97 1.01 53.77-4.23 14.8-5.24 25.53-13.16 36.98-23.02 11.45-9.86 20.48-19.51 28.25-31.75-43.05-5.57-76.2-42.71-123-36 1.47 12.99 14.25 21.29 22 31-11.64 7.19-28.77 5.48-40.3-.69-11.54-6.18-19.8-13.67-23.92-26.09-4.12-12.42 1.58-27.49 8.97-37.47 7.4-9.98 16.53-16.12 24.33-25.67 7.8-9.55 16.05-16.55 23.17-26.83 7.11-10.28 16.11-17.74 21-30 4.88-12.26 15.22-20.35 13.82-36.18-1.39-15.82 10.88-24.46 26.26-23.74 15.38.72 27.51.42 37.42 11.92 9.9 11.51 11.8 21.06 15.25 34.75 10.47-4.45 16.4-14.32 27.98-18.02 11.57-3.71 25.47-3.31 34.27 6.77 8.8 10.08 11.32 17.16 15.76 30.24 4.43 13.08.87 25.07 5.06 39.94 4.2 14.86 14.81-1.44 17-12.86 2.19-11.41 7.61-23.49 8.94-36.06 1.32-12.58 2.86-30.07.99-43.01-1.87-12.93-3.12-26.44-6.68-38.32-3.56-11.89-7.45-22.86-12.4-33.6-4.95-10.75-10.27-19.19-16.15-28.85-5.88-9.66-13.65-16.72-20.47-25.53-6.81-8.82-15.64-14.06-23.05-21.95-7.41-7.89-23.02-15.72-27.32-2.82-4.31 12.89-6.06 22.34-11.62 33.38-5.57 11.03-10.33 18.96-18.06 27.94-7.73 8.98-16.01 13.71-26.03 18.97-10.02 5.27-22.94 6.79-33.22 11.78-8.64-34.25-47.39-55.86-45-94 10.75 8.82 20.06 21.7 34.93 24.07 14.86 2.37 31.55 13.41 47.05 8.91 15.49-4.51 18.5-25.33 19.02-38.98.16-4.27.23-8.73 0-13-.42-7.65-2.8-18.61-11.32-21.68-8.52-3.07-10.68-11.26-12.37-19.63-1.69-8.36-8.07-13-13.56-19.44-5.49-6.45-12.54-7.98-19.06-12.94-6.51-4.97-17.93-2.94-23.94-8.06-6-5.13-6.53-14.18-12.5-20.5-5.97-6.31-17.27-5.06-19.47 3.03-2.2 8.09 6.21 21.63-2.53 18.97-8.75-2.65-10.21-12.15-16.55-16.45-6.34-4.29-19.71-5.75-21.7 3.7-1.98 9.45 4.95 14.07 10.08 21.92 5.12 7.86-2.89 13.38-12.4 14.76-9.52 1.37-13.55 6.14-23.6 8.4-10.06 2.25-11.45 11.24-8 18.84 3.44 7.6 12.55 12.46 10.67 18.83-1.88 6.37-12.13 11.18-15 17-2.87 5.83-14.62 13.54-8.5 20 6.12 6.46 11.09 8.91 18.52 13.48s8.23 14.47 3.56 23.1a15.94 15.94 0 0 0 6.42 21.92c7.3 3.85 11.34 15.25 10.22 21.72-1.11 6.48-15.53-2.78-20.89-5.05-5.37-2.26-14.87-8.03-19.83-13.17-4.97-5.14-10.69-10.9-14.5-17.5-3.8-6.6-8.77-12.63-11.43-20.57-2.66-7.94-6.89-16.45-7.33-25.67-.44-9.22-8.25-15.56-15.91-9.93-7.66 5.63-11.96 8.8-18.33 14.67-6.36 5.87-10.85 9.37-16.5 15.5a200.09 200.09 0 0 0-14.5 17.5c-4.83 6.49-8.85 13.04-12.98 20.02-4.13 6.98-7.37 13.51-11 21-3.63 7.5-6.98 14.55-8.99 23.01-2.01 8.45-6 17.06-6.78 26.22-.78 9.16-2.38 20.47-2 30 .38 9.53 1.1 20.35 2.22 29.78 1.12 9.42 3.89 17.8 6 27 2.12 9.2 5.51 14.19 8.48 23.53 2.96 9.33 11.56 10.74 14.3-.31m222 129h11c9.88 0 14.34 2.38 5.92 6.92-8.41 4.55-11.72 3.59-19.92 5.08a55.6 55.6 0 0 1-22.67-.33c-7.88-1.63-12.05-2.05-20.01-4.99-7.96-2.94-8.7-2.06-17.4-7.6-8.7-5.54-19.7-16-25.22-24.78-5.53-8.77-5.72-7.26-9.7-15.3-4.75-4.8-7.61-13.02-7-21 .91-11.84-2.54-28.49 0-40 2.54-11.51 7.08-19.73 12.77-29.23 5.69-9.49 10.22-16.25 17.48-24.52s13.17-15.17 17.67-25.33c4.51-10.15 8.26-19.63 11.06-30.94 2.79-11.32 3.34-25.93 2.02-37.98-1.31-12.06-2.82-25.04-6.78-36.22-3.96-11.19-5.82-20.91-10.15-31.85-4.32-10.95-5.76-21.99-8.4-33.6-2.64-11.62-3.22-27.71-1.89-39.55 1.33-11.84 4.09-21.87 10.99-31.01s12.45-14.07 21.93-20.07 20.53-10.26 32.3-10.7c11.77-.44 23.92 2.71 34.08 7.92 10.16 5.21 15.2 11.87 19.84 22.16 4.65 10.28 5.92 19.44 17.16 25.84 11.24 6.4 5.84 19.1 2.99 31.15-2.84 12.05-16.7 2.71-26.74.6-10.05-2.11-21.36-6.73-30.08-11.92-8.71-5.2-14.79-15.49-24-19-9.2-3.52-15.79 11.29-18.24 20.26-2.45 8.97.1 26.12 4.76 35.22 4.66 9.09 9.1 19.03 15.48 27.52 6.38 8.48 10.63 16.51 16.06 25.95 5.42 9.43 8.88 19.87 11.02 30.97 2.14 11.1 2.59 29.05.67 40.33a124.8 124.8 0 0 1-9.93 32.07c-4.62 9.81-10.15 17.1-16.82 25.18-6.68 8.08-13.71 14.46-21 22-7.3 7.54-13.45 13.81-20 22-6.55 8.18-11.42 15.88-16.56 25.45-5.13 9.56-7.89 24.34-5.7 35.31 2.19 10.96 5.08 20.88 12.76 29.24 7.69 8.35 14.21 13.01 24.48 17.52S512.29 714 524 714Z"/>
  <path fill="none" stroke="#51565B" stroke-opacity=".49" stroke-width=".3" d="M186 250s.18.93 0 1c3.05-1.24 5.74-3.45 9-4-2.87-3.18-6.85 1.07-9 3Z"/>
  <path fill="none" stroke="#F9FAF8" stroke-width=".3" d="M419 652c.89 6.39 4.14 15.22 7 21 3.98 8.04 4.17 6.53 9.7 15.3 5.52 8.78 16.52 19.24 25.22 24.78 8.7 5.54 9.44 4.66 17.4 7.6 7.96 2.94 12.13 3.36 20.01 4.99A55.6 55.6 0 0 0 521 726c8.2-1.49 11.51-.53 19.92-5.08 8.42-4.54 3.96-6.92-5.92-6.92-3.46.33-7.61.33-11 0-11.71 0-25.5-2.72-35.77-7.23-10.27-4.51-16.79-9.17-24.48-17.52-7.68-8.36-10.57-18.28-12.76-29.24-2.19-10.97.57-25.75 5.7-35.31 5.14-9.57 10.01-17.27 16.56-25.45 6.55-8.19 12.7-14.46 20-22 7.29-7.54 14.32-13.92 21-22 6.67-8.08 12.2-15.37 16.82-25.18A124.8 124.8 0 0 0 541 498c1.92-11.28 1.47-29.23-.67-40.33-2.14-11.1-5.6-21.54-11.02-30.97-5.43-9.44-9.68-17.47-16.06-25.95-6.38-8.49-10.82-18.43-15.48-27.52-4.66-9.1-7.21-26.25-4.76-35.22 2.45-8.97 9.04-23.78 18.24-20.26 9.21 3.51 15.29 13.8 24 19 8.72 5.19 20.03 9.81 30.08 11.92 10.04 2.11 23.9 11.45 26.74-.6 2.85-12.05 8.25-24.75-2.99-31.15-11.24-6.4-12.51-15.56-17.16-25.84-4.64-10.29-9.68-16.95-19.84-22.16-10.16-5.21-22.31-8.36-34.08-7.92-11.77.44-22.82 4.7-32.3 10.7-9.48 6-15.03 10.93-21.93 20.07s-9.66 19.17-10.99 31.01-.75 27.93 1.89 39.55c2.64 11.61 4.08 22.65 8.4 33.6 4.33 10.94 6.19 20.66 10.15 31.85 3.96 11.18 5.47 24.16 6.78 36.22 1.32 12.05.77 26.66-2.02 37.98-2.8 11.31-6.55 20.79-11.06 30.94-4.5 10.16-10.41 17.06-17.67 25.33-7.26 8.27-11.79 15.03-17.48 24.52-5.69 9.5-10.23 17.72-12.77 29.23-2.54 11.51.91 28.16 0 40m135-362c12.44 2.85 13.19 25.23-.07 22.07-13.26-3.15-14.45-25.39.07-22.07Z"/>
  <path fill="none" stroke="#272529" stroke-width=".3" d="M554 290c-14.52-3.32-13.33 18.92-.07 22.07 13.26 3.16 12.51-19.22.07-22.07Z"/>
  <path fill="none" stroke="#969395" stroke-width=".3" d="M613 335c.6-4.22.7-8.7 0-13 .23 4.27.16 8.73 0 13Z"/>
  <path fill="none" stroke="#928F91" stroke-width=".3" d="M458 500c.32-3.32 2.36-8.56 0-12 1.25 2.67 0 9 0 12Z"/>
  <path fill="none" stroke="#878486" stroke-width=".3" d="M302 585c1.38-5.59 1-12.65 1-19-.53 5.45-.25 12.93-1 19Z"/>
  <path fill="none" stroke="#060606" stroke-width=".3" d="M426 673c-2.86-5.78-6.11-14.61-7-21-.61 7.98 2.25 16.2 7 21Z"/>
  <path fill="none" stroke="#8B888A" stroke-width=".3" d="M535 714h-11c3.39.33 7.54.33 11 0Z"/>
  <path fill="none" stroke="#F9FAF8" stroke-width=".3" d="M525 841c-3.08.3-7.25 1-11 1-30.75 0-65.22-2.44-95-4s-56.8-9.07-84.99-13.01c-28.19-3.93-54.58-10.78-81.33-16.67-26.75-5.89-50.61-18.48-77.68-20.32-4.27-.29-9.42-.65-13-1-19.98 0-46.43-10.85-65.77-2.77-19.34 8.08-30.43 15.92-39.98 34.02-9.54 18.11-12.85 40.48-13.23 60.73-.37 20.24 6.88 41.89 16.06 58.94 9.17 17.06 20 27.95 37.69 36.31 17.69 8.36 44.43 10.16 64.23 5.77 8.68-4.68 11.31-16.11 19.25-22.75 7.94-6.63 15.51-14.29 26.43-16.57 10.92-2.28 21.67-6.37 32.99-9.01 11.32-2.63 23.69-4.8 35.33-7.67 11.65-2.87 23.72-5.45 36.02-6.98 12.31-1.52 25.15-2.55 37.65-4.35 12.5-1.8 25.44-3.66 38.33-4.67 12.89-1.01 24.86-3.13 38.02-3.98 13.17-.85 26.36-2.99 39.98-3.02 13.62-.03 29.28-.3 43 0 13.72.3 28.47-.86 42 0 13.53.86 28.58.69 42 1 13.42.31 24.99 3.5 38.07 3.93 13.08.43 25.35 3.73 38 5 12.66 1.27 25.64 3.44 37.94 5.06 12.3 1.62 24.11 4.29 36.06 5.94 11.95 1.64 24.67 4.43 35.93 7.07 11.27 2.63 21.35 7.32 32.02 9.98 10.68 2.65 19.66 8.31 27.23 15.77 7.57 7.46 10.66 17.5 19.75 23.25 37.65 11.59 80.55 3.71 102.25-30.75 21.69-34.47 24.13-75.32 12.53-114.03-11.61-38.7-45.1-59.46-84.76-52.2-39.65 7.27-74.61 18.26-114 27-39.38 8.75-78.31 16.5-119.02 21.98-40.7 5.49-86.83 11-129 11M72 934c-3.25-5.2-5.54-10.24-8-16-7.48-17.54-6.18-45.42-3-64 3.17-18.58 8.48-35.59 23-48 23.89-20.41 56.33-15.08 75.75 8.25s32.77 53.01 28.27 82.77c-4.49 29.77-15.6 52.93-43.25 68.75S86.62 957.38 72 934m870-123c11.32 11.32 15.36 26.68 18 42 3.63 21.06 4.27 50.56-2.98 70.02-7.24 19.46-15.9 35.5-35.25 43.75s-45.39 2.05-60.02-12.52c-14.63-14.57-23.65-31.87-26.53-52.47-2.88-20.6 1.97-46.38 11.09-65.47 9.12-19.1 20.07-28.62 39.38-39.61 19.32-11 41.36-.65 56.31 14.3Z"/>
  <path fill="none" stroke="#A09D9F" stroke-width=".3" d="M175 788c-3.8-.68-8.49-1-13-1 3.58.35 8.73.71 13 1Z"/>
  <path fill="none" stroke="#51565B" stroke-width=".3" d="M84 806c6.81-1.11 16.16 4.56 24 4 7.85-.56 14.05 5.02 22.07 5.93 8.02.9 13.11 9.82 3.9 12.05-9.2 2.22-16.91 1.48-24.98 4.01-8.07 2.54-12 5.36-19.07 8.93-7.06 3.58-10.27 6.58-13.69 14.31S72.15 868.84 72 879c-.15 10.16.4 14.09 3.97 25.03 3.58 10.93 14.6 25.17 25.72 30.28 11.13 5.1 13.62 2.55 24.31 3.69 10.69 1.14 15.05-3.9 25-4-3.23 8.14-11.08 14.23-20.02 15.98-8.94 1.74-24.03 2.04-32.2-2.76C90.6 942.43 83.12 939.58 76 933c-1.48-.27-3.2-.28-4 1 14.62 23.38 45.12 47.59 72.77 31.77 27.65-15.82 38.76-38.98 43.25-68.75 4.5-29.76-8.85-59.44-28.27-82.77S107.89 785.59 84 806m48 44c11.55 2.07 26.98-1.08 29.92 13.08 2.95 14.15 6.75 24.23 3.15 37.99-3.6 13.77-20.2 9.06-30.07 12.93-11.57 10.09-27.73 6.7-35.25-6.75-7.53-13.44-10.96-27.33-3.98-42.48 6.98-15.15 21.11-17.48 36.23-14.77Zm828 3c-.05.34-3.12 4.53-1.07 9.07 2.05 4.55-.97 9.71.07 14.93 1.04 5.22-.7 7.67 0 14s-.44 6.15-.98 14.02c-.53 7.88-4.48 13.59-9.32 19.68-4.85 6.08-7.78 9.14-13.45 15.55-5.67 6.41-8.81 9.31-18.92 11.08-10.12 1.77-26.41-1.01-35.02-6.63-8.62-5.63-9.56-8.07-14.31-15.7 9.25.75 15.46 7.65 25 8 9.54.35 21.78.09 30.07-3.93 8.3-4.01 12.6-8.61 18.23-15.77 5.64-7.15 8.42-15.07 9.7-24.3 1.28-9.24 1.54-22.07-.93-31.07s-7.26-13.77-14.32-19.68c-7.06-5.91-14.55-7.32-22.77-11.23-8.23-3.9-23.27 1.63-31-3-7.74-4.63 6.35-13.04 12.72-15.32 6.36-2.29 19.02-4.29 26.52-7.48 7.5-3.18 16.31 1.94 21.78 5.78-14.95-14.95-36.99-25.3-56.31-14.3-19.31 10.99-30.26 20.51-39.38 39.61-9.12 19.09-13.97 44.87-11.09 65.47 2.88 20.6 11.9 37.9 26.53 52.47s40.67 20.77 60.02 12.52 28.01-24.29 35.25-43.75c7.25-19.46 6.61-48.96 2.98-70.02m-75-1c8.33-.62 18.87-6.9 27.22-1.22 8.36 5.67 14.71 7.49 17.71 17.29a46.9 46.9 0 0 1-.91 29.95c-3.54 9.31-7.95 13.5-16.71 18.29-8.77 4.78-18.58-1.38-26.31-5.31-1.38-.7-2.24-2.28-4-2-.92 2.77 2.19 3.9 3 6-9.39.54-19.1-.26-24.92-8.08s-6.96-16.57-5.75-26.59 3.34-15.82 7.44-25.56c4.11-9.73 14.79-5.4 23.23-2.77Z"/>
  <path fill="none" stroke="#958F91" stroke-width=".3" d="M960 853c-2.64-15.32-6.68-30.68-18-42-5.47-3.84-14.28-8.96-21.78-5.78-7.5 3.19-20.16 5.19-26.52 7.48-6.37 2.28-20.46 10.69-12.72 15.32 7.73 4.63 22.77-.9 31 3 8.22 3.91 15.71 5.32 22.77 11.23 7.06 5.91 11.85 10.68 14.32 19.68 2.47 9 2.21 21.83.93 31.07-1.28 9.23-4.06 17.15-9.7 24.3-5.63 7.16-9.93 11.76-18.23 15.77-8.29 4.02-20.53 4.28-30.07 3.93-9.54-.35-15.75-7.25-25-8 4.75 7.63 5.69 10.07 14.31 15.7 8.61 5.62 24.9 8.4 35.02 6.63 10.11-1.77 13.25-4.67 18.92-11.08 5.67-6.41 8.6-9.47 13.45-15.55 4.84-6.09 8.79-11.8 9.32-19.68.54-7.87 1.68-7.69.98-14.02-.7-6.33 1.04-8.78 0-14-1.04-5.22 1.98-10.38-.07-14.93-2.05-4.54 1.02-8.73 1.07-9.07ZM64 918c-.14-1.52-.56-4.26 1-5 3.96 6.39 5.29 14.69 11 20 7.12 6.58 14.6 9.43 22.78 14.22 8.17 4.8 23.26 4.5 32.2 2.76 8.94-1.75 16.79-7.84 20.02-15.98-9.95.1-14.31 5.14-25 4-10.69-1.14-13.18 1.41-24.31-3.69-11.12-5.11-22.14-19.35-25.72-30.28C72.4 893.09 71.85 889.16 72 879c.15-10.16.81-16.04 4.23-23.77 3.42-7.73 6.63-10.73 13.69-14.31 7.07-3.57 11-6.39 19.07-8.93 8.07-2.53 15.78-1.79 24.98-4.01 9.21-2.23 4.12-11.15-3.9-12.05-8.02-.91-14.22-6.49-22.07-5.93-7.84.56-17.19-5.11-24-4-14.52 12.41-19.83 29.42-23 48-3.18 18.58-4.48 46.46 3 64Z"/>
  <path fill="none" stroke="#918E90" stroke-width=".3" d="M514 842c3.75 0 7.92-.7 11-1-3.75 0-7.92.7-11 1Z"/>
  <path fill="none" stroke="#F7F8F6" stroke-width=".3" d="M135 914c17.65-15.39 18.26-51.51-3-64-15.12-2.71-29.25-.38-36.23 14.77-6.98 15.15-3.55 29.04 3.98 42.48 7.52 13.45 23.68 16.84 35.25 6.75m-20-45c14.08.33 17.61 27.81 2.93 29.93-14.68 2.11-16.34-30.24-2.93-29.93Z"/>
  <path fill="none" stroke="#969092" stroke-width=".3" d="M886 911c-6.81-6.81-9.96-19.7-9-29 .96-9.3.19-23.52 8-30-8.44-2.63-19.12-6.96-23.23 2.77-4.1 9.74-6.23 15.54-7.44 25.56s-.07 18.77 5.75 26.59 15.53 8.62 24.92 8.08c-.81-2.1-3.92-3.23-3-6 1.76-.28 2.62 1.3 4 2Z"/>
  <path fill="none" stroke="#F7F8F6" stroke-width=".3" d="M885 852c-7.81 6.48-7.04 20.7-8 30s2.19 22.19 9 29c7.73 3.93 17.54 10.09 26.31 5.31 8.76-4.79 13.17-8.98 16.71-18.29a46.9 46.9 0 0 0 .91-29.95c-3-9.8-9.35-11.62-17.71-17.29-8.35-5.68-18.89.6-27.22 1.22m23 17c14.25 1.69 13.14 28.78-2.01 28.99-15.15.22-13.03-30.77 2.01-28.99Z"/>
  <path fill="none" stroke="#C4C2C4" stroke-width=".3" d="M135 914c9.87-3.87 26.47.84 30.07-12.93 3.6-13.76-.2-23.84-3.15-37.99-2.94-14.16-18.37-11.01-29.92-13.08 21.26 12.49 20.65 48.61 3 64Z"/>
  <path fill="none" stroke="#51565B" stroke-width=".3" d="M115 869c-13.41-.31-11.75 32.04 2.93 29.93 14.68-2.12 11.15-29.6-2.93-29.93Zm793 0c-15.04-1.78-17.16 29.21-2.01 28.99 15.15-.21 16.26-27.3 2.01-28.99Z"/>
  <path fill="none" stroke="#C3C1C1" stroke-width=".3" d="M161 980c44.98-9.97 84.32-23.83 130.93-30.07 46.61-6.25 92.73-15.42 141.07-18.93 48.34-3.51 104.51-5 153-2 48.49 3 95.96 9.1 141.78 18.22 45.81 9.12 85.24 17.24 129.22 30.78-9.09-5.75-12.18-15.79-19.75-23.25-7.57-7.46-16.55-13.12-27.23-15.77-10.67-2.66-20.75-7.35-32.02-9.98-11.26-2.64-23.98-5.43-35.93-7.07-11.95-1.65-23.76-4.32-36.06-5.94s-25.28-3.79-37.94-5.06c-12.65-1.27-24.92-4.57-38-5-13.08-.43-24.65-3.62-38.07-3.93-13.42-.31-28.47-.14-42-1-13.53-.86-28.28.3-42 0-13.72-.3-29.38-.03-43 0-13.62.03-26.81 2.17-39.98 3.02-13.16.85-25.13 2.97-38.02 3.98-12.89 1.01-25.83 2.87-38.33 4.67-12.5 1.8-25.34 2.83-37.65 4.35-12.3 1.53-24.37 4.11-36.02 6.98-11.64 2.87-24.01 5.04-35.33 7.67-11.32 2.64-22.07 6.73-32.99 9.01-10.92 2.28-18.49 9.94-26.43 16.57-7.94 6.64-10.57 18.07-19.25 22.75Z"/>
  <path fill="none" stroke="#5D5A5B" stroke-width=".3" d="M64 918c2.46 5.76 4.75 10.8 8 16 .8-1.28 2.52-1.27 4-1-5.71-5.31-7.04-13.61-11-20-1.56.74-1.14 3.48-1 5Z"/>
  <path fill="none" stroke="None" d="M0 1024h1024V0H0v1024m186-773c.18-.07 0-1 0-1-21.88-1.98-41.79 19.36-64.02 18.98-22.23-.39-41.67-7.08-57.73-23.23-16.07-16.14-26.92-29.27-32.18-50.82-5.25-21.56-9.45-53.11-4.07-74.93 5.38-21.82 9.38-42.12 23.92-59.08 14.53-16.97 26.89-29.23 49.1-33.9 22.22-4.66 51.27-.43 72.06 8.9 20.78 9.34 44.04 10.36 66.59 16.41 22.55 6.05 46.35 8.83 70.34 12.66 23.99 3.84 49.57 5.75 74.66 8.34 25.09 2.59 52.31 3.53 78.33 4.67a968.12 968.12 0 0 0 81 0c26.06-1.12 53.8-1.31 79-4 25.2-2.68 50.72-4.26 75-8s48.39-6.32 71.67-11.33c23.28-5 45.48-8.17 67.55-15.45C859.29 31.94 882.41 24.45 906 25c23.59.55 41.26 9.19 56.75 26.25 15.5 17.06 22.32 32.6 29.03 53.97 6.7 21.38 8.09 52.61 4.22 74.78s-11.11 40.23-26.25 56.75c-15.14 16.52-29.85 26.97-52.82 30.18-22.98 3.21-49.99-5.6-70.93-12.93 2.06 23.8.23 46.99 1.98 71.02 1.74 24.04-1.19 48.91-.98 72.98.21 24.07-1.16 47.05 0 71 1.16 23.95-26.6 23.13-40 34 14.4 8.29 39.76 8.81 40 31 .24 22.19-.84 47.64 1 70 1.84 22.36-25.17 23.14-38 33 23.33 9.27 41.01 23.04 37 51-4.01 27.96 3.51 57.2 2 84 30.22-7.21 68.39-15.14 96.7 1.31 28.3 16.44 37.79 40.98 45.29 70.7 7.5 29.71 5.2 70.24-9.3 97.68-14.49 27.45-30.21 45.72-61.76 54.24-31.55 8.51-70.17-3.33-100.94-11.92-30.76-8.6-63.18-14.88-96.01-19.99-32.83-5.1-66.57-13.39-100.98-16.02-34.41-2.63-75.15-4.61-110-4-34.85.61-74.18 4.22-108.22 7.78-34.05 3.56-71.01 7.06-103.45 13.55-32.44 6.48-65.71 10.28-96.01 19.99-30.3 9.72-71.2 18.65-101.99 10.35-30.8-8.29-47.11-27.3-62.1-53.9-14.99-26.6-17.43-69.2-10.9-99.44 6.53-30.24 20.37-51.22 48.36-67.64 28-16.41 67.64-5.73 99.31-3.69 3.3-14.91-5.79-34.41-2.07-48.07 3.72-13.67 18.84-18.09 30.07-21.93-15.37-6.98-28.89-16.49-28-36 .89-19.51-5.09-41.15-3-61s19.48-22.47 35-29c-20.47-7.29-33.78-18.61-32-42 1.78-23.39-1.71-47.99 0-72 1.71-24.01-1.38-48.77-1.98-72.02-.59-23.26-1.29-50.53.96-73 2.24-22.48-3.91-47.8 10.02-64.98Z"/>
  <path fill="#51565B" fill-opacity=".98" stroke="None" d="M186 250c2.15-1.93 6.13-6.18 9-3-3.26.55-5.95 2.76-9 4-13.93 17.18-7.78 42.5-10.02 64.98-2.25 22.47-1.55 49.74-.96 73 .6 23.25 3.69 48.01 1.98 72.02-1.71 24.01 1.78 48.61 0 72s11.53 34.71 32 42c-15.52 6.53-32.91 9.15-35 29-2.09 19.85 3.89 41.49 3 61-.89 19.51 12.63 29.02 28 36-11.23 3.84-26.35 8.26-30.07 21.93-3.72 13.66 5.37 33.16 2.07 48.07-31.67-2.04-71.31-12.72-99.31 3.69-27.99 16.42-41.83 37.4-48.36 67.64-6.53 30.24-4.09 72.84 10.9 99.44 14.99 26.6 31.3 45.61 62.1 53.9 30.79 8.3 71.69-.63 101.99-10.35 30.3-9.71 63.57-13.51 96.01-19.99 32.44-6.49 69.4-9.99 103.45-13.55 34.04-3.56 73.37-7.17 108.22-7.78 34.85-.61 75.59 1.37 110 4s68.15 10.92 100.98 16.02c32.83 5.11 65.25 11.39 96.01 19.99 30.77 8.59 69.39 20.43 100.94 11.92 31.55-8.52 47.27-26.79 61.76-54.24 14.5-27.44 16.8-67.97 9.3-97.68-7.5-29.72-16.99-54.26-45.29-70.7-28.31-16.45-66.48-8.52-96.7-1.31 1.51-26.8-6.01-56.04-2-84s-13.67-41.73-37-51c12.83-9.86 39.84-10.64 38-33-1.84-22.36-.76-47.81-1-70-.24-22.19-25.6-22.71-40-31 13.4-10.87 41.16-10.05 40-34-1.16-23.95.21-46.93 0-71s2.72-48.94.98-72.98c-1.75-24.03.08-47.22-1.98-71.02 20.94 7.33 47.95 16.14 70.93 12.93 22.97-3.21 37.68-13.66 52.82-30.18S992.13 202.17 996 180c3.87-22.17 2.48-53.4-4.22-74.78-6.71-21.37-13.53-36.91-29.03-53.97C947.26 34.19 929.59 25.55 906 25c-23.59-.55-46.71 6.94-68.78 14.22s-44.27 10.45-67.55 15.45C746.39 59.68 722.28 62.26 698 66s-49.8 5.32-75 8c-25.2 2.69-52.94 2.88-79 4a968.12 968.12 0 0 1-81 0c-26.02-1.14-53.24-2.08-78.33-4.67-25.09-2.59-50.67-4.5-74.66-8.34-23.99-3.83-47.79-6.61-70.34-12.66-22.55-6.05-45.81-7.07-66.59-16.41-20.79-9.33-49.84-13.56-72.06-8.9-22.21 4.67-34.57 16.93-49.1 33.9C37.38 77.88 33.38 98.18 28 120c-5.38 21.82-1.18 53.37 4.07 74.93 5.26 21.55 16.11 34.68 32.18 50.82 16.06 16.15 35.5 22.84 57.73 23.23 22.23.38 42.14-20.96 64.02-18.98m667-11c-64.41-22.04-131.45-36.26-197-53-38.14-9.74-77.19-10.12-117-14-39.81-3.88-85.49 1.25-124 6-38.51 4.74-72.96 12.68-110 22-21.96 5.52-41.98 10.82-63.68 18.32-21.7 7.5-45.12 10.22-68.32 13.68-24.46 3.65-52.98 27.67-78.07 14.07-25.09-13.59-38.43-30.6-45.86-57.14-7.43-26.55-7.83-65.09 2.71-90.15 10.54-25.07 20.68-44.85 48.29-54.71 27.62-9.85 58.47 4.83 85.15 12.71C211.91 64.65 241.32 69.23 270 75c28.68 5.76 59.84 9.03 90.22 12.78 30.39 3.75 65.1 4.65 96.78 6.22 31.68 1.57 68.25 1.16 100 0 31.75-1.15 66.16-2.8 96.67-6.33 30.51-3.53 61.87-7.27 91-12 29.13-4.73 58.04-11 85.35-17.65C857.34 51.38 887.51 36.46 916 42c28.49 5.54 40.27 27.03 52.31 50.69 12.03 23.67 15.68 62.39 9.69 89.31-5.98 26.93-18.91 45.2-43.08 59.92-24.16 14.73-56.81 5.67-81.92-2.92m-267-35c84.02 7.88 162.62 41.9 244 60-2.02 14.61-1.7 29.23-1 44 .99 12.48 2.69 24.81 2 38-.69 13.19.13 26.73 0 40s-.3 27.8 0 41-.98 27.08 0 40c.98 12.92-15.95 12.06-24.07 15.93-8.12 3.86-21.16 11.28-18.15 21.29 3.01 10.01 12.25 14.93 21.9 18.1 9.65 3.17 22.18 7.51 20.32 20.68-1.86 13.17.62 27.51 0 40-.62 12.49 3.31 27.46-9.68 30.32-12.99 2.87-16.88 6.84-26.07 14.93-9.19 8.09-.88 19.49 7.83 23.67 8.72 4.18 18.16 9.11 25.92 15.08 1.66 14.33.74 29.32 1 44s.03 29.06-1 43c-1.03 13.94-19.35 11.48-31.01 14.99-11.65 3.51-25.15 5.07-37.21 8.79-12.06 3.72-25.09 5.72-37.78 8.22-12.69 2.5-25.25 5.22-38.22 7.78-12.98 2.56-26.4 4.04-39.78 6.22-13.39 2.17-26.93 4.08-41 5-14.07.92-29.67 1.13-44 2-14.33.87-29.26 1.4-44 1-14.74-.4-31.41.53-46 0s-28.8-2.07-43.01-2.99c-14.21-.93-28.34-2.07-42.01-3.99-13.68-1.91-27.71-2.76-40.98-5.02a2285.53 2285.53 0 0 1-39.01-6.99 546.55 546.55 0 0 1-37.66-8.34c-12.46-3.26-23.97-6.66-36.4-9.6-12.44-2.94-24.76-5.26-36.93-9.07 2.38-9.49-2.41-24.81-1.93-33.07.49-8.27 13.48-13.46 20.95-13.91 7.48-.44 19.95-11.85 12.67-20.71-7.27-8.87-11.13-8.99-21.92-13.08-10.79-4.09-11.07-13.77-9.78-24.24 1.3-10.47-2.5-20.98-.99-31.99 1.51-11.01-3.68-21.88 5.23-27.77 8.91-5.89 17.25-4.67 24.52-11.48 7.27-6.81 3.21-19.65-1.53-26.97-4.73-7.33-18.29-4.93-24.3-11.7-6-6.78-3.41-20.8-3.92-31.08-.51-10.28.25-23.88 0-35-.25-11.12.16-24.57 0-36s.17-23.52 0-35-1.9-22.61 0-34-3.1-21.57-1.22-32.22c1.88-10.66.87-22.93 2.22-33.78.24-12.22-3.35-31.01 1-42 4.35-10.99 22.77-7.08 32.68-12.32 9.91-5.25 22.95-7.12 34-11 11.05-3.89 23.93-6.75 35.39-10.61 11.46-3.85 23.69-6.15 35.6-9.4 11.91-3.24 23.73-5.92 36-9 12.27-3.07 23.68-6.18 36.55-8.45 12.87-2.27 28.34-3.3 41.78-4.22 22.53-1.53 45.99-.01 69-1 23.01-.99 47.43-.12 70 2m271 774c-43.98-13.54-83.41-21.66-129.22-30.78A1063.62 1063.62 0 0 0 586 929c-48.49-3-104.66-1.51-153 2s-94.46 12.68-141.07 18.93c-46.61 6.24-85.95 20.1-130.93 30.07-19.8 4.39-46.54 2.59-64.23-5.77-17.69-8.36-28.52-19.25-37.69-36.31-9.18-17.05-16.43-38.7-16.06-58.94.38-20.25 3.69-42.62 13.23-60.73 9.55-18.1 20.64-25.94 39.98-34.02 19.34-8.08 45.79 2.77 65.77 2.77 4.51 0 9.2.32 13 1 27.07 1.84 50.93 14.43 77.68 20.32 26.75 5.89 53.14 12.74 81.33 16.67 28.19 3.94 55.21 11.45 84.99 13.01 29.78 1.56 64.25 4 95 4 3.08-.3 7.25-1 11-1 42.17 0 88.3-5.51 129-11 40.71-5.48 79.64-13.23 119.02-21.98 39.39-8.74 74.35-19.73 114-27 39.66-7.26 73.15 13.5 84.76 52.2 11.6 38.71 9.16 79.56-12.53 114.03-21.7 34.46-64.6 42.34-102.25 30.75Z"/>
  <path fill="#F9FAF8" stroke="None" d="M173 232c8.18-5.39 7.66-20.04 19.68-21.32 12.01-1.29 23.55-3.93 35.54-6.46 11.99-2.52 23.99-3.32 36.78-4.22 12.79-.9 27.64-.36 40 0 37.04-9.32 71.49-17.26 110-22 38.51-4.75 84.19-9.88 124-6 39.81 3.88 78.86 4.26 117 14 8.5-1.23 21.85-1.09 33-1 11.15.09 24.11.45 35 1s21.78 2.35 32 4c10.23 1.65 19.39 5.87 29.07 7.93 9.69 2.05 19.69 4.36 28.61 7.39 8.91 3.04 17.16 5.66 24.07 11.93S850.8 230.52 853 239c25.11 8.59 57.76 17.65 81.92 2.92 24.17-14.72 37.1-32.99 43.08-59.92 5.99-26.92 2.34-65.64-9.69-89.31C956.27 69.03 944.49 47.54 916 42c-28.49-5.54-58.66 9.38-85.98 16.02-27.31 6.65-56.22 12.92-85.35 17.65-29.13 4.73-60.49 8.47-91 12C623.16 91.2 588.75 92.85 557 94c-31.75 1.16-68.32 1.57-100 0-31.68-1.57-66.39-2.47-96.78-6.22C329.84 84.03 298.68 80.76 270 75c-28.68-5.77-58.09-10.35-84.78-18.22-26.68-7.88-57.53-22.56-85.15-12.71-27.61 9.86-37.75 29.64-48.29 54.71-10.54 25.06-10.14 63.6-2.71 90.15 7.43 26.54 20.77 43.55 45.86 57.14 25.09 13.6 53.61-10.42 78.07-14.07M912 53c18.99 3.4 29.7 22.05 39.3 38.7 9.61 16.64 12.76 44.15 13.7 65.3.94 21.15-8.76 41.08-19.75 59.25-11 18.17-36.48 24.36-55.48 15.98-19-8.38-30.62-19.2-40.52-37.48-9.91-18.27-16.36-40.97-15.32-61.82 1.04-20.85 7.4-41.8 21.82-57.18C870.17 60.37 890.16 49.09 912 53M61 128c2.96-18.58 8.58-35.61 21-50 18.95-21.96 52.09-33.64 75.25-12.25C180.4 87.15 191.84 113.97 190 144c-1.84 30.03-15.44 53.68-34.75 76.25-19.31 22.57-55.73 21.64-74.5-3C61.98 192.61 55.94 159.8 61 128Z"/>
  <path fill="#51565B" stroke="None" d="M912 53c-21.84-3.91-41.83 7.37-56.25 22.75-14.42 15.38-20.78 36.33-21.82 57.18-1.04 20.85 5.41 43.55 15.32 61.82 9.9 18.28 21.52 29.1 40.52 37.48 19 8.38 44.48 2.19 55.48-15.98 10.99-18.17 20.69-38.1 19.75-59.25-.94-21.15-4.09-48.66-13.7-65.3-9.6-16.65-20.31-35.3-39.3-38.7m-35 147c23.82 6.19 55.99 4.12 69.75-19.25 13.76-23.37 8.32-52.07-8-72.5C922.42 87.83 890.83 84.91 867 91c4.11-8.08 11.84-12.58 20.23-16.77 8.39-4.19 18.02-9.18 27.79-10.21 9.78-1.03 18.28 5.72 24.73 13.23 6.45 7.51 8.86 14.67 12.57 24.43 3.71 9.76 4.6 19.28 7.66 30.34 3.06 11.07-1.44 22.38-1.98 33.98-.54 11.61-1.96 19.41-5.92 31.08-3.97 11.66-13.28 10.31-22.77 15.23-9.5 4.91-19.44 6.97-29.38 2.76-9.94-4.2-17.58-5.13-22.93-15.07m12-20c-11.11-1.95-24.49.08-29.3-12.7-4.82-12.77-7.5-22.08-4.71-35.31 2.79-13.23 15.44-12.57 25.01-16.99 8.2-3.79 18.95-9.75 28.07-5.07 9.12 4.68 15.2 8.76 20.23 17.77 5.03 9.01 7.81 18.92 5.92 29.52-1.89 10.6-6.88 15.2-15.47 22.53-8.58 7.34-20.51 1.87-29.75.25ZM82 78c-.18.12 3.04-1.35 4-2 7.85-5.3 14.63-13.73 24.22-10.22 9.59 3.5 18.55 5.9 27.01 10.99S153.11 84.65 159 93c-24.31-10.17-51.4-7.73-70.75 11.25s-23.36 45.81-13.93 71.43c9.44 25.61 41.45 31.63 65.68 25.32-7.66 11.46-29.22 19.86-42.22 13.22-13-6.63-21.95-17.73-29.1-30.9-7.16-13.16-6.42-37.54-6.68-53.32-.11-.89-.93-1.6-1-2-5.06 31.8.98 64.61 19.75 89.25s55.19 25.57 74.5 3c19.31-22.57 32.91-46.22 34.75-76.25 1.84-30.03-9.6-56.85-32.75-78.25C134.09 44.36 100.95 56.04 82 78m60 36c10.22 3.5 26.37 3.34 26 16-.37 12.66.11 25.85-3.98 38.02C159.94 180.2 145.31 178.9 135 181c-11.89 2.42-22.4 8.85-32.25-1.75C92.91 168.65 88.94 158.76 91 145c2.06-13.76 5.43-21.24 15.75-30.25 10.31-9.02 23.95-4.61 35.25-.75Z"/>
  <path fill="#958F91" stroke="None" d="M86 76c-14.39 12.54-22.29 36.32-24 54 .26 15.78-.48 40.16 6.68 53.32 7.15 13.17 16.1 24.27 29.1 30.9 13 6.64 34.56-1.76 42.22-13.22-24.23 6.31-56.24.29-65.68-25.32-9.43-25.62-5.42-52.45 13.93-71.43C107.6 85.27 134.69 82.83 159 93c-5.89-8.35-13.31-11.14-21.77-16.23-8.46-5.09-17.42-7.49-27.01-10.99C100.63 62.27 93.85 70.7 86 76Z"/>
  <path fill="#959091" stroke="None" d="M877 200c5.35 9.94 12.99 10.87 22.93 15.07 9.94 4.21 19.88 2.15 29.38-2.76 9.49-4.92 18.8-3.57 22.77-15.23 3.96-11.67 5.38-19.47 5.92-31.08.54-11.6 5.04-22.91 1.98-33.98-3.06-11.06-3.95-20.58-7.66-30.34-3.71-9.76-6.12-16.92-12.57-24.43-6.45-7.51-14.95-14.26-24.73-13.23-9.77 1.03-19.4 6.02-27.79 10.21-8.39 4.19-16.12 8.69-20.23 16.77 23.83-6.09 55.42-3.17 71.75 17.25 16.32 20.43 21.76 49.13 8 72.5-13.76 23.37-45.93 25.44-69.75 19.25Z"/>
  <path fill="#51565B" stroke="None" d="M82 78c-12.42 14.39-18.04 31.42-21 50 .07.4.89 1.11 1 2 1.71-17.68 9.61-41.46 24-54-.96.65-4.18 2.12-4 2Z"/>
  <path fill="#F7F8F6" stroke="None" d="M880 115c-8.45 8.53-5.89 25.71-5.22 36.22.66 10.51 5.32 22.36 14.22 28.78 9.24 1.62 21.17 7.09 29.75-.25 8.59-7.33 13.58-11.93 15.47-22.53 1.89-10.6-.89-20.51-5.92-29.52-5.03-9.01-11.11-13.09-20.23-17.77-9.12-4.68-19.87 1.28-28.07 5.07m28 16c16.3 3.38 12.6 35.72-2 35-14.61-.73-17.91-39.12 2-35Z"/>
  <path fill="#F8F9F7" stroke="None" d="M135 181c5.19-4.31 7.45-12.05 9.98-18.02 2.52-5.98 5.36-19.31 3.02-25.98-2.34-6.67-1.68-17.69-6-23-11.3-3.86-24.94-8.27-35.25.75C96.43 123.76 93.06 131.24 91 145c-2.06 13.76 1.91 23.65 11.75 34.25 9.85 10.6 20.36 4.17 32.25 1.75m-14-50c10.31 2.02 8.41 13.88 5.68 23.68-2.73 9.8-13.97 9.58-15.66-.7-1.67-10.29-2.39-25.41 9.98-22.98Z"/>
  <path fill="#D6D6D4" stroke="None" d="M135 181c10.31-2.1 24.94-.8 29.02-12.98 4.09-12.17 3.61-25.36 3.98-38.02.37-12.66-15.78-12.5-26-16 4.32 5.31 3.66 16.33 6 23 2.34 6.67-.5 20-3.02 25.98-2.53 5.97-4.79 13.71-9.98 18.02Z"/>
  <path fill="#D5D5D3" stroke="None" d="M889 180c-8.9-6.42-13.56-18.27-14.22-28.78-.67-10.51-3.23-27.69 5.22-36.22-9.57 4.42-22.22 3.76-25.01 16.99-2.79 13.23-.11 22.54 4.71 35.31 4.81 12.78 18.19 10.75 29.3 12.7Z"/>
  <path fill="#51565B" stroke="None" d="M121 131c-12.37-2.43-11.65 12.69-9.98 22.98 1.69 10.28 12.93 10.5 15.66.7 2.73-9.8 4.63-21.66-5.68-23.68Zm787 0c-19.91-4.12-16.61 34.27-2 35 14.6.72 18.3-31.62 2-35Z"/>
  <path fill="#C3C1C1" stroke="None" d="M656 186c65.55 16.74 132.59 30.96 197 53-2.2-8.48-8.34-15.48-15.25-21.75s-15.16-8.89-24.07-11.93c-8.92-3.03-18.92-5.34-28.61-7.39-9.68-2.06-18.84-6.28-29.07-7.93-10.22-1.65-21.11-3.45-32-4a874.7 874.7 0 0 0-35-1c-11.15-.09-24.5-.23-33 1Zm-483 46c23.2-3.46 46.62-6.18 68.32-13.68 21.7-7.5 41.72-12.8 63.68-18.32-12.36-.36-27.21-.9-40 0s-24.79 1.7-36.78 4.22c-11.99 2.53-23.53 5.17-35.54 6.46-12.02 1.28-11.5 15.93-19.68 21.32Z"/>
  <path fill="#F9FAF8" stroke="None" d="M447 203c-19.78 8.54-41.83 19-63.23 26.77s-45.08 15.67-66.79 23.21c-21.72 7.53-41.9 17.94-62.67 27.33-20.78 9.38-39.45 20.59-60.31 29.69-1.35 10.85-.34 23.12-2.22 33.78-1.88 10.65 3.12 20.83 1.22 32.22-1.9 11.39-.17 22.52 0 34s-.16 23.57 0 35-.25 24.88 0 36c.25 11.12-.51 24.72 0 35 .51 10.28-2.08 24.3 3.92 31.08 6.01 6.77 19.57 4.37 24.3 11.7 4.74 7.32 8.8 20.16 1.53 26.97-7.27 6.81-15.61 5.59-24.52 11.48-8.91 5.89-3.72 16.76-5.23 27.77-1.51 11.01 2.29 21.52.99 31.99-1.29 10.47-1.01 20.15 9.78 24.24s14.65 4.21 21.92 13.08c7.28 8.86-5.19 20.27-12.67 20.71-7.47.45-20.46 5.64-20.95 13.91-.48 8.26 4.31 23.58 1.93 33.07 12.17 3.81 24.49 6.13 36.93 9.07 12.43 2.94 23.94 6.34 36.4 9.6a546.55 546.55 0 0 0 37.66 8.34c12.92 2.43 25.74 4.73 39.01 6.99s27.3 3.11 40.98 5.02c13.67 1.92 27.8 3.06 42.01 3.99 14.21.92 28.42 2.46 43.01 2.99 14.59.53 31.26-.4 46 0 14.74.4 29.67-.13 44-1 14.33-.87 29.93-1.08 44-2 14.07-.92 27.61-2.83 41-5 13.38-2.18 26.8-3.66 39.78-6.22 12.97-2.56 25.53-5.28 38.22-7.78 12.69-2.5 25.72-4.5 37.78-8.22 12.06-3.72 25.56-5.28 37.21-8.79 11.66-3.51 29.98-1.05 31.01-14.99a472.04 472.04 0 0 0 1-43c-.26-14.68.66-29.67-1-44-7.76-5.97-17.2-10.9-25.92-15.08-8.71-4.18-17.02-15.58-7.83-23.67 9.19-8.09 13.08-12.06 26.07-14.93 12.99-2.86 9.06-17.83 9.68-30.32.62-12.49-1.86-26.83 0-40 1.86-13.17-10.67-17.51-20.32-20.68-9.65-3.17-18.89-8.09-21.9-18.1-3.01-10.01 10.03-17.43 18.15-21.29 8.12-3.87 25.05-3.01 24.07-15.93-.98-12.92.3-26.8 0-40s-.13-27.73 0-41-.69-26.81 0-40c.69-13.19-1.01-25.52-2-38-4.38-7.69-17.71-7.93-24.69-13.3-6.99-5.38-18.68-7.34-26.39-12.62-7.7-5.29-16.77-8.25-25.15-12.85-8.37-4.6-18.88-7.01-27.45-11.55-8.56-4.55-16.43-9.33-26-12-9.57-2.68-18.81-7.78-28.4-10.6-9.58-2.83-18.52-6.74-27.99-10.01-9.47-3.27-19.36-7.1-28.94-10.06-9.58-2.96-18.86-8-27.99-11.01-22.57-2.12-46.99-2.99-70-2-23.01.99-46.47-.53-69 1m166 119c.7 4.3.6 8.78 0 13-.52 13.65-3.53 34.47-19.02 38.98-15.5 4.5-32.19-6.54-47.05-8.91-14.87-2.37-24.18-15.25-34.93-24.07-2.39 38.14 36.36 59.75 45 94 10.28-4.99 23.2-6.51 33.22-11.78 10.02-5.26 18.3-9.99 26.03-18.97 7.73-8.98 12.49-16.91 18.06-27.94 5.56-11.04 7.31-20.49 11.62-33.38 4.3-12.9 19.91-5.07 27.32 2.82 7.41 7.89 16.24 13.13 23.05 21.95 6.82 8.81 14.59 15.87 20.47 25.53 5.88 9.66 11.2 18.1 16.15 28.85 4.95 10.74 8.84 21.71 12.4 33.6 3.56 11.88 4.81 25.39 6.68 38.32 1.87 12.94.33 30.43-.99 43.01-1.33 12.57-6.75 24.65-8.94 36.06-2.19 11.42-12.8 27.72-17 12.86-4.19-14.87-.63-26.86-5.06-39.94-4.44-13.08-6.96-20.16-15.76-30.24-8.8-10.08-22.7-10.48-34.27-6.77-11.58 3.7-17.51 13.57-27.98 18.02-3.45-13.69-5.35-23.24-15.25-34.75-9.91-11.5-22.04-11.2-37.42-11.92-15.38-.72-27.65 7.92-26.26 23.74 1.4 15.83-8.94 23.92-13.82 36.18-4.89 12.26-13.89 19.72-21 30-7.12 10.28-15.37 17.28-23.17 26.83-7.8 9.55-16.93 15.69-24.33 25.67-7.39 9.98-13.09 25.05-8.97 37.47 4.12 12.42 12.38 19.91 23.92 26.09 11.53 6.17 28.66 7.88 40.3.69-7.75-9.71-20.53-18.01-22-31 46.8-6.71 79.95 30.43 123 36-7.77 12.24-16.8 21.89-28.25 31.75s-22.18 17.78-36.98 23.02c-14.8 5.24-37.7 5.8-53.77 4.23-16.07-1.56-35.76-4.58-49.68-11.32-13.92-6.75-25.32-13.04-35.07-24.93-9.75-11.88-23.22-18.27-25.18-34.82-1.95-16.56-28.42-12.36-32.84-27.16-4.42-14.8 20.35-22.56 26.69-33.85 6.33-11.29-25.53-23.87-17.99-35.99 7.53-12.13 30.63-9.42 41.32-18.68 10.69-9.27-18.66-31.36-1.17-37.17 17.48-5.82 36.82-2.81 33.92-27.08 0-3 1.25-9.33 0-12-4.57-6.66-18.31-5.26-26-7-7.69-1.74-19.83 2.39-26.69 6.31a42.07 42.07 0 0 0-16.23 16.77c-3.9 7.17-8.58 16.43-9.08 24.92-14.34-12.91-33.05-29.77-53.08-18.08-20.02 11.7-24.24 33.41-23.92 55.08 0 6.35.38 13.41-1 19-2.74 11.05-11.34 9.64-14.3.31-2.97-9.34-6.36-14.33-8.48-23.53-2.11-9.2-4.88-17.58-6-27A398.94 398.94 0 0 1 271 505c-.38-9.53 1.22-20.84 2-30s4.77-17.77 6.78-26.22c2.01-8.46 5.36-15.51 8.99-23.01 3.63-7.49 6.87-14.02 11-21s8.15-13.53 12.98-20.02a200.09 200.09 0 0 1 14.5-17.5c5.65-6.13 10.14-9.63 16.5-15.5 6.37-5.87 10.67-9.04 18.33-14.67 7.66-5.63 15.47.71 15.91 9.93.44 9.22 4.67 17.73 7.33 25.67 2.66 7.94 7.63 13.97 11.43 20.57 3.81 6.6 9.53 12.36 14.5 17.5 4.96 5.14 14.46 10.91 19.83 13.17 5.36 2.27 19.78 11.53 20.89 5.05 1.12-6.47-2.92-17.87-10.22-21.72a15.94 15.94 0 0 1-6.42-21.92c4.67-8.63 3.87-18.53-3.56-23.1s-12.4-7.02-18.52-13.48c-6.12-6.46 5.63-14.17 8.5-20 2.87-5.82 13.12-10.63 15-17 1.88-6.37-7.23-11.23-10.67-18.83-3.45-7.6-2.06-16.59 8-18.84 10.05-2.26 14.08-7.03 23.6-8.4 9.51-1.38 17.52-6.9 12.4-14.76-5.13-7.85-12.06-12.47-10.08-21.92 1.99-9.45 15.36-7.99 21.7-3.7 6.34 4.3 7.8 13.8 16.55 16.45 8.74 2.66.33-10.88 2.53-18.97 2.2-8.09 13.5-9.34 19.47-3.03 5.97 6.32 6.5 15.37 12.5 20.5 6.01 5.12 17.43 3.09 23.94 8.06 6.52 4.96 13.57 6.49 19.06 12.94 5.49 6.44 11.87 11.08 13.56 19.44 1.69 8.37 3.85 16.56 12.37 19.63 8.52 3.07 10.9 14.03 11.32 21.68Z"/>
  <path fill="#C3C1C1" stroke="None" d="M194 310c20.86-9.1 39.53-20.31 60.31-29.69 20.77-9.39 40.95-19.8 62.67-27.33 21.71-7.54 45.39-15.44 66.79-23.21C405.17 222 427.22 211.54 447 203c-13.44.92-28.91 1.95-41.78 4.22-12.87 2.27-24.28 5.38-36.55 8.45-12.27 3.08-24.09 5.76-36 9-11.91 3.25-24.14 5.55-35.6 9.4-11.46 3.86-24.34 6.72-35.39 10.61-11.05 3.88-24.09 5.75-34 11-9.91 5.24-28.33 1.33-32.68 12.32-4.35 10.99-.76 29.78-1 42Zm635-2c-.7-14.77-1.02-29.39 1-44-81.38-18.1-159.98-52.12-244-60 9.13 3.01 18.41 8.05 27.99 11.01 9.58 2.96 19.47 6.79 28.94 10.06 9.47 3.27 18.41 7.18 27.99 10.01 9.59 2.82 18.83 7.92 28.4 10.6 9.57 2.67 17.44 7.45 26 12 8.57 4.54 19.08 6.95 27.45 11.55 8.38 4.6 17.45 7.56 25.15 12.85 7.71 5.28 19.4 7.24 26.39 12.62 6.98 5.37 20.31 5.61 24.69 13.3Z"/>
  <path fill="#51565B" stroke="None" d="M302 585c.75-6.07.47-13.55 1-19-.32-21.67 3.9-43.38 23.92-55.08 20.03-11.69 38.74 5.17 53.08 18.08.5-8.49 5.18-17.75 9.08-24.92a42.07 42.07 0 0 1 16.23-16.77c6.86-3.92 19-8.05 26.69-6.31 7.69 1.74 21.43.34 26 7 2.36 3.44.32 8.68 0 12 2.9 24.27-16.44 21.26-33.92 27.08-17.49 5.81 11.86 27.9 1.17 37.17-10.69 9.26-33.79 6.55-41.32 18.68-7.54 12.12 24.32 24.7 17.99 35.99-6.34 11.29-31.11 19.05-26.69 33.85 4.42 14.8 30.89 10.6 32.84 27.16 1.96 16.55 15.43 22.94 25.18 34.82 9.75 11.89 21.15 18.18 35.07 24.93 13.92 6.74 33.61 9.76 49.68 11.32 16.07 1.57 38.97 1.01 53.77-4.23 14.8-5.24 25.53-13.16 36.98-23.02 11.45-9.86 20.48-19.51 28.25-31.75-43.05-5.57-76.2-42.71-123-36 1.47 12.99 14.25 21.29 22 31-11.64 7.19-28.77 5.48-40.3-.69-11.54-6.18-19.8-13.67-23.92-26.09-4.12-12.42 1.58-27.49 8.97-37.47 7.4-9.98 16.53-16.12 24.33-25.67 7.8-9.55 16.05-16.55 23.17-26.83 7.11-10.28 16.11-17.74 21-30 4.88-12.26 15.22-20.35 13.82-36.18-1.39-15.82 10.88-24.46 26.26-23.74 15.38.72 27.51.42 37.42 11.92 9.9 11.51 11.8 21.06 15.25 34.75 10.47-4.45 16.4-14.32 27.98-18.02 11.57-3.71 25.47-3.31 34.27 6.77 8.8 10.08 11.32 17.16 15.76 30.24 4.43 13.08.87 25.07 5.06 39.94 4.2 14.86 14.81-1.44 17-12.86 2.19-11.41 7.61-23.49 8.94-36.06 1.32-12.58 2.86-30.07.99-43.01-1.87-12.93-3.12-26.44-6.68-38.32-3.56-11.89-7.45-22.86-12.4-33.6-4.95-10.75-10.27-19.19-16.15-28.85-5.88-9.66-13.65-16.72-20.47-25.53-6.81-8.82-15.64-14.06-23.05-21.95-7.41-7.89-23.02-15.72-27.32-2.82-4.31 12.89-6.06 22.34-11.62 33.38-5.57 11.03-10.33 18.96-18.06 27.94-7.73 8.98-16.01 13.71-26.03 18.97-10.02 5.27-22.94 6.79-33.22 11.78-8.64-34.25-47.39-55.86-45-94 10.75 8.82 20.06 21.7 34.93 24.07 14.86 2.37 31.55 13.41 47.05 8.91 15.49-4.51 18.5-25.33 19.02-38.98.16-4.27.23-8.73 0-13-.42-7.65-2.8-18.61-11.32-21.68-8.52-3.07-10.68-11.26-12.37-19.63-1.69-8.36-8.07-13-13.56-19.44-5.49-6.45-12.54-7.98-19.06-12.94-6.51-4.97-17.93-2.94-23.94-8.06-6-5.13-6.53-14.18-12.5-20.5-5.97-6.31-17.27-5.06-19.47 3.03-2.2 8.09 6.21 21.63-2.53 18.97-8.75-2.65-10.21-12.15-16.55-16.45-6.34-4.29-19.71-5.75-21.7 3.7-1.98 9.45 4.95 14.07 10.08 21.92 5.12 7.86-2.89 13.38-12.4 14.76-9.52 1.37-13.55 6.14-23.6 8.4-10.06 2.25-11.45 11.24-8 18.84 3.44 7.6 12.55 12.46 10.67 18.83-1.88 6.37-12.13 11.18-15 17-2.87 5.83-14.62 13.54-8.5 20 6.12 6.46 11.09 8.91 18.52 13.48s8.23 14.47 3.56 23.1a15.94 15.94 0 0 0 6.42 21.92c7.3 3.85 11.34 15.25 10.22 21.72-1.11 6.48-15.53-2.78-20.89-5.05-5.37-2.26-14.87-8.03-19.83-13.17-4.97-5.14-10.69-10.9-14.5-17.5-3.8-6.6-8.77-12.63-11.43-20.57-2.66-7.94-6.89-16.45-7.33-25.67-.44-9.22-8.25-15.56-15.91-9.93-7.66 5.63-11.96 8.8-18.33 14.67-6.36 5.87-10.85 9.37-16.5 15.5a200.09 200.09 0 0 0-14.5 17.5c-4.83 6.49-8.85 13.04-12.98 20.02-4.13 6.98-7.37 13.51-11 21-3.63 7.5-6.98 14.55-8.99 23.01-2.01 8.45-6 17.06-6.78 26.22-.78 9.16-2.38 20.47-2 30 .38 9.53 1.1 20.35 2.22 29.78 1.12 9.42 3.89 17.8 6 27 2.12 9.2 5.51 14.19 8.48 23.53 2.96 9.33 11.56 10.74 14.3-.31m222 129h11c9.88 0 14.34 2.38 5.92 6.92-8.41 4.55-11.72 3.59-19.92 5.08a55.6 55.6 0 0 1-22.67-.33c-7.88-1.63-12.05-2.05-20.01-4.99-7.96-2.94-8.7-2.06-17.4-7.6-8.7-5.54-19.7-16-25.22-24.78-5.53-8.77-5.72-7.26-9.7-15.3-4.75-4.8-7.61-13.02-7-21 .91-11.84-2.54-28.49 0-40 2.54-11.51 7.08-19.73 12.77-29.23 5.69-9.49 10.22-16.25 17.48-24.52s13.17-15.17 17.67-25.33c4.51-10.15 8.26-19.63 11.06-30.94 2.79-11.32 3.34-25.93 2.02-37.98-1.31-12.06-2.82-25.04-6.78-36.22-3.96-11.19-5.82-20.91-10.15-31.85-4.32-10.95-5.76-21.99-8.4-33.6-2.64-11.62-3.22-27.71-1.89-39.55 1.33-11.84 4.09-21.87 10.99-31.01s12.45-14.07 21.93-20.07 20.53-10.26 32.3-10.7c11.77-.44 23.92 2.71 34.08 7.92 10.16 5.21 15.2 11.87 19.84 22.16 4.65 10.28 5.92 19.44 17.16 25.84 11.24 6.4 5.84 19.1 2.99 31.15-2.84 12.05-16.7 2.71-26.74.6-10.05-2.11-21.36-6.73-30.08-11.92-8.71-5.2-14.79-15.49-24-19-9.2-3.52-15.79 11.29-18.24 20.26-2.45 8.97.1 26.12 4.76 35.22 4.66 9.09 9.1 19.03 15.48 27.52 6.38 8.48 10.63 16.51 16.06 25.95 5.42 9.43 8.88 19.87 11.02 30.97 2.14 11.1 2.59 29.05.67 40.33a124.8 124.8 0 0 1-9.93 32.07c-4.62 9.81-10.15 17.1-16.82 25.18-6.68 8.08-13.71 14.46-21 22-7.3 7.54-13.45 13.81-20 22-6.55 8.18-11.42 15.88-16.56 25.45-5.13 9.56-7.89 24.34-5.7 35.31 2.19 10.96 5.08 20.88 12.76 29.24 7.69 8.35 14.21 13.01 24.48 17.52S512.29 714 524 714Z"/>
  <path fill="#51565B" fill-opacity=".49" stroke="None" d="M186 250s.18.93 0 1c3.05-1.24 5.74-3.45 9-4-2.87-3.18-6.85 1.07-9 3Z"/>
  <path fill="#F9FAF8" stroke="None" d="M419 652c.89 6.39 4.14 15.22 7 21 3.98 8.04 4.17 6.53 9.7 15.3 5.52 8.78 16.52 19.24 25.22 24.78 8.7 5.54 9.44 4.66 17.4 7.6 7.96 2.94 12.13 3.36 20.01 4.99A55.6 55.6 0 0 0 521 726c8.2-1.49 11.51-.53 19.92-5.08 8.42-4.54 3.96-6.92-5.92-6.92-3.46.33-7.61.33-11 0-11.71 0-25.5-2.72-35.77-7.23-10.27-4.51-16.79-9.17-24.48-17.52-7.68-8.36-10.57-18.28-12.76-29.24-2.19-10.97.57-25.75 5.7-35.31 5.14-9.57 10.01-17.27 16.56-25.45 6.55-8.19 12.7-14.46 20-22 7.29-7.54 14.32-13.92 21-22 6.67-8.08 12.2-15.37 16.82-25.18A124.8 124.8 0 0 0 541 498c1.92-11.28 1.47-29.23-.67-40.33-2.14-11.1-5.6-21.54-11.02-30.97-5.43-9.44-9.68-17.47-16.06-25.95-6.38-8.49-10.82-18.43-15.48-27.52-4.66-9.1-7.21-26.25-4.76-35.22 2.45-8.97 9.04-23.78 18.24-20.26 9.21 3.51 15.29 13.8 24 19 8.72 5.19 20.03 9.81 30.08 11.92 10.04 2.11 23.9 11.45 26.74-.6 2.85-12.05 8.25-24.75-2.99-31.15-11.24-6.4-12.51-15.56-17.16-25.84-4.64-10.29-9.68-16.95-19.84-22.16-10.16-5.21-22.31-8.36-34.08-7.92-11.77.44-22.82 4.7-32.3 10.7-9.48 6-15.03 10.93-21.93 20.07s-9.66 19.17-10.99 31.01-.75 27.93 1.89 39.55c2.64 11.61 4.08 22.65 8.4 33.6 4.33 10.94 6.19 20.66 10.15 31.85 3.96 11.18 5.47 24.16 6.78 36.22 1.32 12.05.77 26.66-2.02 37.98-2.8 11.31-6.55 20.79-11.06 30.94-4.5 10.16-10.41 17.06-17.67 25.33-7.26 8.27-11.79 15.03-17.48 24.52-5.69 9.5-10.23 17.72-12.77 29.23-2.54 11.51.91 28.16 0 40m135-362c12.44 2.85 13.19 25.23-.07 22.07-13.26-3.15-14.45-25.39.07-22.07Z"/>
  <path fill="#272529" stroke="None" d="M554 290c-14.52-3.32-13.33 18.92-.07 22.07 13.26 3.16 12.51-19.22.07-22.07Z"/>
  <path fill="#969395" stroke="None" d="M613 335c.6-4.22.7-8.7 0-13 .23 4.27.16 8.73 0 13Z"/>
  <path fill="#928F91" stroke="None" d="M458 500c.32-3.32 2.36-8.56 0-12 1.25 2.67 0 9 0 12Z"/>
  <path fill="#878486" stroke="None" d="M302 585c1.38-5.59 1-12.65 1-19-.53 5.45-.25 12.93-1 19Z"/>
  <path fill="#060606" stroke="None" d="M426 673c-2.86-5.78-6.11-14.61-7-21-.61 7.98 2.25 16.2 7 21Z"/>
  <path fill="#8B888A" stroke="None" d="M535 714h-11c3.39.33 7.54.33 11 0Z"/>
  <path fill="#F9FAF8" stroke="None" d="M525 841c-3.08.3-7.25 1-11 1-30.75 0-65.22-2.44-95-4s-56.8-9.07-84.99-13.01c-28.19-3.93-54.58-10.78-81.33-16.67-26.75-5.89-50.61-18.48-77.68-20.32-4.27-.29-9.42-.65-13-1-19.98 0-46.43-10.85-65.77-2.77-19.34 8.08-30.43 15.92-39.98 34.02-9.54 18.11-12.85 40.48-13.23 60.73-.37 20.24 6.88 41.89 16.06 58.94 9.17 17.06 20 27.95 37.69 36.31 17.69 8.36 44.43 10.16 64.23 5.77 8.68-4.68 11.31-16.11 19.25-22.75 7.94-6.63 15.51-14.29 26.43-16.57 10.92-2.28 21.67-6.37 32.99-9.01 11.32-2.63 23.69-4.8 35.33-7.67 11.65-2.87 23.72-5.45 36.02-6.98 12.31-1.52 25.15-2.55 37.65-4.35 12.5-1.8 25.44-3.66 38.33-4.67 12.89-1.01 24.86-3.13 38.02-3.98 13.17-.85 26.36-2.99 39.98-3.02 13.62-.03 29.28-.3 43 0 13.72.3 28.47-.86 42 0 13.53.86 28.58.69 42 1 13.42.31 24.99 3.5 38.07 3.93 13.08.43 25.35 3.73 38 5 12.66 1.27 25.64 3.44 37.94 5.06 12.3 1.62 24.11 4.29 36.06 5.94 11.95 1.64 24.67 4.43 35.93 7.07 11.27 2.63 21.35 7.32 32.02 9.98 10.68 2.65 19.66 8.31 27.23 15.77 7.57 7.46 10.66 17.5 19.75 23.25 37.65 11.59 80.55 3.71 102.25-30.75 21.69-34.47 24.13-75.32 12.53-114.03-11.61-38.7-45.1-59.46-84.76-52.2-39.65 7.27-74.61 18.26-114 27-39.38 8.75-78.31 16.5-119.02 21.98-40.7 5.49-86.83 11-129 11M72 934c-3.25-5.2-5.54-10.24-8-16-7.48-17.54-6.18-45.42-3-64 3.17-18.58 8.48-35.59 23-48 23.89-20.41 56.33-15.08 75.75 8.25s32.77 53.01 28.27 82.77c-4.49 29.77-15.6 52.93-43.25 68.75S86.62 957.38 72 934m870-123c11.32 11.32 15.36 26.68 18 42 3.63 21.06 4.27 50.56-2.98 70.02-7.24 19.46-15.9 35.5-35.25 43.75s-45.39 2.05-60.02-12.52c-14.63-14.57-23.65-31.87-26.53-52.47-2.88-20.6 1.97-46.38 11.09-65.47 9.12-19.1 20.07-28.62 39.38-39.61 19.32-11 41.36-.65 56.31 14.3Z"/>
  <path fill="#A09D9F" stroke="None" d="M175 788c-3.8-.68-8.49-1-13-1 3.58.35 8.73.71 13 1Z"/>
  <path fill="#51565B" stroke="None" d="M84 806c6.81-1.11 16.16 4.56 24 4 7.85-.56 14.05 5.02 22.07 5.93 8.02.9 13.11 9.82 3.9 12.05-9.2 2.22-16.91 1.48-24.98 4.01-8.07 2.54-12 5.36-19.07 8.93-7.06 3.58-10.27 6.58-13.69 14.31S72.15 868.84 72 879c-.15 10.16.4 14.09 3.97 25.03 3.58 10.93 14.6 25.17 25.72 30.28 11.13 5.1 13.62 2.55 24.31 3.69 10.69 1.14 15.05-3.9 25-4-3.23 8.14-11.08 14.23-20.02 15.98-8.94 1.74-24.03 2.04-32.2-2.76C90.6 942.43 83.12 939.58 76 933c-1.48-.27-3.2-.28-4 1 14.62 23.38 45.12 47.59 72.77 31.77 27.65-15.82 38.76-38.98 43.25-68.75 4.5-29.76-8.85-59.44-28.27-82.77S107.89 785.59 84 806m48 44c11.55 2.07 26.98-1.08 29.92 13.08 2.95 14.15 6.75 24.23 3.15 37.99-3.6 13.77-20.2 9.06-30.07 12.93-11.57 10.09-27.73 6.7-35.25-6.75-7.53-13.44-10.96-27.33-3.98-42.48 6.98-15.15 21.11-17.48 36.23-14.77Zm828 3c-.05.34-3.12 4.53-1.07 9.07 2.05 4.55-.97 9.71.07 14.93 1.04 5.22-.7 7.67 0 14s-.44 6.15-.98 14.02c-.53 7.88-4.48 13.59-9.32 19.68-4.85 6.08-7.78 9.14-13.45 15.55-5.67 6.41-8.81 9.31-18.92 11.08-10.12 1.77-26.41-1.01-35.02-6.63-8.62-5.63-9.56-8.07-14.31-15.7 9.25.75 15.46 7.65 25 8 9.54.35 21.78.09 30.07-3.93 8.3-4.01 12.6-8.61 18.23-15.77 5.64-7.15 8.42-15.07 9.7-24.3 1.28-9.24 1.54-22.07-.93-31.07s-7.26-13.77-14.32-19.68c-7.06-5.91-14.55-7.32-22.77-11.23-8.23-3.9-23.27 1.63-31-3-7.74-4.63 6.35-13.04 12.72-15.32 6.36-2.29 19.02-4.29 26.52-7.48 7.5-3.18 16.31 1.94 21.78 5.78-14.95-14.95-36.99-25.3-56.31-14.3-19.31 10.99-30.26 20.51-39.38 39.61-9.12 19.09-13.97 44.87-11.09 65.47 2.88 20.6 11.9 37.9 26.53 52.47s40.67 20.77 60.02 12.52 28.01-24.29 35.25-43.75c7.25-19.46 6.61-48.96 2.98-70.02m-75-1c8.33-.62 18.87-6.9 27.22-1.22 8.36 5.67 14.71 7.49 17.71 17.29a46.9 46.9 0 0 1-.91 29.95c-3.54 9.31-7.95 13.5-16.71 18.29-8.77 4.78-18.58-1.38-26.31-5.31-1.38-.7-2.24-2.28-4-2-.92 2.77 2.19 3.9 3 6-9.39.54-19.1-.26-24.92-8.08s-6.96-16.57-5.75-26.59 3.34-15.82 7.44-25.56c4.11-9.73 14.79-5.4 23.23-2.77Z"/>
  <path fill="#958F91" stroke="None" d="M960 853c-2.64-15.32-6.68-30.68-18-42-5.47-3.84-14.28-8.96-21.78-5.78-7.5 3.19-20.16 5.19-26.52 7.48-6.37 2.28-20.46 10.69-12.72 15.32 7.73 4.63 22.77-.9 31 3 8.22 3.91 15.71 5.32 22.77 11.23 7.06 5.91 11.85 10.68 14.32 19.68 2.47 9 2.21 21.83.93 31.07-1.28 9.23-4.06 17.15-9.7 24.3-5.63 7.16-9.93 11.76-18.23 15.77-8.29 4.02-20.53 4.28-30.07 3.93-9.54-.35-15.75-7.25-25-8 4.75 7.63 5.69 10.07 14.31 15.7 8.61 5.62 24.9 8.4 35.02 6.63 10.11-1.77 13.25-4.67 18.92-11.08 5.67-6.41 8.6-9.47 13.45-15.55 4.84-6.09 8.79-11.8 9.32-19.68.54-7.87 1.68-7.69.98-14.02-.7-6.33 1.04-8.78 0-14-1.04-5.22 1.98-10.38-.07-14.93-2.05-4.54 1.02-8.73 1.07-9.07ZM64 918c-.14-1.52-.56-4.26 1-5 3.96 6.39 5.29 14.69 11 20 7.12 6.58 14.6 9.43 22.78 14.22 8.17 4.8 23.26 4.5 32.2 2.76 8.94-1.75 16.79-7.84 20.02-15.98-9.95.1-14.31 5.14-25 4-10.69-1.14-13.18 1.41-24.31-3.69-11.12-5.11-22.14-19.35-25.72-30.28C72.4 893.09 71.85 889.16 72 879c.15-10.16.81-16.04 4.23-23.77 3.42-7.73 6.63-10.73 13.69-14.31 7.07-3.57 11-6.39 19.07-8.93 8.07-2.53 15.78-1.79 24.98-4.01 9.21-2.23 4.12-11.15-3.9-12.05-8.02-.91-14.22-6.49-22.07-5.93-7.84.56-17.19-5.11-24-4-14.52 12.41-19.83 29.42-23 48-3.18 18.58-4.48 46.46 3 64Z"/>
  <path fill="#918E90" stroke="None" d="M514 842c3.75 0 7.92-.7 11-1-3.75 0-7.92.7-11 1Z"/>
  <path fill="#F7F8F6" stroke="None" d="M135 914c17.65-15.39 18.26-51.51-3-64-15.12-2.71-29.25-.38-36.23 14.77-6.98 15.15-3.55 29.04 3.98 42.48 7.52 13.45 23.68 16.84 35.25 6.75m-20-45c14.08.33 17.61 27.81 2.93 29.93-14.68 2.11-16.34-30.24-2.93-29.93Z"/>
  <path fill="#969092" stroke="None" d="M886 911c-6.81-6.81-9.96-19.7-9-29 .96-9.3.19-23.52 8-30-8.44-2.63-19.12-6.96-23.23 2.77-4.1 9.74-6.23 15.54-7.44 25.56s-.07 18.77 5.75 26.59 15.53 8.62 24.92 8.08c-.81-2.1-3.92-3.23-3-6 1.76-.28 2.62 1.3 4 2Z"/>
  <path fill="#F7F8F6" stroke="None" d="M885 852c-7.81 6.48-7.04 20.7-8 30s2.19 22.19 9 29c7.73 3.93 17.54 10.09 26.31 5.31 8.76-4.79 13.17-8.98 16.71-18.29a46.9 46.9 0 0 0 .91-29.95c-3-9.8-9.35-11.62-17.71-17.29-8.35-5.68-18.89.6-27.22 1.22m23 17c14.25 1.69 13.14 28.78-2.01 28.99-15.15.22-13.03-30.77 2.01-28.99Z"/>
  <path fill="#C4C2C4" stroke="None" d="M135 914c9.87-3.87 26.47.84 30.07-12.93 3.6-13.76-.2-23.84-3.15-37.99-2.94-14.16-18.37-11.01-29.92-13.08 21.26 12.49 20.65 48.61 3 64Z"/>
  <path fill="#51565B" stroke="None" d="M115 869c-13.41-.31-11.75 32.04 2.93 29.93 14.68-2.12 11.15-29.6-2.93-29.93Zm793 0c-15.04-1.78-17.16 29.21-2.01 28.99 15.15-.21 16.26-27.3 2.01-28.99Z"/>
  <path fill="#C3C1C1" stroke="None" d="M161 980c44.98-9.97 84.32-23.83 130.93-30.07 46.61-6.25 92.73-15.42 141.07-18.93 48.34-3.51 104.51-5 153-2 48.49 3 95.96 9.1 141.78 18.22 45.81 9.12 85.24 17.24 129.22 30.78-9.09-5.75-12.18-15.79-19.75-23.25-7.57-7.46-16.55-13.12-27.23-15.77-10.67-2.66-20.75-7.35-32.02-9.98-11.26-2.64-23.98-5.43-35.93-7.07-11.95-1.65-23.76-4.32-36.06-5.94s-25.28-3.79-37.94-5.06c-12.65-1.27-24.92-4.57-38-5-13.08-.43-24.65-3.62-38.07-3.93-13.42-.31-28.47-.14-42-1-13.53-.86-28.28.3-42 0-13.72-.3-29.38-.03-43 0-13.62.03-26.81 2.17-39.98 3.02-13.16.85-25.13 2.97-38.02 3.98-12.89 1.01-25.83 2.87-38.33 4.67-12.5 1.8-25.34 2.83-37.65 4.35-12.3 1.53-24.37 4.11-36.02 6.98-11.64 2.87-24.01 5.04-35.33 7.67-11.32 2.64-22.07 6.73-32.99 9.01-10.92 2.28-18.49 9.94-26.43 16.57-7.94 6.64-10.57 18.07-19.25 22.75Z"/>
  <path fill="#5D5A5B" stroke="None" d="M64 918c2.46 5.76 4.75 10.8 8 16 .8-1.28 2.52-1.27 4-1-5.71-5.31-7.04-13.61-11-20-1.56.74-1.14 3.48-1 5Z"/>
</svg>