<svg xmlns="http://www.w3.org/2000/svg" width="1024" height="1024">
  <path fill="#20292C" d="m657.85 211.27.7-.14c4.77-1.04 8.85-3.7 13.67-4.53 14.06-2.4 28.15-3.48 42.35-4.56 7.89-.6 15.75-1.8 23.64-2.28 9.41-.56 19.02-.2 28.45-.24 6.7-.03 13.94-.68 20.52.44q1.56.26 3.04.83 1.47.58 2.8 1.43c2.48 1.6 4.52 3.94 5 6.94.7 4.55-.81 9.75-3.69 13.3-6.1 7.52-21.2 8.81-30.08 9.56-9.5.8-18.53.04-27.99-.27-6.85-.23-13.81.04-20.67.26-11.18.35-22.36 2.74-33.51 3.85-4.08.4-8.66-2.94-12.38-.82l-.59.93c.5 1.59 2.05 2.47 3.44 3.23 3.99 2.16 8.57 3.5 12.73 5.38q16.31 7.52 32.7 14.86 13.43 6.24 26.74 12.71c5.2 2.5 11.16 6.01 16.79 7.3l.58-.33c.84-.46.5-.29 1.4-.66 1.35 1.03 2.37 2.64 3.84 3.44 7.83 4.27 15.24 3.34 16.75 15.11a12.6 12.6 0 0 1-2.59 9.51c-2.72 3.29-6.85 4.66-10.99 4.93-4.51.29-8.2-.58-12.44-2.03-10.42-3.56-20.77-9.51-30.8-14.16q-22.18-10.1-44.74-19.37c-4-1.67-12.4-6.01-16.4-6.57-.7-.1-1.4.38-2.05.64-.38-.9-.29-.38-.06-1.58-4.44-2.57-15.85-3.6-18.28-8.05q1.94-1.2 3.78-2.56c10.13-7.6 16.95-22.02 12.78-34.48-1.14-3.38-6.03-8.32-5.55-11.46l1.1-.56ZM323.26 53.87c29.34 4.67 59.05 26.69 89.3 13.62.51-1.05.46-1.22 1.48-1.9q.64.58 1.26 1.18c5.67-3.37 13.17-6.43 17.62-11.2 2.22-2.39 9.61-3.33 9.57-6.73 0-.24-.03-.47-.04-.7 1.13-.34 1.37.32 2.24.2 2.25-.33 6.57-4.28 7.71-6.09l.56-.85.36-.59.4.58c.58.78.3.52 1.14.95.8-.77 1.1-1.59 1.56-2.6 1.62-.1 2.23.07 3.53-.96l.1-.7c.15-.99.07-.6.3-1.5l1.93.97.7-.34c.1-1.16-.11-2.48.78-3.26l.09.5c.17.85.12.56.5 1.56l1.02-.17c.16-.7.28-1.4.37-2.13 2.67-.72 4.55-.4 6.15-3.1.64.09 1.57.9 1.63.9.6.04 11.67-3.67 13.7-4.1 18.15-3.8 29.3-3.77 47.38.18 9.16 2 18.4 6.27 26.5 10.96 4.14 2.38 19.14 13.3 22.07 13.82.46.08.9.22 1.35.34.24.6.34 1.29.72 1.81 1.93 2.65 17.87 11.15 21.28 12.61 11.58 4.99 25 5.31 37.25 2.95 22.05-4.25 58.46-26.57 80.22-12.76 2.84 1.8 6.22 4.83 7.46 8.04 2.36 6.09-.17 15.48-2.95 21.15-6.08 12.43-30.28 36.25-40.68 47.24-3.2 3.4-6.09 7.07-9.3 10.45-10.33 10.83-21.08 21.35-31.69 31.91-5.75 5.73-11.36 11.8-17.5 17.11q-42.71-2.31-85.46-1.11c-6.01.17-12 .81-18.02 1.08-7.84.35-15.73.28-23.58.28-31.5 0-63.08-.88-94.58-.11-5.01.12-11.61-.68-16.4.68-.97-1.02-7.02-7.41-8.09-7.35-.61.03-.7.62-1.68.6.05-.74.12-1.45.2-2.18a950.32 950.32 0 0 1-33.86-33.23c-1.25-1.28-7.54-8.9-8.03-9.14-.55-.26-1.18-.27-1.76-.4-6.7-9.63-15.02-18.13-22.82-26.86-9.86-11.04-23.9-23.83-25.34-39.5-.45-4.93.55-10.02 3.86-13.83 6.56-7.56 16.08-8.32 25.51-8.85l3.99.57Z"/>
  <path fill="#696B6D" d="M417.86 141.55c1.44-.17 2.96-.4 4.4-.11 6.97 1.39 20.61 16.38 24.2 22.49 1.5 2.55 2.4 5.6 1.57 8.54-.78 2.8-2.92 4.07-5.3 5.44-1.45.33-3.13.6-4.61.33-5.54-1.04-20.54-17.28-24.04-22.4-1.55-2.27-2.25-4.75-1.68-7.49.68-3.28 2.76-5.08 5.46-6.8ZM601.77 139.57c1.48-.08 2.9-.1 4.35.29a9.78 9.78 0 0 1 6.1 4.78c1.2 2.35 1.05 4.94.13 7.35-.7 1.86-23.7 24.99-26.24 26.2-2.83-.18-5.96-.3-8.55-1.58a6.75 6.75 0 0 1-3.6-3.99c-.81-2.75.33-5.75 1.56-8.2 5.06-10.07 15.44-21.15 26.25-24.84ZM510.69 114.62l.4-.03c4.68-.2 8.74 1.14 12.11 4.45 5.45 5.35 8.71 14.79 8.67 22.36-.04 7.76-2.3 19.72-8.08 25.23-2.67 2.54-4.88 3.1-8.5 3.07-4.23-.73-9.37-.85-13.07-3.2-4.77-3.05-7.03-9.43-8.04-14.75-1.77-9.32-2.26-21.8 3.56-29.87 3.38-4.67 7.43-6.5 12.94-7.26Z"/>
  <path fill="#20292C" d="M391.3 194.04c4.78-1.36 11.38-.56 16.39-.68 31.5-.77 63.08.11 94.58.1 7.85 0 15.74.08 23.58-.27 6.01-.27 12-.9 18.02-1.08q42.75-1.2 85.46 1.11c12.11 2.96 18.13 2.9 25.08 14.42.87 1.44 1.28 2.98 2.97 3.54.15.05.3.06.47.09l-1.11.56c-.48 3.14 4.41 8.08 5.55 11.46 4.17 12.46-2.65 26.88-12.78 34.48q-1.84 1.35-3.78 2.56c-.75.47-1.2.86-1.86 1.43-3.32 2.86-10.38 4.02-11.96 5.59l2.25 2.04c-.05 1.31-1.15 2.66-1.82 3.78 2.21 3.3 3.67 4.83 7.1 6.8.51.9.88 1.75 1.23 2.72.98.3 1.05.31 1.99.1.05.68.06 1.26.02 1.94 1.03.88 1.89.89 3.18 1.07 2.72 2.52 4.78 5.97 7.47 8.66 4.49 4.5 9.35 8.5 14.01 12.79 3.93 3.61 7.59 7.51 11.48 11.17 3.55 3.33 7.46 6.27 11.05 9.57 4.17 3.83 7.92 8.14 12.08 12.02 11.43 10.7 23.23 21.16 34.25 32.26q12.74 12.63 24.72 25.96 11.99 13.34 23.18 27.35 11.2 14.01 21.56 28.64 10.36 14.64 19.86 29.84c2.57 4.12 5.27 8.2 7.59 12.46 1 1.84 1.79 4.56 2.98 6.17.35.46 1.76.7 2.07 1.17.36.55.37 1.37.48 2 1.1 6.7 6.73 13.73 9.8 19.89a407.38 407.38 0 0 1 10.33 22.36c2.37 5.58 4.22 11.48 6.23 17.2 4.8 13.64 9.29 27.65 12.2 41.83 2.74 13.28 4.29 27 5.82 40.47.39-1.86.68-3.82 1.3-5.62.17 4.92-.94 9.52-.92 14.45.07 19.7.33 38.88-2.31 58.47-6.6 48.96-27.33 94.53-56 134.43-6.69 9.3-13.7 18.72-21.52 27.12q-7.47 8.11-15.4 15.77-7.95 7.67-16.32 14.86-8.37 7.18-17.15 13.87-8.78 6.68-17.93 12.84c-7.2 4.77-14.81 8.87-22.37 13.04q-8.3 4.61-16.8 8.84-8.51 4.22-17.2 8.05-8.69 3.83-17.55 7.25-8.85 3.43-17.86 6.44-9 3.01-18.14 5.6-9.13 2.6-18.38 4.77-9.24 2.17-18.58 3.9-9.33 1.75-18.74 3.06l-20.08 2.56c-4.12.56-8.14 1.5-12.32 1.62-15.76.46-31.24.37-47-.06-3.77-.1-7.59.2-11.35-.06-4.7-.33-9.38-1.28-14.06-1.84-15.63-1.85-31.34-3.89-46.65-7.64-15.31-3.75-31-7.68-46-12.54-3.85-1.25-18.7-7.34-21.04-7.13l.08-1.26c-1.44-1.5-7.11-3.12-9.21-3.1-.33 0-.65.02-.98.03l-.04-1.35a43.08 43.08 0 0 0-11.83-4.39c-.68-.15-.4-.03-.94-.44-.3-1.28-.37-1.35-1.57-2.06a4.94 4.94 0 0 0-3.61-.8l-.4 1.15-1.25.14.76.38c-.04-1.4.02-2.21-.81-3.4h-.91q-.65.9-1.29 1.83V954c-.92-.8-.86-.83-2.07-.79l-.83 1.56c-.15-1.33.08-2.44-1-3.3l-.99.17-.66 1.35-.31.1c-.12-.74-.18-1.4-.17-2.15-.47-.04-1.95-.01-2.28-.2-2.04-1.18-4.06-5.13-6.65-4.57l-.84 1.18c-.75-.97-.83-1.74-1.05-2.91-6.26-3.86-12.85-7.07-19.04-11.11q-8.24-5.48-16.16-11.4-7.93-5.9-15.52-12.25-7.59-6.34-14.82-13.1-7.23-6.74-14.08-13.88c-3.86-4.08-7.28-8.6-11-12.83-4.24-4.8-14.91-17.01-17.3-21.8-1.55-3.09-3.82-6-5.72-8.9-4.2-6.36-8.62-12.88-12.43-19.47a207 207 0 0 1-8.74-17.21c-1.36-2.94-2.51-6.18-4.13-8.98-1.24-2.97-2.43-5.92-4.05-8.71-2.12-5.76-4.68-11.37-6.63-17.2-6.3-18.87-9.82-37.8-12.99-57.38-.52-3.22-2.44-5.83-2.53-9.15l.97-.49-.25.22c1.42-2.17-.66-17.35-.82-21.1-.49-11.41.32-22.75 1.25-34.1q.67-7.65 1.68-15.26 1.02-7.61 2.38-15.16 1.37-7.56 3.08-15.04 1.72-7.48 3.78-14.87 2.06-7.4 4.46-14.69 2.4-7.29 5.13-14.46 2.74-7.17 5.8-14.21 3.06-7.04 6.45-13.93c2.55-5.2 5.5-10.2 8.2-15.32 1.78-3.39 2.84-7.12 4.7-10.44 2.07-3.72 4.56-7.23 6.75-10.88 20.76-34.57 45-65.58 72.12-95.4 6.33-6.96 13.1-13.48 19.7-20.16q17.69-18.12 35.92-35.7c4.61-4.46 9.81-8.3 14.25-12.94 2.44-2.56 1.57-4.03 2.73-5.3 1.29-.06 2.72.09 3.75-.8-.03-.84-.06-1.2.26-2.02l2.05-.1c3.3-2.83 6.33-5.96 9.6-8.8 2.97-2.59 7.04-5.06 9.52-8.06 1.2-1.45 1.5-3.48 2.64-4.89.86-1.06 2.37-1.2 3.63-1.47l.6-.12c1.23-1.27.91-1.95.95-3.67l.69-.57c.53.43.45 1.31.55 1.98 4.4-3.58 7.86-6.47 11.1-11.23l.27.23c2.77-.95 6.47-7.9 8.21-10.44l-.3-.7-.58-2.92c-2.22-2.36-14.06-2.81-19.78-6.34a34.05 34.05 0 0 1-14.98-21.11c-2.17-9.52 1.05-20.04 6.13-28.13 5.81-9.25 16.97-15.69 27.53-18.06l2.52-.6Z"/>
  <path fill="#696B6D" d="M460.93 271.05c2.02.03 4.04.06 6.06.18l-.9 5.8c-1.47-2.23-3.32-4.06-5.16-5.98Z"/>
  <path fill="#010102" d="M399.66 722.1c5.6-1.66 18.5-6.66 23.79-3.8.71.38.73.79 1.06 1.48-.72 3.5-3.78 6.9-5.22 10.29l-.18-.45c-.34-1.1-.07-1.8.53-2.76.15-.24.3-.46.46-.68-1.91.23-4.25 1.02-6.15.71-1.4-.23-2.96 0-3.9-1.05l.53-.47c3.17.2 8.35.55 10.95-1.48l-.02-.6c-2.45.05-5.41-.64-7.44-2.04-4.75-3.26-9.68 2.7-14.4.86Z"/>
  <path fill="#696B6D" d="M557.38 269.42c5.25.7 10.5.19 15.78.07a17.53 17.53 0 0 1 4.04 4.35c3.32 5.61 4.96 12.48 7.89 18.38 8.77 17.67 18.73 35.5 30.08 51.67 6.77 9.64 14.43 19.3 23.48 26.86 6.37 5.33 14.53 9.72 19.73 16.2 2.9 3.6 2.6 6.97 2.05 11.3-3.55 4.06-6.65 6.01-11.75 7.6q-1.6-.4-3.17-.93c-8.92-3.05-23.65-13.1-30.83-19.45-3.52-3.1-6.35-7.04-9.49-10.52-5.12-5.69-10.6-10.9-15-17.2-6.13-8.76-11.25-18.82-15.75-28.52-4.72-10.18-9.59-20.63-12.74-31.44-1.1-3.78-1.51-7.74-2.6-11.52-.94-3.26-2.86-6.62-3.07-10.03-.15-2.4.54-4.6 1.35-6.82ZM446.05 271.13c4.99-.46 9.93-1.16 14.88-.08 1.84 1.92 3.69 3.75 5.16 5.97-1.53 11.19-5.6 30.45-9.62 40.6-3.88 9.74-9.37 19.15-14.36 28.38-9.18 17-21.34 30.22-35.46 43.18-3.78 3.47-7.74 7.37-12 10.23-2.6 1.74-5.46 3.08-8.19 4.61-2.76 1.56-5.27 3.65-8.37 4.5-3.38.91-6.78.5-9.8-1.26-3.27-1.9-6.54-5.16-7.41-8.95-1.92-8.34 11.36-19.1 16.96-23.85 21.47-18.21 42.52-44.53 53.99-70.34 4.5-10.13 8.54-23.8 14.22-33Z"/>
  <path fill="#FEFEFD" d="M397.67 485.64c2-.01 4.24-.25 5.64 1.49 4.2 5.2.12 22.53-.2 29.3-1.32 27.73 4.9 56.55 22.04 78.79 3.78 4.9 8.55 8.98 12.69 13.57 7.37 8.19 15.8 22.6 15.22 33.98-.7 1.22-.84 1.64-2.23 2.15-10.83 3.96-28.09-15.8-35.31-21.87-4.1-3.43-8.53-6.56-13.55-8.48-13.86-5.3-26.13-.72-36.73 8.63-3.34 2.95-6.85 6.87-11.04 8.57-1.72.7-3.6.96-5.32.12-3.05-1.47-5.43-11.35-6.85-14.69-3.54-8.3-7.8-15.52-16.45-19.35-17.01-7.53-32.98 4.32-43.76 16.79-2.56 2.96-6.46 10.35-10.25 11.22-1.3.3-1.62.02-2.72-.6a8.68 8.68 0 0 1-1.64-4.28c-1.9-13.36 19.33-50.45 27.6-61.67 5.26-7.13 11.24-14.58 17.55-20.76 18.18-17.8 60.43-49.22 85.3-52.91ZM391.3 194.04c4.78-1.36 11.38-.56 16.39-.68 31.5-.77 63.08.11 94.58.1 7.85 0 15.74.08 23.58-.27 6.01-.27 12-.9 18.02-1.08q42.75-1.2 85.46 1.11c12.11 2.96 18.13 2.9 25.08 14.42.87 1.44 1.28 2.98 2.97 3.54.15.05.3.06.47.09l-1.11.56c-.48 3.14 4.41 8.08 5.55 11.46 4.17 12.46-2.65 26.88-12.78 34.48q-1.84 1.35-3.78 2.56c-.75.47-1.2.86-1.86 1.43-3.32 2.86-10.38 4.02-11.96 5.59l2.25 2.04c-.05 1.31-1.15 2.66-1.82 3.78l-.06.42c-1.73-.67-3.94-3.69-5.29-5.09-6.61-.16-13.28.43-19.9.5-11.3.13-22.63-.07-33.93.49-5.27.12-10.53.63-15.78-.07-12.18-.73-24.51-.32-36.71-.32l-65.35.17c-12.65.05-25.43.19-38.07-.22-7.4-.23-14.81-1.1-22.22-1.02-1.42 1.1-2.9 2.48-4.58 3.16l-.57-2.92c-2.22-2.36-14.06-2.81-19.78-6.34a34.05 34.05 0 0 1-14.98-21.11c-2.17-9.52 1.05-20.04 6.13-28.13 5.81-9.25 16.97-15.69 27.53-18.06l2.52-.6Z"/>
  <path fill="#20292C" d="M392.5 215.6c12.95-.75 26.15-.2 39.12-.17l63.7.05 87.63-.08c12.9-.01 25.87-.3 38.76-.01 2.51.05 7.15-.02 9.42.97 4 1.74 8.14 7.15 9.57 11.19 1.17 3.3 1.14 6.8-.5 9.93-2.5 4.75-7.18 7.39-12.14 8.86-10.2 2.19-21.79 1.15-32.2 1.12l-48.2-.06-94.31.02c-17.2.03-34.52.58-51.7.03-4.04-.13-8.32-.39-12.18-1.67-3.7-1.24-6.93-3.48-8.62-7.1a15.38 15.38 0 0 1-.4-11.55c1.9-5.17 7.11-9.37 12.05-11.54Z"/>
  <path fill="#FEFEFD" d="M468.47 409.62c1.44-1.54 2.96-3.55 5.21-3.79.96-.1 1.61.2 2.46.57 4.92 5.15 8.03 12.24 12.37 17.93 5.67 7.45 32.33 32.79 40.26 35.94 8.63 3.42 19.61 2.63 29.11 6.2 2.42 5.8 4.4 17.48 10.48 20.14 6.71 2.94 16.53-.87 23.46-1.34 1.8 10.64 2.77 22.68 1.8 33.48-15.3-2.9-23.88-9.06-40.74-9.63-2.37-.08-5.4-.33-7.43 1.1-.6.44-.99 1.2-1.14 1.92-.27 1.26.37 2.52 1.16 3.45 6.82 8 25.38 10.68 31.54 19.56 1.17 1.68 1.7 3.8 2.18 5.76-.94 1.6-1.84 3.25-2.96 4.74-19.15-.07-35.51-13.2-55.23-15-4.58 3.35-22.5 26.12-25.72 32.07q-1.58 2.98-2.67 6.18-1.1 3.2-1.66 6.54c-1.44 9.03 1.92 17.33 7.25 24.46 7.12 9.53 18.28 15.07 29.92 16.68 16.39 2.27 38.08-2.46 51.3-12.56 9.3-7.1 16.4-16.65 23.8-25.6 1.87-2.28 4.15-4.44 5.74-6.92 2.35-3.65 3.76-8.28 5.37-12.31 4.08-10.25 8.12-18.74 9.5-29.91.89-7.08.8-14.46.09-21.55-.45-4.5-1.56-9.59-1.11-14.1.13-1.39.62-1.94 1.7-2.78 1.3-1.01 3.23-1.65 4.74-2.28 48.02 18.84 81.77 39.75 109.14 85.07 4.47 7.4 9.18 14.84 12.64 22.78 2.44 5.61 10.7 24.87 8.17 30.45-.39.86-.74 1.03-1.45 1.6-1.88.13-2.93-.63-4.3-1.87-4.72-4.29-7.98-10-11.91-14.97-7.27-9.18-18.55-16.5-30.62-16.3-8 .13-15.7 5.46-20.96 11.22q-1.73 1.92-3.16 4.09-1.43 2.16-2.52 4.5c-2.11 4.45-5.75 18.46-11.2 19.29-3.77-3.08-6.79-7.09-10.15-10.6-8.78-9.17-19.43-15.55-32.47-14.13-10.29 1.1-18.87 6.17-25.26 14.24-.3.38-.58.78-.86 1.17 8.33 10.67 34.21 9.85 39.55 15.03.92.9.95 1.43.99 2.6-1.5 3.91-.4 8.42-2.9 11.92.5 2.28 1.28 5.18 3.36 6.58 3.43 2.3 8.38 3.44 12.2 5.06 6.35 2.68 19.29 10.17 20.97 17.4q.1.45.13.9.03.46-.03.9-.06.46-.2.9-.14.43-.35.83c-.56 1.04-1.11 1.25-2.22 1.43-6.04.99-13.3-1.76-19.47-2 .02 8.26.4 18.85 6.78 25 2.77 2.68 6.23 4.62 9.1 7.2 6.05 5.44 11.42 15.2 11.8 23.42.08 1.83 0 3.67-.1 5.5-3.55 1.39-6.54 2.33-10.23.84-5.42-2.18-9-7.04-14.73-9.2-3.11 8.2-4.55 17.27-6.32 25.83 6.34 6.96 11.26 17.27 10.7 26.89-.25 4.07-2.01 7.77-5.16 10.38q-1.72 1.4-3.54 2.68c-8.58-3.52-11.7-11.15-15.95-18.77-4.6 8.2-11.14 16-14.58 24.69 4.23 4.18 6.67 7.97 6.7 14.18a28.59 28.59 0 0 1-8.62 20.16 25.28 25.28 0 0 1-7.54 4.9l-.49-.5c-4.8-5.21-5.27-10.26-4.96-17.05.14-3.16.89-7.15.09-10.17-.9.67-.49.2-1 1.35-1.28 2.89-6.07 5.5-8.66 7.44-13.09 9.78-25.68 18.88-41.23 24.49-26.43 9.54-58.3 14.96-86.17 9.87-7.75-1.41-15.27-4.26-22.8-6.57-8.43-2.6-16.93-4.88-24.94-8.65-22.9-10.78-44.65-27.41-59.81-47.71-4.17-5.6-7.76-11.7-11.37-17.67-4.76-7.87-9.27-15.28-12.38-24-4.37-12.24-8.05-25.03-14.71-36.28-1.53 15.6-5.86 18.54-16.97 28.34-4.36-15.69-4.96-31.9-7.19-47.96-1.55-11.21-4.24-22.2-6.5-33.28 6.71 1.18 13.12 5.81 19.07 9.01 14 7.53 36.4 17.8 45.58 31 2 2.87 7.9 11.92 7.28 15.22-.16.85-.66 1.1-1.25 1.67-2.5-.02-5.1-1.08-7.52-1.72-6.17-1.62-11.58-2.74-18.01-2.56 4.04 11.74 12.58 22.3 19.74 32.32 4.88 6.84 9.4 13.99 14.41 20.71 14.34 19.2 32.22 35.13 53.82 45.68 31.49 15.37 72.4 17.95 105.48 6.45 15.18-5.27 31.15-14.38 41.02-27.42 4.2-5.56 7.75-12.38 10.78-18.65 6.48-13.4 8.4-29.83 3.73-44.19a192.7 192.7 0 0 1-20.4-1.75c-6.16 10.03-8.4 24.41-7.54 36.04.4 5.42 1.47 10.82 1.7 16.25-21.42 2.75-51.97 1.67-70.66 12.21-8.09 4.56-14.28 11.57-22.2 16.17a26.31 26.31 0 0 1-6.57-5.32c-.02-9.87 3.54-15.54 10.26-22.28 1.54-1.54 3.15-3.02 4.6-4.62l-.32-.56c-2.53-4.25-6.1-7.67-11.04-8.79-9.6-2.16-14.27 4.7-20.2 4.59-1.24-.02-1.42-.62-2.03-1.52-.44-4.28 1.38-10.1 4.08-13.48 3.29-4.1 8.12-5.4 13.14-5.85 11.29-1.01 19.82 3.67 29.66 8.4 2.8 1.34 5.9 2.9 9.02 3.3 9.26 1.17 27.3-2.73 37.22-4.03.05-12.6-4.68-26.98-.57-39.17 1.12-3.31 2.94-6.44 4.5-9.57 1.29-2.6 2.92-5.31.6-7.8-5.56-6-22.9-11.63-30.77-16.11q-3.92 10.36-6.04 21.24c-1.2 6.47-1.73 13.24-3.8 19.5-19.31-2.21-36.03-12.08-54.88-15.65-8.62 9.2-17.25 18.73-29.9 21.96.38-4.16 1.56-8.55 1.7-12.63 1.45-3.39 4.51-6.78 5.23-10.28-.33-.7-.35-1.1-1.06-1.49-5.3-2.85-18.2 2.15-23.79 3.82-2.26-.02-4.75.28-6.69-1.1a4.93 4.93 0 0 1-2.16-3.61c-.54-3.56 1.59-8.11 3.8-10.77 5.76-6.91 16.16-6.27 24.44-6.95-8.15-22.02-22.76-13.97-28.06-20.17-.67-.79-.76-1.43-.76-2.41 0-2.35 1-4.28 2.71-5.86 3.85-3.56 10.31-4.6 15.38-4.43 3.34.12 6 1.19 8.98 2.6 12.5 5.95 14.82 14.36 23.6 23.25 7.1 7.17 19.6 8.76 29.01 10.83 2.85.63 6.41 1.95 9.28 1.85 1.6-.06 1.97-2.36 2.2-3.6 2.01-11.25 1.15-22.93 9.3-32.13l.47-.53c-3.59-5.68-8.23-10.37-12.44-15.54-8.94-10.96-15.7-24.12-18.15-38.1-3.02-17.28-7.19-39.92.72-56.44 2.84-5.95 9.37-13.87 13.92-18.68 2.63-2.77 14.4-14 15.64-16.14 1-1.71.76-2.86.25-4.64-3.59.97-7.9 1.28-11.62 1.21-7.12 5.4-17.69 11.41-26.97 10.36-1.42-.16-2.8-.53-3.75-1.66a3.54 3.54 0 0 1-.67-2.74c.82-5.49 10.43-14.03 14.72-17.53.67-.54 1.32-1.13 1.97-1.7l-.53-.37c-5.94-4.15-22.81-7.29-24.44-15.09-.18-.9-.2-1.24.12-2.12 8.4-3.46 41.2 2.37 45.37-4.61-.56-2-2.07-2.82-3.82-3.79-4.32-2.38-9.14-3.86-13.55-6.1-15.47-7.87-33.83-21.66-38.92-39.03a38.7 38.7 0 0 1-1.35-8.87c1.67-2.14 3.23-4.63 5.96-5.42 3.88.88 12.37 15.28 15.83 18.91 9.19 9.65 32.7 22.46 46.3 24.12 1.92.23 4.56.65 6.33-.3.17-.1.31-.23.47-.35.16-1.32-.1-1.79-.96-2.82-2.94-3.56-7.64-6.18-11.16-9.22-13-11.24-22.74-25.05-21.96-42.8Z"/>
  <path fill="#010102" d="M479.48 520.75c1.93-1.62 3.56-2.62 6.11-2.87a6.73 6.73 0 0 1 5.5 1.66c-3.58.97-7.9 1.28-11.61 1.21Z"/>
  <path fill="#696B6D" d="M644.88 642.73c-1.5 3.92-.4 8.43-2.9 11.93-.45-2.52-1.93-6.9-.96-9.2.68-1.62 2.4-2.03 3.86-2.73Z"/>
  <path fill="#010102" d="M535.37 479.03c5.66-.32 11.25.76 15.62 4.66 1.32 1.18 2.58 2.93 2.43 4.79-.15 1.94-1.32 3.57-2.67 4.87-2.87.1-5.93.33-8.77-.17-3.2-.56-6.49-2.94-8.28-5.6-1.07-1.6-1.64-3.44-1.14-5.35.44-1.68 1.44-2.33 2.8-3.2Z"/>
</svg>